<svg width="16" height="19" viewBox="0 0 16 19" fill="none" xmlns="http://www.w3.org/2000/svg">
    <path fill-rule="evenodd" clip-rule="evenodd" d="M14.7105 16.1826C14.7105 16.9929 14.0284 17.6559 13.1947 17.6559H2.58415C1.75046 17.6559 1.06836 16.9929 1.06836 16.1826V8.81613C1.06836 8.00582 1.75046 7.34283 2.58415 7.34283H13.1947C14.0284 7.34283 14.7105 8.00582 14.7105 8.81613V16.1826Z" stroke="#979797" stroke-width="1.5" stroke-linecap="round" stroke-linejoin="round"/>
    <path fill-rule="evenodd" clip-rule="evenodd" d="M8.64714 11.0261C8.64714 11.4334 8.30836 11.7627 7.88924 11.7627C7.47013 11.7627 7.13135 11.4334 7.13135 11.0261C7.13135 10.6194 7.47013 10.2894 7.88924 10.2894C8.30836 10.2894 8.64714 10.6194 8.64714 11.0261Z" fill="#979797" stroke="#979797" stroke-width="1.5" stroke-linecap="round"/>
    <path d="M7.8999 11.7627V13.9727" stroke="#979797" stroke-width="1.5" stroke-linecap="round"/>
    <path d="M11.6997 5.1329V7.04377" stroke="#979797" stroke-width="1.5" stroke-linecap="round" stroke-linejoin="round"/>
    <path d="M4.1001 7.23781V5.13321" stroke="#979797" stroke-width="1.5" stroke-linecap="round" stroke-linejoin="round"/>
    <path d="M4.1001 5.1329C4.1001 3.1005 5.79627 1.44968 7.88957 1.44968C9.98439 1.44968 11.679 3.1005 11.679 5.1329" stroke="#979797" stroke-width="1.5" stroke-linecap="round" stroke-linejoin="round"/>
</svg>
