<?xml version="1.0" encoding="utf-8"?>
<svg width="967" height="248" viewBox="0 0 967 248" fill="none" xmlns="http://www.w3.org/2000/svg">
    <path d="M320.668 79.1416C322.492 79.2297 324.043 79.8906 325.321 81.1242C326.598 82.2698 327.237 83.7237 327.237 85.486V165.452C327.237 167.214 326.598 168.712 325.321 169.946C324.135 171.179 322.538 171.796 320.531 171.796C318.524 171.796 316.881 171.223 315.604 170.078C314.327 168.844 313.688 167.302 313.688 165.452V104.255L287.137 143.114C286.499 143.907 285.678 144.568 284.674 145.097C283.762 145.625 282.804 145.846 281.8 145.758C280.888 145.846 279.93 145.625 278.926 145.097C278.014 144.568 277.238 143.907 276.599 143.114L249.912 103.065V165.452C249.912 167.302 249.319 168.844 248.133 170.078C247.038 171.223 245.533 171.796 243.617 171.796C241.792 171.796 240.286 171.223 239.1 170.078C238.005 168.844 237.458 167.302 237.458 165.452V85.486C237.458 83.8118 238.097 82.3579 239.374 81.1242C240.651 79.8025 242.248 79.1416 244.164 79.1416C245.259 79.1416 246.308 79.406 247.312 79.9347C248.407 80.4634 249.273 81.1683 249.912 82.0495L282.347 129.5L315.193 82.0495C316.653 80.1109 318.478 79.1416 320.668 79.1416Z" fill="#4759DD"/>
    <path d="M421.194 137.166C421.194 144.039 419.597 150.208 416.404 155.671C413.21 161.134 408.831 165.408 403.265 168.492C397.791 171.576 391.724 173.118 385.063 173.118C378.403 173.118 372.29 171.576 366.724 168.492C361.25 165.408 356.916 161.134 353.723 155.671C350.529 150.208 348.933 144.039 348.933 137.166C348.933 130.293 350.529 124.081 353.723 118.53C356.916 112.978 361.25 108.661 366.724 105.577C372.29 102.492 378.403 100.95 385.063 100.95C391.724 100.95 397.791 102.492 403.265 105.577C408.831 108.661 413.21 112.978 416.404 118.53C419.597 124.081 421.194 130.293 421.194 137.166ZM408.192 137.166C408.192 132.408 407.143 128.178 405.044 124.478C403.037 120.689 400.254 117.781 396.696 115.754C393.229 113.639 389.351 112.582 385.063 112.582C380.775 112.582 376.852 113.639 373.293 115.754C369.826 117.781 367.044 120.689 364.945 124.478C362.938 128.178 361.934 132.408 361.934 137.166C361.934 141.836 362.938 146.022 364.945 149.723C367.044 153.424 369.826 156.332 373.293 158.446C376.852 160.473 380.775 161.486 385.063 161.486C389.351 161.486 393.229 160.473 396.696 158.446C400.254 156.332 403.037 153.424 405.044 149.723C407.143 146.022 408.192 141.836 408.192 137.166Z" fill="#4759DD"/>
    <path d="M509.153 137.166C509.153 144.039 507.557 150.208 504.363 155.671C501.17 161.134 496.791 165.408 491.225 168.492C485.751 171.576 479.683 173.118 473.023 173.118C466.363 173.118 460.25 171.576 454.684 168.492C449.21 165.408 444.876 161.134 441.683 155.671C438.489 150.208 436.892 144.039 436.892 137.166C436.892 130.293 438.489 124.081 441.683 118.53C444.876 112.978 449.21 108.661 454.684 105.577C460.25 102.492 466.363 100.95 473.023 100.95C479.683 100.95 485.751 102.492 491.225 105.577C496.791 108.661 501.17 112.978 504.363 118.53C507.557 124.081 509.153 130.293 509.153 137.166ZM496.152 137.166C496.152 132.408 495.103 128.178 493.004 124.478C490.997 120.689 488.214 117.781 484.656 115.754C481.189 113.639 477.311 112.582 473.023 112.582C468.735 112.582 464.811 113.639 461.253 115.754C457.786 117.781 455.003 120.689 452.905 124.478C450.898 128.178 449.894 132.408 449.894 137.166C449.894 141.836 450.898 146.022 452.905 149.723C455.003 153.424 457.786 156.332 461.253 158.446C464.811 160.473 468.735 161.486 473.023 161.486C477.311 161.486 481.189 160.473 484.656 158.446C488.214 156.332 490.997 153.424 493.004 149.723C495.103 146.022 496.152 141.836 496.152 137.166Z" fill="#4759DD"/>
    <path d="M565.773 100.95C582.196 100.95 590.407 110.467 590.407 129.5V165.452C590.407 167.214 589.768 168.712 588.491 169.946C587.305 171.179 585.754 171.796 583.838 171.796C582.013 171.796 580.462 171.179 579.185 169.946C577.999 168.712 577.406 167.214 577.406 165.452V129.632C577.406 124.433 576.174 120.292 573.711 117.208C571.247 114.124 567.233 112.582 561.667 112.582C558.017 112.582 554.687 113.375 551.676 114.961C548.757 116.459 546.43 118.53 544.697 121.173C543.054 123.729 542.233 126.548 542.233 129.632V165.452C542.233 167.214 541.595 168.712 540.317 169.946C539.131 171.179 537.58 171.796 535.664 171.796C533.748 171.796 532.197 171.223 531.011 170.078C529.825 168.844 529.232 167.302 529.232 165.452V108.881C529.232 107.119 529.825 105.621 531.011 104.387C532.288 103.153 533.839 102.537 535.664 102.537C537.58 102.537 539.131 103.153 540.317 104.387C541.595 105.621 542.233 107.119 542.233 108.881V113.507C544.605 109.982 547.89 107.03 552.087 104.651C556.375 102.184 560.937 100.95 565.773 100.95Z" fill="#4759DD"/>
    <path d="M610.68 160.958C609.859 159.724 609.448 158.535 609.448 157.389C609.448 155.627 610.406 154.129 612.322 152.895C613.235 152.278 614.284 151.97 615.47 151.97C617.112 151.97 618.618 152.631 619.986 153.952C622.723 156.948 625.643 159.195 628.745 160.693C631.939 162.191 635.725 162.94 640.104 162.94C643.572 162.852 646.628 162.103 649.274 160.693C651.92 159.195 653.243 156.816 653.243 153.556C653.243 150.56 651.874 148.269 649.137 146.683C646.491 145.097 642.568 143.643 637.367 142.321C632.258 140.999 628.015 139.634 624.639 138.224C621.264 136.726 618.39 134.611 616.017 131.879C613.736 129.06 612.596 125.403 612.596 120.909C612.596 116.944 613.736 113.463 616.017 110.467C618.39 107.471 621.492 105.136 625.324 103.462C629.247 101.788 633.49 100.95 638.052 100.95C642.431 100.95 646.765 101.743 651.053 103.33C655.433 104.916 658.991 107.339 661.728 110.599C662.823 111.833 663.37 113.111 663.37 114.432C663.37 115.842 662.64 117.208 661.181 118.53C660.268 119.323 659.128 119.719 657.759 119.719C656.117 119.719 654.794 119.191 653.79 118.133C651.874 116.018 649.502 114.388 646.674 113.243C643.936 112.097 640.88 111.524 637.504 111.524C634.037 111.524 631.072 112.229 628.608 113.639C626.236 114.961 625.05 117.252 625.05 120.512C625.141 123.596 626.51 125.887 629.156 127.385C631.893 128.883 636.044 130.337 641.61 131.747C646.445 132.981 650.46 134.302 653.653 135.712C656.847 137.122 659.538 139.237 661.728 142.057C663.918 144.788 665.013 148.401 665.013 152.895C665.013 157.037 663.781 160.649 661.317 163.733C658.854 166.729 655.615 169.064 651.6 170.739C647.677 172.325 643.48 173.118 639.01 173.118C633.262 173.118 627.924 172.148 622.997 170.21C618.162 168.271 614.056 165.187 610.68 160.958Z" fill="#4759DD"/>
    <path d="M720.69 101.347C736.748 101.347 744.777 110.952 744.777 130.161V165.452C744.777 167.214 744.138 168.712 742.861 169.946C741.675 171.179 740.124 171.796 738.208 171.796C736.383 171.796 734.832 171.179 733.555 169.946C732.368 168.712 731.775 167.214 731.775 165.452V130.161C731.775 118.706 726.757 112.978 716.721 112.978C711.338 112.978 706.867 114.653 703.309 118.001C699.751 121.261 697.971 125.315 697.971 130.161V165.452C697.971 167.214 697.333 168.712 696.055 169.946C694.869 171.179 693.318 171.796 691.402 171.796C689.486 171.796 687.935 171.223 686.749 170.078C685.563 168.844 684.97 167.302 684.97 165.452V80.3312C684.97 78.5689 685.563 77.0709 686.749 75.8373C688.026 74.6036 689.577 73.9868 691.402 73.9868C693.318 73.9868 694.869 74.6036 696.055 75.8373C697.333 77.0709 697.971 78.5689 697.971 80.3312V113.771C700.252 110.335 703.446 107.427 707.551 105.048C711.657 102.581 716.037 101.347 720.69 101.347Z" fill="#4759DD"/>
    <path d="M837.069 137.166C837.069 144.039 835.472 150.208 832.279 155.671C829.086 161.134 824.706 165.408 819.141 168.492C813.666 171.576 807.599 173.118 800.938 173.118C794.278 173.118 788.165 171.576 782.6 168.492C777.125 165.408 772.791 161.134 769.598 155.671C766.405 150.208 764.808 144.039 764.808 137.166C764.808 130.293 766.405 124.081 769.598 118.53C772.791 112.978 777.125 108.661 782.6 105.577C788.165 102.492 794.278 100.95 800.938 100.95C807.599 100.95 813.666 102.492 819.141 105.577C824.706 108.661 829.086 112.978 832.279 118.53C835.472 124.081 837.069 130.293 837.069 137.166ZM824.068 137.166C824.068 132.408 823.018 128.178 820.92 124.478C818.912 120.689 816.13 117.781 812.571 115.754C809.104 113.639 805.227 112.582 800.938 112.582C796.65 112.582 792.727 113.639 789.169 115.754C785.702 117.781 782.919 120.689 780.82 124.478C778.813 128.178 777.81 132.408 777.81 137.166C777.81 141.836 778.813 146.022 780.82 149.723C782.919 153.424 785.702 156.332 789.169 158.446C792.727 160.473 796.65 161.486 800.938 161.486C805.227 161.486 809.104 160.473 812.571 158.446C816.13 156.332 818.912 153.424 820.92 149.723C823.018 146.022 824.068 141.836 824.068 137.166Z" fill="#4759DD"/>
    <path d="M876.581 114.829V154.217C876.581 158.623 878.634 160.826 882.74 160.826C883.378 160.826 884.245 160.693 885.34 160.429C886.435 160.077 887.302 159.9 887.94 159.9C889.126 159.9 890.13 160.385 890.951 161.354C891.772 162.324 892.183 163.557 892.183 165.055C892.183 166.906 891.088 168.492 888.898 169.813C886.708 171.135 884.245 171.796 881.508 171.796C878.497 171.796 875.714 171.488 873.16 170.871C870.696 170.254 868.461 168.712 866.454 166.245C864.538 163.689 863.58 159.856 863.58 154.745V114.829H855.642C853.908 114.829 852.448 114.3 851.262 113.243C850.167 112.097 849.62 110.687 849.62 109.013C849.62 107.339 850.167 105.973 851.262 104.916C852.448 103.858 853.908 103.33 855.642 103.33H863.58V92.2269C863.58 90.4646 864.173 88.9666 865.359 87.733C866.636 86.4993 868.233 85.8825 870.149 85.8825C871.973 85.8825 873.479 86.4993 874.665 87.733C875.942 88.9666 876.581 90.4646 876.581 92.2269V103.33H887.94C889.674 103.33 891.088 103.902 892.183 105.048C893.369 106.105 893.962 107.471 893.962 109.145C893.962 110.819 893.369 112.185 892.183 113.243C891.088 114.3 889.674 114.829 887.94 114.829H876.581Z" fill="#4759DD"/>
    <path d="M912.667 160.958C911.846 159.724 911.436 158.535 911.436 157.389C911.436 155.627 912.394 154.129 914.31 152.895C915.222 152.278 916.271 151.97 917.457 151.97C919.1 151.97 920.605 152.631 921.974 153.952C924.711 156.948 927.63 159.195 930.733 160.693C933.926 162.191 937.712 162.94 942.092 162.94C945.559 162.852 948.615 162.103 951.261 160.693C953.907 159.195 955.23 156.816 955.23 153.556C955.23 150.56 953.862 148.269 951.124 146.683C948.479 145.097 944.555 143.643 939.355 142.321C934.245 140.999 930.003 139.634 926.627 138.224C923.251 136.726 920.377 134.611 918.005 131.879C915.724 129.06 914.583 125.403 914.583 120.909C914.583 116.944 915.724 113.463 918.005 110.467C920.377 107.471 923.479 105.136 927.311 103.462C931.234 101.788 935.477 100.95 940.039 100.95C944.418 100.95 948.752 101.743 953.04 103.33C957.42 104.916 960.978 107.339 963.715 110.599C964.81 111.833 965.358 113.111 965.358 114.432C965.358 115.842 964.628 117.208 963.168 118.53C962.256 119.323 961.115 119.719 959.746 119.719C958.104 119.719 956.781 119.191 955.778 118.133C953.862 116.018 951.489 114.388 948.661 113.243C945.924 112.097 942.867 111.524 939.492 111.524C936.024 111.524 933.059 112.229 930.596 113.639C928.224 114.961 927.037 117.252 927.037 120.512C927.129 123.596 928.497 125.887 931.143 127.385C933.88 128.883 938.032 130.337 943.597 131.747C948.433 132.981 952.447 134.302 955.641 135.712C958.834 137.122 961.526 139.237 963.715 142.057C965.905 144.788 967 148.401 967 152.895C967 157.037 965.768 160.649 963.305 163.733C960.841 166.729 957.602 169.064 953.588 170.739C949.665 172.325 945.468 173.118 940.997 173.118C935.249 173.118 929.911 172.148 924.985 170.21C920.149 168.271 916.043 165.187 912.667 160.958Z" fill="#4759DD"/>
    <path d="M320.668 79.1416C322.492 79.2297 324.043 79.8906 325.321 81.1242C326.598 82.2698 327.237 83.7237 327.237 85.486V165.452C327.237 167.214 326.598 168.712 325.321 169.946C324.135 171.179 322.538 171.796 320.531 171.796C318.524 171.796 316.881 171.223 315.604 170.078C314.327 168.844 313.688 167.302 313.688 165.452V104.255L287.137 143.114C286.499 143.907 285.678 144.568 284.674 145.097C283.762 145.625 282.804 145.846 281.8 145.758C280.888 145.846 279.93 145.625 278.926 145.097C278.014 144.568 277.238 143.907 276.599 143.114L249.912 103.065V165.452C249.912 167.302 249.319 168.844 248.133 170.078C247.038 171.223 245.533 171.796 243.617 171.796C241.792 171.796 240.286 171.223 239.1 170.078C238.005 168.844 237.458 167.302 237.458 165.452V85.486C237.458 83.8118 238.097 82.3579 239.374 81.1242C240.651 79.8025 242.248 79.1416 244.164 79.1416C245.259 79.1416 246.308 79.406 247.312 79.9347C248.407 80.4634 249.273 81.1683 249.912 82.0495L282.347 129.5L315.193 82.0495C316.653 80.1109 318.478 79.1416 320.668 79.1416Z" fill="url(#paint0_linear)"/>
    <path d="M421.194 137.166C421.194 144.039 419.597 150.208 416.404 155.671C413.21 161.134 408.831 165.408 403.265 168.492C397.791 171.576 391.724 173.118 385.063 173.118C378.403 173.118 372.29 171.576 366.724 168.492C361.25 165.408 356.916 161.134 353.723 155.671C350.529 150.208 348.933 144.039 348.933 137.166C348.933 130.293 350.529 124.081 353.723 118.53C356.916 112.978 361.25 108.661 366.724 105.577C372.29 102.492 378.403 100.95 385.063 100.95C391.724 100.95 397.791 102.492 403.265 105.577C408.831 108.661 413.21 112.978 416.404 118.53C419.597 124.081 421.194 130.293 421.194 137.166ZM408.192 137.166C408.192 132.408 407.143 128.178 405.044 124.478C403.037 120.689 400.254 117.781 396.696 115.754C393.229 113.639 389.351 112.582 385.063 112.582C380.775 112.582 376.852 113.639 373.293 115.754C369.826 117.781 367.044 120.689 364.945 124.478C362.938 128.178 361.934 132.408 361.934 137.166C361.934 141.836 362.938 146.022 364.945 149.723C367.044 153.424 369.826 156.332 373.293 158.446C376.852 160.473 380.775 161.486 385.063 161.486C389.351 161.486 393.229 160.473 396.696 158.446C400.254 156.332 403.037 153.424 405.044 149.723C407.143 146.022 408.192 141.836 408.192 137.166Z" fill="url(#paint1_linear)"/>
    <path d="M509.153 137.166C509.153 144.039 507.557 150.208 504.363 155.671C501.17 161.134 496.791 165.408 491.225 168.492C485.751 171.576 479.683 173.118 473.023 173.118C466.363 173.118 460.25 171.576 454.684 168.492C449.21 165.408 444.876 161.134 441.683 155.671C438.489 150.208 436.892 144.039 436.892 137.166C436.892 130.293 438.489 124.081 441.683 118.53C444.876 112.978 449.21 108.661 454.684 105.577C460.25 102.492 466.363 100.95 473.023 100.95C479.683 100.95 485.751 102.492 491.225 105.577C496.791 108.661 501.17 112.978 504.363 118.53C507.557 124.081 509.153 130.293 509.153 137.166ZM496.152 137.166C496.152 132.408 495.103 128.178 493.004 124.478C490.997 120.689 488.214 117.781 484.656 115.754C481.189 113.639 477.311 112.582 473.023 112.582C468.735 112.582 464.811 113.639 461.253 115.754C457.786 117.781 455.003 120.689 452.905 124.478C450.898 128.178 449.894 132.408 449.894 137.166C449.894 141.836 450.898 146.022 452.905 149.723C455.003 153.424 457.786 156.332 461.253 158.446C464.811 160.473 468.735 161.486 473.023 161.486C477.311 161.486 481.189 160.473 484.656 158.446C488.214 156.332 490.997 153.424 493.004 149.723C495.103 146.022 496.152 141.836 496.152 137.166Z" fill="url(#paint2_linear)"/>
    <path d="M565.773 100.95C582.196 100.95 590.407 110.467 590.407 129.5V165.452C590.407 167.214 589.768 168.712 588.491 169.946C587.305 171.179 585.754 171.796 583.838 171.796C582.013 171.796 580.462 171.179 579.185 169.946C577.999 168.712 577.406 167.214 577.406 165.452V129.632C577.406 124.433 576.174 120.292 573.711 117.208C571.247 114.124 567.233 112.582 561.667 112.582C558.017 112.582 554.687 113.375 551.676 114.961C548.757 116.459 546.43 118.53 544.697 121.173C543.054 123.729 542.233 126.548 542.233 129.632V165.452C542.233 167.214 541.595 168.712 540.317 169.946C539.131 171.179 537.58 171.796 535.664 171.796C533.748 171.796 532.197 171.223 531.011 170.078C529.825 168.844 529.232 167.302 529.232 165.452V108.881C529.232 107.119 529.825 105.621 531.011 104.387C532.288 103.153 533.839 102.537 535.664 102.537C537.58 102.537 539.131 103.153 540.317 104.387C541.595 105.621 542.233 107.119 542.233 108.881V113.507C544.605 109.982 547.89 107.03 552.087 104.651C556.375 102.184 560.937 100.95 565.773 100.95Z" fill="url(#paint3_linear)"/>
    <path d="M610.68 160.958C609.859 159.724 609.448 158.535 609.448 157.389C609.448 155.627 610.406 154.129 612.322 152.895C613.235 152.278 614.284 151.97 615.47 151.97C617.112 151.97 618.618 152.631 619.986 153.952C622.723 156.948 625.643 159.195 628.745 160.693C631.939 162.191 635.725 162.94 640.104 162.94C643.572 162.852 646.628 162.103 649.274 160.693C651.92 159.195 653.243 156.816 653.243 153.556C653.243 150.56 651.874 148.269 649.137 146.683C646.491 145.097 642.568 143.643 637.367 142.321C632.258 140.999 628.015 139.634 624.639 138.224C621.264 136.726 618.39 134.611 616.017 131.879C613.736 129.06 612.596 125.403 612.596 120.909C612.596 116.944 613.736 113.463 616.017 110.467C618.39 107.471 621.492 105.136 625.324 103.462C629.247 101.788 633.49 100.95 638.052 100.95C642.431 100.95 646.765 101.743 651.053 103.33C655.433 104.916 658.991 107.339 661.728 110.599C662.823 111.833 663.37 113.111 663.37 114.432C663.37 115.842 662.64 117.208 661.181 118.53C660.268 119.323 659.128 119.719 657.759 119.719C656.117 119.719 654.794 119.191 653.79 118.133C651.874 116.018 649.502 114.388 646.674 113.243C643.936 112.097 640.88 111.524 637.504 111.524C634.037 111.524 631.072 112.229 628.608 113.639C626.236 114.961 625.05 117.252 625.05 120.512C625.141 123.596 626.51 125.887 629.156 127.385C631.893 128.883 636.044 130.337 641.61 131.747C646.445 132.981 650.46 134.302 653.653 135.712C656.847 137.122 659.538 139.237 661.728 142.057C663.918 144.788 665.013 148.401 665.013 152.895C665.013 157.037 663.781 160.649 661.317 163.733C658.854 166.729 655.615 169.064 651.6 170.739C647.677 172.325 643.48 173.118 639.01 173.118C633.262 173.118 627.924 172.148 622.997 170.21C618.162 168.271 614.056 165.187 610.68 160.958Z" fill="url(#paint4_linear)"/>
    <path d="M720.69 101.347C736.748 101.347 744.777 110.952 744.777 130.161V165.452C744.777 167.214 744.138 168.712 742.861 169.946C741.675 171.179 740.124 171.796 738.208 171.796C736.383 171.796 734.832 171.179 733.555 169.946C732.368 168.712 731.775 167.214 731.775 165.452V130.161C731.775 118.706 726.757 112.978 716.721 112.978C711.338 112.978 706.867 114.653 703.309 118.001C699.751 121.261 697.971 125.315 697.971 130.161V165.452C697.971 167.214 697.333 168.712 696.055 169.946C694.869 171.179 693.318 171.796 691.402 171.796C689.486 171.796 687.935 171.223 686.749 170.078C685.563 168.844 684.97 167.302 684.97 165.452V80.3312C684.97 78.5689 685.563 77.0709 686.749 75.8373C688.026 74.6036 689.577 73.9868 691.402 73.9868C693.318 73.9868 694.869 74.6036 696.055 75.8373C697.333 77.0709 697.971 78.5689 697.971 80.3312V113.771C700.252 110.335 703.446 107.427 707.551 105.048C711.657 102.581 716.037 101.347 720.69 101.347Z" fill="url(#paint5_linear)"/>
    <path d="M837.069 137.166C837.069 144.039 835.472 150.208 832.279 155.671C829.086 161.134 824.706 165.408 819.141 168.492C813.666 171.576 807.599 173.118 800.938 173.118C794.278 173.118 788.165 171.576 782.6 168.492C777.125 165.408 772.791 161.134 769.598 155.671C766.405 150.208 764.808 144.039 764.808 137.166C764.808 130.293 766.405 124.081 769.598 118.53C772.791 112.978 777.125 108.661 782.6 105.577C788.165 102.492 794.278 100.95 800.938 100.95C807.599 100.95 813.666 102.492 819.141 105.577C824.706 108.661 829.086 112.978 832.279 118.53C835.472 124.081 837.069 130.293 837.069 137.166ZM824.068 137.166C824.068 132.408 823.018 128.178 820.92 124.478C818.912 120.689 816.13 117.781 812.571 115.754C809.104 113.639 805.227 112.582 800.938 112.582C796.65 112.582 792.727 113.639 789.169 115.754C785.702 117.781 782.919 120.689 780.82 124.478C778.813 128.178 777.81 132.408 777.81 137.166C777.81 141.836 778.813 146.022 780.82 149.723C782.919 153.424 785.702 156.332 789.169 158.446C792.727 160.473 796.65 161.486 800.938 161.486C805.227 161.486 809.104 160.473 812.571 158.446C816.13 156.332 818.912 153.424 820.92 149.723C823.018 146.022 824.068 141.836 824.068 137.166Z" fill="url(#paint6_linear)"/>
    <path d="M876.581 114.829V154.217C876.581 158.623 878.634 160.826 882.74 160.826C883.378 160.826 884.245 160.693 885.34 160.429C886.435 160.077 887.302 159.9 887.94 159.9C889.126 159.9 890.13 160.385 890.951 161.354C891.772 162.324 892.183 163.557 892.183 165.055C892.183 166.906 891.088 168.492 888.898 169.813C886.708 171.135 884.245 171.796 881.508 171.796C878.497 171.796 875.714 171.488 873.16 170.871C870.696 170.254 868.461 168.712 866.454 166.245C864.538 163.689 863.58 159.856 863.58 154.745V114.829H855.642C853.908 114.829 852.448 114.3 851.262 113.243C850.167 112.097 849.62 110.687 849.62 109.013C849.62 107.339 850.167 105.973 851.262 104.916C852.448 103.858 853.908 103.33 855.642 103.33H863.58V92.2269C863.58 90.4646 864.173 88.9666 865.359 87.733C866.636 86.4993 868.233 85.8825 870.149 85.8825C871.973 85.8825 873.479 86.4993 874.665 87.733C875.942 88.9666 876.581 90.4646 876.581 92.2269V103.33H887.94C889.674 103.33 891.088 103.902 892.183 105.048C893.369 106.105 893.962 107.471 893.962 109.145C893.962 110.819 893.369 112.185 892.183 113.243C891.088 114.3 889.674 114.829 887.94 114.829H876.581Z" fill="url(#paint7_linear)"/>
    <path d="M912.667 160.958C911.846 159.724 911.436 158.535 911.436 157.389C911.436 155.627 912.394 154.129 914.31 152.895C915.222 152.278 916.271 151.97 917.457 151.97C919.1 151.97 920.605 152.631 921.974 153.952C924.711 156.948 927.63 159.195 930.733 160.693C933.926 162.191 937.712 162.94 942.092 162.94C945.559 162.852 948.615 162.103 951.261 160.693C953.907 159.195 955.23 156.816 955.23 153.556C955.23 150.56 953.862 148.269 951.124 146.683C948.479 145.097 944.555 143.643 939.355 142.321C934.245 140.999 930.003 139.634 926.627 138.224C923.251 136.726 920.377 134.611 918.005 131.879C915.724 129.06 914.583 125.403 914.583 120.909C914.583 116.944 915.724 113.463 918.005 110.467C920.377 107.471 923.479 105.136 927.311 103.462C931.234 101.788 935.477 100.95 940.039 100.95C944.418 100.95 948.752 101.743 953.04 103.33C957.42 104.916 960.978 107.339 963.715 110.599C964.81 111.833 965.358 113.111 965.358 114.432C965.358 115.842 964.628 117.208 963.168 118.53C962.256 119.323 961.115 119.719 959.746 119.719C958.104 119.719 956.781 119.191 955.778 118.133C953.862 116.018 951.489 114.388 948.661 113.243C945.924 112.097 942.867 111.524 939.492 111.524C936.024 111.524 933.059 112.229 930.596 113.639C928.224 114.961 927.037 117.252 927.037 120.512C927.129 123.596 928.497 125.887 931.143 127.385C933.88 128.883 938.032 130.337 943.597 131.747C948.433 132.981 952.447 134.302 955.641 135.712C958.834 137.122 961.526 139.237 963.715 142.057C965.905 144.788 967 148.401 967 152.895C967 157.037 965.768 160.649 963.305 163.733C960.841 166.729 957.602 169.064 953.588 170.739C949.665 172.325 945.468 173.118 940.997 173.118C935.249 173.118 929.911 172.148 924.985 170.21C920.149 168.271 916.043 165.187 912.667 160.958Z" fill="url(#paint8_linear)"/>
    <path d="M75.8808 190.159C74.0275 183.242 78.1321 176.133 85.0486 174.28L103.834 169.246L108.867 188.031C110.721 194.948 106.616 202.057 99.6994 203.91L80.9143 208.944L75.8808 190.159Z" fill="url(#paint9_linear)"/>
    <path d="M157.574 121.214L180.901 80.8091L172.695 50.1846L142.071 58.3904L118.743 98.7949L88.2577 106.614L65.0049 146.889L95.8063 138.635L103.925 169.299L134.861 161.184L143.114 191.985L166.367 151.71L157.574 121.214Z" fill="#4759DD"/>
    <path d="M157.574 121.214L180.901 80.8091L172.695 50.1846L142.071 58.3904L118.743 98.7949L88.2577 106.614L65.0049 146.889L95.8063 138.635L103.925 169.299L134.861 161.184L143.114 191.985L166.367 151.71L157.574 121.214Z" fill="url(#paint10_linear)" fill-opacity="0.65"/>
    <path d="M157.643 121.235L180.986 80.8041L172.675 50.1027L128.415 126.763L157.643 121.235Z" fill="url(#paint11_linear)" fill-opacity="0.38"/>
    <path d="M95.8572 138.617L118.873 98.7524L128.451 126.701L103.92 169.191L95.8572 138.617Z" fill="url(#paint12_linear)" fill-opacity="0.5"/>
    <path d="M134.669 161.026L157.685 121.162L128.451 126.701L103.919 169.191L134.669 161.026Z" fill="url(#paint13_linear)" fill-opacity="0.5"/>
    <circle cx="152.04" cy="86.4025" r="10.0211" transform="rotate(30 152.04 86.4025)" fill="white"/>
    <defs>
        <linearGradient id="paint0_linear" x1="576.487" y1="622.942" x2="666.967" y2="51.1162" gradientUnits="userSpaceOnUse">
            <stop stop-color="#080140"/>
            <stop offset="1" stop-color="#080140" stop-opacity="0"/>
        </linearGradient>
        <linearGradient id="paint1_linear" x1="576.487" y1="622.942" x2="666.967" y2="51.1162" gradientUnits="userSpaceOnUse">
            <stop stop-color="#080140"/>
            <stop offset="1" stop-color="#080140" stop-opacity="0"/>
        </linearGradient>
        <linearGradient id="paint2_linear" x1="576.487" y1="622.942" x2="666.967" y2="51.1162" gradientUnits="userSpaceOnUse">
            <stop stop-color="#080140"/>
            <stop offset="1" stop-color="#080140" stop-opacity="0"/>
        </linearGradient>
        <linearGradient id="paint3_linear" x1="576.487" y1="622.942" x2="666.967" y2="51.1162" gradientUnits="userSpaceOnUse">
            <stop stop-color="#080140"/>
            <stop offset="1" stop-color="#080140" stop-opacity="0"/>
        </linearGradient>
        <linearGradient id="paint4_linear" x1="576.487" y1="622.942" x2="666.967" y2="51.1162" gradientUnits="userSpaceOnUse">
            <stop stop-color="#080140"/>
            <stop offset="1" stop-color="#080140" stop-opacity="0"/>
        </linearGradient>
        <linearGradient id="paint5_linear" x1="576.487" y1="622.942" x2="666.967" y2="51.1162" gradientUnits="userSpaceOnUse">
            <stop stop-color="#080140"/>
            <stop offset="1" stop-color="#080140" stop-opacity="0"/>
        </linearGradient>
        <linearGradient id="paint6_linear" x1="576.487" y1="622.942" x2="666.967" y2="51.1162" gradientUnits="userSpaceOnUse">
            <stop stop-color="#080140"/>
            <stop offset="1" stop-color="#080140" stop-opacity="0"/>
        </linearGradient>
        <linearGradient id="paint7_linear" x1="576.487" y1="622.942" x2="666.967" y2="51.1162" gradientUnits="userSpaceOnUse">
            <stop stop-color="#080140"/>
            <stop offset="1" stop-color="#080140" stop-opacity="0"/>
        </linearGradient>
        <linearGradient id="paint8_linear" x1="576.487" y1="622.942" x2="666.967" y2="51.1162" gradientUnits="userSpaceOnUse">
            <stop stop-color="#080140"/>
            <stop offset="1" stop-color="#080140" stop-opacity="0"/>
        </linearGradient>
        <linearGradient id="paint9_linear" x1="103.048" y1="171.767" x2="87.6907" y2="198.366" gradientUnits="userSpaceOnUse">
            <stop stop-color="#FF5E00"/>
            <stop offset="1" stop-color="#F9A000"/>
        </linearGradient>
        <linearGradient id="paint10_linear" x1="116.146" y1="186.076" x2="126.629" y2="58.8262" gradientUnits="userSpaceOnUse">
            <stop stop-color="#090140"/>
            <stop offset="1" stop-color="#4759DD" stop-opacity="0"/>
        </linearGradient>
        <linearGradient id="paint11_linear" x1="155.542" y1="48.4075" x2="191.2" y2="68.9944" gradientUnits="userSpaceOnUse">
            <stop offset="0.0160245" stop-color="#070141"/>
            <stop offset="1" stop-color="#090141" stop-opacity="0"/>
        </linearGradient>
        <linearGradient id="paint12_linear" x1="138.843" y1="139.686" x2="103.625" y2="119.353" gradientUnits="userSpaceOnUse">
            <stop offset="0.0160245" stop-color="#070141"/>
            <stop offset="1" stop-color="#090141" stop-opacity="0"/>
        </linearGradient>
        <linearGradient id="paint13_linear" x1="111.842" y1="124.098" x2="147.5" y2="144.685" gradientUnits="userSpaceOnUse">
            <stop offset="0.0160245" stop-color="#070141"/>
            <stop offset="1" stop-color="#090141" stop-opacity="0"/>
        </linearGradient>
    </defs>
</svg>
