<?xml version="1.0" encoding="utf-8"?>
<svg width="320" height="371" viewBox="0 0 320 371" fill="none" xmlns="http://www.w3.org/2000/svg">
    <path d="M198.74 40C198.74 40 196.74 35 196.74 32C196.74 29 190.77 31.63 186.25 31.95C181.73 32.27 175.18 31.57 175.18 31.57L170.89 40C170.89 40 168.08 35.02 169.41 30.51C169.41 30.51 157.74 27 157.74 15C157.74 3 168.74 0 173.74 0C178.74 0 182.74 3 186.74 8C190.74 13 194.74 13 199.74 13C204.74 13 215.66 19 214.7 29C213.74 39 212.05 39.36 212.05 39.36C212.05 39.36 206.65 37.39 202.65 39.39C198.65 41.39 198.74 40 198.74 40Z" fill="#434343"/>
    <path d="M127.24 231.5C127.24 231.5 129.24 230.5 128.24 226.5C127.24 222.5 120.24 208.5 115.24 206.5C110.24 204.5 111.24 204.5 108.24 204.5C105.24 204.5 49.24 204.5 49.24 204.5C49.24 204.5 43.24 203.5 43.24 209.5L41.24 211.5C41.24 211.5 39.24 210.5 37.24 213.5C35.24 216.5 1.74002 291.33 1.74002 291.33C1.74002 291.33 -0.759983 295.5 0.240017 300.5C1.24002 305.5 8.24002 319.5 8.24002 319.5C8.24002 319.5 9.24002 321.5 13.24 321.5L14.24 324.5C14.24 324.5 14.24 327.5 16.24 327.5C18.24 327.5 86.79 327.5 86.79 327.5C86.79 327.5 89.24 327.5 91.24 323.5C93.24 319.5 128.52 240.09 128.52 240.09C128.52 240.09 129.24 237.5 127.24 235.5V231.5Z" fill="#475ADD"/>
    <path d="M64.6 300C64 300 63.58 299.79 63.31 299.56C62.46 298.87 62.54 297.75 62.57 297.53L62.61 297.32L67.87 280.62C68.6 278.29 71.32 277.42 71.43 277.39C77.07 275.37 91.96 270.05 92.54 269.82C93.69 269.36 94.5 268.57 94.77 267.95C94.78 267.9 94.79 267.88 94.79 267.87H94.8C94.84 267.77 94.86 267.67 94.87 267.58C94.89 267.22 94.59 266.87 93.99 266.54C90.16 264.49 84.21 265.66 74.7 270.36C70.04 272.66 65.16 273.56 61.64 272.78C60.3 272.48 57.1 271.52 56.35 268.97C55.66 266.64 58.06 265.15 59.58 264.64L76.81 258.71C77.52 258.47 78.24 258.52 78.81 258.86C79.54 259.3 79.83 260.11 79.56 260.99L77.85 266.41C85.77 263.02 91.17 262.46 95.07 264.55C96.97 265.57 97.19 266.97 97.15 267.71C97.13 268.08 97.05 268.43 96.91 268.77C96.28 270.78 91.79 285.03 90.84 287.79C89.68 291.17 86.1 292.65 85.95 292.71C85.15 293 67.38 299.26 65.63 299.84C65.23 299.95 64.89 300 64.6 300ZM93.53 271.86C93.48 271.88 93.43 271.9 93.38 271.92C92.72 272.19 74.25 278.79 72.14 279.54C71.63 279.7 70.33 280.31 70.02 281.3L64.86 297.68C64.87 297.68 64.88 297.67 64.89 297.67C66.62 297.1 84.93 290.64 85.11 290.58C85.11 290.58 87.84 289.42 88.65 287.04C89.35 285.06 91.95 276.88 93.53 271.86ZM77.17 260.97L60.3 266.77C59.75 266.96 58.33 267.67 58.52 268.31C58.85 269.44 60.67 270.22 62.12 270.54C65.16 271.21 69.48 270.37 73.69 268.3C74.16 268.07 74.62 267.85 75.07 267.63L77.17 260.97Z" fill="white"/>
    <path d="M57.28 292.73C56.26 292.73 55.23 292.63 54.3 292.36C52.61 291.87 51.44 291.03 50.82 289.87C50.17 288.65 50.14 287.13 50.74 285.24L56.19 267.92L58.35 268.6L52.9 285.92C52.5 287.2 52.47 288.15 52.82 288.8C53.14 289.4 53.85 289.86 54.94 290.18C57.84 291.02 62.36 289.74 62.4 289.72L65.93 288.41L66.72 290.54L63.12 291.88C62.89 291.94 60.13 292.73 57.28 292.73Z" fill="white"/>
    <path d="M109.74 187V194.27C109.74 194.27 96.03 192.51 95.03 180.51L105.74 178L116.74 179.45C116.74 179.45 116.74 188 109.74 187Z" fill="#BBBDBF"/>
    <path d="M73.74 222L91.74 183C91.74 183 99.74 179.76 106.24 179.38C112.74 179 119.18 179.4 120.96 180.2C122.74 181 123.24 182.5 122.24 184.5C121.24 186.5 105.57 219.2 105.57 219.2C105.57 219.2 104.24 222.5 108.24 223.5C112.24 224.5 112.24 220.5 112.24 220.5L129.24 184.5C129.24 184.5 131.24 176.5 125.24 173.5C119.24 170.5 108.24 168.5 97.24 172.5C86.24 176.5 86.94 178 86.94 178L67.6 219.2C67.6 219.2 66.75 223.82 70 223.66C73.24 223.5 73.74 222 73.74 222Z" fill="#090141"/>
    <path d="M77.99 214.06H107.75L110.5 208.9H79.78L77.99 214.06Z" fill="#B4BEF1"/>
    <path d="M127.24 231.5H72.24C72.24 231.5 68.64 231.4 69.24 234.5C69.44 235.53 72.24 235.5 72.24 235.5H127.24V231.5Z" fill="#B4BEF1"/>
    <path d="M43.24 209.5L46.24 215.5C46.24 215.5 47.24 218.5 44.24 217.5L41.24 211.5L43.24 209.5Z" fill="#B4BEF1"/>
    <path d="M49.24 220.5C49.24 220.5 48.24 219.5 47.24 220.5C46.24 221.5 46.4 222.86 46.4 222.86L51.24 233.5L20.24 304.5C20.24 304.5 21.24 307.5 23.24 305.5L56.44 233.83C56.44 233.83 56.87 232.77 56.24 231.5C55.24 229.5 49.24 220.5 49.24 220.5Z" fill="#B4BEF1"/>
    <path d="M13.24 321.5C13.24 321.5 16.24 311.5 17.24 310.5C18.24 309.5 19.24 308.87 20.24 309.69C21.24 310.5 21.24 312.5 21.24 312.5L15.24 323.5L14.24 324.5L13.24 321.5Z" fill="#B4BEF1"/>
    <path d="M24.24 247.5L16.24 268.5L22.24 273.5C22.24 273.5 23.24 274.5 22.24 275.5C21.24 276.5 20.24 275.95 20.24 275.95C20.24 275.95 11.24 272.5 10.24 269.5C9.23999 266.5 18.24 246.5 20.24 243.5C22.24 240.5 26.24 243.5 26.24 243.5L32.24 247.5C32.24 247.5 33.24 249.5 31.24 249.5C29.24 249.5 24.24 247.5 24.24 247.5Z" fill="#B4BEF1"/>
    <path d="M19.99 351.5C24.8225 351.5 28.74 347.023 28.74 341.5C28.74 335.977 24.8225 331.5 19.99 331.5C15.1575 331.5 11.24 335.977 11.24 341.5C11.24 347.023 15.1575 351.5 19.99 351.5Z" fill="#090141"/>
    <path d="M23.99 351.5C28.8225 351.5 32.74 347.023 32.74 341.5C32.74 335.977 28.8225 331.5 23.99 331.5C19.1575 331.5 15.24 335.977 15.24 341.5C15.24 347.023 19.1575 351.5 23.99 351.5Z" fill="#090141"/>
    <path d="M19.52 331.52H24.28L21.74 334L19.52 331.52Z" fill="#090141"/>
    <path d="M24.28 351.5H19.52L22.07 349.02L24.28 351.5Z" fill="#090141"/>
    <path d="M73.07 351.5C77.9025 351.5 81.82 347.023 81.82 341.5C81.82 335.977 77.9025 331.5 73.07 331.5C68.2375 331.5 64.32 335.977 64.32 341.5C64.32 347.023 68.2375 351.5 73.07 351.5Z" fill="#090141"/>
    <path d="M77.07 351.5C81.9025 351.5 85.82 347.023 85.82 341.5C85.82 335.977 81.9025 331.5 77.07 331.5C72.2375 331.5 68.32 335.977 68.32 341.5C68.32 347.023 72.2375 351.5 77.07 351.5Z" fill="#090141"/>
    <path d="M72.6 331.52H77.37L74.82 334L72.6 331.52Z" fill="#090141"/>
    <path d="M77.37 351.5H72.6L75.15 349.02L77.37 351.5Z" fill="#090141"/>
    <path d="M175.78 30.91C175.14 30.97 174.57 31.36 174.3 31.95C172.77 35.27 167.74 46.31 167.74 48.01C167.74 49.56 169.54 51.06 172.21 51.21C173.39 51.28 174.15 52.51 173.75 53.62C172.64 56.74 171.07 61.67 171.74 63.01C172.74 65.01 174.74 67.01 177.74 66.01C180.08 65.23 186.67 64.45 191.83 61.78C193.32 61.01 194.98 62.54 194.32 64.08C192.47 68.39 188.26 74.44 178.74 78.01C162.74 84.01 150.74 95.01 143.74 105.01C136.98 114.66 106.95 164.36 104.85 167.82C104.77 167.95 104.69 168.05 104.58 168.16C103.82 168.92 100.43 172.47 100.1 176.01C99.79 179.29 102.43 183.24 105.6 184.56C106.66 185 107.86 184.33 108.06 183.2L109.47 175.44C109.62 174.62 110.31 174.01 111.14 173.96C112.49 173.87 114.49 173.63 115.73 173.02C117.07 172.35 117.51 171.23 117.66 170.57C117.74 170.18 117.94 169.84 118.24 169.58C122.36 166.03 150.44 141.8 161.01 131.78C162.24 130.61 164.26 131.63 164.05 133.32C162.48 145.84 158.73 177.42 158.73 194.02C158.73 213.35 219.73 346.22 229.44 367.23C230.02 368.48 231.73 368.65 232.55 367.53L238.26 359.68C238.56 359.26 238.68 358.74 238.57 358.24C236.41 348.35 214.64 248.58 212.74 240.03C211.35 233.77 210.44 230.9 210.02 229.73C209.85 229.26 209.88 228.76 210.11 228.31C212.76 223.1 228.91 190.96 230.74 179.03C232.57 167.11 226.01 125.8 224.9 118.98C224.81 118.41 224.99 117.83 225.4 117.42C227.56 115.29 234.11 107.49 230.74 94.02C227.97 82.96 209.74 75.02 208.74 74.02C207.9 73.18 202.13 61.77 200.3 58.13C199.97 57.47 200.08 56.69 200.56 56.13C201.34 55.23 202.51 53.74 203.28 52.15C203.58 51.52 204.2 51.09 204.91 51.1C207.03 51.12 211.44 50.59 212.75 46.03C214.75 39.03 208.75 35.03 204.75 36.03C203.6 36.32 202.61 36.95 201.82 37.63C200.8 38.51 198.97 39.3 198.62 38L197.15 30.49C196.92 29.64 196.11 29.08 195.24 29.16C195.24 29.16 191.19 30.35 184.4 31.12C180.25 31.57 175.78 30.91 175.78 30.91Z" fill="#E5E6E7"/>
    <path d="M181.97 65C181.97 65 180.73 77 178.73 78C178.73 78 187.57 75.95 191.94 70.04C195.73 64.92 195.73 59 195.73 59C195.73 59 190.08 63.4 181.97 65Z" fill="#BBBDBF"/>
    <path d="M230.74 370C230.74 370 244.27 371 249.01 370C253.75 369 256.74 366 260.74 361C264.74 356 270.74 349 270.74 349C270.74 349 264.74 340 255.74 342C246.74 344 243.74 348 241.74 351C239.74 354 230.74 370 230.74 370Z" fill="#BBBDBF"/>
    <path d="M183.68 264.08L140.74 330L141.74 333.86C143.05 338.92 146.19 343.31 150.54 346.2L169.41 358.73H139.26C139.26 358.73 128.74 347.01 137.74 332.01L139.74 329.01C139.74 329.01 133.74 324.01 132.74 318.01C131.74 312.01 132.74 307.01 134.74 301.01C136.74 295.01 165.8 219.21 165.8 219.21L183.68 264.08Z" fill="#BBBDBF"/>
    <path d="M201.79 199.5C201.79 199.5 213.79 206.91 216.29 215.2L209.89 228.33L201.79 199.5Z" fill="#BBBDBF"/>
    <path d="M209.74 228C209.74 228 200.74 197 200.74 194C200.74 191 195.74 178 194.74 178C193.74 178 192.74 178 192.74 180C192.74 182 198.46 197 198.46 197C198.46 197 210.74 239 211.74 240C212.74 241 212.74 240 212.74 239C212.74 238 209.74 228 209.74 228Z" fill="#BBBDBF"/>
    <path d="M186.58 270.93C186.58 270.93 186.73 268 188.73 269C190.73 270 202.73 303.33 202.73 303.33C202.73 303.33 202.48 305.85 201.11 304.43C199.74 303.01 186.58 270.93 186.58 270.93Z" fill="#BBBDBF"/>
    <path d="M228.25 141.12C228.25 141.12 243.31 135 257.31 143C271.31 151 277.31 162 277.31 162L280.76 150.44L284.31 157L301.38 150.44C301.38 150.44 303.31 158 303.31 160C303.31 162 302.31 167 294.31 167C286.31 167 229.94 158.35 229.94 158.35L228.25 141.12Z" fill="#BBBDBF"/>
    <path d="M316.77 136.42L296.2 148.29C293.88 149.63 290.88 148.83 289.54 146.5L284.49 137.76C283.15 135.44 283.95 132.44 286.28 131.1L306.85 119.23C309.17 117.89 312.17 118.69 313.51 121.02L318.56 129.76C319.89 132.08 319.09 135.08 316.77 136.42Z" fill="#475ADD"/>
    <path d="M133.37 117.59C133.37 117.59 142.83 117.68 154.1 137.78L164.35 128L159.16 165.78C159.16 165.78 162.26 171.67 181.1 171.71C198.22 171.74 201.05 161.89 215.26 161.36C229.21 160.84 230.59 167 230.59 167L224.74 121.08C224.74 121.08 234.2 112.4 231.47 95.83C228.74 79.26 208.35 74 208.35 74L206.65 70.44C206.65 70.44 205.22 86.17 198.46 90.3C198.46 90.3 190.41 75.02 179.49 76.16C179.49 76.16 173.06 77.87 169.02 80.51L169.55 82.67C169.55 82.68 155.58 84.46 133.37 117.59Z" fill="#4759DD"/>
    <path d="M164.74 167C164.74 167 167.74 169 173.74 169C179.74 169 188.98 168.37 197.74 163C203.89 159.23 214.74 155 225.74 161C225.74 161 223.24 119.5 222.24 114.5C221.24 109.5 222.24 109.5 223.24 110.5C224.24 111.5 232.39 163.43 230.94 177.25C230.43 182.06 225.76 179.38 227.13 177.25C227.54 176.61 227.89 168.33 226.57 166.53C223.36 162.16 215.22 161.42 211.25 162.5C201.06 165.26 198.54 171.18 182.25 172.5C173.39 173.22 168.25 171.21 164.75 169.36C161.24 167.5 162.24 165.5 164.74 167Z" fill="#B4BEF1"/>
    <path d="M134.22 115.9C134.22 115.9 139.7 114.33 146.41 122.3C149.63 126.12 149.95 127.74 151.73 129.59C153.28 131.2 155.31 129.68 153.75 126.67C152.3 123.86 150.22 118.76 143.71 115.18C139.79 113.02 136.55 112.94 136.55 112.94L134.22 115.9Z" fill="#B4BEF1"/>
    <path d="M221.16 106.42C220.65 105.81 220.16 104.42 220.16 103.42C220.16 102.42 220.19 100.1 222.16 100.42C224.3 100.77 222.35 107.86 221.16 106.42Z" fill="#B4BEF1"/>
    <path d="M183.47 76.4C183.47 76.4 195.26 79.53 198.36 89.59C198.36 89.59 205.21 81.85 206.64 70.44L208.73 74C208.73 74 203.23 93.5 199.23 95.5C195.23 97.5 195.51 89.8 192.64 85.85C189.32 81.27 187.23 79.53 178.73 78L183.47 76.4Z" fill="#B4BEF1"/>
    <path d="M169.59 82.51C169.59 82.51 176.37 99.52 180.01 100.65C182.88 101.54 181.42 92.23 194.69 87.9L192.64 85.85C192.64 85.85 182.17 90.72 179.68 97.27C179.68 97.27 171.28 83.88 170.8 81.69L169.59 82.51Z" fill="#B4BEF1"/>
    <path d="M214.52 76.5C214.52 76.5 214.87 86.51 215.87 87.51C215.87 87.51 211.67 84.33 209.76 83.91C207.81 83.48 207.23 84.49 208.73 85.98C210.23 87.47 214.89 89.59 217.14 89.98C218.13 90.15 219.23 89.48 218.23 87.48C217.23 85.48 216.31 77.44 216.31 77.44L214.52 76.5Z" fill="#B4BEF1"/>
    <path d="M183.47 76.4C183.47 76.4 175.22 78.75 169.55 82.67L169.02 80.51C169.02 80.51 173.38 77.49 179.49 76.16C181.75 75.67 183.47 76.4 183.47 76.4Z" fill="#3952C6"/>
    <path d="M299.54 133.22C299.73 133.11 299.91 133.05 300.06 133.03C300.22 133.01 300.36 133.01 300.49 133.01L300.75 133.46C300.62 133.44 300.47 133.44 300.31 133.46C300.14 133.47 299.98 133.52 299.83 133.61C299.73 133.67 299.64 133.74 299.55 133.84C299.46 133.93 299.41 134.04 299.38 134.15C299.35 134.27 299.37 134.38 299.44 134.5C299.52 134.63 299.62 134.7 299.75 134.72C299.88 134.73 300.04 134.73 300.2 134.72L300.77 134.67C301.05 134.64 301.29 134.66 301.47 134.71C301.66 134.77 301.81 134.9 301.93 135.1C302.03 135.28 302.07 135.47 302.05 135.66C302.02 135.85 301.95 136.04 301.82 136.21C301.7 136.39 301.53 136.53 301.33 136.65C301.14 136.76 300.95 136.83 300.75 136.85C300.55 136.88 300.37 136.88 300.21 136.87L299.95 136.42C300.13 136.43 300.32 136.43 300.52 136.41C300.73 136.38 300.93 136.31 301.14 136.19C301.3 136.1 301.42 135.97 301.5 135.82C301.58 135.67 301.57 135.52 301.49 135.38C301.44 135.3 301.38 135.24 301.29 135.22C301.21 135.19 301.12 135.17 301.02 135.17C300.92 135.17 300.83 135.17 300.75 135.18L300.07 135.25C299.78 135.28 299.55 135.25 299.38 135.16C299.21 135.07 299.08 134.93 298.97 134.75C298.87 134.58 298.83 134.39 298.85 134.2C298.87 134 298.94 133.81 299.06 133.64C299.2 133.48 299.35 133.33 299.54 133.22ZM302.87 132.41C303.09 132.28 303.33 132.22 303.56 132.22C303.8 132.22 304.03 132.29 304.24 132.43C304.46 132.57 304.64 132.77 304.8 133.04C304.94 133.29 305.02 133.54 305.02 133.78C305.03 134.03 304.98 134.25 304.87 134.46C304.76 134.66 304.6 134.82 304.39 134.95C304.2 135.06 304.01 135.1 303.81 135.09C303.61 135.08 303.43 135.03 303.27 134.95L303.51 135.37L303.11 135.6L301.08 132.08L301.48 131.85L302.29 133.25C302.33 133.07 302.4 132.91 302.5 132.76C302.6 132.61 302.73 132.49 302.87 132.41ZM303.02 132.85C302.87 132.94 302.76 133.05 302.69 133.19C302.62 133.32 302.56 133.48 302.53 133.67L302.8 134.14C302.9 134.31 303.02 134.45 303.17 134.55C303.32 134.65 303.47 134.7 303.63 134.71C303.8 134.72 303.95 134.68 304.1 134.6C304.26 134.51 304.38 134.39 304.45 134.24C304.52 134.09 304.55 133.94 304.54 133.77C304.53 133.6 304.48 133.44 304.39 133.28C304.3 133.12 304.18 132.99 304.03 132.89C303.88 132.79 303.72 132.73 303.55 132.72C303.37 132.7 303.2 132.75 303.02 132.85ZM305.71 130.77C305.85 130.69 306.01 130.64 306.19 130.63C306.37 130.61 306.55 130.63 306.72 130.69L306.53 130.36L306.93 130.13L308.34 132.57L307.94 132.8L307.7 132.38C307.69 132.56 307.64 132.74 307.55 132.92C307.46 133.1 307.33 133.24 307.14 133.35C306.93 133.47 306.71 133.53 306.48 133.52C306.25 133.51 306.02 133.44 305.81 133.32C305.6 133.19 305.42 133 305.28 132.75C305.12 132.48 305.04 132.22 305.03 131.96C305.02 131.7 305.08 131.47 305.2 131.27C305.32 131.07 305.49 130.9 305.71 130.77ZM306.01 131.12C305.83 131.22 305.71 131.35 305.64 131.51C305.57 131.67 305.54 131.84 305.55 132.02C305.56 132.19 305.62 132.36 305.71 132.52C305.8 132.68 305.92 132.8 306.06 132.9C306.2 132.99 306.35 133.04 306.51 133.05C306.68 133.06 306.84 133.02 306.99 132.93C307.14 132.84 307.25 132.73 307.32 132.58C307.39 132.43 307.42 132.27 307.41 132.1C307.4 131.92 307.34 131.75 307.24 131.57L306.96 131.1C306.79 131.03 306.62 130.99 306.46 130.99C306.31 130.99 306.16 131.03 306.01 131.12ZM308.17 129.41L308.39 129.8C308.4 129.7 308.43 129.6 308.48 129.49C308.52 129.37 308.58 129.26 308.65 129.16C308.73 129.05 308.82 128.97 308.93 128.91C309.1 128.81 309.27 128.76 309.45 128.76C309.63 128.75 309.8 128.8 309.97 128.9C310.14 129 310.28 129.16 310.41 129.39L311.27 130.88L310.87 131.11L310.03 129.66C309.91 129.45 309.77 129.31 309.61 129.26C309.45 129.2 309.28 129.23 309.09 129.34C308.96 129.42 308.86 129.54 308.78 129.71C308.71 129.88 308.66 130.05 308.63 130.24L309.57 131.86L309.17 132.09L307.76 129.65L308.17 129.41ZM312.79 126.75L312.27 128.47L314.26 129.16L313.75 129.45L312.14 128.89L311.98 129.41L312.44 130.2L312.04 130.43L310.01 126.91L310.41 126.68L311.72 128.95L312.25 127.06L312.79 126.75Z" fill="white"/>
    <path d="M294.98 141.85C294.91 141.89 294.84 141.9 294.79 141.91C294.58 141.92 294.44 141.77 294.41 141.73L294.39 141.7L292.81 138.96C292.62 138.63 292.78 138.27 292.91 138.11C293.76 136.92 295.05 135.1 295.11 135.01C295.2 134.87 295.23 134.71 295.18 134.6C295.18 134.59 295.17 134.59 295.17 134.59C295.17 134.58 295.16 134.58 295.16 134.58C295.09 134.46 294.89 134.47 294.78 134.48C293.88 134.59 293.12 135.33 292.32 136.89C291.92 137.67 291.28 138.28 290.62 138.53C290.38 138.62 289.77 138.8 289.32 138.56C289.14 138.46 289.07 138.32 289.05 138.22C288.99 137.93 289.19 137.64 289.22 137.61L291.06 135.11C291.14 135.01 291.26 134.94 291.38 134.93C291.53 134.92 291.66 134.99 291.74 135.12L292.3 136.09C293.06 134.81 293.83 134.19 294.74 134.07C295.23 134.01 295.45 134.23 295.53 134.37C295.54 134.39 295.55 134.41 295.56 134.43C295.74 134.74 297.1 137.1 297.35 137.57C297.67 138.16 297.31 138.75 297.29 138.77C297.2 138.89 295.33 141.49 295.14 141.74C295.09 141.77 295.04 141.82 294.98 141.85ZM294.74 141.46C294.75 141.47 294.77 141.48 294.77 141.48C294.77 141.48 294.78 141.47 294.8 141.45C294.99 141.2 296.92 138.52 296.93 138.5C296.93 138.49 297.17 138.11 296.97 137.74C296.79 137.4 295.97 135.98 295.5 135.16C295.49 135.18 295.47 135.21 295.46 135.23C295.39 135.33 293.46 138.05 293.24 138.36C293.23 138.37 293.08 138.58 293.17 138.74L294.74 141.46ZM291.39 135.35L289.56 137.84C289.51 137.91 289.45 138.03 289.47 138.11C289.47 138.12 289.48 138.14 289.53 138.17C289.77 138.3 290.18 138.23 290.48 138.12C291.05 137.91 291.6 137.37 291.95 136.69C291.98 136.62 292.02 136.56 292.05 136.5L291.39 135.35Z" fill="white"/>
    <path d="M292.71 141.66C292.58 141.74 292.44 141.8 292.29 141.85C291.63 142.05 291.12 141.86 290.79 141.28L289.15 138.44L289.52 138.23L291.16 141.07C291.4 141.49 291.69 141.6 292.17 141.45C292.72 141.28 293.2 140.72 293.26 140.66L293.62 140.13L293.97 140.37L293.59 140.92C293.58 140.93 293.21 141.37 292.71 141.66Z" fill="white"/>
    <path d="M13.29 353.6C38.41 353.14 58.84 353.14 85.45 354.56C93.28 355.77 83.48 356.94 82.5 358.12C86.84 358.54 93.36 358.37 93.29 360.1C93.82 361.87 98.53 363.42 96.68 363.49C74.66 364.26 47.6 363.72 25.58 364.49C24.18 364.54 22.19 363.91 22.55 362.56C22.67 362.12 23.05 361.77 23.14 361.33C23.38 360.12 21.64 359.63 20.41 359.7C14.84 360.03 8.48003 360.47 4.52003 356.55C1.42003 353.14 10.71 355.79 13.01 353.77" fill="#E5E6E7"/>
    <path d="M131.87 361.17C154.26 360.52 176.68 360.55 199.07 361.32C196.71 362.95 194.35 364.58 191.99 366.21C196.11 365.9 200.29 366.48 204.16 367.92C208.59 371.05 166.18 371.07 147.18 369.92C143.84 369.73 142.43 368.25 147.67 367.57C140.32 367.9 125.69 368.26 125.69 366.11C124.55 363.62 128.73 361.31 131.3 361.98C131.29 361.98 130.17 361.21 131.87 361.17Z" fill="#E5E6E7"/>
</svg>
