<?xml version="1.0" encoding="utf-8"?>
<svg width="157" height="47" viewBox="0 0 157 47" fill="none" xmlns="http://www.w3.org/2000/svg">
    <path d="M69.0312 16.4219C70.3372 16.4219 71.4108 16.6101 72.252 16.9864C73.1152 17.3627 73.8678 17.7611 74.5098 18.1817V21.2696C73.89 20.8047 73.1374 20.3731 72.252 19.9746C71.3665 19.5541 70.4036 19.3438 69.3633 19.3438C68.6992 19.3438 68.002 19.4655 67.2715 19.709C66.5632 19.9304 65.9655 20.2956 65.4785 20.8047C64.9915 21.3138 64.748 21.9668 64.748 22.7637C64.748 23.6491 65.069 24.3242 65.7109 24.7891C66.3529 25.2539 67.1276 25.6966 68.0352 26.1172L71.0898 27.5117C72.6172 28.1979 73.7682 28.9616 74.543 29.8028C75.3177 30.6439 75.7051 31.7617 75.7051 33.1563C75.7051 34.3737 75.3509 35.4473 74.6426 36.377C73.9342 37.2845 73.0046 38.0039 71.8535 38.5352C70.7025 39.0664 69.4408 39.3321 68.0684 39.3321C66.7845 39.3321 65.6003 39.1107 64.5156 38.668C63.431 38.2253 62.4902 37.7272 61.6934 37.1739V34.086C62.5566 34.6836 63.5417 35.2259 64.6484 35.7129C65.7773 36.1778 67.0501 36.4102 68.4668 36.4102C69.5736 36.4102 70.5475 36.1335 71.3887 35.5801C72.2298 35.0267 72.6504 34.2631 72.6504 33.2891C72.6504 32.7357 72.4733 32.2598 72.1191 31.8614C71.7871 31.4629 71.3776 31.1198 70.8906 30.8321C70.4036 30.5443 69.9277 30.3008 69.4629 30.1016L65.7773 28.4414C64.1836 27.7331 63.099 26.903 62.5234 25.9512C61.9479 24.9994 61.6602 23.9037 61.6602 22.6641C61.6602 21.4909 61.9922 20.4395 62.6562 19.5098C63.3424 18.558 64.25 17.8054 65.3789 17.252C66.5078 16.6986 67.7253 16.4219 69.0312 16.4219Z" fill="#4759DD"/>
    <path d="M88.3555 22.0664C89.8828 22.0664 91.2441 22.4317 92.4395 23.1621C93.6569 23.8705 94.6087 24.8887 95.2949 26.2168C96.0033 27.545 96.3574 29.1276 96.3574 30.9649C96.3574 32.6472 96.0033 34.1302 95.2949 35.4141C94.6087 36.6979 93.679 37.7051 92.5059 38.4356C91.3548 39.1439 90.0599 39.4981 88.6211 39.4981C87.3594 39.4981 86.2305 39.166 85.2344 38.502C84.2604 37.8379 83.4857 37.0632 82.9102 36.1778V39H80.1875V15.0938H82.9102V24.6231C83.6185 23.8262 84.4596 23.2064 85.4336 22.7637C86.4297 22.2989 87.4036 22.0664 88.3555 22.0664ZM87.8574 24.7559C86.8392 24.7559 85.9427 24.9994 85.168 25.4864C84.3932 25.9512 83.6517 26.6153 82.9434 27.4785L82.9102 30.666C82.9102 31.8392 83.1315 32.8907 83.5742 33.8203C84.0391 34.75 84.6699 35.4805 85.4668 36.0117C86.2858 36.543 87.1934 36.8086 88.1895 36.8086C89.2741 36.8086 90.2148 36.543 91.0117 36.0117C91.8086 35.4805 92.4284 34.7722 92.8711 33.8867C93.3138 33.0013 93.5352 32.0274 93.5352 30.9649C93.5352 29.8802 93.3027 28.8731 92.8379 27.9434C92.3952 26.9916 91.7533 26.2279 90.9121 25.6524C90.071 25.0547 89.0527 24.7559 87.8574 24.7559Z" fill="#4759DD"/>
    <path d="M107.68 22.0664C108.632 22.0664 109.594 22.2989 110.568 22.7637C111.564 23.2064 112.417 23.8262 113.125 24.6231V22.3985H115.848V39H113.125V36.1778C112.549 37.0632 111.764 37.8379 110.768 38.502C109.794 39.166 108.676 39.4981 107.414 39.4981C105.997 39.4981 104.702 39.1439 103.529 38.4356C102.356 37.7051 101.415 36.6979 100.707 35.4141C100.021 34.1302 99.6777 32.6472 99.6777 30.9649C99.6777 29.1276 100.021 27.545 100.707 26.2168C101.415 24.8887 102.378 23.8705 103.596 23.1621C104.813 22.4317 106.174 22.0664 107.68 22.0664ZM108.178 24.7227C106.982 24.7227 105.964 25.0215 105.123 25.6192C104.282 26.2168 103.629 26.9916 103.164 27.9434C102.721 28.8731 102.5 29.8802 102.5 30.9649C102.5 32.0274 102.721 33.0124 103.164 33.92C103.607 34.8054 104.227 35.5137 105.023 36.045C105.842 36.5762 106.783 36.8418 107.846 36.8418C108.864 36.8418 109.771 36.5762 110.568 36.045C111.365 35.5137 111.996 34.7832 112.461 33.8535C112.926 32.9017 113.147 31.8392 113.125 30.666L113.092 27.4785C112.406 26.6153 111.664 25.9401 110.867 25.4532C110.092 24.9662 109.196 24.7227 108.178 24.7227Z" fill="#4759DD"/>
    <path d="M124.215 22.3985V25.0215C124.569 24.5788 125.023 24.1361 125.576 23.6934C126.13 23.2285 126.749 22.8412 127.436 22.5313C128.144 22.2214 128.874 22.0664 129.627 22.0664C130.756 22.0664 131.785 22.321 132.715 22.8301C133.645 23.3171 134.386 24.0697 134.939 25.0879C135.493 26.084 135.77 27.3457 135.77 28.8731V39H133.047L133.014 29.1387C133.014 27.6999 132.693 26.6042 132.051 25.8516C131.431 25.099 130.468 24.7227 129.162 24.7227C128.277 24.7227 127.391 25.0547 126.506 25.7188C125.643 26.3607 124.879 27.1133 124.215 27.9766V39H121.492V22.3985H124.215Z" fill="#4759DD"/>
    <path d="M155.592 22.3985L147.889 29.6367L156.023 39H152.57L145.996 31.4297L143.639 33.6211V39H140.916V15.0938H143.639V30.5L151.906 22.3985H155.592Z" fill="#4759DD"/>
    <path fill-rule="evenodd" clip-rule="evenodd" d="M21.2017 3.25638V11.0077C20.8402 11.2317 20.4748 11.4623 20.1054 11.6995C16.2066 14.204 11.8066 15.2461 8.39038 14.6711C7.73459 14.5606 6.68878 14.3232 5.68118 13.8878C4.65082 13.4425 3.8166 12.8573 3.37999 12.1407C3.22291 11.8829 3.24546 11.7537 3.26081 11.6916C3.28727 11.5844 3.37383 11.4243 3.57384 11.2272C3.76832 11.0355 4.00718 10.871 4.21446 10.7495C4.31453 10.6909 4.39914 10.647 4.45571 10.6191C4.4838 10.6053 4.50442 10.5956 4.51592 10.5904L4.52444 10.5865L21.2017 3.25638ZM3.53222 8.29181L20.25 0.943846C20.9091 0.654824 21.7185 0.620252 22.4344 0.958219C22.7231 1.09429 23.0513 1.31736 23.3064 1.67835C23.5701 2.05137 23.7017 2.49578 23.7017 2.97449V9.53157C31.2285 5.31836 37.0203 4.29169 42.088 6.45374C43.1818 6.92031 44.027 7.54248 44.5739 8.3206C45.0919 9.0577 45.298 9.87444 45.2407 10.6783L45.2405 11.2636C45.2404 11.7667 45.24 12.4889 45.2393 13.3658C45.2379 15.1195 45.2351 17.492 45.2294 19.9669C45.2182 24.9052 45.1956 30.2838 45.1499 31.9401C45.0934 33.9876 44.1002 35.4861 43.1861 36.4344C42.7273 36.9104 42.274 37.2641 41.9335 37.5004C41.7623 37.6192 41.6171 37.7101 41.5106 37.7735C41.4573 37.8052 41.4134 37.8301 41.3805 37.8484C41.3699 37.8543 41.3604 37.8595 41.3521 37.864C41.3475 37.8665 41.3434 37.8687 41.3395 37.8708L41.3256 37.8782L41.3203 37.881L41.317 37.8827C41.3166 37.8829 41.3161 37.8832 40.7395 36.7741C41.2533 37.9136 41.2532 37.9137 41.253 37.9137L40.4813 38.2615C39.989 38.4833 39.2837 38.8011 38.432 39.1846C36.7286 39.9516 34.4395 40.9818 32.0967 42.0345C27.4252 44.1334 22.5024 46.3389 21.6249 46.7062C21.0027 46.9667 20.376 47.0456 19.7811 46.8919C19.1903 46.7393 18.7721 46.3937 18.4963 46.0598C18.2271 45.7338 18.0687 45.3909 17.9788 45.1526C17.9321 45.0289 17.8994 44.9213 17.8775 44.8404C17.8665 44.7997 17.858 44.765 17.8516 44.7376C17.8484 44.7238 17.8458 44.7118 17.8437 44.7017L17.8408 44.688L17.8396 44.6822L17.8391 44.6796L17.8388 44.6784C17.8387 44.6778 17.8386 44.6772 19.0651 44.4358C17.8151 44.4358 17.8151 44.4358 17.8151 44.4356V25.8002C17.8151 24.2929 18.6604 23.2575 19.3631 22.6619C19.7201 22.3592 20.0715 22.1413 20.332 21.9987C20.4637 21.9267 20.5759 21.8719 20.6591 21.8335C20.7008 21.8143 20.7355 21.7991 20.7621 21.7877L20.7776 21.7812L23.8659 20.3705C25.7344 19.5168 28.2322 18.3751 30.7495 17.2233C33.267 16.0715 35.8036 14.9097 37.7499 14.0157C38.7232 13.5687 39.548 13.189 40.1487 12.911C40.4493 12.772 40.6925 12.659 40.8697 12.5761C40.9584 12.5346 41.029 12.5013 41.0813 12.4763C41.1398 12.4485 41.1602 12.4382 41.1591 12.4388C42.115 11.9447 42.6664 11.1622 42.7407 10.5649L42.7407 10.4799L42.7407 10.4775C42.7407 10.4774 42.7407 10.4768 42.7485 10.4768C42.7607 10.241 42.7016 10.0044 42.5285 9.75811C42.3214 9.46339 41.9048 9.09355 41.107 8.75324C36.4775 6.77814 30.6441 7.90158 21.4565 13.803C17.1679 16.5579 12.145 17.8383 7.9752 17.1364C7.20048 17.0059 5.94318 16.7245 4.68942 16.1826C3.45841 15.6506 2.0728 14.8 1.24507 13.4415C0.76998 12.6618 0.645833 11.8532 0.833682 11.0923C1.01041 10.3765 1.43185 9.82822 1.81885 9.44675C2.2114 9.05981 2.63857 8.77538 2.95057 8.59256C3.11015 8.49906 3.24849 8.42699 3.34997 8.37694C3.4009 8.35183 3.44307 8.332 3.4746 8.31755C3.49039 8.31032 3.50355 8.30441 3.51387 8.29985L3.52545 8.29476L3.5272 8.29399L3.53222 8.29181ZM21.2777 22.927C21.7969 24.0641 21.7969 24.0641 21.7971 24.064L24.9049 22.6444C26.7736 21.7905 29.2718 20.6487 31.7897 19.4967C36.7931 17.2074 41.9572 14.8405 42.3068 14.6598C42.4526 14.5844 42.5969 14.5024 42.7383 14.4142C42.7367 16.0116 42.734 17.9528 42.7294 19.9612C42.7181 24.9194 42.6955 30.2553 42.6509 31.8712C42.6171 33.0959 42.0298 34.0317 41.3861 34.6994C41.066 35.0316 40.746 35.2814 40.508 35.4466C40.3899 35.5286 40.2945 35.588 40.2327 35.6247C40.2114 35.6374 40.1943 35.6473 40.1817 35.6544L39.4543 35.9822C38.9621 36.204 38.257 36.5216 37.4055 36.905C35.7025 37.6719 33.414 38.7018 31.072 39.7541C26.3738 41.8651 21.4979 44.0492 20.6595 44.4001C20.5384 44.4508 20.4632 44.4652 20.4247 44.4687C20.4245 44.4685 20.4243 44.4682 20.4241 44.468C20.3885 44.4249 20.3494 44.3537 20.3179 44.2703C20.3169 44.2677 20.316 44.2652 20.3151 44.2627V25.8002C20.3151 25.3122 20.5761 24.911 20.9797 24.5689C21.1758 24.4027 21.3775 24.2764 21.5319 24.192C21.6077 24.1505 21.6683 24.1212 21.7061 24.1037C21.7249 24.0951 21.7377 24.0895 21.7436 24.087C21.7441 24.0868 21.7446 24.0866 21.745 24.0864L21.7681 24.0772L21.7971 24.064L21.2777 22.927ZM19.0651 44.4358L17.8151 44.4356V44.5577L17.8386 44.6772L19.0651 44.4358ZM40.7395 36.7741L41.253 37.9137L41.2851 37.8993L41.3161 37.8832L40.7395 36.7741Z" fill="#4759DD"/>
    <path fill-rule="evenodd" clip-rule="evenodd" d="M3.25 31.7029C3.25 33.0157 3.50402 34.0308 4.058 34.7955C4.59995 35.5437 5.54877 36.2168 7.27672 36.6131C8.96057 36.9993 10.9193 36.8145 12.5319 36.4943C13.3238 36.3371 14.0023 36.1534 14.481 36.0095C14.7198 35.9377 14.9075 35.8763 15.0331 35.8337C15.0913 35.814 15.136 35.7983 15.1663 35.7875L18.5758 34.1716L19.6465 36.4308L16.134 38.0955L16.0834 38.1143L15.6474 36.9428C16.0834 38.1143 16.0837 38.1142 16.0834 38.1143L16.0822 38.1147L16.0806 38.1154L16.076 38.1171L16.0616 38.1223L16.0124 38.14C15.9708 38.1549 15.9116 38.1756 15.8362 38.2012C15.6856 38.2523 15.4699 38.3228 15.2005 38.4037C14.6626 38.5654 13.9051 38.7704 13.0188 38.9464C11.2749 39.2927 8.90853 39.5523 6.71783 39.0498C4.57122 38.5575 3.02141 37.6261 2.03336 36.2621C1.05734 34.9147 0.75 33.3099 0.75 31.7029V12.3837C0.75 12.3835 0.75 12.3835 2 12.3835C3.25 12.3835 3.25 12.3835 3.25 12.3837V31.7029Z" fill="#4759DD"/>
</svg>

