<?xml version="1.0" encoding="utf-8"?>
<svg width="345" height="312" viewBox="0 0 345 312" fill="none" xmlns="http://www.w3.org/2000/svg">
    <g opacity="0.7">
        <path d="M194.14 33.7647C194.689 33.7647 195.135 33.3199 195.135 32.7713C195.135 32.2227 194.689 31.7779 194.14 31.7779C193.591 31.7779 193.146 32.2227 193.146 32.7713C193.146 33.3199 193.591 33.7647 194.14 33.7647Z" fill="#F2F2F2"/>
        <path d="M72.7111 72.4179C73.6561 72.4179 74.4221 71.6528 74.4221 70.7089C74.4221 69.7651 73.6561 69 72.7111 69C71.7661 69 71 69.7651 71 70.7089C71 71.6528 71.7661 72.4179 72.7111 72.4179Z" fill="#20DEB0"/>
        <path d="M58.5418 145.424C60.4086 145.424 61.922 143.912 61.922 142.048C61.922 140.183 60.4086 138.672 58.5418 138.672C56.675 138.672 55.1616 140.183 55.1616 142.048C55.1616 143.912 56.675 145.424 58.5418 145.424Z" fill="#20DEB0"/>
        <path d="M261.442 40.9815C262.686 40.9815 263.695 39.9741 263.695 38.7315C263.695 37.4889 262.686 36.4815 261.442 36.4815C260.198 36.4815 259.189 37.4889 259.189 38.7315C259.189 39.9741 260.198 40.9815 261.442 40.9815Z" fill="#20DEB0"/>
        <path d="M297.658 120.306C299.678 120.306 301.315 118.671 301.315 116.653C301.315 114.636 299.678 113 297.658 113C295.638 113 294 114.636 294 116.653C294 118.671 295.638 120.306 297.658 120.306Z" fill="#20DEB0"/>
        <path d="M312.741 75.3352C313.608 75.3352 314.311 74.6334 314.311 73.7678C314.311 72.9022 313.608 72.2005 312.741 72.2005C311.874 72.2005 311.172 72.9022 311.172 73.7678C311.172 74.6334 311.874 75.3352 312.741 75.3352Z" fill="#20DEB0"/>
        <path d="M155.448 73.8902C156.8 73.8902 157.896 72.7955 157.896 71.4451C157.896 70.0947 156.8 69 155.448 69C154.096 69 153 70.0947 153 71.4451C153 72.7955 154.096 73.8902 155.448 73.8902Z" fill="#20DEB0"/>
        <path d="M265.569 148.135C266.436 148.135 267.139 147.433 267.139 146.567C267.139 145.702 266.436 145 265.569 145C264.703 145 264 145.702 264 146.567C264 147.433 264.703 148.135 265.569 148.135Z" fill="#20DEB0"/>
        <path d="M14.9532 63.9016C16.0319 63.9016 16.9064 63.0282 16.9064 61.9508C16.9064 60.8734 16.0319 60 14.9532 60C13.8745 60 13 60.8734 13 61.9508C13 63.0282 13.8745 63.9016 14.9532 63.9016Z" fill="#20DEB0"/>
        <path d="M100.115 117.225C101.283 117.225 102.23 116.279 102.23 115.113C102.23 113.946 101.283 113 100.115 113C98.947 113 98 113.946 98 115.113C98 116.279 98.947 117.225 100.115 117.225Z" fill="#20DEB0"/>
        <path d="M103.589 11.1687H99.4155V7H97.1759V11.1687H93V13.4074H97.1759V17.5762H99.4155V13.4074H103.589V11.1687Z" fill="#20DEB0"/>
        <path d="M335.971 180.957H334.011V179H332.959V180.957H331V182.008H332.959V183.964H334.011V182.008H335.971V180.957Z" fill="#20DEB0"/>
        <path opacity="0.1" d="M158.294 164.569C162.322 164.569 165.588 161.308 165.588 157.285C165.588 153.261 162.322 150 158.294 150C154.266 150 151 153.261 151 157.285C151 161.308 154.266 164.569 158.294 164.569Z" fill="black"/>
        <path opacity="0.1" d="M226.294 106.569C230.322 106.569 233.588 103.308 233.588 99.2847C233.588 95.2615 230.322 92 226.294 92C222.266 92 219 95.2615 219 99.2847C219 103.308 222.266 106.569 226.294 106.569Z" fill="black"/>
    </g>
</svg>
