<?xml version="1.0" encoding="utf-8"?>
<svg width="72" height="72" viewBox="0 0 72 72" fill="none" xmlns="http://www.w3.org/2000/svg">
    <g filter="url(#filter0_d)">
        <circle cx="36" cy="33" r="30" fill="white"/>
    </g>
    <path d="M50.46 23.115C49.6939 22.3485 48.7842 21.7405 47.783 21.3256C46.7819 20.9108 45.7087 20.6973 44.625 20.6973C43.5413 20.6973 42.4682 20.9108 41.467 21.3256C40.4658 21.7405 39.5561 22.3485 38.79 23.115L37.2 24.705L35.61 23.115C34.0625 21.5675 31.9636 20.6981 29.775 20.6981C27.5865 20.6981 25.4875 21.5675 23.94 23.115C22.3925 24.6625 21.5231 26.7615 21.5231 28.95C21.5231 31.1386 22.3925 33.2375 23.94 34.785L25.53 36.375L37.2 48.045L48.87 36.375L50.46 34.785C51.2265 34.0189 51.8345 33.1092 52.2494 32.108C52.6642 31.1068 52.8777 30.0337 52.8777 28.95C52.8777 27.8663 52.6642 26.7932 52.2494 25.792C51.8345 24.7908 51.2265 23.8811 50.46 23.115Z" fill="#8230DF"/>
    <defs>
        <filter id="filter0_d" x="0" y="0" width="72" height="72" filterUnits="userSpaceOnUse" color-interpolation-filters="sRGB">
            <feFlood flood-opacity="0" result="BackgroundImageFix"/>
            <feColorMatrix in="SourceAlpha" type="matrix" values="0 0 0 0 0 0 0 0 0 0 0 0 0 0 0 0 0 0 127 0"/>
            <feMorphology radius="1" operator="dilate" in="SourceAlpha" result="effect1_dropShadow"/>
            <feOffset dy="3"/>
            <feGaussianBlur stdDeviation="2.5"/>
            <feColorMatrix type="matrix" values="0 0 0 0 0 0 0 0 0 0 0 0 0 0 0 0 0 0 0.1 0"/>
            <feBlend mode="normal" in2="BackgroundImageFix" result="effect1_dropShadow"/>
            <feBlend mode="normal" in="SourceGraphic" in2="effect1_dropShadow" result="shape"/>
        </filter>
    </defs>
</svg>
