<svg width="15" height="16" viewBox="0 0 15 16" fill="none" xmlns="http://www.w3.org/2000/svg">
    <path d="M14.6765 14.7461V13.0994C14.6765 10.8665 12.8659 9.0564 10.6324 9.0564H4.04412C1.81061 9.0564 0 10.8665 0 13.0994V14.7461C0 15.1602 0.335786 15.4959 0.75 15.4959C1.16421 15.4959 1.5 15.1602 1.5 14.7461V13.0994C1.5 11.6947 2.63904 10.556 4.04412 10.556H10.6324C12.0374 10.556 13.1765 11.6947 13.1765 13.0994V14.7461C13.1765 15.1602 13.5123 15.4959 13.9265 15.4959C14.3407 15.4959 14.6765 15.1602 14.6765 14.7461Z" fill="#979797"/>
    <path fill-rule="evenodd" clip-rule="evenodd" d="M3.29395 4.04304C3.29395 6.27595 5.10456 8.08608 7.33806 8.08608C9.57157 8.08608 11.3822 6.27595 11.3822 4.04304C11.3822 1.81013 9.57157 0 7.33806 0C5.10456 0 3.29395 1.81013 3.29395 4.04304ZM9.88218 4.04304C9.88218 5.44774 8.74314 6.58648 7.33806 6.58648C5.93299 6.58648 4.79395 5.44774 4.79395 4.04304C4.79395 2.63834 5.93299 1.4996 7.33806 1.4996C8.74314 1.4996 9.88218 2.63834 9.88218 4.04304Z" fill="#979797"/>
</svg>
