<?xml version="1.0" encoding="utf-8"?>
<svg width="58" height="66" viewBox="0 0 58 66" fill="none" xmlns="http://www.w3.org/2000/svg">
    <path d="M34.8623 27.2979C34.3105 27.6164 33.8747 28.0378 33.4879 28.5441C32.2697 28.0024 30.8477 28.0878 29.6593 28.7739C29.0651 29.1169 28.5444 29.5873 28.2066 30.1785C27.0619 29.7641 25.7493 29.8429 24.6034 30.5045C24.3063 30.6761 24.0761 30.8655 23.8459 31.055L18.9941 22.6514C17.8179 20.6141 15.1825 19.8721 13.1028 21.0728C11.0231 22.2735 10.3235 24.8844 11.5242 26.9641L20.5173 42.5406L17.1664 40.8534C16.216 40.3835 15.0486 40.3218 14.0413 40.7336C13.0341 41.1454 12.2229 41.8966 11.6681 42.896C11.1802 43.9134 11.0271 45.0204 11.354 46.0767C11.6384 47.1575 12.3718 48.0356 13.3222 48.5055C13.4806 48.5839 27.2432 55.4646 29.6192 56.6393C32.5798 58.0425 36.7187 57.86 39.6896 56.1447L42.5757 54.4784C47.7962 51.4644 49.657 44.7876 46.7099 39.5851L40.5838 28.9745C39.3341 26.8099 36.8995 26.1217 34.8623 27.2979ZM44.4652 40.5981L44.5633 40.7679C46.8487 44.8245 45.4005 49.9614 41.326 52.3138L38.4399 53.9801C35.8934 55.4504 32.5675 55.2768 30.6912 54.3794C28.3397 53.247 14.5525 46.3238 14.4186 46.288C14.0773 46.0889 13.8389 45.7738 13.7277 45.3853C13.5921 44.9543 13.6686 44.4008 13.8612 43.9501C14.0357 43.5663 14.3263 43.2854 14.6658 43.0894C14.7507 43.0404 14.8356 42.9914 14.9204 42.9424C15.3269 42.7643 15.7465 42.805 16.0633 42.9616L23.0819 46.4925C23.5571 46.7275 24.1644 46.6032 24.5153 46.2308C24.9087 45.8339 24.9607 45.238 24.6912 44.7711L13.6643 25.672C13.1497 24.7807 13.4546 23.6426 14.3459 23.128C15.2372 22.6134 16.3753 22.9183 16.8899 23.8096L25.6624 39.0041C26.0055 39.5983 26.7419 39.7956 27.3361 39.4526C27.9303 39.1095 28.1276 38.3731 27.7845 37.7789L25.1871 33.28C25.3437 32.9632 25.5494 32.7312 25.8465 32.5597C26.4831 32.1922 27.2554 32.2556 27.8531 32.7027L30.181 36.7348C30.5241 37.329 31.2605 37.5263 31.8547 37.1832C32.4489 36.8402 32.6462 36.1038 32.3032 35.5096L30.1223 31.7322C30.2969 31.3485 30.5205 31.0496 30.9024 30.8291C31.5815 30.437 32.4877 30.5363 33.0675 31.0504L35.1013 34.5732C35.4444 35.1673 36.1808 35.3647 36.775 35.0216C37.3692 34.6786 37.5665 33.9421 37.2235 33.3479L35.3856 30.1647C35.5178 29.8055 35.8083 29.5246 36.1054 29.353C37.0392 28.8139 37.9716 29.3508 38.4372 30.1572L44.4652 40.5981Z" fill="white"/>
    <path d="M57 27C55.3333 19.5 47.4 4.99998 29 6.99998" stroke="white" stroke-width="2" stroke-linecap="round"/>
    <path d="M19 7L29.5 0.937823L29.5 13.0622L19 7Z" fill="white"/>
</svg>

