<?xml version="1.0" encoding="utf-8"?>
<svg width="66" height="59" viewBox="0 0 66 59" fill="none" xmlns="http://www.w3.org/2000/svg">
    <path d="M21.5133 43.2549C21.9908 42.8331 22.3343 42.3335 22.6128 41.7605C23.9143 42.0495 25.2911 41.6834 26.3195 40.7749C26.8338 40.3207 27.2507 39.7562 27.4643 39.1098C28.6685 39.2885 29.9393 38.9506 30.931 38.0746C31.1881 37.8475 31.3761 37.6161 31.564 37.3847L37.9882 44.6573C39.5456 46.4204 42.2759 46.6242 44.0757 45.0344C45.8755 43.4446 46.0426 40.7467 44.4528 38.9469L32.5453 25.4668L36.1645 26.4549C37.1893 26.7267 38.3457 26.5552 39.2511 25.9516C40.1565 25.348 40.8023 24.4506 41.1476 23.3609C41.4237 22.267 41.3539 21.1515 40.8237 20.1812C40.3303 19.1785 39.4372 18.4635 38.4124 18.1917C38.2416 18.1464 23.3865 14.1361 20.8246 13.4566C17.6443 12.6693 13.6241 13.6703 11.053 15.9415L8.55532 18.1477C4.03747 22.1385 3.53979 29.0518 7.46141 33.5654L15.5728 42.748C17.2275 44.6213 19.7503 44.8122 21.5133 43.2549ZM9.46016 32.1268L9.33037 31.9798C6.28478 28.458 6.68391 23.1357 10.21 20.021L12.7077 17.8147C14.9115 15.868 18.2056 15.3776 20.2228 15.8844C22.7523 16.5272 37.6398 20.5743 37.7782 20.5828C38.1522 20.7102 38.4485 20.9716 38.6346 21.3303C38.8532 21.7258 38.888 22.2835 38.7889 22.7634C38.694 23.1742 38.465 23.5072 38.1712 23.7668C38.0977 23.8317 38.0243 23.8966 37.9508 23.9615C37.5878 24.2167 37.1685 24.2602 36.8269 24.1696L29.2469 22.1029C28.7345 21.967 28.164 22.2095 27.894 22.6441C27.5873 23.1112 27.6546 23.7056 28.0115 24.1096L42.612 40.6383C43.2933 41.4097 43.2205 42.5857 42.4492 43.267C41.6778 43.9484 40.5018 43.8755 39.8205 43.1042L28.205 29.9547C27.7508 29.4405 26.9898 29.3933 26.4756 29.8476C25.9614 30.3018 25.9142 31.0627 26.3685 31.577L29.8077 35.4704C29.7171 35.812 29.5616 36.0801 29.3045 36.3073C28.7535 36.7939 27.984 36.8852 27.3094 36.5656L24.2271 33.0762C23.7728 32.562 23.0119 32.5149 22.4977 32.9691C21.9835 33.4233 21.9363 34.1843 22.3906 34.6985L25.2782 37.9675C25.1833 38.3783 25.0235 38.7156 24.693 39.0076C24.1053 39.5267 23.1974 39.6093 22.5271 39.2206L19.8341 36.172C19.3799 35.6578 18.619 35.6106 18.1047 36.0649C17.5905 36.5191 17.5434 37.28 17.9976 37.7943L20.431 40.549C20.3729 40.9274 20.1439 41.2604 19.8868 41.4875C19.0787 42.2013 18.0582 41.8603 17.4417 41.1625L9.46016 32.1268Z" fill="white"/>
    <path d="M58.082 38L64.1442 27.5H52.0199L58.082 38Z" fill="white"/>
    <line x1="58" y1="1" x2="58" y2="30" stroke="white" stroke-width="2" stroke-linecap="round"/>
</svg>

