<?xml version="1.0" encoding="utf-8"?>
<svg width="68" height="77" viewBox="0 0 68 77" fill="none" xmlns="http://www.w3.org/2000/svg">
    <path d="M40.6921 53.3021C40.227 52.8666 39.6973 52.572 39.1005 52.3489C39.2651 51.0259 38.7704 49.6899 37.7687 48.752C37.2679 48.283 36.6666 47.9214 36.0028 47.7698C36.0669 46.5542 35.6103 45.321 34.6444 44.4166C34.394 44.1821 34.1458 44.0168 33.8977 43.8516L40.5302 36.7684C42.138 35.0513 42.0827 32.3139 40.3298 30.6726C38.5769 29.0312 35.8753 29.12 34.234 30.8729L21.9405 44.0019L22.5818 40.3055C22.7555 39.2596 22.4754 38.1246 21.7889 37.2803C21.1024 36.4361 20.1479 35.878 19.0304 35.6373C17.9153 35.4659 16.8114 35.6409 15.8956 36.2605C14.9441 36.8465 14.3167 37.8033 14.143 38.8492C14.1141 39.0235 11.5267 54.1912 11.0925 56.806C10.6096 60.0464 11.9863 63.9539 14.4904 66.2987L16.923 68.5766C21.3232 72.6967 28.2526 72.5384 32.375 68.2074L40.7494 59.264C42.4577 57.4395 42.4093 54.91 40.6921 53.3021ZM30.7538 66.3537L30.6198 66.4968C27.4018 69.8618 22.0657 69.9678 18.6314 66.7521L16.1988 64.4743C14.0523 62.4645 13.2526 59.2315 13.5664 57.1755C13.9671 54.5965 16.588 39.3929 16.5835 39.2544C16.6749 38.87 16.9071 38.5503 17.2466 38.3311C17.6196 38.0761 18.1715 37.9887 18.6587 38.042C19.0766 38.0976 19.4298 38.294 19.716 38.562C19.7875 38.629 19.8591 38.696 19.9306 38.763C20.2191 39.1002 20.302 39.5136 20.2441 39.8622L18.9036 47.6037C18.8168 48.1266 19.1121 48.6717 19.5703 48.8993C20.0643 49.1605 20.6497 49.0372 21.0181 48.6437L36.0919 32.5455C36.7954 31.7942 37.973 31.7555 38.7242 32.459C39.4755 33.1624 39.5142 34.34 38.8107 35.0913L26.8187 47.8983C26.3497 48.3991 26.3748 49.1611 26.8756 49.6301C27.3764 50.099 28.1384 50.074 28.6074 49.5732L32.1581 45.7812C32.5067 45.839 32.7884 45.9685 33.0388 46.203C33.5754 46.7054 33.739 47.4628 33.4847 48.1647L30.3024 51.5632C29.8335 52.064 29.8585 52.826 30.3594 53.295C30.8602 53.7639 31.6222 53.7389 32.0911 53.238L35.0724 50.0542C35.4903 50.1098 35.8412 50.237 36.1631 50.5384C36.7355 51.0744 36.9037 51.9703 36.5801 52.6744L33.7998 55.6437C33.3308 56.1445 33.3559 56.9065 33.8567 57.3754C34.3576 57.8444 35.1195 57.8194 35.5885 57.3185L38.1008 54.6355C38.4829 54.6576 38.8361 54.854 39.0865 55.0885C39.8736 55.8255 39.6306 56.8736 38.9942 57.5534L30.7538 66.3537Z" fill="white"/>
    <path d="M22.0189 19.6109C28.5007 15.4861 44.3635 10.8428 55.96 25.2678" stroke="white" stroke-width="2" stroke-linecap="round"/>
    <path d="M63.0311 32.3389L59.8931 20.6276L51.3199 29.2008L63.0311 32.3389Z" fill="white"/>
</svg>


