<?xml version="1.0" encoding="utf-8"?>
<svg width="240" height="57" viewBox="0 0 240 57" fill="none" xmlns="http://www.w3.org/2000/svg">
    <path d="M81.6873 16.3172C83.1822 16.3172 84.4111 16.5326 85.3739 16.9633C86.362 17.394 87.2235 17.8501 87.9583 18.3315V21.866C87.2488 21.334 86.3874 20.8399 85.3739 20.3838C84.3604 19.9024 83.2582 19.6617 82.0674 19.6617C81.3072 19.6617 80.5091 19.8011 79.673 20.0798C78.8622 20.3331 78.1781 20.7512 77.6207 21.334C77.0633 21.9167 76.7845 22.6642 76.7845 23.5763C76.7845 24.5898 77.1519 25.3626 77.8867 25.8947C78.6215 26.4268 79.5083 26.9335 80.5471 27.4149L84.0437 29.0112C85.7919 29.7966 87.1095 30.6707 87.9963 31.6336C88.8831 32.5964 89.3265 33.8759 89.3265 35.4722C89.3265 36.8657 88.9211 38.0946 88.1103 39.1587C87.2995 40.1976 86.2353 41.021 84.9178 41.6291C83.6003 42.2372 82.156 42.5413 80.5851 42.5413C79.1156 42.5413 77.76 42.2879 76.5185 41.7811C75.277 41.2744 74.2001 40.7043 73.288 40.0709V36.5363C74.2762 37.2204 75.4037 37.8412 76.6705 38.3986C77.9627 38.9307 79.4196 39.1967 81.0412 39.1967C82.3081 39.1967 83.4229 38.88 84.3857 38.2466C85.3485 37.6132 85.8299 36.739 85.8299 35.6242C85.8299 34.9907 85.6273 34.446 85.2219 33.9899C84.8418 33.5339 84.3731 33.1411 83.8156 32.8117C83.2582 32.4824 82.7135 32.2036 82.1814 31.9756L77.9627 30.0753C76.1384 29.2645 74.8969 28.3144 74.2382 27.2249C73.5794 26.1354 73.25 24.8812 73.25 23.4623C73.25 22.1194 73.6301 20.9159 74.3902 19.8517C75.1756 18.7622 76.2145 17.9008 77.5067 17.2673C78.7989 16.6339 80.1924 16.3172 81.6873 16.3172Z" fill="white"/>
    <path d="M104.377 16.0892C106.252 16.0892 107.873 16.4059 109.242 17.0393C110.635 17.6474 111.712 18.4835 112.472 19.5477C113.232 20.6119 113.612 21.8407 113.612 23.2343C113.612 24.4758 113.258 25.616 112.548 26.6548C111.839 27.6683 110.952 28.4284 109.888 28.9351C110.648 29.0872 111.395 29.4039 112.13 29.8853C112.865 30.3667 113.473 31.0255 113.954 31.8616C114.461 32.6977 114.714 33.7366 114.714 34.9781C114.714 36.397 114.309 37.6765 113.498 38.8167C112.687 39.9569 111.522 40.869 110.002 41.5531C108.507 42.2119 106.733 42.5413 104.681 42.5413C103.11 42.5413 101.463 42.4399 99.7401 42.2372C98.0425 42.0598 96.5983 41.8445 95.4074 41.5911V17.0393C96.725 16.7353 98.1565 16.5072 99.7021 16.3552C101.273 16.1778 102.831 16.0892 104.377 16.0892ZM104.149 19.3197C103.085 19.3197 102.122 19.3577 101.26 19.4337C100.424 19.5097 99.6134 19.6237 98.828 19.7757V27.757H104.795C106.518 27.757 107.835 27.3262 108.748 26.4648C109.66 25.578 110.116 24.5518 110.116 23.3863C110.116 22.4741 109.837 21.7267 109.28 21.1439C108.722 20.5358 107.987 20.0798 107.075 19.7757C106.188 19.4717 105.213 19.3197 104.149 19.3197ZM98.828 38.8547C99.7401 39.032 100.754 39.1587 101.868 39.2347C102.983 39.2854 103.895 39.3108 104.605 39.3108C106.505 39.3108 108.076 38.918 109.318 38.1326C110.584 37.3471 111.218 36.2956 111.218 34.9781C111.218 33.5845 110.597 32.5457 109.356 31.8616C108.139 31.1522 106.645 30.7974 104.871 30.7974H98.828V38.8547Z" fill="white"/>
    <path d="M128.321 22.7782C130.272 22.7782 131.893 23.1836 133.185 23.9944C134.477 24.8052 135.44 25.9073 136.074 27.3009C136.733 28.6944 137.062 30.2654 137.062 32.0136V33.8759H122.468C122.62 34.9401 122.987 35.9156 123.57 36.8024C124.153 37.6892 124.913 38.3986 125.85 38.9307C126.788 39.4374 127.864 39.6908 129.081 39.6908C130.449 39.6908 131.728 39.3488 132.919 38.6647C134.11 37.9552 135.111 37.1824 135.922 36.3463L135.884 39.7288C135.529 40.1595 134.997 40.6156 134.287 41.097C133.603 41.5531 132.805 41.9332 131.893 42.2372C131.006 42.5666 130.069 42.7313 129.081 42.7313C127.155 42.7313 125.445 42.2752 123.95 41.3631C122.455 40.4509 121.277 39.2474 120.415 37.7525C119.579 36.2323 119.161 34.5727 119.161 32.7737C119.161 30.9748 119.554 29.3152 120.339 27.795C121.125 26.2747 122.202 25.0585 123.57 24.1464C124.963 23.2343 126.547 22.7782 128.321 22.7782ZM128.321 25.8187C126.75 25.8187 125.457 26.3507 124.444 27.4149C123.43 28.4537 122.797 29.7206 122.544 31.2155H133.983C133.857 29.974 133.502 28.9605 132.919 28.175C132.362 27.3896 131.678 26.8068 130.867 26.4268C130.056 26.0214 129.207 25.8187 128.321 25.8187Z" fill="white"/>
    <path d="M145.309 23.1582V26.1607C145.715 25.654 146.234 25.1472 146.867 24.6405C147.501 24.1084 148.21 23.665 148.996 23.3103C149.807 22.9556 150.643 22.7782 151.504 22.7782C152.796 22.7782 153.975 23.0696 155.039 23.6523C156.103 24.2097 156.952 25.0712 157.585 26.2367C158.219 27.3769 158.535 28.8211 158.535 30.5694V42.1612H155.419L155.381 30.8734C155.381 29.2265 155.013 27.9723 154.279 27.1109C153.569 26.2494 152.467 25.8187 150.972 25.8187C149.959 25.8187 148.945 26.1987 147.932 26.9588C146.943 27.6936 146.069 28.5551 145.309 29.5432V42.1612H142.193V23.1582H145.309Z" fill="white"/>
    <path d="M172.255 22.7782C174.206 22.7782 175.828 23.1836 177.12 23.9944C178.412 24.8052 179.375 25.9073 180.009 27.3009C180.667 28.6944 180.997 30.2654 180.997 32.0136V33.8759H166.402C166.554 34.9401 166.922 35.9156 167.505 36.8024C168.087 37.6892 168.847 38.3986 169.785 38.9307C170.722 39.4374 171.799 39.6908 173.015 39.6908C174.384 39.6908 175.663 39.3488 176.854 38.6647C178.045 37.9552 179.046 37.1824 179.857 36.3463L179.819 39.7288C179.464 40.1595 178.932 40.6156 178.222 41.097C177.538 41.5531 176.74 41.9332 175.828 42.2372C174.941 42.5666 174.004 42.7313 173.015 42.7313C171.09 42.7313 169.38 42.2752 167.885 41.3631C166.39 40.4509 165.212 39.2474 164.35 37.7525C163.514 36.2323 163.096 34.5727 163.096 32.7737C163.096 30.9748 163.489 29.3152 164.274 27.795C165.06 26.2747 166.136 25.0585 167.505 24.1464C168.898 23.2343 170.482 22.7782 172.255 22.7782ZM172.255 25.8187C170.684 25.8187 169.392 26.3507 168.379 27.4149C167.365 28.4537 166.732 29.7206 166.478 31.2155H177.918C177.792 29.974 177.437 28.9605 176.854 28.175C176.297 27.3896 175.613 26.8068 174.802 26.4268C173.991 26.0214 173.142 25.8187 172.255 25.8187Z" fill="white"/>
    <path d="M195.971 23.1582V26.0847H190.422V42.1612H187.306V26.0847H184.303V23.1582H187.306V20.7259C187.306 19.231 187.597 18.0148 188.18 17.0773C188.763 16.1145 189.51 15.405 190.422 14.949C191.334 14.4676 192.259 14.2269 193.197 14.2269C194.489 14.2269 195.54 14.5689 196.351 15.253V17.9894C195.971 17.7361 195.515 17.5334 194.983 17.3814C194.451 17.2293 193.919 17.166 193.387 17.1913C192.449 17.2167 191.714 17.5207 191.182 18.1035C190.676 18.6609 190.422 19.649 190.422 21.0679V23.1582H195.971Z" fill="white"/>
    <path d="M203.154 14.0368C203.889 14.0368 204.497 14.3029 204.978 14.835C205.485 15.3417 205.739 15.9371 205.739 16.6212C205.739 17.28 205.485 17.8754 204.978 18.4075C204.497 18.9396 203.889 19.2056 203.154 19.2056C202.419 19.2056 201.799 18.9396 201.292 18.4075C200.81 17.8754 200.57 17.28 200.57 16.6212C200.57 15.9371 200.81 15.3417 201.292 14.835C201.799 14.3029 202.419 14.0368 203.154 14.0368ZM205.092 23.1582V42.1612H201.976V26.0847H198.973V23.1582H205.092Z" fill="white"/>
    <path d="M217.064 17.6854V23.1582H222.613V26.0847H217.064V37.2204C217.064 38.0059 217.267 38.6266 217.672 39.0827C218.078 39.5388 218.699 39.7668 219.535 39.7668C220.295 39.7668 220.928 39.6781 221.435 39.5008C221.942 39.2981 222.385 39.0827 222.765 38.8547V41.4011C222.258 41.8065 221.714 42.1232 221.131 42.3512C220.574 42.6046 219.813 42.7313 218.851 42.7313C217.229 42.7313 216 42.2499 215.164 41.2871C214.353 40.2989 213.948 38.994 213.948 37.3725V26.0847H210.299V25.1726C211.541 24.6151 212.58 23.703 213.416 22.4361C214.252 21.1439 214.987 19.5604 215.62 17.6854H217.064Z" fill="white"/>
    <path d="M233.939 22.7782C235.054 22.7782 236.093 22.9429 237.055 23.2723C238.018 23.5763 238.715 23.893 239.146 24.2224V27.5669C238.614 27.1615 237.892 26.7688 236.979 26.3887C236.067 26.0087 235.13 25.8187 234.167 25.8187C232.976 25.8187 232.077 26.0974 231.469 26.6548C230.886 27.2122 230.594 27.795 230.594 28.4031C230.594 28.8845 230.759 29.3785 231.088 29.8853C231.443 30.3667 232.051 30.7594 232.913 31.0635L236.105 32.2036C237.347 32.6344 238.272 33.2551 238.88 34.0659C239.488 34.8767 239.792 35.8269 239.792 36.9164C239.792 37.9805 239.488 38.956 238.88 39.8428C238.297 40.7296 237.473 41.4391 236.409 41.9712C235.37 42.4779 234.167 42.7313 232.799 42.7313C232.064 42.7313 231.291 42.6299 230.48 42.4272C229.695 42.2499 228.985 42.0345 228.352 41.7811C227.719 41.5024 227.25 41.2617 226.946 41.059V37.7145C227.301 37.9679 227.795 38.2593 228.428 38.5886C229.087 38.8927 229.784 39.1587 230.518 39.3868C231.253 39.5895 231.937 39.6908 232.571 39.6908C233.762 39.6908 234.699 39.4248 235.383 38.8927C236.093 38.3606 236.447 37.7018 236.447 36.9164C236.447 36.3083 236.207 35.8269 235.725 35.4722C235.269 35.1174 234.598 34.7754 233.711 34.446L230.898 33.4198C229.429 32.8624 228.453 32.1656 227.972 31.3295C227.491 30.468 227.25 29.4926 227.25 28.4031C227.25 26.7815 227.858 25.4386 229.074 24.3744C230.29 23.3103 231.912 22.7782 233.939 22.7782Z" fill="white"/>
    <path fill-rule="evenodd" clip-rule="evenodd" d="M25.2032 3.13075V12.6829C24.7577 12.9589 24.3074 13.243 23.8523 13.5354C19.0476 16.6218 13.6254 17.9059 9.41555 17.1974C8.6074 17.0612 7.31863 16.7686 6.07693 16.232C4.8072 15.6833 3.77918 14.9622 3.24113 14.0791C3.04756 13.7614 3.07534 13.6022 3.09426 13.5256C3.12687 13.3935 3.23354 13.1963 3.48002 12.9534C3.71968 12.7171 4.01403 12.5144 4.26947 12.3647C4.39278 12.2925 4.49705 12.2384 4.56676 12.204C4.60138 12.1869 4.62679 12.1751 4.64097 12.1686L4.65146 12.1638L25.2032 3.13075ZM3.42873 9.33603L24.0305 0.280964C24.8426 -0.0752042 25.8401 -0.117809 26.7224 0.298676C27.0781 0.466358 27.4825 0.741256 27.7969 1.18611C28.1218 1.64579 28.284 2.19345 28.284 2.78337V10.8638C37.5595 5.67177 44.6968 4.40658 50.9419 7.07092C52.2897 7.64589 53.3314 8.41261 54.0053 9.3715C54.6437 10.2798 54.8976 11.2863 54.827 12.2769L54.8268 12.9983C54.8266 13.6182 54.8261 14.5082 54.8253 15.5888C54.8235 17.7499 54.8201 20.6736 54.8131 23.7235C54.7992 29.809 54.7715 36.4372 54.7151 38.4784C54.6455 41.0015 53.4216 42.8481 52.295 44.0168C51.7297 44.6033 51.1711 45.0392 50.7514 45.3304C50.5405 45.4768 50.3616 45.5888 50.2303 45.6669C50.1646 45.706 50.1105 45.7368 50.07 45.7592C50.0569 45.7665 50.0452 45.7729 50.035 45.7785C50.0294 45.7815 50.0242 45.7843 50.0195 45.7868L50.0023 45.796L49.9958 45.7994L49.9918 45.8015C49.9912 45.8018 49.9906 45.8021 49.2801 44.4353C49.9132 45.8396 49.9131 45.8397 49.9129 45.8398L48.962 46.2683C48.3552 46.5417 47.486 46.9332 46.4365 47.4058C44.3374 48.3511 41.5164 49.6206 38.6293 50.9178C32.8726 53.5044 26.8061 56.2223 25.7247 56.6749C24.958 56.9959 24.1857 57.0931 23.4526 56.9038C22.7245 56.7157 22.2092 56.2899 21.8693 55.8783C21.5376 55.4766 21.3423 55.0541 21.2315 54.7604C21.1741 54.608 21.1338 54.4753 21.1068 54.3757C21.0932 54.3255 21.0827 54.2828 21.0748 54.2489C21.0709 54.232 21.0677 54.2172 21.065 54.2048L21.0615 54.1879L21.06 54.1807L21.0594 54.1775L21.0591 54.176C21.0589 54.1753 21.0588 54.1745 22.5702 53.8771C21.0298 53.8771 21.0298 53.877 21.0298 53.8769V30.912C21.0298 29.0546 22.0715 27.7786 22.9375 27.0445C23.3775 26.6716 23.8105 26.403 24.1315 26.2274C24.2937 26.1386 24.432 26.0711 24.5346 26.0238C24.586 26.0001 24.6288 25.9813 24.6615 25.9673L24.6806 25.9593L28.4864 24.2208C30.789 23.1688 33.867 21.7619 36.9692 20.3425C40.0716 18.9231 43.1975 17.4914 45.5959 16.3897C46.7953 15.8388 47.8118 15.3709 48.5521 15.0284C48.9224 14.8571 49.2221 14.7179 49.4405 14.6156C49.5498 14.5644 49.6369 14.5234 49.7013 14.4927C49.7734 14.4584 49.7986 14.4458 49.7971 14.4465C50.9751 13.8376 51.6546 12.8733 51.7462 12.1372L51.7462 12.0325L51.7462 12.0294C51.7462 12.0294 51.7462 12.0286 51.7558 12.0286C51.7709 11.7381 51.698 11.4464 51.4847 11.143C51.2295 10.7798 50.7161 10.324 49.733 9.90465C44.0279 7.4707 36.8393 8.85513 25.5172 16.1275C20.2323 19.5225 14.0425 21.1004 8.90391 20.2354C7.94921 20.0745 6.39981 19.7278 4.85477 19.06C3.33777 18.4045 1.63025 17.3562 0.610222 15.6821C0.0247578 14.7213 -0.128231 13.7248 0.103259 12.7872C0.321049 11.905 0.840391 11.2294 1.31731 10.7593C1.80105 10.2824 2.32747 9.93194 2.71195 9.70665C2.9086 9.59142 3.07908 9.5026 3.20413 9.44093C3.26689 9.40998 3.31886 9.38555 3.35773 9.36774C3.37718 9.35883 3.3934 9.35155 3.40612 9.34592L3.42039 9.33966L3.42254 9.33871L3.42873 9.33603ZM25.2969 27.3713C25.9367 28.7725 25.9368 28.7725 25.9369 28.7724L29.7668 27.023C32.0696 25.9708 35.1482 24.5637 38.251 23.144C44.4168 20.3229 50.7806 17.4061 51.2115 17.1834C51.3912 17.0906 51.569 16.9895 51.7433 16.8808C51.7413 18.8493 51.738 21.2414 51.7323 23.7165C51.7184 29.8266 51.6905 36.4021 51.6355 38.3934C51.5939 39.9027 50.8702 41.0558 50.0769 41.8787C49.6824 42.2881 49.2881 42.5959 48.9948 42.7995C48.8492 42.9005 48.7316 42.9737 48.6556 43.019C48.6293 43.0346 48.6082 43.0468 48.5927 43.0555L47.6964 43.4595C47.0898 43.7328 46.2209 44.1242 45.1716 44.5967C43.0729 45.5417 40.2528 46.8109 37.3666 48.1077C31.5769 50.7091 25.5682 53.4006 24.5351 53.8331C24.3859 53.8956 24.2931 53.9133 24.2457 53.9176C24.2455 53.9173 24.2452 53.917 24.2449 53.9167C24.201 53.8636 24.1529 53.7759 24.1141 53.6731C24.1129 53.6699 24.1117 53.6668 24.1106 53.6638V30.912C24.1106 30.3106 24.4322 29.8162 24.9296 29.3946C25.1713 29.1898 25.4199 29.0342 25.6101 28.9302C25.7035 28.8791 25.7782 28.8429 25.8248 28.8214C25.848 28.8107 25.8638 28.8039 25.871 28.8008C25.8716 28.8005 25.8723 28.8002 25.8728 28.8L25.9012 28.7887L25.9369 28.7724L25.2969 27.3713ZM22.5702 53.8771L21.0298 53.8769V54.0272L21.0588 54.1745L22.5702 53.8771ZM49.2801 44.4353L49.9129 45.8398L49.9524 45.8219L49.9906 45.8021L49.2801 44.4353Z" fill="white"/>
    <path fill-rule="evenodd" clip-rule="evenodd" d="M3.0808 38.1861C3.0808 39.8038 3.39383 41.0547 4.07652 41.9972C4.74438 42.9191 5.91363 43.7486 8.04301 44.237C10.1181 44.7129 12.5319 44.4852 14.519 44.0906C15.4949 43.8968 16.3311 43.6704 16.921 43.4932C17.2153 43.4047 17.4466 43.329 17.6014 43.2765C17.6731 43.2522 17.7282 43.2329 17.7655 43.2196L21.9671 41.2283L23.2865 44.0123L18.9581 46.0637L18.8957 46.0869L18.3584 44.6433C18.8957 46.0869 18.8961 46.0868 18.8957 46.0869L18.8942 46.0875L18.8922 46.0882L18.8866 46.0903L18.8688 46.0968L18.8082 46.1186C18.7569 46.1369 18.684 46.1625 18.5911 46.194C18.4054 46.257 18.1397 46.3438 17.8076 46.4436C17.1448 46.6428 16.2113 46.8955 15.1191 47.1124C12.97 47.5391 10.0539 47.859 7.35429 47.2398C4.70897 46.6331 2.79911 45.4854 1.58152 43.8045C0.378746 42.144 0 40.1663 0 38.1861V14.3785C0 14.3784 0 14.3783 1.5404 14.3783C3.0808 14.3783 3.0808 14.3784 3.0808 14.3785V38.1861Z" fill="white"/>
</svg>
