<svg width="313" height="414" viewBox="0 0 313 414" fill="none" xmlns="http://www.w3.org/2000/svg">
<path d="M42.8573 342.24C42.1853 342.24 41.6333 342.04 41.2013 341.64C40.7853 341.224 40.5773 340.704 40.5773 340.08C40.5773 339.472 40.7933 338.96 41.2253 338.544C41.6573 338.112 42.2013 337.896 42.8573 337.896C43.5293 337.896 44.0813 338.112 44.5133 338.544C44.9453 338.96 45.1613 339.472 45.1613 340.08C45.1613 340.704 44.9453 341.224 44.5133 341.64C44.0813 342.04 43.5293 342.24 42.8573 342.24ZM43.1213 354.96C41.2813 354.96 39.8013 354.568 38.6813 353.784C37.5773 353.016 37.0253 351.952 37.0253 350.592C37.0253 349.952 37.1373 349.392 37.3613 348.912C37.5853 348.416 37.8493 348.008 38.1533 347.688C38.4573 347.352 38.8573 346.96 39.3533 346.512C39.9293 346.016 40.3533 345.584 40.6253 345.216C40.9133 344.848 41.0573 344.416 41.0573 343.92H44.6813C44.6813 344.736 44.4893 345.424 44.1053 345.984C43.7373 346.528 43.2013 347.104 42.4973 347.712C41.9693 348.192 41.5773 348.6 41.3213 348.936C41.0813 349.256 40.9613 349.624 40.9613 350.04C40.9613 350.568 41.1933 350.992 41.6573 351.312C42.1373 351.648 42.7613 351.816 43.5293 351.816C44.2813 351.816 44.9533 351.664 45.5453 351.36C46.1373 351.056 46.6253 350.616 47.0093 350.04L49.9133 351.744C49.2413 352.768 48.3373 353.56 47.2013 354.12C46.0653 354.68 44.7053 354.96 43.1213 354.96ZM68.7342 352.8C68.1902 353.472 67.5262 353.984 66.7422 354.336C65.9742 354.688 65.1262 354.864 64.1982 354.864C62.9502 354.864 61.8222 354.592 60.8142 354.048C59.8062 353.52 58.6542 352.576 57.3582 351.216C55.8382 351.024 54.4782 350.536 53.2782 349.752C52.0942 348.968 51.1662 347.96 50.4942 346.728C49.8382 345.48 49.5102 344.104 49.5102 342.6C49.5102 340.952 49.9022 339.472 50.6862 338.16C51.4862 336.832 52.5822 335.792 53.9742 335.04C55.3822 334.288 56.9582 333.912 58.7022 333.912C60.4462 333.912 62.0142 334.288 63.4062 335.04C64.7982 335.792 65.8942 336.832 66.6942 338.16C67.4942 339.472 67.8942 340.952 67.8942 342.6C67.8942 344.552 67.3422 346.264 66.2382 347.736C65.1502 349.208 63.7022 350.232 61.8942 350.808C62.2942 351.224 62.6782 351.52 63.0462 351.696C63.4302 351.888 63.8382 351.984 64.2702 351.984C65.3102 351.984 66.2222 351.568 67.0062 350.736L68.7342 352.8ZM53.4462 342.6C53.4462 343.64 53.6702 344.568 54.1182 345.384C54.5822 346.2 55.2142 346.84 56.0142 347.304C56.8142 347.752 57.7102 347.976 58.7022 347.976C59.6942 347.976 60.5902 347.752 61.3902 347.304C62.1902 346.84 62.8142 346.2 63.2622 345.384C63.7262 344.568 63.9582 343.64 63.9582 342.6C63.9582 341.56 63.7262 340.632 63.2622 339.816C62.8142 339 62.1902 338.368 61.3902 337.92C60.5902 337.456 59.6942 337.224 58.7022 337.224C57.7102 337.224 56.8142 337.456 56.0142 337.92C55.2142 338.368 54.5822 339 54.1182 339.816C53.6702 340.632 53.4462 341.56 53.4462 342.6ZM83.5602 338.088V351H80.0082V349.464C79.5122 350.024 78.9202 350.456 78.2322 350.76C77.5442 351.048 76.8002 351.192 76.0002 351.192C74.3042 351.192 72.9602 350.704 71.9682 349.728C70.9762 348.752 70.4802 347.304 70.4802 345.384V338.088H74.2242V344.832C74.2242 346.912 75.0962 347.952 76.8402 347.952C77.7362 347.952 78.4562 347.664 79.0002 347.088C79.5442 346.496 79.8162 345.624 79.8162 344.472V338.088H83.5602ZM99.6768 344.592C99.6768 344.64 99.6528 344.976 99.6048 345.6H89.8368C90.0128 346.4 90.4288 347.032 91.0848 347.496C91.7408 347.96 92.5568 348.192 93.5328 348.192C94.2048 348.192 94.7968 348.096 95.3088 347.904C95.8368 347.696 96.3248 347.376 96.7728 346.944L98.7648 349.104C97.5488 350.496 95.7728 351.192 93.4368 351.192C91.9808 351.192 90.6928 350.912 89.5728 350.352C88.4528 349.776 87.5888 348.984 86.9808 347.976C86.3728 346.968 86.0688 345.824 86.0688 344.544C86.0688 343.28 86.3648 342.144 86.9568 341.136C87.5648 340.112 88.3888 339.32 89.4288 338.76C90.4848 338.184 91.6608 337.896 92.9568 337.896C94.2208 337.896 95.3648 338.168 96.3888 338.712C97.4128 339.256 98.2128 340.04 98.7888 341.064C99.3808 342.072 99.6768 343.248 99.6768 344.592ZM92.9808 340.728C92.1328 340.728 91.4208 340.968 90.8448 341.448C90.2688 341.928 89.9168 342.584 89.7888 343.416H96.1488C96.0208 342.6 95.6688 341.952 95.0928 341.472C94.5168 340.976 93.8128 340.728 92.9808 340.728ZM93.9408 332.976H97.9728L93.6288 336.432H90.7008L93.9408 332.976ZM121.614 344.592C121.614 344.64 121.59 344.976 121.542 345.6H111.774C111.95 346.4 112.366 347.032 113.022 347.496C113.678 347.96 114.494 348.192 115.47 348.192C116.142 348.192 116.734 348.096 117.246 347.904C117.774 347.696 118.262 347.376 118.71 346.944L120.702 349.104C119.486 350.496 117.71 351.192 115.374 351.192C113.918 351.192 112.63 350.912 111.51 350.352C110.39 349.776 109.526 348.984 108.918 347.976C108.31 346.968 108.006 345.824 108.006 344.544C108.006 343.28 108.302 342.144 108.894 341.136C109.502 340.112 110.326 339.32 111.366 338.76C112.422 338.184 113.598 337.896 114.894 337.896C116.158 337.896 117.302 338.168 118.326 338.712C119.35 339.256 120.15 340.04 120.726 341.064C121.318 342.072 121.614 343.248 121.614 344.592ZM114.918 340.728C114.07 340.728 113.358 340.968 112.782 341.448C112.206 341.928 111.854 342.584 111.726 343.416H118.086C117.958 342.6 117.606 341.952 117.03 341.472C116.454 340.976 115.75 340.728 114.918 340.728ZM128.451 351.192C127.379 351.192 126.331 351.064 125.307 350.808C124.283 350.536 123.467 350.2 122.859 349.8L124.107 347.112C124.683 347.48 125.379 347.784 126.195 348.024C127.011 348.248 127.811 348.36 128.595 348.36C130.179 348.36 130.971 347.968 130.971 347.184C130.971 346.816 130.755 346.552 130.323 346.392C129.891 346.232 129.227 346.096 128.331 345.984C127.275 345.824 126.403 345.64 125.715 345.432C125.027 345.224 124.427 344.856 123.915 344.328C123.419 343.8 123.171 343.048 123.171 342.072C123.171 341.256 123.403 340.536 123.867 339.912C124.347 339.272 125.035 338.776 125.931 338.424C126.843 338.072 127.915 337.896 129.147 337.896C130.059 337.896 130.963 338 131.859 338.208C132.771 338.4 133.523 338.672 134.115 339.024L132.867 341.688C131.731 341.048 130.491 340.728 129.147 340.728C128.347 340.728 127.747 340.84 127.347 341.064C126.947 341.288 126.747 341.576 126.747 341.928C126.747 342.328 126.963 342.608 127.395 342.768C127.827 342.928 128.515 343.08 129.459 343.224C130.515 343.4 131.379 343.592 132.051 343.8C132.723 343.992 133.307 344.352 133.803 344.88C134.299 345.408 134.547 346.144 134.547 347.088C134.547 347.888 134.307 348.6 133.827 349.224C133.347 349.848 132.643 350.336 131.715 350.688C130.803 351.024 129.715 351.192 128.451 351.192ZM149.438 351.288C148.11 351.288 146.822 351.112 145.574 350.76C144.342 350.392 143.35 349.92 142.598 349.344L143.918 346.416C144.638 346.944 145.494 347.368 146.486 347.688C147.478 348.008 148.47 348.168 149.462 348.168C150.566 348.168 151.382 348.008 151.91 347.688C152.438 347.352 152.702 346.912 152.702 346.368C152.702 345.968 152.542 345.64 152.222 345.384C151.918 345.112 151.518 344.896 151.022 344.736C150.542 344.576 149.886 344.4 149.054 344.208C147.774 343.904 146.726 343.6 145.91 343.296C145.094 342.992 144.39 342.504 143.798 341.832C143.222 341.16 142.934 340.264 142.934 339.144C142.934 338.168 143.198 337.288 143.726 336.504C144.254 335.704 145.046 335.072 146.102 334.608C147.174 334.144 148.478 333.912 150.014 333.912C151.086 333.912 152.134 334.04 153.158 334.296C154.182 334.552 155.078 334.92 155.846 335.4L154.646 338.352C153.094 337.472 151.542 337.032 149.99 337.032C148.902 337.032 148.094 337.208 147.566 337.56C147.054 337.912 146.798 338.376 146.798 338.952C146.798 339.528 147.094 339.96 147.686 340.248C148.294 340.52 149.214 340.792 150.446 341.064C151.726 341.368 152.774 341.672 153.59 341.976C154.406 342.28 155.102 342.76 155.678 343.416C156.27 344.072 156.566 344.96 156.566 346.08C156.566 347.04 156.294 347.92 155.75 348.72C155.222 349.504 154.422 350.128 153.35 350.592C152.278 351.056 150.974 351.288 149.438 351.288ZM166.59 337.896C167.79 337.896 168.878 338.176 169.854 338.736C170.846 339.28 171.622 340.056 172.182 341.064C172.742 342.056 173.022 343.216 173.022 344.544C173.022 345.872 172.742 347.04 172.182 348.048C171.622 349.04 170.846 349.816 169.854 350.376C168.878 350.92 167.79 351.192 166.59 351.192C164.814 351.192 163.462 350.632 162.534 349.512V351H158.958V333.192H162.702V339.456C163.646 338.416 164.942 337.896 166.59 337.896ZM165.942 348.12C166.902 348.12 167.686 347.8 168.294 347.16C168.918 346.504 169.23 345.632 169.23 344.544C169.23 343.456 168.918 342.592 168.294 341.952C167.686 341.296 166.902 340.968 165.942 340.968C164.982 340.968 164.19 341.296 163.566 341.952C162.958 342.592 162.654 343.456 162.654 344.544C162.654 345.632 162.958 346.504 163.566 347.16C164.19 347.8 164.982 348.12 165.942 348.12ZM188.177 344.592C188.177 344.64 188.153 344.976 188.105 345.6H178.337C178.513 346.4 178.929 347.032 179.585 347.496C180.241 347.96 181.057 348.192 182.033 348.192C182.705 348.192 183.297 348.096 183.809 347.904C184.337 347.696 184.825 347.376 185.273 346.944L187.265 349.104C186.049 350.496 184.273 351.192 181.937 351.192C180.481 351.192 179.193 350.912 178.073 350.352C176.953 349.776 176.089 348.984 175.481 347.976C174.873 346.968 174.569 345.824 174.569 344.544C174.569 343.28 174.865 342.144 175.457 341.136C176.065 340.112 176.889 339.32 177.929 338.76C178.985 338.184 180.161 337.896 181.457 337.896C182.721 337.896 183.865 338.168 184.889 338.712C185.913 339.256 186.713 340.04 187.289 341.064C187.881 342.072 188.177 343.248 188.177 344.592ZM181.481 340.728C180.633 340.728 179.921 340.968 179.345 341.448C178.769 341.928 178.417 342.584 178.289 343.416H184.649C184.521 342.6 184.169 341.952 183.593 341.472C183.017 340.976 182.313 340.728 181.481 340.728ZM198.517 337.896C200.117 337.896 201.405 338.376 202.381 339.336C203.373 340.296 203.869 341.72 203.869 343.608V351H200.125V344.184C200.125 343.16 199.901 342.4 199.453 341.904C199.005 341.392 198.357 341.136 197.509 341.136C196.565 341.136 195.813 341.432 195.253 342.024C194.693 342.6 194.413 343.464 194.413 344.616V351H190.669V338.088H194.245V339.6C194.741 339.056 195.357 338.64 196.093 338.352C196.829 338.048 197.637 337.896 198.517 337.896ZM220.052 344.592C220.052 344.64 220.028 344.976 219.98 345.6H210.212C210.388 346.4 210.804 347.032 211.46 347.496C212.116 347.96 212.932 348.192 213.908 348.192C214.58 348.192 215.172 348.096 215.684 347.904C216.212 347.696 216.7 347.376 217.148 346.944L219.14 349.104C217.924 350.496 216.148 351.192 213.812 351.192C212.356 351.192 211.068 350.912 209.948 350.352C208.828 349.776 207.964 348.984 207.356 347.976C206.748 346.968 206.444 345.824 206.444 344.544C206.444 343.28 206.74 342.144 207.332 341.136C207.94 340.112 208.764 339.32 209.804 338.76C210.86 338.184 212.036 337.896 213.332 337.896C214.596 337.896 215.74 338.168 216.764 338.712C217.788 339.256 218.588 340.04 219.164 341.064C219.756 342.072 220.052 343.248 220.052 344.592ZM213.356 340.728C212.508 340.728 211.796 340.968 211.22 341.448C210.644 341.928 210.292 342.584 210.164 343.416H216.524C216.396 342.6 216.044 341.952 215.468 341.472C214.892 340.976 214.188 340.728 213.356 340.728ZM226.648 338.376H229.96V341.256H226.744V351H223V341.256H221.008V338.376H223V337.8C223 336.328 223.432 335.16 224.296 334.296C225.176 333.432 226.408 333 227.992 333C228.552 333 229.08 333.064 229.576 333.192C230.088 333.304 230.512 333.472 230.848 333.696L229.864 336.408C229.432 336.104 228.928 335.952 228.352 335.952C227.216 335.952 226.648 336.576 226.648 337.824V338.376ZM233.752 338.088H237.496V351H233.752V338.088ZM235.624 336.288C234.936 336.288 234.376 336.088 233.944 335.688C233.512 335.288 233.296 334.792 233.296 334.2C233.296 333.608 233.512 333.112 233.944 332.712C234.376 332.312 234.936 332.112 235.624 332.112C236.312 332.112 236.872 332.304 237.304 332.688C237.736 333.072 237.952 333.552 237.952 334.128C237.952 334.752 237.736 335.272 237.304 335.688C236.872 336.088 236.312 336.288 235.624 336.288ZM249.294 350.376C248.926 350.648 248.47 350.856 247.926 351C247.398 351.128 246.838 351.192 246.246 351.192C244.71 351.192 243.518 350.8 242.67 350.016C241.838 349.232 241.422 348.08 241.422 346.56V341.256H239.43V338.376H241.422V335.232H245.166V338.376H248.382V341.256H245.166V346.512C245.166 347.056 245.302 347.48 245.574 347.784C245.862 348.072 246.262 348.216 246.774 348.216C247.366 348.216 247.87 348.056 248.286 347.736L249.294 350.376ZM255.74 351.192C254.668 351.192 253.62 351.064 252.596 350.808C251.572 350.536 250.756 350.2 250.148 349.8L251.396 347.112C251.972 347.48 252.668 347.784 253.484 348.024C254.3 348.248 255.1 348.36 255.884 348.36C257.468 348.36 258.26 347.968 258.26 347.184C258.26 346.816 258.044 346.552 257.612 346.392C257.18 346.232 256.516 346.096 255.62 345.984C254.564 345.824 253.692 345.64 253.004 345.432C252.316 345.224 251.716 344.856 251.204 344.328C250.708 343.8 250.46 343.048 250.46 342.072C250.46 341.256 250.692 340.536 251.156 339.912C251.636 339.272 252.324 338.776 253.22 338.424C254.132 338.072 255.204 337.896 256.436 337.896C257.348 337.896 258.252 338 259.148 338.208C260.06 338.4 260.812 338.672 261.404 339.024L260.156 341.688C259.02 341.048 257.78 340.728 256.436 340.728C255.636 340.728 255.036 340.84 254.636 341.064C254.236 341.288 254.036 341.576 254.036 341.928C254.036 342.328 254.252 342.608 254.684 342.768C255.116 342.928 255.804 343.08 256.748 343.224C257.804 343.4 258.668 343.592 259.34 343.8C260.012 343.992 260.596 344.352 261.092 344.88C261.588 345.408 261.836 346.144 261.836 347.088C261.836 347.888 261.596 348.6 261.116 349.224C260.636 349.848 259.932 350.336 259.004 350.688C258.092 351.024 257.004 351.192 255.74 351.192ZM267.298 345.168C267.298 344.336 267.482 343.648 267.85 343.104C268.234 342.56 268.786 341.96 269.506 341.304C270.034 340.824 270.418 340.424 270.658 340.104C270.914 339.768 271.042 339.392 271.042 338.976C271.042 338.384 270.802 337.92 270.322 337.584C269.858 337.232 269.234 337.056 268.45 337.056C267.698 337.056 267.026 337.216 266.434 337.536C265.858 337.84 265.37 338.272 264.97 338.832L262.066 337.128C262.738 336.104 263.642 335.312 264.778 334.752C265.93 334.192 267.29 333.912 268.858 333.912C270.698 333.912 272.17 334.304 273.274 335.088C274.394 335.872 274.954 336.96 274.954 338.352C274.954 339.008 274.842 339.584 274.618 340.08C274.41 340.576 274.146 341 273.826 341.352C273.522 341.688 273.122 342.08 272.626 342.528C272.034 343.056 271.602 343.504 271.33 343.872C271.058 344.224 270.922 344.656 270.922 345.168H267.298ZM269.122 351.192C268.466 351.192 267.914 350.984 267.466 350.568C267.034 350.136 266.818 349.616 266.818 349.008C266.818 348.4 267.034 347.896 267.466 347.496C267.898 347.08 268.45 346.872 269.122 346.872C269.794 346.872 270.346 347.08 270.778 347.496C271.21 347.896 271.426 348.4 271.426 349.008C271.426 349.616 271.202 350.136 270.754 350.568C270.322 350.984 269.778 351.192 269.122 351.192Z" fill="#333333"/>
<path d="M12.4968 384.864H17.2168V386H11.2008V375.216H17.1368V376.352H12.4968V380.048H16.5928V381.184H12.4968V384.864ZM23.5684 378.16V379.36C23.0777 379.061 22.4057 378.912 21.5524 378.912C21.1257 378.912 20.7844 379.013 20.5284 379.216C20.283 379.408 20.1604 379.659 20.1604 379.968C20.1604 380.16 20.1977 380.331 20.2724 380.48C20.347 380.619 20.491 380.757 20.7044 380.896C20.9284 381.035 21.0884 381.131 21.1844 381.184C21.291 381.227 21.515 381.323 21.8564 381.472C22.539 381.749 23.0724 382.064 23.4564 382.416C23.8404 382.768 24.0324 383.243 24.0324 383.84C24.0324 384.533 23.787 385.083 23.2964 385.488C22.8164 385.893 22.155 386.096 21.3124 386.096C20.331 386.096 19.5364 385.931 18.9284 385.6V384.368C19.643 384.795 20.411 385.008 21.2324 385.008C21.723 385.008 22.0964 384.912 22.3524 384.72C22.6084 384.528 22.7364 384.267 22.7364 383.936C22.7364 383.552 22.5924 383.253 22.3044 383.04C22.027 382.827 21.5577 382.587 20.8964 382.32C20.2884 382.085 19.7977 381.792 19.4244 381.44C19.0617 381.088 18.8804 380.613 18.8804 380.016C18.8804 379.344 19.131 378.811 19.6324 378.416C20.1444 378.011 20.779 377.808 21.5364 377.808C22.379 377.808 23.0564 377.925 23.5684 378.16ZM29.7164 386V374.688H30.9804V386H29.7164ZM37.7548 382.256H36.3468C35.6641 382.256 35.1521 382.389 34.8108 382.656C34.4694 382.923 34.2988 383.259 34.2988 383.664C34.2988 384.069 34.4321 384.4 34.6988 384.656C34.9654 384.901 35.3548 385.024 35.8668 385.024C36.4428 385.024 36.9014 384.864 37.2428 384.544C37.5841 384.213 37.7548 383.797 37.7548 383.296V382.256ZM33.5628 379.584V378.32C34.1708 377.947 34.9708 377.76 35.9628 377.76C38.0001 377.76 39.0188 378.795 39.0188 380.864V386H37.7708V385.04C37.3548 385.733 36.5974 386.08 35.4988 386.08C34.7414 386.08 34.1281 385.856 33.6588 385.408C33.2001 384.96 32.9708 384.395 32.9708 383.712C32.9708 382.933 33.2641 382.331 33.8508 381.904C34.4481 381.467 35.2588 381.248 36.2828 381.248H37.7548V380.832C37.7548 380.192 37.6108 379.712 37.3228 379.392C37.0348 379.061 36.5494 378.896 35.8668 378.896C35.0028 378.896 34.2348 379.125 33.5628 379.584ZM48.736 384.976C49.4187 384.976 49.9787 384.709 50.416 384.176C50.8533 383.632 51.072 382.864 51.072 381.872C51.072 380.987 50.8587 380.272 50.432 379.728C50.0053 379.184 49.4667 378.912 48.816 378.912C48.1653 378.912 47.6 379.152 47.12 379.632C46.6507 380.101 46.416 380.875 46.416 381.952C46.416 382.987 46.656 383.749 47.136 384.24C47.616 384.731 48.1493 384.976 48.736 384.976ZM46.416 377.888V379.12C46.9813 378.213 47.8187 377.76 48.928 377.76C50.0053 377.76 50.848 378.155 51.456 378.944C52.0747 379.723 52.384 380.699 52.384 381.872C52.384 383.12 52.0587 384.144 51.408 384.944C50.768 385.733 49.9307 386.128 48.896 386.128C47.8293 386.128 47.0027 385.675 46.416 384.768V389.152H45.168V377.888H46.416ZM54.3101 386V374.688H55.5741V386H54.3101ZM62.3485 382.256H60.9405C60.2578 382.256 59.7458 382.389 59.4045 382.656C59.0632 382.923 58.8925 383.259 58.8925 383.664C58.8925 384.069 59.0258 384.4 59.2925 384.656C59.5592 384.901 59.9485 385.024 60.4605 385.024C61.0365 385.024 61.4952 384.864 61.8365 384.544C62.1778 384.213 62.3485 383.797 62.3485 383.296V382.256ZM58.1565 379.584V378.32C58.7645 377.947 59.5645 377.76 60.5565 377.76C62.5938 377.76 63.6125 378.795 63.6125 380.864V386H62.3645V385.04C61.9485 385.733 61.1912 386.08 60.0925 386.08C59.3352 386.08 58.7218 385.856 58.2525 385.408C57.7938 384.96 57.5645 384.395 57.5645 383.712C57.5645 382.933 57.8578 382.331 58.4445 381.904C59.0418 381.467 59.8525 381.248 60.8765 381.248H62.3485V380.832C62.3485 380.192 62.2045 379.712 61.9165 379.392C61.6285 379.061 61.1432 378.896 60.4605 378.896C59.5965 378.896 58.8285 379.125 58.1565 379.584ZM67.5995 378.912V383.664C67.5995 384.528 68.0048 384.96 68.8155 384.96C69.2315 384.96 69.5995 384.837 69.9195 384.592V385.792C69.5675 385.984 69.1728 386.08 68.7355 386.08C67.1355 386.08 66.3355 385.264 66.3355 383.632V378.912H65.0395V377.888H66.3355V375.872H67.5995V377.888H69.8395V378.912H67.5995ZM76.1298 382.256H74.7218C74.0391 382.256 73.5271 382.389 73.1858 382.656C72.8444 382.923 72.6738 383.259 72.6738 383.664C72.6738 384.069 72.8071 384.4 73.0738 384.656C73.3404 384.901 73.7298 385.024 74.2418 385.024C74.8178 385.024 75.2764 384.864 75.6178 384.544C75.9591 384.213 76.1298 383.797 76.1298 383.296V382.256ZM71.9378 379.584V378.32C72.5458 377.947 73.3458 377.76 74.3378 377.76C76.3751 377.76 77.3938 378.795 77.3938 380.864V386H76.1458V385.04C75.7298 385.733 74.9724 386.08 73.8738 386.08C73.1164 386.08 72.5031 385.856 72.0338 385.408C71.5751 384.96 71.3458 384.395 71.3458 383.712C71.3458 382.933 71.6391 382.331 72.2258 381.904C72.8231 381.467 73.6338 381.248 74.6578 381.248H76.1298V380.832C76.1298 380.192 75.9858 379.712 75.6978 379.392C75.4098 379.061 74.9244 378.896 74.2418 378.896C73.3778 378.896 72.6098 379.125 71.9378 379.584ZM83.5088 374.688V375.84C83.2528 375.755 83.0074 375.712 82.7728 375.712C82.4314 375.712 82.1488 375.829 81.9248 376.064C81.7114 376.299 81.6048 376.661 81.6048 377.152V377.888H83.3968V378.912H81.6048V386H80.3408V378.912H78.9488V377.888H80.3408V377.136C80.3408 376.347 80.5488 375.723 80.9648 375.264C81.3914 374.805 81.9781 374.576 82.7248 374.576C82.9808 374.576 83.2421 374.613 83.5088 374.688ZM88.1984 386.144C87.0357 386.144 86.113 385.755 85.4304 384.976C84.7584 384.187 84.4224 383.195 84.4224 382C84.4224 380.795 84.769 379.792 85.4624 378.992C86.1664 378.181 87.0784 377.776 88.1984 377.776C89.425 377.776 90.369 378.171 91.0304 378.96C91.7024 379.749 92.0384 380.752 92.0384 381.968C92.0384 383.173 91.697 384.171 91.0144 384.96C90.3317 385.749 89.393 386.144 88.1984 386.144ZM88.1984 378.896C87.4304 378.896 86.8277 379.195 86.3904 379.792C85.953 380.389 85.7344 381.12 85.7344 381.984C85.7344 382.827 85.9584 383.547 86.4064 384.144C86.8544 384.731 87.4517 385.024 88.1984 385.024C89.009 385.024 89.633 384.736 90.0704 384.16C90.5077 383.573 90.7264 382.848 90.7264 381.984C90.7264 381.088 90.5184 380.352 90.1024 379.776C89.6864 379.189 89.0517 378.896 88.1984 378.896ZM95.1348 377.888V379.312C95.5614 378.309 96.2974 377.808 97.3428 377.808C97.5348 377.808 97.6841 377.819 97.7908 377.84V379.088C97.5668 379.013 97.3374 378.976 97.1028 378.976C96.5374 378.976 96.0681 379.237 95.6948 379.76C95.3214 380.283 95.1348 380.885 95.1348 381.568V386H93.8708L93.8868 377.888H95.1348ZM100.354 377.888V379.2C100.802 378.251 101.564 377.776 102.641 377.776C103.89 377.776 104.679 378.304 105.01 379.36C105.244 378.848 105.57 378.459 105.986 378.192C106.412 377.915 106.887 377.776 107.41 377.776C108.252 377.776 108.887 378.016 109.314 378.496C109.74 378.976 109.954 379.621 109.954 380.432V386H108.69V380.752C108.69 379.525 108.172 378.912 107.138 378.912C106.626 378.912 106.167 379.147 105.762 379.616C105.356 380.075 105.154 380.725 105.154 381.568V386H103.89V380.752C103.89 379.525 103.372 378.912 102.338 378.912C101.826 378.912 101.367 379.147 100.962 379.616C100.556 380.075 100.354 380.725 100.354 381.568V386H99.1055V377.888H100.354ZM116.567 382.256H115.159C114.477 382.256 113.965 382.389 113.623 382.656C113.282 382.923 113.111 383.259 113.111 383.664C113.111 384.069 113.245 384.4 113.511 384.656C113.778 384.901 114.167 385.024 114.679 385.024C115.255 385.024 115.714 384.864 116.055 384.544C116.397 384.213 116.567 383.797 116.567 383.296V382.256ZM112.375 379.584V378.32C112.983 377.947 113.783 377.76 114.775 377.76C116.813 377.76 117.831 378.795 117.831 380.864V386H116.583V385.04C116.167 385.733 115.41 386.08 114.311 386.08C113.554 386.08 112.941 385.856 112.471 385.408C112.013 384.96 111.783 384.395 111.783 383.712C111.783 382.933 112.077 382.331 112.663 381.904C113.261 381.467 114.071 381.248 115.095 381.248H116.567V380.832C116.567 380.192 116.423 379.712 116.135 379.392C115.847 379.061 115.362 378.896 114.679 378.896C113.815 378.896 113.047 379.125 112.375 379.584ZM125.229 377.888V379.2C125.677 378.251 126.439 377.776 127.516 377.776C128.765 377.776 129.554 378.304 129.885 379.36C130.119 378.848 130.445 378.459 130.861 378.192C131.287 377.915 131.762 377.776 132.285 377.776C133.127 377.776 133.762 378.016 134.189 378.496C134.615 378.976 134.829 379.621 134.829 380.432V386H133.565V380.752C133.565 379.525 133.047 378.912 132.013 378.912C131.501 378.912 131.042 379.147 130.637 379.616C130.231 380.075 130.029 380.725 130.029 381.568V386H128.765V380.752C128.765 379.525 128.247 378.912 127.213 378.912C126.701 378.912 126.242 379.147 125.837 379.616C125.431 380.075 125.229 380.725 125.229 381.568V386H123.981V377.888H125.229ZM142.562 374.544L140.578 377.04H139.474L141.058 374.544H142.562ZM141.442 382.256H140.034C139.352 382.256 138.84 382.389 138.498 382.656C138.157 382.923 137.986 383.259 137.986 383.664C137.986 384.069 138.12 384.4 138.386 384.656C138.653 384.901 139.042 385.024 139.554 385.024C140.13 385.024 140.589 384.864 140.93 384.544C141.272 384.213 141.442 383.797 141.442 383.296V382.256ZM137.25 379.584V378.32C137.858 377.947 138.658 377.76 139.65 377.76C141.688 377.76 142.706 378.795 142.706 380.864V386H141.458V385.04C141.042 385.733 140.285 386.08 139.186 386.08C138.429 386.08 137.816 385.856 137.346 385.408C136.888 384.96 136.658 384.395 136.658 383.712C136.658 382.933 136.952 382.331 137.538 381.904C138.136 381.467 138.946 381.248 139.97 381.248H141.442V380.832C141.442 380.192 141.298 379.712 141.01 379.392C140.722 379.061 140.237 378.896 139.554 378.896C138.69 378.896 137.922 379.125 137.25 379.584ZM149.365 378.16V379.36C148.875 379.061 148.203 378.912 147.349 378.912C146.923 378.912 146.581 379.013 146.325 379.216C146.08 379.408 145.957 379.659 145.957 379.968C145.957 380.16 145.995 380.331 146.069 380.48C146.144 380.619 146.288 380.757 146.501 380.896C146.725 381.035 146.885 381.131 146.981 381.184C147.088 381.227 147.312 381.323 147.653 381.472C148.336 381.749 148.869 382.064 149.253 382.416C149.637 382.768 149.829 383.243 149.829 383.84C149.829 384.533 149.584 385.083 149.093 385.488C148.613 385.893 147.952 386.096 147.109 386.096C146.128 386.096 145.333 385.931 144.725 385.6V384.368C145.44 384.795 146.208 385.008 147.029 385.008C147.52 385.008 147.893 384.912 148.149 384.72C148.405 384.528 148.533 384.267 148.533 383.936C148.533 383.552 148.389 383.253 148.101 383.04C147.824 382.827 147.355 382.587 146.693 382.32C146.085 382.085 145.595 381.792 145.221 381.44C144.859 381.088 144.677 380.613 144.677 380.016C144.677 379.344 144.928 378.811 145.429 378.416C145.941 378.011 146.576 377.808 147.333 377.808C148.176 377.808 148.853 377.925 149.365 378.16ZM158.489 384.672C159.076 384.672 159.593 384.448 160.041 384C160.5 383.541 160.729 382.864 160.729 381.968C160.729 380.933 160.511 380.165 160.073 379.664C159.636 379.163 159.129 378.912 158.553 378.912C157.86 378.912 157.311 379.189 156.905 379.744C156.5 380.288 156.297 381.003 156.297 381.888C156.297 382.795 156.521 383.488 156.969 383.968C157.417 384.437 157.924 384.672 158.489 384.672ZM160.729 377.888H161.993V385.344C161.993 386.581 161.652 387.509 160.969 388.128C160.287 388.757 159.407 389.072 158.329 389.072C157.348 389.072 156.511 388.907 155.817 388.576V387.312C156.5 387.707 157.3 387.904 158.217 387.904C158.996 387.904 159.609 387.696 160.057 387.28C160.505 386.864 160.729 386.213 160.729 385.328V384.416C160.196 385.333 159.401 385.792 158.345 385.792C157.417 385.792 156.623 385.451 155.961 384.768C155.311 384.085 154.985 383.136 154.985 381.92C154.985 380.715 155.289 379.723 155.897 378.944C156.505 378.165 157.3 377.776 158.281 377.776C159.391 377.776 160.207 378.261 160.729 379.232V377.888ZM165.479 377.888V379.312C165.905 378.309 166.641 377.808 167.687 377.808C167.879 377.808 168.028 377.819 168.135 377.84V379.088C167.911 379.013 167.681 378.976 167.447 378.976C166.881 378.976 166.412 379.237 166.039 379.76C165.665 380.283 165.479 380.885 165.479 381.568V386H164.215L164.231 377.888H165.479ZM173.817 382.256H172.409C171.727 382.256 171.215 382.389 170.873 382.656C170.532 382.923 170.361 383.259 170.361 383.664C170.361 384.069 170.495 384.4 170.761 384.656C171.028 384.901 171.417 385.024 171.929 385.024C172.505 385.024 172.964 384.864 173.305 384.544C173.647 384.213 173.817 383.797 173.817 383.296V382.256ZM169.625 379.584V378.32C170.233 377.947 171.033 377.76 172.025 377.76C174.063 377.76 175.081 378.795 175.081 380.864V386H173.833V385.04C173.417 385.733 172.66 386.08 171.561 386.08C170.804 386.08 170.191 385.856 169.721 385.408C169.263 384.96 169.033 384.395 169.033 383.712C169.033 382.933 169.327 382.331 169.913 381.904C170.511 381.467 171.321 381.248 172.345 381.248H173.817V380.832C173.817 380.192 173.673 379.712 173.385 379.392C173.097 379.061 172.612 378.896 171.929 378.896C171.065 378.896 170.297 379.125 169.625 379.584ZM178.572 377.888V379.296C179.052 378.283 179.906 377.776 181.132 377.776C181.922 377.776 182.551 378.016 183.02 378.496C183.49 378.976 183.724 379.616 183.724 380.416V386H182.46V380.752C182.46 380.155 182.306 379.701 181.996 379.392C181.698 379.072 181.303 378.912 180.812 378.912C180.204 378.912 179.676 379.147 179.228 379.616C178.791 380.085 178.572 380.736 178.572 381.568V386H177.324V377.888H178.572ZM189.053 384.976C189.714 384.976 190.274 384.731 190.733 384.24C191.202 383.749 191.437 382.965 191.437 381.888C191.437 380.864 191.197 380.112 190.717 379.632C190.237 379.152 189.709 378.912 189.133 378.912C188.461 378.912 187.901 379.184 187.453 379.728C187.016 380.261 186.797 381.029 186.797 382.032C186.797 382.907 187.01 383.616 187.437 384.16C187.864 384.704 188.402 384.976 189.053 384.976ZM191.437 374.688H192.701V386H191.437V384.8C190.861 385.685 190.029 386.128 188.941 386.128C187.864 386.128 187.016 385.728 186.397 384.928C185.789 384.128 185.485 383.157 185.485 382.016C185.485 380.747 185.81 379.723 186.461 378.944C187.112 378.155 187.949 377.76 188.973 377.76C190.029 377.76 190.85 378.213 191.437 379.12V374.688ZM200.211 381.424V381.104C200.211 380.432 200.03 379.899 199.667 379.504C199.304 379.099 198.803 378.896 198.163 378.896C197.555 378.896 197.038 379.115 196.611 379.552C196.184 379.989 195.934 380.613 195.859 381.424H200.211ZM200.963 384.4V385.584C200.334 385.915 199.566 386.08 198.659 386.08C197.432 386.08 196.44 385.707 195.683 384.96C194.936 384.203 194.563 383.205 194.563 381.968C194.563 380.677 194.899 379.659 195.571 378.912C196.243 378.165 197.107 377.792 198.163 377.792C199.176 377.792 199.982 378.117 200.579 378.768C201.176 379.419 201.475 380.341 201.475 381.536C201.475 381.877 201.448 382.192 201.395 382.48H195.859C195.955 383.28 196.259 383.893 196.771 384.32C197.283 384.747 197.955 384.96 198.787 384.96C199.694 384.96 200.419 384.773 200.963 384.4ZM210.397 384.976C211.058 384.976 211.618 384.731 212.077 384.24C212.546 383.749 212.781 382.965 212.781 381.888C212.781 380.864 212.541 380.112 212.061 379.632C211.581 379.152 211.053 378.912 210.477 378.912C209.805 378.912 209.245 379.184 208.797 379.728C208.359 380.261 208.141 381.029 208.141 382.032C208.141 382.907 208.354 383.616 208.781 384.16C209.207 384.704 209.746 384.976 210.397 384.976ZM212.781 374.688H214.045V386H212.781V384.8C212.205 385.685 211.373 386.128 210.285 386.128C209.207 386.128 208.359 385.728 207.741 384.928C207.133 384.128 206.829 383.157 206.829 382.016C206.829 380.747 207.154 379.723 207.805 378.944C208.455 378.155 209.293 377.76 210.317 377.76C211.373 377.76 212.194 378.213 212.781 379.12V374.688ZM221.555 381.424V381.104C221.555 380.432 221.373 379.899 221.011 379.504C220.648 379.099 220.147 378.896 219.507 378.896C218.899 378.896 218.381 379.115 217.955 379.552C217.528 379.989 217.277 380.613 217.203 381.424H221.555ZM222.307 384.4V385.584C221.677 385.915 220.909 386.08 220.003 386.08C218.776 386.08 217.784 385.707 217.027 384.96C216.28 384.203 215.907 383.205 215.907 381.968C215.907 380.677 216.243 379.659 216.915 378.912C217.587 378.165 218.451 377.792 219.507 377.792C220.52 377.792 221.325 378.117 221.923 378.768C222.52 379.419 222.819 380.341 222.819 381.536C222.819 381.877 222.792 382.192 222.739 382.48H217.203C217.299 383.28 217.603 383.893 218.115 384.32C218.627 384.747 219.299 384.96 220.131 384.96C221.037 384.96 221.763 384.773 222.307 384.4ZM232.348 384.976C232.999 384.976 233.538 384.704 233.964 384.16C234.391 383.616 234.604 382.907 234.604 382.032C234.604 381.029 234.38 380.261 233.932 379.728C233.495 379.184 232.94 378.912 232.268 378.912C231.692 378.912 231.164 379.152 230.684 379.632C230.204 380.112 229.964 380.864 229.964 381.888C229.964 382.965 230.194 383.749 230.652 384.24C231.122 384.731 231.687 384.976 232.348 384.976ZM229.964 374.688V379.104C230.551 378.208 231.372 377.76 232.428 377.76C233.452 377.76 234.29 378.155 234.94 378.944C235.591 379.723 235.916 380.747 235.916 382.016C235.916 383.157 235.607 384.128 234.988 384.928C234.38 385.728 233.538 386.128 232.46 386.128C231.372 386.128 230.54 385.685 229.964 384.8V386H228.7V374.688H229.964ZM242.945 381.424V381.104C242.945 380.432 242.764 379.899 242.401 379.504C242.039 379.099 241.537 378.896 240.897 378.896C240.289 378.896 239.772 379.115 239.345 379.552C238.919 379.989 238.668 380.613 238.593 381.424H242.945ZM243.697 384.4V385.584C243.068 385.915 242.3 386.08 241.393 386.08C240.167 386.08 239.175 385.707 238.417 384.96C237.671 384.203 237.297 383.205 237.297 381.968C237.297 380.677 237.633 379.659 238.305 378.912C238.977 378.165 239.841 377.792 240.897 377.792C241.911 377.792 242.716 378.117 243.313 378.768C243.911 379.419 244.209 380.341 244.209 381.536C244.209 381.877 244.183 382.192 244.129 382.48H238.593C238.689 383.28 238.993 383.893 239.505 384.32C240.017 384.747 240.689 384.96 241.521 384.96C242.428 384.96 243.153 384.773 243.697 384.4ZM247.385 377.888V379.296C247.865 378.283 248.718 377.776 249.945 377.776C250.734 377.776 251.363 378.016 251.833 378.496C252.302 378.976 252.537 379.616 252.537 380.416V386H251.273V380.752C251.273 380.155 251.118 379.701 250.809 379.392C250.51 379.072 250.115 378.912 249.625 378.912C249.017 378.912 248.489 379.147 248.041 379.616C247.603 380.085 247.385 380.736 247.385 381.568V386H246.137V377.888H247.385ZM259.945 381.424V381.104C259.945 380.432 259.764 379.899 259.401 379.504C259.039 379.099 258.537 378.896 257.897 378.896C257.289 378.896 256.772 379.115 256.345 379.552C255.919 379.989 255.668 380.613 255.593 381.424H259.945ZM260.697 384.4V385.584C260.068 385.915 259.3 386.08 258.393 386.08C257.167 386.08 256.175 385.707 255.417 384.96C254.671 384.203 254.297 383.205 254.297 381.968C254.297 380.677 254.633 379.659 255.305 378.912C255.977 378.165 256.841 377.792 257.897 377.792C258.911 377.792 259.716 378.117 260.313 378.768C260.911 379.419 261.209 380.341 261.209 381.536C261.209 381.877 261.183 382.192 261.129 382.48H255.593C255.689 383.28 255.993 383.893 256.505 384.32C257.017 384.747 257.689 384.96 258.521 384.96C259.428 384.96 260.153 384.773 260.697 384.4ZM269.089 377.888V386H267.825V378.912H265.105V386H263.841V378.912H262.449V377.888H263.841V377.136C263.841 376.347 264.054 375.723 264.481 375.264C264.907 374.805 265.51 374.576 266.289 374.576C267.046 374.576 267.787 374.757 268.513 375.12V376.288C267.766 375.904 267.041 375.712 266.337 375.712C265.515 375.712 265.105 376.192 265.105 377.152V377.888H269.089ZM272.188 381.984C272.198 382.859 272.465 383.589 272.988 384.176C273.51 384.752 274.252 385.04 275.212 385.04C275.83 385.04 276.406 384.864 276.94 384.512V385.712C276.428 386.021 275.798 386.176 275.052 386.176C273.772 386.176 272.753 385.771 271.996 384.96C271.249 384.139 270.876 383.141 270.876 381.968C270.876 380.816 271.249 379.824 271.996 378.992C272.753 378.16 273.782 377.744 275.084 377.744C275.777 377.744 276.396 377.893 276.94 378.192V379.392C276.449 379.061 275.873 378.896 275.212 378.896C274.294 378.896 273.558 379.195 273.004 379.792C272.46 380.379 272.188 381.109 272.188 381.984ZM278.951 386V377.888H280.215V386H278.951ZM278.983 375.936C278.833 375.776 278.759 375.579 278.759 375.344C278.759 375.109 278.833 374.912 278.983 374.752C279.143 374.592 279.34 374.512 279.575 374.512C279.809 374.512 280.007 374.592 280.167 374.752C280.327 374.912 280.407 375.109 280.407 375.344C280.407 375.579 280.327 375.776 280.167 375.936C280.007 376.085 279.809 376.16 279.575 376.16C279.34 376.16 279.143 376.085 278.983 375.936ZM285.917 386.144C284.754 386.144 283.832 385.755 283.149 384.976C282.477 384.187 282.141 383.195 282.141 382C282.141 380.795 282.488 379.792 283.181 378.992C283.885 378.181 284.797 377.776 285.917 377.776C287.144 377.776 288.088 378.171 288.749 378.96C289.421 379.749 289.757 380.752 289.757 381.968C289.757 383.173 289.416 384.171 288.733 384.96C288.05 385.749 287.112 386.144 285.917 386.144ZM285.917 378.896C285.149 378.896 284.546 379.195 284.109 379.792C283.672 380.389 283.453 381.12 283.453 381.984C283.453 382.827 283.677 383.547 284.125 384.144C284.573 384.731 285.17 385.024 285.917 385.024C286.728 385.024 287.352 384.736 287.789 384.16C288.226 383.573 288.445 382.848 288.445 381.984C288.445 381.088 288.237 380.352 287.821 379.776C287.405 379.189 286.77 378.896 285.917 378.896ZM296.022 378.16V379.36C295.531 379.061 294.859 378.912 294.006 378.912C293.579 378.912 293.238 379.013 292.982 379.216C292.736 379.408 292.614 379.659 292.614 379.968C292.614 380.16 292.651 380.331 292.726 380.48C292.8 380.619 292.944 380.757 293.158 380.896C293.382 381.035 293.542 381.131 293.638 381.184C293.744 381.227 293.968 381.323 294.31 381.472C294.992 381.749 295.526 382.064 295.91 382.416C296.294 382.768 296.486 383.243 296.486 383.84C296.486 384.533 296.24 385.083 295.75 385.488C295.27 385.893 294.608 386.096 293.766 386.096C292.784 386.096 291.99 385.931 291.382 385.6V384.368C292.096 384.795 292.864 385.008 293.686 385.008C294.176 385.008 294.55 384.912 294.806 384.72C295.062 384.528 295.19 384.267 295.19 383.936C295.19 383.552 295.046 383.253 294.758 383.04C294.48 382.827 294.011 382.587 293.35 382.32C292.742 382.085 292.251 381.792 291.878 381.44C291.515 381.088 291.334 380.613 291.334 380.016C291.334 379.344 291.584 378.811 292.086 378.416C292.598 378.011 293.232 377.808 293.99 377.808C294.832 377.808 295.51 377.925 296.022 378.16ZM78.7813 408.976C79.368 408.976 79.896 408.736 80.3653 408.256C80.8453 407.765 81.0853 406.997 81.0853 405.952C81.0853 404.875 80.8506 404.101 80.3813 403.632C79.912 403.152 79.352 402.912 78.7013 402.912C78.0506 402.912 77.512 403.184 77.0853 403.728C76.6586 404.272 76.4453 404.987 76.4453 405.872C76.4453 406.864 76.664 407.632 77.1013 408.176C77.5386 408.709 78.0986 408.976 78.7813 408.976ZM81.0853 401.888H82.3493V413.152H81.0853V408.784C80.4986 409.68 79.6773 410.128 78.6213 410.128C77.5866 410.128 76.744 409.733 76.0933 408.944C75.4533 408.144 75.1333 407.12 75.1333 405.872C75.1333 404.699 75.4426 403.723 76.0613 402.944C76.68 402.155 77.528 401.76 78.6053 401.76C79.6826 401.76 80.5093 402.203 81.0853 403.088V401.888ZM89.7314 401.888H90.9954V410H89.7314V408.592C89.3048 409.595 88.4568 410.096 87.1874 410.096C86.3874 410.096 85.7528 409.861 85.2834 409.392C84.8248 408.912 84.5954 408.272 84.5954 407.472V401.888H85.8594V407.152C85.8594 407.739 86.0088 408.187 86.3074 408.496C86.6061 408.805 87.0114 408.96 87.5234 408.96C88.1954 408.96 88.7288 408.725 89.1234 408.256C89.5288 407.787 89.7314 407.152 89.7314 406.352V401.888ZM98.5001 405.424V405.104C98.5001 404.432 98.3187 403.899 97.9561 403.504C97.5934 403.099 97.0921 402.896 96.4521 402.896C95.8441 402.896 95.3267 403.115 94.9001 403.552C94.4734 403.989 94.2227 404.613 94.1481 405.424H98.5001ZM99.2521 408.4V409.584C98.6227 409.915 97.8547 410.08 96.9481 410.08C95.7214 410.08 94.7294 409.707 93.9721 408.96C93.2254 408.203 92.8521 407.205 92.8521 405.968C92.8521 404.677 93.1881 403.659 93.8601 402.912C94.5321 402.165 95.3961 401.792 96.4521 401.792C97.4654 401.792 98.2707 402.117 98.8681 402.768C99.4654 403.419 99.7641 404.341 99.7641 405.536C99.7641 405.877 99.7374 406.192 99.6841 406.48H94.1481C94.2441 407.28 94.5481 407.893 95.0601 408.32C95.5721 408.747 96.2441 408.96 97.0761 408.96C97.9827 408.96 98.7081 408.773 99.2521 408.4ZM111.31 399.616V400.976C110.659 400.549 109.88 400.336 108.974 400.336C108.323 400.336 107.806 400.491 107.422 400.8C107.038 401.099 106.846 401.493 106.846 401.984C106.846 402.24 106.894 402.469 106.99 402.672C107.096 402.875 107.278 403.067 107.534 403.248C107.79 403.419 108.008 403.552 108.19 403.648C108.371 403.733 108.654 403.861 109.038 404.032C109.4 404.192 109.678 404.32 109.87 404.416C110.062 404.501 110.307 404.645 110.606 404.848C110.915 405.04 111.144 405.232 111.294 405.424C111.454 405.605 111.592 405.851 111.71 406.16C111.838 406.459 111.902 406.784 111.902 407.136C111.902 408.085 111.576 408.821 110.926 409.344C110.275 409.856 109.438 410.112 108.414 410.112C107.283 410.112 106.323 409.883 105.534 409.424V408.032C106.312 408.619 107.262 408.912 108.382 408.912C109.054 408.912 109.582 408.763 109.966 408.464C110.35 408.165 110.542 407.733 110.542 407.168C110.542 406.933 110.494 406.725 110.398 406.544C110.312 406.352 110.163 406.181 109.95 406.032C109.747 405.872 109.55 405.744 109.358 405.648C109.176 405.541 108.926 405.413 108.606 405.264C108.542 405.232 108.446 405.189 108.318 405.136C107.859 404.933 107.507 404.768 107.262 404.64C107.027 404.512 106.744 404.325 106.414 404.08C106.094 403.824 105.859 403.531 105.71 403.2C105.56 402.869 105.486 402.485 105.486 402.048C105.486 401.131 105.811 400.416 106.462 399.904C107.123 399.381 107.95 399.12 108.942 399.12C109.87 399.12 110.659 399.285 111.31 399.616ZM117.684 408.976C118.335 408.976 118.874 408.704 119.3 408.16C119.727 407.616 119.94 406.907 119.94 406.032C119.94 405.029 119.716 404.261 119.268 403.728C118.831 403.184 118.276 402.912 117.604 402.912C117.028 402.912 116.5 403.152 116.02 403.632C115.54 404.112 115.3 404.864 115.3 405.888C115.3 406.965 115.53 407.749 115.988 408.24C116.458 408.731 117.023 408.976 117.684 408.976ZM115.3 398.688V403.104C115.887 402.208 116.708 401.76 117.764 401.76C118.788 401.76 119.626 402.155 120.276 402.944C120.927 403.723 121.252 404.747 121.252 406.016C121.252 407.157 120.943 408.128 120.324 408.928C119.716 409.728 118.874 410.128 117.796 410.128C116.708 410.128 115.876 409.685 115.3 408.8V410H114.036V398.688H115.3ZM127.481 406.256H126.073C125.391 406.256 124.879 406.389 124.537 406.656C124.196 406.923 124.025 407.259 124.025 407.664C124.025 408.069 124.159 408.4 124.425 408.656C124.692 408.901 125.081 409.024 125.593 409.024C126.169 409.024 126.628 408.864 126.969 408.544C127.311 408.213 127.481 407.797 127.481 407.296V406.256ZM123.289 403.584V402.32C123.897 401.947 124.697 401.76 125.689 401.76C127.727 401.76 128.745 402.795 128.745 404.864V410H127.497V409.04C127.081 409.733 126.324 410.08 125.225 410.08C124.468 410.08 123.855 409.856 123.385 409.408C122.927 408.96 122.697 408.395 122.697 407.712C122.697 406.933 122.991 406.331 123.577 405.904C124.175 405.467 124.985 405.248 126.009 405.248H127.481V404.832C127.481 404.192 127.337 403.712 127.049 403.392C126.761 403.061 126.276 402.896 125.593 402.896C124.729 402.896 123.961 403.125 123.289 403.584ZM132.236 401.888V403.296C132.716 402.283 133.57 401.776 134.796 401.776C135.586 401.776 136.215 402.016 136.684 402.496C137.154 402.976 137.388 403.616 137.388 404.416V410H136.124V404.752C136.124 404.155 135.97 403.701 135.66 403.392C135.362 403.072 134.967 402.912 134.476 402.912C133.868 402.912 133.34 403.147 132.892 403.616C132.455 404.085 132.236 404.736 132.236 405.568V410H130.988V401.888H132.236ZM139.629 410V398.752H140.877V410H139.629ZM142.525 405.744L145.821 410H144.301L141.037 405.744L144.221 401.888H145.725L142.525 405.744ZM152.967 402.912V407.664C152.967 408.528 153.372 408.96 154.183 408.96C154.599 408.96 154.967 408.837 155.287 408.592V409.792C154.935 409.984 154.54 410.08 154.103 410.08C152.503 410.08 151.703 409.264 151.703 407.632V402.912H150.407V401.888H151.703V399.872H152.967V401.888H155.207V402.912H152.967ZM157.193 410V401.888H158.457V410H157.193ZM157.225 399.936C157.076 399.776 157.001 399.579 157.001 399.344C157.001 399.109 157.076 398.912 157.225 398.752C157.385 398.592 157.582 398.512 157.817 398.512C158.052 398.512 158.249 398.592 158.409 398.752C158.569 398.912 158.649 399.109 158.649 399.344C158.649 399.579 158.569 399.776 158.409 399.936C158.249 400.085 158.052 400.16 157.817 400.16C157.582 400.16 157.385 400.085 157.225 399.936ZM166.031 405.424V405.104C166.031 404.432 165.85 403.899 165.487 403.504C165.125 403.099 164.623 402.896 163.983 402.896C163.375 402.896 162.858 403.115 162.431 403.552C162.005 403.989 161.754 404.613 161.679 405.424H166.031ZM166.783 408.4V409.584C166.154 409.915 165.386 410.08 164.479 410.08C163.253 410.08 162.261 409.707 161.503 408.96C160.757 408.203 160.383 407.205 160.383 405.968C160.383 404.677 160.719 403.659 161.391 402.912C162.063 402.165 162.927 401.792 163.983 401.792C164.997 401.792 165.802 402.117 166.399 402.768C166.997 403.419 167.295 404.341 167.295 405.536C167.295 405.877 167.269 406.192 167.215 406.48H161.679C161.775 407.28 162.079 407.893 162.591 408.32C163.103 408.747 163.775 408.96 164.607 408.96C165.514 408.96 166.239 408.773 166.783 408.4ZM170.471 401.888V403.296C170.951 402.283 171.804 401.776 173.031 401.776C173.82 401.776 174.449 402.016 174.919 402.496C175.388 402.976 175.623 403.616 175.623 404.416V410H174.359V404.752C174.359 404.155 174.204 403.701 173.895 403.392C173.596 403.072 173.201 402.912 172.711 402.912C172.103 402.912 171.575 403.147 171.127 403.616C170.689 404.085 170.471 404.736 170.471 405.568V410H169.223V401.888H170.471ZM183.031 405.424V405.104C183.031 404.432 182.85 403.899 182.487 403.504C182.125 403.099 181.623 402.896 180.983 402.896C180.375 402.896 179.858 403.115 179.431 403.552C179.005 403.989 178.754 404.613 178.679 405.424H183.031ZM183.783 408.4V409.584C183.154 409.915 182.386 410.08 181.479 410.08C180.253 410.08 179.261 409.707 178.503 408.96C177.757 408.203 177.383 407.205 177.383 405.968C177.383 404.677 177.719 403.659 178.391 402.912C179.063 402.165 179.927 401.792 180.983 401.792C181.997 401.792 182.802 402.117 183.399 402.768C183.997 403.419 184.295 404.341 184.295 405.536C184.295 405.877 184.269 406.192 184.215 406.48H178.679C178.775 407.28 179.079 407.893 179.591 408.32C180.103 408.747 180.775 408.96 181.607 408.96C182.514 408.96 183.239 408.773 183.783 408.4ZM193.697 408.976C194.38 408.976 194.94 408.709 195.377 408.176C195.814 407.632 196.033 406.864 196.033 405.872C196.033 404.987 195.82 404.272 195.393 403.728C194.966 403.184 194.428 402.912 193.777 402.912C193.126 402.912 192.561 403.152 192.081 403.632C191.612 404.101 191.377 404.875 191.377 405.952C191.377 406.987 191.617 407.749 192.097 408.24C192.577 408.731 193.11 408.976 193.697 408.976ZM191.377 401.888V403.12C191.942 402.213 192.78 401.76 193.889 401.76C194.966 401.76 195.809 402.155 196.417 402.944C197.036 403.723 197.345 404.699 197.345 405.872C197.345 407.12 197.02 408.144 196.369 408.944C195.729 409.733 194.892 410.128 193.857 410.128C192.79 410.128 191.964 409.675 191.377 408.768V413.152H190.129V401.888H191.377ZM203.575 406.256H202.167C201.484 406.256 200.972 406.389 200.631 406.656C200.29 406.923 200.119 407.259 200.119 407.664C200.119 408.069 200.252 408.4 200.519 408.656C200.786 408.901 201.175 409.024 201.687 409.024C202.263 409.024 202.722 408.864 203.063 408.544C203.404 408.213 203.575 407.797 203.575 407.296V406.256ZM199.383 403.584V402.32C199.991 401.947 200.791 401.76 201.783 401.76C203.82 401.76 204.839 402.795 204.839 404.864V410H203.591V409.04C203.175 409.733 202.418 410.08 201.319 410.08C200.562 410.08 199.948 409.856 199.479 409.408C199.02 408.96 198.791 408.395 198.791 407.712C198.791 406.933 199.084 406.331 199.671 405.904C200.268 405.467 201.079 405.248 202.103 405.248H203.575V404.832C203.575 404.192 203.431 403.712 203.143 403.392C202.855 403.061 202.37 402.896 201.687 402.896C200.823 402.896 200.055 403.125 199.383 403.584ZM208.33 401.888V403.312C208.757 402.309 209.493 401.808 210.538 401.808C210.73 401.808 210.879 401.819 210.986 401.84V403.088C210.762 403.013 210.533 402.976 210.298 402.976C209.733 402.976 209.263 403.237 208.89 403.76C208.517 404.283 208.33 404.885 208.33 405.568V410H207.066L207.082 401.888H208.33ZM216.669 406.256H215.261C214.578 406.256 214.066 406.389 213.725 406.656C213.383 406.923 213.213 407.259 213.213 407.664C213.213 408.069 213.346 408.4 213.613 408.656C213.879 408.901 214.269 409.024 214.781 409.024C215.357 409.024 215.815 408.864 216.157 408.544C216.498 408.213 216.669 407.797 216.669 407.296V406.256ZM212.477 403.584V402.32C213.085 401.947 213.885 401.76 214.877 401.76C216.914 401.76 217.933 402.795 217.933 404.864V410H216.685V409.04C216.269 409.733 215.511 410.08 214.413 410.08C213.655 410.08 213.042 409.856 212.573 409.408C212.114 408.96 211.885 408.395 211.885 407.712C211.885 406.933 212.178 406.331 212.765 405.904C213.362 405.467 214.173 405.248 215.197 405.248H216.669V404.832C216.669 404.192 216.525 403.712 216.237 403.392C215.949 403.061 215.463 402.896 214.781 402.896C213.917 402.896 213.149 403.125 212.477 403.584ZM225.826 402.912V407.664C225.826 408.528 226.231 408.96 227.042 408.96C227.458 408.96 227.826 408.837 228.146 408.592V409.792C227.794 409.984 227.399 410.08 226.962 410.08C225.362 410.08 224.562 409.264 224.562 407.632V402.912H223.266V401.888H224.562V399.872H225.826V401.888H228.066V402.912H225.826ZM230.052 410V401.888H231.316V410H230.052ZM230.084 399.936C229.935 399.776 229.86 399.579 229.86 399.344C229.86 399.109 229.935 398.912 230.084 398.752C230.244 398.592 230.442 398.512 230.676 398.512C230.911 398.512 231.108 398.592 231.268 398.752C231.428 398.912 231.508 399.109 231.508 399.344C231.508 399.579 231.428 399.776 231.268 399.936C231.108 400.085 230.911 400.16 230.676 400.16C230.442 400.16 230.244 400.085 230.084 399.936Z" fill="#333333"/>
<g clip-path="url(#clip0)">
<path d="M77.5505 71.2802C72.1685 55.2484 55.5483 46.3381 44.6145 49.983C33.6808 53.6279 25.7865 70.7103 31.1686 86.7422C36.1503 101.582 51.2456 110.148 61.63 108.62C61.5551 108.749 61.5058 108.892 61.4848 109.041L61.1673 111.68C61.1431 111.881 61.1709 112.085 61.2481 112.272C61.3252 112.46 61.4492 112.624 61.6082 112.751C61.7672 112.877 61.956 112.961 62.1566 112.994C62.3572 113.027 62.5629 113.008 62.7543 112.94L68.1035 111.029C68.2949 110.96 68.4656 110.844 68.5994 110.692C68.7331 110.539 68.8255 110.355 68.8678 110.157C68.9101 109.959 68.9008 109.753 68.8408 109.559C68.7809 109.366 68.6723 109.191 68.5253 109.05L66.5971 107.214C66.5285 107.151 66.4528 107.097 66.3715 107.052C75.6335 102.078 82.5431 86.1519 77.5505 71.2802Z" fill="#F2F2F2"/>
<path d="M58.0668 59.4853C62.5363 61.7839 65.9497 65.7048 67.6022 70.4386C69.2548 75.1724 69.0204 80.3578 66.9475 84.9244C66.4847 85.9744 68.1868 86.5266 68.6467 85.4834C70.8231 80.5423 71.0445 74.964 69.2664 69.8671C67.4883 64.7702 63.8423 60.5315 59.0595 58.0012C58.05 57.4681 57.0498 58.9483 58.0668 59.4853Z" fill="white"/>
<path d="M295.449 47.9114C290.067 31.8795 273.446 22.9693 262.513 26.6142C251.579 30.2591 243.685 47.3415 249.067 63.3733C254.048 78.2128 269.144 86.7796 279.528 85.2508C279.453 85.3806 279.404 85.5235 279.383 85.6717L279.065 88.3108C279.041 88.512 279.069 88.716 279.146 88.9034C279.223 89.0909 279.347 89.2556 279.506 89.3819C279.665 89.5082 279.854 89.5919 280.055 89.625C280.255 89.6581 280.461 89.6396 280.652 89.5713L286.002 87.6599C286.193 87.5915 286.364 87.4755 286.498 87.3229C286.631 87.1703 286.724 86.9862 286.766 86.7879C286.808 86.5897 286.799 86.3841 286.739 86.1904C286.679 85.9968 286.57 85.8217 286.423 85.6817L284.495 83.845C284.427 83.7825 284.351 83.7282 284.27 83.6834C293.532 78.7095 300.441 62.7831 295.449 47.9114Z" fill="#F2F2F2"/>
<path d="M275.965 36.1164C280.435 38.4151 283.848 42.3359 285.5 47.0697C287.153 51.8036 286.919 56.9889 284.846 61.5556C284.383 62.6056 286.085 63.1577 286.545 62.1146C288.721 57.1735 288.943 51.5952 287.165 46.4982C285.387 41.4013 281.74 37.1627 276.958 34.6324C275.948 34.0993 274.948 35.5794 275.965 36.1164Z" fill="white"/>
<path d="M168.911 22.1083C163.529 6.07643 146.909 -2.83383 135.975 0.811069C125.042 4.45597 117.147 21.5384 122.529 37.5703C127.511 52.4097 142.606 60.9765 152.991 59.4477C152.916 59.5775 152.867 59.7204 152.846 59.8686L152.528 62.5077C152.504 62.7089 152.532 62.9129 152.609 63.1003C152.686 63.2878 152.81 63.4525 152.969 63.5788C153.128 63.7051 153.317 63.7887 153.517 63.8219C153.718 63.855 153.924 63.8365 154.115 63.7682L159.464 61.8568C159.656 61.7884 159.826 61.6724 159.96 61.5198C160.094 61.3672 160.186 61.183 160.229 60.9848C160.271 60.7866 160.262 60.581 160.202 60.3873C160.142 60.1937 160.033 60.0186 159.886 59.8786L157.958 58.0419C157.889 57.9794 157.814 57.9251 157.732 57.8803C166.994 52.9064 173.904 36.98 168.911 22.1083Z" fill="#F2F2F2"/>
<path d="M149.428 10.3133C153.897 12.612 157.311 16.5328 158.963 21.2667C160.616 26.0005 160.381 31.1858 158.309 35.7524C157.846 36.8025 159.548 37.3546 160.008 36.3115C162.184 31.3704 162.406 25.7921 160.627 20.6951C158.849 15.5982 155.203 11.3596 150.421 8.82928C149.411 8.29621 148.411 9.77632 149.428 10.3133Z" fill="white"/>
<path d="M141.918 99.2505C142.627 99.2505 143.201 98.6785 143.201 97.9728C143.201 97.2671 142.627 96.6951 141.918 96.6951C141.21 96.6951 140.636 97.2671 140.636 97.9728C140.636 98.6785 141.21 99.2505 141.918 99.2505Z" fill="#20DEB0"/>
<path d="M139.186 150.506C140.584 150.506 141.718 149.376 141.718 147.982C141.718 146.588 140.584 145.458 139.186 145.458C137.787 145.458 136.653 146.588 136.653 147.982C136.653 149.376 137.787 150.506 139.186 150.506Z" fill="#20DEB0"/>
<path d="M96.7805 140.787C97.5889 140.787 98.2442 140.134 98.2442 139.328C98.2442 138.522 97.5889 137.869 96.7805 137.869C95.9722 137.869 95.3169 138.522 95.3169 139.328C95.3169 140.134 95.9722 140.787 96.7805 140.787Z" fill="#20DEB0"/>
<path d="M119.016 116.905C119.892 116.905 120.601 116.197 120.601 115.325C120.601 114.453 119.892 113.746 119.016 113.746C118.141 113.746 117.431 114.453 117.431 115.325C117.431 116.197 118.141 116.905 119.016 116.905Z" fill="#20DEB0"/>
<path d="M197.012 209.381C197.72 209.381 198.294 208.809 198.294 208.103C198.294 207.397 197.72 206.825 197.012 206.825C196.304 206.825 195.73 207.397 195.73 208.103C195.73 208.809 196.304 209.381 197.012 209.381Z" fill="#20DEB0"/>
<path d="M155.021 183.108C156.419 183.108 157.553 181.978 157.553 180.583C157.553 179.189 156.419 178.059 155.021 178.059C153.622 178.059 152.488 179.189 152.488 180.583C152.488 181.978 153.622 183.108 155.021 183.108Z" fill="#20DEB0"/>
<path d="M183.865 149.881C184.673 149.881 185.328 149.228 185.328 148.422C185.328 147.617 184.673 146.964 183.865 146.964C183.056 146.964 182.401 147.617 182.401 148.422C182.401 149.228 183.056 149.881 183.865 149.881Z" fill="#20DEB0"/>
<path d="M193.49 181.228C194.365 181.228 195.075 180.521 195.075 179.649C195.075 178.777 194.365 178.069 193.49 178.069C192.614 178.069 191.905 178.777 191.905 179.649C191.905 180.521 192.614 181.228 193.49 181.228Z" fill="#20DEB0"/>
<path d="M278.864 262.579C280.263 261.412 278.373 256.867 274.643 252.428C270.913 247.989 266.755 245.336 265.357 246.503C263.958 247.669 265.848 252.214 269.578 256.653C273.308 261.093 277.466 263.746 278.864 262.579Z" fill="#2F2E41"/>
<path d="M249.731 271.867C261.352 271.867 270.772 262.48 270.772 250.9C270.772 239.32 261.352 229.933 249.731 229.933C238.11 229.933 228.69 239.32 228.69 250.9C228.69 262.48 238.11 271.867 249.731 271.867Z" fill="#2F2E41"/>
<path d="M258.637 267.355H252.245V278.768H258.637V267.355Z" fill="#2F2E41"/>
<path d="M245.852 267.355H239.46V278.768H245.852V267.355Z" fill="#2F2E41"/>
<path d="M253.31 280.891C256.252 280.891 258.637 280 258.637 278.901C258.637 277.801 256.252 276.91 253.31 276.91C250.368 276.91 247.983 277.801 247.983 278.901C247.983 280 250.368 280.891 253.31 280.891Z" fill="#2F2E41"/>
<path d="M240.526 280.626C243.468 280.626 245.852 279.735 245.852 278.635C245.852 277.536 243.468 276.645 240.526 276.645C237.584 276.645 235.199 277.536 235.199 278.635C235.199 279.735 237.584 280.626 240.526 280.626Z" fill="#2F2E41"/>
<path d="M243.124 224.543C245.003 217.004 253.296 212.567 261.648 214.633C269.999 216.699 275.247 224.487 273.368 232.027C271.489 239.567 265.256 239.591 256.904 237.525C248.553 235.458 241.245 232.083 243.124 224.543Z" fill="#E6E6E6"/>
<path d="M235.538 245.664C236.319 244.021 232.697 240.679 227.447 238.197C222.197 235.716 217.308 235.036 216.526 236.679C215.745 238.321 219.367 241.664 224.617 244.145C229.866 246.626 234.756 247.306 235.538 245.664Z" fill="#2F2E41"/>
<path d="M246.585 253.466C250.46 253.466 253.6 250.337 253.6 246.476C253.6 242.615 250.46 239.485 246.585 239.485C242.711 239.485 239.57 242.615 239.57 246.476C239.57 250.337 242.711 253.466 246.585 253.466Z" fill="white"/>
<path d="M243.702 246.3C244.994 246.3 246.04 245.257 246.04 243.97C246.04 242.683 244.994 241.64 243.702 241.64C242.411 241.64 241.364 242.683 241.364 243.97C241.364 245.257 242.411 246.3 243.702 246.3Z" fill="#3F3D56"/>
<path d="M250.986 261.04C251.096 261.642 251.086 262.26 250.956 262.858C250.827 263.456 250.58 264.023 250.231 264.527C249.881 265.03 249.436 265.46 248.92 265.791C248.403 266.123 247.827 266.35 247.223 266.46C246.618 266.569 245.998 266.559 245.398 266.43C244.798 266.301 244.229 266.055 243.724 265.707C243.219 265.359 242.787 264.915 242.455 264.401C242.122 263.886 241.894 263.312 241.784 262.709L241.782 262.7C241.322 260.168 243.287 259.272 245.829 258.813C248.37 258.355 250.526 258.508 250.986 261.04Z" fill="white"/>
<path d="M76.7436 236.242C78.818 230.833 79.1185 225.923 77.4147 225.274C75.7109 224.625 72.648 228.483 70.5735 233.892C68.4991 239.3 68.1986 244.21 69.9024 244.859C71.6062 245.508 74.6691 241.65 76.7436 236.242Z" fill="#2F2E41"/>
<path d="M54.2104 271.867C65.8311 271.867 75.2515 262.48 75.2515 250.9C75.2515 239.32 65.8311 229.933 54.2104 229.933C42.5898 229.933 33.1694 239.32 33.1694 250.9C33.1694 262.48 42.5898 271.867 54.2104 271.867Z" fill="#2F2E41"/>
<path d="M51.0143 267.355H44.6221V278.768H51.0143V267.355Z" fill="#2F2E41"/>
<path d="M63.7985 267.355H57.4062V278.768H63.7985V267.355Z" fill="#2F2E41"/>
<path d="M49.9489 280.891C52.8908 280.891 55.2758 280 55.2758 278.901C55.2758 277.801 52.8908 276.91 49.9489 276.91C47.007 276.91 44.6221 277.801 44.6221 278.901C44.6221 280 47.007 280.891 49.9489 280.891Z" fill="#2F2E41"/>
<path d="M62.7333 280.626C65.6753 280.626 68.0602 279.735 68.0602 278.635C68.0602 277.536 65.6753 276.645 62.7333 276.645C59.7914 276.645 57.4065 277.536 57.4065 278.635C57.4065 279.735 59.7914 280.626 62.7333 280.626Z" fill="#2F2E41"/>
<path d="M54.743 252.758C58.7146 252.758 61.9342 249.55 61.9342 245.592C61.9342 241.634 58.7146 238.426 54.743 238.426C50.7714 238.426 47.5518 241.634 47.5518 245.592C47.5518 249.55 50.7714 252.758 54.743 252.758Z" fill="white"/>
<path d="M54.743 247.98C56.0669 247.98 57.1401 246.911 57.1401 245.592C57.1401 244.273 56.0669 243.203 54.743 243.203C53.4192 243.203 52.3459 244.273 52.3459 245.592C52.3459 246.911 53.4192 247.98 54.743 247.98Z" fill="#3F3D56"/>
<path d="M33.7996 231.401C32.1006 223.819 37.5315 216.157 45.9299 214.289C54.3282 212.42 62.5137 217.052 64.2126 224.634C65.9116 232.216 60.3457 235.012 51.9474 236.881C43.5491 238.75 35.4986 238.983 33.7996 231.401Z" fill="#E6E6E6"/>
<path d="M40.0168 245.664C40.7985 244.021 37.1763 240.679 31.9265 238.197C26.6767 235.716 21.7873 235.036 21.0056 236.679C20.224 238.321 23.8461 241.664 29.0959 244.145C34.3457 246.626 39.2352 247.306 40.0168 245.664Z" fill="#2F2E41"/>
<path d="M43.875 258.464C43.875 260.516 49.1775 264.569 55.0614 264.569C60.9453 264.569 66.462 258.791 66.462 256.739C66.462 254.687 60.9452 257.137 55.0614 257.137C49.1775 257.137 43.875 256.412 43.875 258.464Z" fill="white"/>
<path d="M154.717 251.906C166.337 251.906 175.758 242.519 175.758 230.939C175.758 219.359 166.337 209.972 154.717 209.972C143.096 209.972 133.676 219.359 133.676 230.939C133.676 242.519 143.096 251.906 154.717 251.906Z" fill="#2F2E41"/>
<path d="M151.521 247.395H145.128V258.807H151.521V247.395Z" fill="#2F2E41"/>
<path d="M164.305 247.395H157.913V258.807H164.305V247.395Z" fill="#2F2E41"/>
<path d="M150.455 260.93C153.397 260.93 155.782 260.039 155.782 258.94C155.782 257.84 153.397 256.949 150.455 256.949C147.513 256.949 145.128 257.84 145.128 258.94C145.128 260.039 147.513 260.93 150.455 260.93Z" fill="#2F2E41"/>
<path d="M163.239 260.665C166.181 260.665 168.566 259.774 168.566 258.674C168.566 257.575 166.181 256.684 163.239 256.684C160.298 256.684 157.913 257.575 157.913 258.674C157.913 259.774 160.298 260.665 163.239 260.665Z" fill="#2F2E41"/>
<path d="M134.306 211.44C132.607 203.858 138.038 196.197 146.436 194.328C154.835 192.459 163.02 197.091 164.719 204.673C166.418 212.255 160.852 215.051 152.454 216.92C144.056 218.789 136.005 219.022 134.306 211.44Z" fill="#4759DD"/>
<path d="M177.39 221.777C181.947 217.232 184.48 212.393 183.049 210.967C181.617 209.542 176.763 212.07 172.206 216.615C167.649 221.159 165.116 225.998 166.547 227.424C167.979 228.849 172.833 226.321 177.39 221.777Z" fill="#2F2E41"/>
<path d="M137.757 228.885C139.189 227.459 136.655 222.62 132.098 218.075C127.541 213.531 122.687 211.002 121.255 212.428C119.824 213.853 122.357 218.693 126.914 223.237C131.471 227.782 136.325 230.31 137.757 228.885Z" fill="#2F2E41"/>
<path d="M282.636 97.8673C281.937 76.3681 267.16 59.3981 249.631 59.9636C210.618 61.1156 209.665 132.408 247.331 137.529L246.534 143.846L258.167 143.47L256.961 137.218C272.113 133.881 283.269 117.359 282.636 97.8673Z" fill="#20DEB0"/>
<path d="M230.231 109.787L225.836 109.929C224.113 101.767 223.84 93.3681 225.03 85.1126L229.424 84.9708C227.801 93.6126 228.07 101.885 230.231 109.787Z" fill="white"/>
<path d="M258.737 137.12L245.552 137.545L245.647 140.465L258.832 140.039L258.737 137.12Z" fill="#3F3D56"/>
<path d="M220.443 248.914L219.115 248.294L251.757 137.988L253.084 138.607L220.443 248.914Z" fill="#3F3D56"/>
<path d="M309.652 116.047C317.624 96.0574 310.873 74.6202 294.574 68.1661C258.342 53.704 228.911 118.691 261.395 138.369L258.133 143.844L268.95 148.127L270.349 141.914C285.578 144.882 302.425 134.171 309.652 116.047Z" fill="#4759DD"/>
<path d="M256.828 106.131L252.742 104.513C254.432 96.3448 257.546 88.5351 261.944 81.4389L266.03 83.057C261.08 90.3348 258.013 98.0262 256.828 106.131Z" fill="white"/>
<path d="M259.758 137.676L258.675 140.391L270.934 145.245L272.016 142.531L259.758 137.676Z" fill="#3F3D56"/>
<path d="M220.185 246.01L218.911 245.288L264.483 141.653L265.757 142.375L220.185 246.01Z" fill="#3F3D56"/>
<path d="M61.9457 99.2564C53.3211 79.5374 33.2958 69.2129 17.218 76.1958C-18.6041 91.6377 6.95778 158.231 43.8553 149.114L45.4578 155.277L56.1275 150.643L52.6876 145.278C65.5283 136.595 69.7649 117.134 61.9457 99.2564Z" fill="#4759DD"/>
<path d="M17.6748 129.637L13.644 131.387C9.01557 124.439 5.6461 116.735 3.68872 108.626L7.71956 106.875C9.41717 115.503 12.7356 123.09 17.6748 129.637Z" fill="white"/>
<path d="M54.3012 144.532L42.2087 149.784L43.3799 152.462L55.4725 147.21L54.3012 144.532Z" fill="#3F3D56"/>
<path d="M82.2793 249.196C82.0907 249.243 81.8912 249.213 81.7248 249.113C81.5583 249.013 81.4385 248.851 81.3917 248.663L49.5339 148.072L50.9564 147.72L82.8142 248.311C82.8374 248.404 82.8419 248.501 82.8276 248.596C82.8132 248.691 82.7803 248.782 82.7306 248.864C82.681 248.946 82.6155 249.018 82.5381 249.075C82.4607 249.132 82.3727 249.173 82.2793 249.196Z" fill="#3F3D56"/>
<path d="M90.7934 281H14.0894C13.9598 281 13.8356 280.949 13.7439 280.857C13.6523 280.766 13.6008 280.642 13.6008 280.513C13.6008 280.384 13.6523 280.26 13.7439 280.169C13.8356 280.078 13.9598 280.026 14.0894 280.026H90.7934C90.923 280.026 91.0473 280.078 91.1389 280.169C91.2305 280.26 91.282 280.384 91.282 280.513C91.282 280.642 91.2305 280.766 91.1389 280.857C91.0473 280.949 90.923 281 90.7934 281Z" fill="#CCCCCC"/>
<path d="M285.729 281H209.025C208.896 281 208.771 280.949 208.68 280.857C208.588 280.766 208.537 280.642 208.537 280.513C208.537 280.384 208.588 280.26 208.68 280.169C208.771 280.078 208.896 280.026 209.025 280.026H285.729C285.859 280.026 285.983 280.078 286.075 280.169C286.166 280.26 286.218 280.384 286.218 280.513C286.218 280.642 286.166 280.766 286.075 280.857C285.983 280.949 285.859 281 285.729 281Z" fill="#CCCCCC"/>
<path d="M194.368 261.039H117.664C117.535 261.039 117.41 260.988 117.319 260.897C117.227 260.805 117.176 260.681 117.176 260.552C117.176 260.423 117.227 260.299 117.319 260.208C117.41 260.117 117.535 260.065 117.664 260.065H194.368C194.498 260.065 194.622 260.117 194.714 260.208C194.805 260.299 194.857 260.423 194.857 260.552C194.857 260.681 194.805 260.805 194.714 260.897C194.622 260.988 194.498 261.039 194.368 261.039Z" fill="#CCCCCC"/>
<path d="M153.831 235.134C157.803 235.134 161.023 231.925 161.023 227.968C161.023 224.01 157.803 220.802 153.831 220.802C149.86 220.802 146.64 224.01 146.64 227.968C146.64 231.925 149.86 235.134 153.831 235.134Z" fill="white"/>
<path d="M153.831 230.357C155.155 230.357 156.228 229.287 156.228 227.968C156.228 226.649 155.155 225.579 153.831 225.579C152.508 225.579 151.434 226.649 151.434 227.968C151.434 229.287 152.508 230.357 153.831 230.357Z" fill="#3F3D56"/>
<path d="M159.54 241.221C159.762 242.437 159.49 243.691 158.785 244.708C158.079 245.724 156.997 246.419 155.777 246.641C154.556 246.862 153.298 246.591 152.278 245.888C151.258 245.185 150.56 244.106 150.338 242.89L150.336 242.881C149.876 240.349 151.841 239.452 154.383 238.994C156.924 238.536 159.08 238.688 159.54 241.221Z" fill="white"/>
</g>
<defs>
<clipPath id="clip0">
<rect width="313" height="281" fill="white"/>
</clipPath>
</defs>
</svg>
