<svg width="294" height="354" viewBox="0 0 294 354" fill="none" xmlns="http://www.w3.org/2000/svg">
<path d="M28.7173 262V245.2H32.4373V251.776H39.4933V245.2H43.2133V262H39.4933V255.016H32.4373V262H28.7173ZM55.9005 262L55.7325 260.512C55.3005 261.088 54.7245 261.544 54.0045 261.88C53.3005 262.2 52.5245 262.36 51.6765 262.36C50.4765 262.36 49.4045 262.08 48.4605 261.52C47.5165 260.96 46.7725 260.184 46.2285 259.192C45.7005 258.2 45.4365 257.072 45.4365 255.808C45.4365 254.528 45.7005 253.4 46.2285 252.424C46.7725 251.432 47.5165 250.656 48.4605 250.096C49.4045 249.536 50.4765 249.256 51.6765 249.256C52.5245 249.256 53.3005 249.424 54.0045 249.76C54.7085 250.08 55.2845 250.528 55.7325 251.104L55.9005 249.616H58.9005V262H55.9005ZM52.2285 259.312C53.2045 259.312 53.9965 258.984 54.6045 258.328C55.2285 257.672 55.5405 256.832 55.5405 255.808C55.5405 254.784 55.2285 253.944 54.6045 253.288C53.9965 252.632 53.2045 252.304 52.2285 252.304C51.2525 252.304 50.4525 252.632 49.8285 253.288C49.2205 253.944 48.9165 254.784 48.9165 255.808C48.9165 256.832 49.2205 257.672 49.8285 258.328C50.4525 258.984 51.2525 259.312 52.2285 259.312ZM61.5505 262V245.2H64.9105V250.888C65.3585 250.376 65.9105 249.976 66.5665 249.688C67.2385 249.4 67.9745 249.256 68.7745 249.256C69.9905 249.256 71.0625 249.536 71.9905 250.096C72.9345 250.656 73.6705 251.432 74.1985 252.424C74.7425 253.4 75.0145 254.528 75.0145 255.808C75.0145 257.072 74.7425 258.2 74.1985 259.192C73.6705 260.184 72.9345 260.96 71.9905 261.52C71.0625 262.08 69.9905 262.36 68.7745 262.36C67.9265 262.36 67.1505 262.2 66.4465 261.88C65.7425 261.544 65.1665 261.088 64.7185 260.512L64.5505 262H61.5505ZM68.2225 259.312C69.1985 259.312 69.9905 258.984 70.5985 258.328C71.2225 257.672 71.5345 256.832 71.5345 255.808C71.5345 254.784 71.2225 253.944 70.5985 253.288C69.9905 252.632 69.1985 252.304 68.2225 252.304C67.2465 252.304 66.4465 252.632 65.8225 253.288C65.2145 253.944 64.9105 254.784 64.9105 255.808C64.9105 256.832 65.2145 257.672 65.8225 258.328C66.4465 258.984 67.2465 259.312 68.2225 259.312ZM76.7524 246.616C76.7524 246.024 76.9364 245.56 77.3044 245.224C77.6884 244.872 78.1924 244.696 78.8164 244.696C79.4404 244.696 79.9364 244.872 80.3044 245.224C80.6884 245.56 80.8804 246.024 80.8804 246.616C80.8804 247.192 80.6884 247.656 80.3044 248.008C79.9364 248.344 79.4404 248.512 78.8164 248.512C78.1924 248.512 77.6884 248.344 77.3044 248.008C76.9364 247.656 76.7524 247.192 76.7524 246.616ZM77.1364 262V249.616H80.4964V262H77.1364ZM83.1364 262V245.2H86.4964V262H83.1364ZM88.7524 246.616C88.7524 246.024 88.9364 245.56 89.3044 245.224C89.6884 244.872 90.1924 244.696 90.8164 244.696C91.4404 244.696 91.9364 244.872 92.3044 245.224C92.6884 245.56 92.8804 246.024 92.8804 246.616C92.8804 247.192 92.6884 247.656 92.3044 248.008C91.9364 248.344 91.4404 248.512 90.8164 248.512C90.1924 248.512 89.6884 248.344 89.3044 248.008C88.9364 247.656 88.7524 247.192 88.7524 246.616ZM89.1364 262V249.616H92.4964V262H89.1364ZM96.0724 262V252.496H94.1764V249.616H96.0724V246.4H99.4324V249.616H101.568V252.496H99.4324V262H96.0724ZM112.947 262L112.779 260.512C112.347 261.088 111.771 261.544 111.051 261.88C110.347 262.2 109.571 262.36 108.723 262.36C107.523 262.36 106.451 262.08 105.507 261.52C104.563 260.96 103.819 260.184 103.275 259.192C102.747 258.2 102.483 257.072 102.483 255.808C102.483 254.528 102.747 253.4 103.275 252.424C103.819 251.432 104.563 250.656 105.507 250.096C106.451 249.536 107.523 249.256 108.723 249.256C109.571 249.256 110.347 249.424 111.051 249.76C111.755 250.08 112.331 250.528 112.779 251.104L112.947 249.616H115.947V262H112.947ZM109.275 259.312C110.251 259.312 111.043 258.984 111.651 258.328C112.275 257.672 112.587 256.832 112.587 255.808C112.587 254.784 112.275 253.944 111.651 253.288C111.043 252.632 110.251 252.304 109.275 252.304C108.299 252.304 107.499 252.632 106.875 253.288C106.267 253.944 105.963 254.784 105.963 255.808C105.963 256.832 106.267 257.672 106.875 258.328C107.499 258.984 108.299 259.312 109.275 259.312ZM124.572 262V252.496H122.676V249.616H124.572V246.4H127.932V249.616H130.068V252.496H127.932V262H124.572ZM131.578 256.216V249.616H134.938V256.384C134.938 258.368 135.762 259.36 137.41 259.36C138.21 259.36 138.818 259.104 139.234 258.592C139.666 258.08 139.882 257.344 139.882 256.384V249.616H143.242V256.216C143.242 258.232 142.746 259.76 141.754 260.8C140.778 261.84 139.33 262.36 137.41 262.36C135.49 262.36 134.034 261.84 133.042 260.8C132.066 259.76 131.578 258.232 131.578 256.216ZM150.586 256.216V249.616H153.946V256.384C153.946 258.368 154.77 259.36 156.418 259.36C157.218 259.36 157.826 259.104 158.242 258.592C158.674 258.08 158.89 257.344 158.89 256.384V249.616H162.25V256.216C162.25 258.232 161.754 259.76 160.762 260.8C159.786 261.84 158.338 262.36 156.418 262.36C154.498 262.36 153.042 261.84 152.05 260.8C151.074 259.76 150.586 258.232 150.586 256.216ZM164.722 262V245.2H168.082V250.888C168.53 250.376 169.082 249.976 169.738 249.688C170.41 249.4 171.146 249.256 171.946 249.256C173.162 249.256 174.234 249.536 175.162 250.096C176.106 250.656 176.842 251.432 177.37 252.424C177.914 253.4 178.186 254.528 178.186 255.808C178.186 257.072 177.914 258.2 177.37 259.192C176.842 260.184 176.106 260.96 175.162 261.52C174.234 262.08 173.162 262.36 171.946 262.36C171.098 262.36 170.322 262.2 169.618 261.88C168.914 261.544 168.338 261.088 167.89 260.512L167.722 262H164.722ZM171.394 259.312C172.37 259.312 173.162 258.984 173.77 258.328C174.394 257.672 174.706 256.832 174.706 255.808C174.706 254.784 174.394 253.944 173.77 253.288C173.162 252.632 172.37 252.304 171.394 252.304C170.418 252.304 169.618 252.632 168.994 253.288C168.386 253.944 168.082 254.784 168.082 255.808C168.082 256.832 168.386 257.672 168.994 258.328C169.618 258.984 170.418 259.312 171.394 259.312ZM179.924 246.616C179.924 246.024 180.108 245.56 180.476 245.224C180.86 244.872 181.364 244.696 181.988 244.696C182.612 244.696 183.108 244.872 183.476 245.224C183.86 245.56 184.052 246.024 184.052 246.616C184.052 247.192 183.86 247.656 183.476 248.008C183.108 248.344 182.612 248.512 181.988 248.512C181.364 248.512 180.86 248.344 180.476 248.008C180.108 247.656 179.924 247.192 179.924 246.616ZM180.308 262V249.616H183.668V262H180.308ZM195.668 257.896L197.612 260.008C196.3 261.576 194.572 262.36 192.428 262.36C191.132 262.36 189.98 262.08 188.972 261.52C187.98 260.96 187.196 260.184 186.62 259.192C186.06 258.2 185.78 257.072 185.78 255.808C185.78 254.544 186.06 253.424 186.62 252.448C187.18 251.456 187.948 250.68 188.924 250.12C189.916 249.544 191.036 249.256 192.284 249.256C194.412 249.256 196.1 249.976 197.348 251.416L195.428 253.528C194.628 252.792 193.668 252.424 192.548 252.424C191.572 252.424 190.78 252.736 190.172 253.36C189.564 253.984 189.26 254.8 189.26 255.808C189.26 256.832 189.564 257.656 190.172 258.28C190.78 258.888 191.588 259.192 192.596 259.192C193.732 259.192 194.756 258.76 195.668 257.896ZM208.924 262L208.756 260.512C208.324 261.088 207.748 261.544 207.028 261.88C206.324 262.2 205.548 262.36 204.7 262.36C203.5 262.36 202.428 262.08 201.484 261.52C200.54 260.96 199.796 260.184 199.252 259.192C198.724 258.2 198.46 257.072 198.46 255.808C198.46 254.528 198.724 253.4 199.252 252.424C199.796 251.432 200.54 250.656 201.484 250.096C202.428 249.536 203.5 249.256 204.7 249.256C205.548 249.256 206.324 249.424 207.028 249.76C207.732 250.08 208.308 250.528 208.756 251.104L208.924 249.616H211.924V262H208.924ZM205.252 259.312C206.228 259.312 207.02 258.984 207.628 258.328C208.252 257.672 208.564 256.832 208.564 255.808C208.564 254.784 208.252 253.944 207.628 253.288C207.02 252.632 206.228 252.304 205.252 252.304C204.276 252.304 203.476 252.632 202.852 253.288C202.244 253.944 201.94 254.784 201.94 255.808C201.94 256.832 202.244 257.672 202.852 258.328C203.476 258.984 204.276 259.312 205.252 259.312ZM223.934 257.896L225.878 260.008C224.566 261.576 222.838 262.36 220.694 262.36C219.398 262.36 218.246 262.08 217.238 261.52C216.246 260.96 215.462 260.184 214.886 259.192C214.326 258.2 214.046 257.072 214.046 255.808C214.046 254.544 214.326 253.424 214.886 252.448C215.446 251.456 216.214 250.68 217.19 250.12C218.182 249.544 219.302 249.256 220.55 249.256C222.678 249.256 224.366 249.976 225.614 251.416L223.694 253.528C222.894 252.792 221.934 252.424 220.814 252.424C219.838 252.424 219.046 252.736 218.438 253.36C217.83 253.984 217.526 254.8 217.526 255.808C217.526 256.832 217.83 257.656 218.438 258.28C219.046 258.888 219.854 259.192 220.862 259.192C221.998 259.192 223.022 258.76 223.934 257.896ZM227.104 246.616C227.104 246.024 227.288 245.56 227.656 245.224C228.04 244.872 228.544 244.696 229.168 244.696C229.792 244.696 230.288 244.872 230.656 245.224C231.04 245.56 231.232 246.024 231.232 246.616C231.232 247.192 231.04 247.656 230.656 248.008C230.288 248.344 229.792 248.512 229.168 248.512C228.544 248.512 228.04 248.344 227.656 248.008C227.288 247.656 227.104 247.192 227.104 246.616ZM227.488 262V249.616H230.848V262H227.488ZM239.752 262.36C238.424 262.36 237.248 262.08 236.224 261.52C235.2 260.96 234.4 260.192 233.824 259.216C233.248 258.224 232.96 257.088 232.96 255.808C232.96 254.528 233.248 253.4 233.824 252.424C234.416 251.432 235.224 250.656 236.248 250.096C237.272 249.536 238.44 249.256 239.752 249.256C241.08 249.256 242.248 249.536 243.256 250.096C244.28 250.656 245.08 251.432 245.656 252.424C246.248 253.4 246.544 254.528 246.544 255.808C246.544 257.088 246.256 258.224 245.68 259.216C245.104 260.192 244.304 260.96 243.28 261.52C242.256 262.08 241.08 262.36 239.752 262.36ZM239.752 259.312C240.728 259.312 241.52 258.984 242.128 258.328C242.752 257.672 243.064 256.832 243.064 255.808C243.064 254.784 242.752 253.944 242.128 253.288C241.52 252.632 240.728 252.304 239.752 252.304C238.776 252.304 237.976 252.632 237.352 253.288C236.744 253.944 236.44 254.784 236.44 255.808C236.44 256.816 236.744 257.656 237.352 258.328C237.976 258.984 238.776 259.312 239.752 259.312ZM237.856 247.936L239.752 244.216H243.472L241 247.936H237.856ZM248.652 262V249.616H251.652L251.82 251.104C252.252 250.528 252.804 250.08 253.476 249.76C254.164 249.424 254.908 249.256 255.708 249.256C257.212 249.256 258.396 249.752 259.26 250.744C260.14 251.72 260.58 253.056 260.58 254.752V262H257.22V255.136C257.22 253.232 256.396 252.28 254.748 252.28C253.964 252.28 253.308 252.552 252.78 253.096C252.268 253.64 252.012 254.336 252.012 255.184V262H248.652Z" fill="#333333"/>
<path d="M0.72125 326V314.8H1.66525L8.03325 323.712V314.8H9.16925V326H8.22525L1.85725 317.088V326H0.72125ZM15.3134 326.176C14.5134 326.176 13.82 326.005 13.2334 325.664C12.6467 325.312 12.188 324.827 11.8574 324.208C11.5374 323.579 11.3774 322.848 11.3774 322.016C11.3774 321.195 11.532 320.469 11.8414 319.84C12.1507 319.211 12.5774 318.72 13.1214 318.368C13.6654 318.005 14.2894 317.824 14.9934 317.824C16.028 317.824 16.844 318.176 17.4414 318.88C18.0494 319.573 18.3534 320.507 18.3534 321.68C18.3534 321.797 18.348 321.936 18.3374 322.096C18.3267 322.256 18.3107 322.389 18.2894 322.496H12.5774C12.6627 323.307 12.9454 323.947 13.4254 324.416C13.9054 324.875 14.556 325.104 15.3774 325.104C16.188 325.104 16.9027 324.896 17.5214 324.48L18.0174 325.344C17.676 325.611 17.2707 325.819 16.8014 325.968C16.3427 326.107 15.8467 326.176 15.3134 326.176ZM14.9934 318.896C14.3214 318.896 13.772 319.136 13.3454 319.616C12.9187 320.085 12.668 320.715 12.5934 321.504H17.2174C17.1854 320.672 16.9774 320.032 16.5934 319.584C16.22 319.125 15.6867 318.896 14.9934 318.896ZM23.6549 326.176C22.8549 326.176 22.1669 326.005 21.5909 325.664C21.0255 325.312 20.5882 324.827 20.2789 324.208C19.9695 323.579 19.8149 322.853 19.8149 322.032C19.8149 321.189 19.9695 320.453 20.2789 319.824C20.5989 319.195 21.0469 318.704 21.6229 318.352C22.1989 318 22.8709 317.824 23.6389 317.824C24.5775 317.824 25.3882 318.08 26.0709 318.592L25.5589 319.488C25.2709 319.296 24.9722 319.157 24.6629 319.072C24.3535 318.987 24.0335 318.944 23.7029 318.944C22.8282 318.944 22.1615 319.227 21.7029 319.792C21.2549 320.357 21.0309 321.093 21.0309 322C21.0309 322.939 21.2709 323.685 21.7509 324.24C22.2309 324.784 22.9082 325.056 23.7829 325.056C24.1349 325.056 24.4709 325.008 24.7909 324.912C25.1215 324.816 25.4522 324.672 25.7829 324.48L26.2789 325.344C25.9482 325.611 25.5535 325.819 25.0949 325.968C24.6362 326.107 24.1562 326.176 23.6549 326.176ZM31.2352 326.176C30.4353 326.176 29.7419 326.005 29.1553 325.664C28.5686 325.312 28.1099 324.827 27.7793 324.208C27.4593 323.579 27.2993 322.848 27.2993 322.016C27.2993 321.195 27.4539 320.469 27.7633 319.84C28.0726 319.211 28.4993 318.72 29.0433 318.368C29.5873 318.005 30.2113 317.824 30.9153 317.824C31.9499 317.824 32.7659 318.176 33.3633 318.88C33.9713 319.573 34.2753 320.507 34.2753 321.68C34.2753 321.797 34.2699 321.936 34.2593 322.096C34.2486 322.256 34.2326 322.389 34.2113 322.496H28.4993C28.5846 323.307 28.8673 323.947 29.3473 324.416C29.8273 324.875 30.4779 325.104 31.2993 325.104C32.1099 325.104 32.8246 324.896 33.4433 324.48L33.9393 325.344C33.5979 325.611 33.1926 325.819 32.7233 325.968C32.2646 326.107 31.7686 326.176 31.2352 326.176ZM30.9153 318.896C30.2433 318.896 29.6939 319.136 29.2673 319.616C28.8406 320.085 28.5899 320.715 28.5153 321.504H33.1393C33.1073 320.672 32.8993 320.032 32.5153 319.584C32.1419 319.125 31.6086 318.896 30.9153 318.896ZM38.6008 326.176C38.0141 326.176 37.4701 326.096 36.9688 325.936C36.4674 325.776 36.0354 325.563 35.6728 325.296L36.1688 324.432C36.5101 324.635 36.8888 324.805 37.3048 324.944C37.7208 325.072 38.1581 325.136 38.6168 325.136C39.1821 325.136 39.6141 325.029 39.9128 324.816C40.2114 324.603 40.3608 324.299 40.3608 323.904C40.3608 323.584 40.2381 323.323 39.9928 323.12C39.7581 322.907 39.3634 322.736 38.8088 322.608L38.0888 322.432C36.5848 322.08 35.8328 321.301 35.8328 320.096C35.8328 319.403 36.0888 318.853 36.6008 318.448C37.1234 318.032 37.8114 317.824 38.6648 317.824C39.6781 317.824 40.5688 318.091 41.3368 318.624L40.8568 319.472C40.1421 319.067 39.4168 318.864 38.6808 318.864C38.1474 318.864 37.7368 318.971 37.4488 319.184C37.1608 319.387 37.0168 319.675 37.0168 320.048C37.0168 320.379 37.1341 320.651 37.3688 320.864C37.6141 321.067 38.0301 321.243 38.6168 321.392L39.2888 321.568C40.0568 321.76 40.6221 322.032 40.9848 322.384C41.3581 322.736 41.5448 323.211 41.5448 323.808C41.5448 324.544 41.2781 325.125 40.7448 325.552C40.2221 325.968 39.5074 326.176 38.6008 326.176ZM44.0279 316.256C43.7932 316.256 43.6012 316.192 43.4519 316.064C43.3132 315.925 43.2439 315.733 43.2439 315.488C43.2439 315.243 43.3132 315.056 43.4519 314.928C43.6012 314.789 43.7932 314.72 44.0279 314.72C44.2625 314.72 44.4492 314.789 44.5879 314.928C44.7372 315.056 44.8119 315.243 44.8119 315.488C44.8119 315.733 44.7372 315.925 44.5879 316.064C44.4492 316.192 44.2625 316.256 44.0279 316.256ZM43.4519 326V318H44.6039V326H43.4519ZM49.7466 326.096C48.328 326.096 47.6186 325.253 47.6186 323.568V319.024H46.5306V318H47.6186V315.616H48.7706V318H51.0426V319.024H48.7706V323.568C48.7706 324.091 48.8666 324.464 49.0586 324.688C49.2613 324.912 49.5493 325.024 49.9226 325.024C50.2533 325.024 50.6053 324.917 50.9786 324.704L51.4426 325.52C51.2293 325.691 50.9733 325.829 50.6746 325.936C50.3866 326.043 50.0773 326.096 49.7466 326.096ZM55.1439 326.176C54.3545 326.176 53.7199 325.957 53.2399 325.52C52.7599 325.083 52.5199 324.491 52.5199 323.744C52.5199 322.955 52.8185 322.331 53.4159 321.872C54.0132 321.413 54.8452 321.184 55.9119 321.184C56.2212 321.184 56.5412 321.205 56.8719 321.248C57.2025 321.28 57.5279 321.339 57.8479 321.424V321.216C57.8479 320.405 57.6719 319.819 57.3199 319.456C56.9679 319.083 56.4079 318.896 55.6399 318.896C55.2452 318.896 54.8505 318.96 54.4559 319.088C54.0719 319.205 53.7092 319.371 53.3679 319.584L52.8879 318.736C53.3252 318.427 53.7945 318.197 54.2959 318.048C54.8079 317.899 55.3092 317.824 55.7999 317.824C57.9119 317.824 58.9679 318.971 58.9679 321.264V326H57.9279L57.8959 324.608C57.6292 325.109 57.2559 325.499 56.7759 325.776C56.3065 326.043 55.7625 326.176 55.1439 326.176ZM53.6879 323.68C53.6879 324.117 53.8372 324.464 54.1359 324.72C54.4452 324.976 54.8612 325.104 55.3839 325.104C56.1199 325.104 56.7065 324.864 57.1439 324.384C57.5812 323.893 57.8159 323.227 57.8479 322.384C57.5279 322.32 57.2185 322.277 56.9199 322.256C56.6212 322.224 56.3279 322.208 56.0399 322.208C54.4719 322.208 53.6879 322.699 53.6879 323.68ZM63.8195 326.176C63.2328 326.176 62.6888 326.096 62.1875 325.936C61.6862 325.776 61.2542 325.563 60.8915 325.296L61.3875 324.432C61.7288 324.635 62.1075 324.805 62.5235 324.944C62.9395 325.072 63.3768 325.136 63.8355 325.136C64.4008 325.136 64.8328 325.029 65.1315 324.816C65.4302 324.603 65.5795 324.299 65.5795 323.904C65.5795 323.584 65.4568 323.323 65.2115 323.12C64.9768 322.907 64.5822 322.736 64.0275 322.608L63.3075 322.432C61.8035 322.08 61.0515 321.301 61.0515 320.096C61.0515 319.403 61.3075 318.853 61.8195 318.448C62.3422 318.032 63.0302 317.824 63.8835 317.824C64.8968 317.824 65.7875 318.091 66.5555 318.624L66.0755 319.472C65.3608 319.067 64.6355 318.864 63.8995 318.864C63.3662 318.864 62.9555 318.971 62.6675 319.184C62.3795 319.387 62.2355 319.675 62.2355 320.048C62.2355 320.379 62.3528 320.651 62.5875 320.864C62.8328 321.067 63.2488 321.243 63.8355 321.392L64.5075 321.568C65.2755 321.76 65.8408 322.032 66.2035 322.384C66.5768 322.736 66.7635 323.211 66.7635 323.808C66.7635 324.544 66.4968 325.125 65.9635 325.552C65.4408 325.968 64.7262 326.176 63.8195 326.176ZM72.28 326V314.32H73.432V319.344C73.688 318.885 74.0507 318.517 74.52 318.24C74.9893 317.963 75.512 317.824 76.088 317.824C78.0827 317.824 79.08 319.008 79.08 321.376V326H77.928V321.408C77.928 320.576 77.7627 319.952 77.432 319.536C77.112 319.109 76.6053 318.896 75.912 318.896C75.1653 318.896 74.5627 319.152 74.104 319.664C73.656 320.176 73.432 320.848 73.432 321.68V326H72.28ZM83.7845 326.176C82.9952 326.176 82.3605 325.957 81.8805 325.52C81.4005 325.083 81.1605 324.491 81.1605 323.744C81.1605 322.955 81.4592 322.331 82.0565 321.872C82.6538 321.413 83.4858 321.184 84.5525 321.184C84.8618 321.184 85.1818 321.205 85.5125 321.248C85.8432 321.28 86.1685 321.339 86.4885 321.424V321.216C86.4885 320.405 86.3125 319.819 85.9605 319.456C85.6085 319.083 85.0485 318.896 84.2805 318.896C83.8858 318.896 83.4912 318.96 83.0965 319.088C82.7125 319.205 82.3498 319.371 82.0085 319.584L81.5285 318.736C81.9658 318.427 82.4352 318.197 82.9365 318.048C83.4485 317.899 83.9498 317.824 84.4405 317.824C86.5525 317.824 87.6085 318.971 87.6085 321.264V326H86.5685L86.5365 324.608C86.2698 325.109 85.8965 325.499 85.4165 325.776C84.9472 326.043 84.4032 326.176 83.7845 326.176ZM82.3285 323.68C82.3285 324.117 82.4778 324.464 82.7765 324.72C83.0858 324.976 83.5018 325.104 84.0245 325.104C84.7605 325.104 85.3472 324.864 85.7845 324.384C86.2218 323.893 86.4565 323.227 86.4885 322.384C86.1685 322.32 85.8592 322.277 85.5605 322.256C85.2618 322.224 84.9685 322.208 84.6805 322.208C83.1125 322.208 82.3285 322.699 82.3285 323.68ZM94.0601 326.176C93.4095 326.176 92.8335 326.032 92.3321 325.744C91.8308 325.445 91.4521 325.035 91.1961 324.512L91.1481 326H90.1081V314.32H91.2601V319.392C91.5161 318.923 91.8895 318.544 92.3801 318.256C92.8815 317.968 93.4361 317.824 94.0441 317.824C94.7801 317.824 95.4201 318 95.9641 318.352C96.5188 318.693 96.9455 319.179 97.2441 319.808C97.5535 320.437 97.7081 321.168 97.7081 322C97.7081 322.821 97.5535 323.547 97.2441 324.176C96.9455 324.805 96.5241 325.296 95.9801 325.648C95.4361 326 94.7961 326.176 94.0601 326.176ZM93.9001 325.104C94.6788 325.104 95.3081 324.821 95.7881 324.256C96.2681 323.68 96.5081 322.928 96.5081 322C96.5081 321.083 96.2681 320.336 95.7881 319.76C95.3081 319.184 94.6735 318.896 93.8841 318.896C93.0841 318.896 92.4441 319.179 91.9641 319.744C91.4948 320.309 91.2601 321.056 91.2601 321.984C91.2601 322.923 91.5001 323.68 91.9801 324.256C92.4601 324.821 93.1001 325.104 93.9001 325.104ZM100.325 316.256C100.09 316.256 99.8981 316.192 99.7488 316.064C99.6101 315.925 99.5408 315.733 99.5408 315.488C99.5408 315.243 99.6101 315.056 99.7488 314.928C99.8981 314.789 100.09 314.72 100.325 314.72C100.559 314.72 100.746 314.789 100.885 314.928C101.034 315.056 101.109 315.243 101.109 315.488C101.109 315.733 101.034 315.925 100.885 316.064C100.746 316.192 100.559 316.256 100.325 316.256ZM99.7488 326V318H100.901V326H99.7488ZM103.468 326V314.32H104.62V326H103.468ZM107.762 316.256C107.528 316.256 107.336 316.192 107.186 316.064C107.048 315.925 106.978 315.733 106.978 315.488C106.978 315.243 107.048 315.056 107.186 314.928C107.336 314.789 107.528 314.72 107.762 314.72C107.997 314.72 108.184 314.789 108.322 314.928C108.472 315.056 108.546 315.243 108.546 315.488C108.546 315.733 108.472 315.925 108.322 316.064C108.184 316.192 107.997 316.256 107.762 316.256ZM107.186 326V318H108.338V326H107.186ZM113.481 326.096C112.062 326.096 111.353 325.253 111.353 323.568V319.024H110.265V318H111.353V315.616H112.505V318H114.777V319.024H112.505V323.568C112.505 324.091 112.601 324.464 112.793 324.688C112.996 324.912 113.284 325.024 113.657 325.024C113.988 325.024 114.34 324.917 114.713 324.704L115.177 325.52C114.964 325.691 114.708 325.829 114.409 325.936C114.121 326.043 113.812 326.096 113.481 326.096ZM118.878 326.176C118.089 326.176 117.454 325.957 116.974 325.52C116.494 325.083 116.254 324.491 116.254 323.744C116.254 322.955 116.553 322.331 117.15 321.872C117.748 321.413 118.58 321.184 119.646 321.184C119.956 321.184 120.276 321.205 120.606 321.248C120.937 321.28 121.262 321.339 121.582 321.424V321.216C121.582 320.405 121.406 319.819 121.054 319.456C120.702 319.083 120.142 318.896 119.374 318.896C118.98 318.896 118.585 318.96 118.19 319.088C117.806 319.205 117.444 319.371 117.102 319.584L116.622 318.736C117.06 318.427 117.529 318.197 118.03 318.048C118.542 317.899 119.044 317.824 119.534 317.824C121.646 317.824 122.702 318.971 122.702 321.264V326H121.662L121.63 324.608C121.364 325.109 120.99 325.499 120.51 325.776C120.041 326.043 119.497 326.176 118.878 326.176ZM117.422 323.68C117.422 324.117 117.572 324.464 117.87 324.72C118.18 324.976 118.596 325.104 119.118 325.104C119.854 325.104 120.441 324.864 120.878 324.384C121.316 323.893 121.55 323.227 121.582 322.384C121.262 322.32 120.953 322.277 120.654 322.256C120.356 322.224 120.062 322.208 119.774 322.208C118.206 322.208 117.422 322.699 117.422 323.68ZM125.202 326V318H126.242L126.274 319.52C126.487 318.987 126.775 318.581 127.138 318.304C127.501 318.016 127.927 317.872 128.418 317.872C128.919 317.872 129.351 318.011 129.714 318.288L129.17 319.216C128.925 319.077 128.637 319.008 128.306 319.008C127.698 319.008 127.218 319.296 126.866 319.872C126.525 320.448 126.354 321.243 126.354 322.256V326H125.202ZM134.686 326V314.32H135.838V326H134.686ZM140.597 326.176C139.808 326.176 139.173 325.957 138.693 325.52C138.213 325.083 137.973 324.491 137.973 323.744C137.973 322.955 138.272 322.331 138.869 321.872C139.466 321.413 140.298 321.184 141.365 321.184C141.674 321.184 141.994 321.205 142.325 321.248C142.656 321.28 142.981 321.339 143.301 321.424V321.216C143.301 320.405 143.125 319.819 142.773 319.456C142.421 319.083 141.861 318.896 141.093 318.896C140.698 318.896 140.304 318.96 139.909 319.088C139.525 319.205 139.162 319.371 138.821 319.584L138.341 318.736C138.778 318.427 139.248 318.197 139.749 318.048C140.261 317.899 140.762 317.824 141.253 317.824C143.365 317.824 144.421 318.971 144.421 321.264V326H143.381L143.349 324.608C143.082 325.109 142.709 325.499 142.229 325.776C141.76 326.043 141.216 326.176 140.597 326.176ZM139.141 323.68C139.141 324.117 139.29 324.464 139.589 324.72C139.898 324.976 140.314 325.104 140.837 325.104C141.573 325.104 142.16 324.864 142.597 324.384C143.034 323.893 143.269 323.227 143.301 322.384C142.981 322.32 142.672 322.277 142.373 322.256C142.074 322.224 141.781 322.208 141.493 322.208C139.925 322.208 139.141 322.699 139.141 323.68ZM153.842 326.176C153.074 326.176 152.402 326 151.826 325.648C151.25 325.296 150.802 324.805 150.482 324.176C150.173 323.547 150.018 322.821 150.018 322C150.018 321.168 150.173 320.443 150.482 319.824C150.802 319.195 151.25 318.704 151.826 318.352C152.402 318 153.074 317.824 153.842 317.824C154.621 317.824 155.293 318 155.858 318.352C156.434 318.704 156.877 319.195 157.186 319.824C157.506 320.443 157.666 321.168 157.666 322C157.666 322.821 157.506 323.547 157.186 324.176C156.877 324.805 156.434 325.296 155.858 325.648C155.293 326 154.621 326.176 153.842 326.176ZM153.842 325.104C154.653 325.104 155.293 324.816 155.762 324.24C156.231 323.664 156.466 322.917 156.466 322C156.466 321.083 156.231 320.336 155.762 319.76C155.293 319.184 154.653 318.896 153.842 318.896C153.031 318.896 152.391 319.184 151.922 319.76C151.453 320.336 151.218 321.083 151.218 322C151.218 322.917 151.453 323.664 151.922 324.24C152.391 324.816 153.031 325.104 153.842 325.104ZM159.718 329.2V318H160.758L160.806 319.488C161.062 318.965 161.44 318.56 161.942 318.272C162.443 317.973 163.019 317.824 163.67 317.824C164.406 317.824 165.046 318 165.59 318.352C166.134 318.704 166.555 319.195 166.854 319.824C167.163 320.443 167.318 321.168 167.318 322C167.318 322.821 167.163 323.547 166.854 324.176C166.555 324.805 166.128 325.296 165.574 325.648C165.03 326 164.39 326.176 163.654 326.176C163.046 326.176 162.491 326.032 161.99 325.744C161.499 325.456 161.126 325.077 160.87 324.608V329.2H159.718ZM163.494 325.104C164.283 325.104 164.918 324.816 165.398 324.24C165.878 323.664 166.118 322.917 166.118 322C166.118 321.072 165.878 320.325 165.398 319.76C164.918 319.184 164.288 318.896 163.51 318.896C162.71 318.896 162.07 319.179 161.59 319.744C161.11 320.309 160.87 321.061 160.87 322C160.87 322.939 161.104 323.691 161.574 324.256C162.054 324.821 162.694 325.104 163.494 325.104ZM172.686 326.176C171.886 326.176 171.198 326.005 170.622 325.664C170.057 325.312 169.619 324.827 169.31 324.208C169.001 323.579 168.846 322.853 168.846 322.032C168.846 321.189 169.001 320.453 169.31 319.824C169.63 319.195 170.078 318.704 170.654 318.352C171.23 318 171.902 317.824 172.67 317.824C173.609 317.824 174.419 318.08 175.102 318.592L174.59 319.488C174.302 319.296 174.003 319.157 173.694 319.072C173.385 318.987 173.065 318.944 172.734 318.944C171.859 318.944 171.193 319.227 170.734 319.792C170.286 320.357 170.062 321.093 170.062 322C170.062 322.939 170.302 323.685 170.782 324.24C171.262 324.784 171.939 325.056 172.814 325.056C173.166 325.056 173.502 325.008 173.822 324.912C174.153 324.816 174.483 324.672 174.814 324.48L175.31 325.344C174.979 325.611 174.585 325.819 174.126 325.968C173.667 326.107 173.187 326.176 172.686 326.176ZM177.653 316.256C177.418 316.256 177.226 316.192 177.077 316.064C176.938 315.925 176.869 315.733 176.869 315.488C176.869 315.243 176.938 315.056 177.077 314.928C177.226 314.789 177.418 314.72 177.653 314.72C177.888 314.72 178.074 314.789 178.213 314.928C178.362 315.056 178.437 315.243 178.437 315.488C178.437 315.733 178.362 315.925 178.213 316.064C178.074 316.192 177.888 316.256 177.653 316.256ZM177.077 326V318H178.229V326H177.077ZM184.108 326.176C183.34 326.176 182.668 326 182.092 325.648C181.516 325.296 181.068 324.805 180.748 324.176C180.438 323.547 180.284 322.821 180.284 322C180.284 321.168 180.438 320.443 180.748 319.824C181.068 319.195 181.516 318.704 182.092 318.352C182.668 318 183.34 317.824 184.108 317.824C184.886 317.824 185.558 318 186.124 318.352C186.7 318.704 187.142 319.195 187.452 319.824C187.772 320.443 187.932 321.168 187.932 322C187.932 322.821 187.772 323.547 187.452 324.176C187.142 324.805 186.7 325.296 186.124 325.648C185.558 326 184.886 326.176 184.108 326.176ZM184.108 325.104C184.918 325.104 185.558 324.816 186.028 324.24C186.497 323.664 186.732 322.917 186.732 322C186.732 321.083 186.497 320.336 186.028 319.76C185.558 319.184 184.918 318.896 184.108 318.896C183.297 318.896 182.657 319.184 182.188 319.76C181.718 320.336 181.484 321.083 181.484 322C181.484 322.917 181.718 323.664 182.188 324.24C182.657 324.816 183.297 325.104 184.108 325.104ZM183.292 316.704L184.652 314.32H186.108L184.428 316.704H183.292ZM189.983 326V318H191.023L191.055 319.488C191.3 318.987 191.663 318.587 192.143 318.288C192.634 317.979 193.183 317.824 193.791 317.824C195.786 317.824 196.783 319.008 196.783 321.376V326H195.631V321.408C195.631 320.576 195.466 319.952 195.135 319.536C194.815 319.109 194.308 318.896 193.615 318.896C192.868 318.896 192.266 319.152 191.807 319.664C191.359 320.176 191.135 320.848 191.135 321.68V326H189.983ZM206.025 326.176C205.3 326.176 204.66 326 204.105 325.648C203.561 325.296 203.135 324.805 202.825 324.176C202.527 323.547 202.377 322.821 202.377 322C202.377 321.168 202.532 320.437 202.841 319.808C203.151 319.179 203.577 318.693 204.121 318.352C204.676 318 205.321 317.824 206.057 317.824C206.665 317.824 207.215 317.973 207.705 318.272C208.196 318.56 208.569 318.939 208.825 319.408V314.32H209.977V326H208.937L208.889 324.512C208.633 325.035 208.255 325.445 207.753 325.744C207.263 326.032 206.687 326.176 206.025 326.176ZM206.201 325.104C206.991 325.104 207.625 324.821 208.105 324.256C208.585 323.68 208.825 322.923 208.825 321.984C208.825 321.056 208.585 320.309 208.105 319.744C207.636 319.179 207.001 318.896 206.201 318.896C205.679 318.896 205.22 319.029 204.825 319.296C204.431 319.552 204.121 319.915 203.897 320.384C203.684 320.843 203.577 321.381 203.577 322C203.577 322.928 203.817 323.68 204.297 324.256C204.788 324.821 205.423 325.104 206.201 325.104ZM215.954 326.176C215.154 326.176 214.461 326.005 213.874 325.664C213.287 325.312 212.829 324.827 212.498 324.208C212.178 323.579 212.018 322.848 212.018 322.016C212.018 321.195 212.173 320.469 212.482 319.84C212.791 319.211 213.218 318.72 213.762 318.368C214.306 318.005 214.93 317.824 215.634 317.824C216.669 317.824 217.485 318.176 218.082 318.88C218.69 319.573 218.994 320.507 218.994 321.68C218.994 321.797 218.989 321.936 218.978 322.096C218.967 322.256 218.951 322.389 218.93 322.496H213.218C213.303 323.307 213.586 323.947 214.066 324.416C214.546 324.875 215.197 325.104 216.018 325.104C216.829 325.104 217.543 324.896 218.162 324.48L218.658 325.344C218.317 325.611 217.911 325.819 217.442 325.968C216.983 326.107 216.487 326.176 215.954 326.176ZM215.634 318.896C214.962 318.896 214.413 319.136 213.986 319.616C213.559 320.085 213.309 320.715 213.234 321.504H217.858C217.826 320.672 217.618 320.032 217.234 319.584C216.861 319.125 216.327 318.896 215.634 318.896ZM227.905 326.176C227.105 326.176 226.417 326.005 225.841 325.664C225.276 325.312 224.838 324.827 224.529 324.208C224.22 323.579 224.065 322.853 224.065 322.032C224.065 321.189 224.22 320.453 224.529 319.824C224.849 319.195 225.297 318.704 225.873 318.352C226.449 318 227.121 317.824 227.889 317.824C228.828 317.824 229.638 318.08 230.321 318.592L229.809 319.488C229.521 319.296 229.222 319.157 228.913 319.072C228.604 318.987 228.284 318.944 227.953 318.944C227.078 318.944 226.412 319.227 225.953 319.792C225.505 320.357 225.281 321.093 225.281 322C225.281 322.939 225.521 323.685 226.001 324.24C226.481 324.784 227.158 325.056 228.033 325.056C228.385 325.056 228.721 325.008 229.041 324.912C229.372 324.816 229.702 324.672 230.033 324.48L230.529 325.344C230.198 325.611 229.804 325.819 229.345 325.968C228.886 326.107 228.406 326.176 227.905 326.176ZM235.373 326.176C234.605 326.176 233.933 326 233.357 325.648C232.781 325.296 232.333 324.805 232.013 324.176C231.704 323.547 231.549 322.821 231.549 322C231.549 321.168 231.704 320.443 232.013 319.824C232.333 319.195 232.781 318.704 233.357 318.352C233.933 318 234.605 317.824 235.373 317.824C236.152 317.824 236.824 318 237.389 318.352C237.965 318.704 238.408 319.195 238.717 319.824C239.037 320.443 239.197 321.168 239.197 322C239.197 322.821 239.037 323.547 238.717 324.176C238.408 324.805 237.965 325.296 237.389 325.648C236.824 326 236.152 326.176 235.373 326.176ZM235.373 325.104C236.184 325.104 236.824 324.816 237.293 324.24C237.763 323.664 237.997 322.917 237.997 322C237.997 321.083 237.763 320.336 237.293 319.76C236.824 319.184 236.184 318.896 235.373 318.896C234.563 318.896 233.923 319.184 233.453 319.76C232.984 320.336 232.749 321.083 232.749 322C232.749 322.917 232.984 323.664 233.453 324.24C233.923 324.816 234.563 325.104 235.373 325.104ZM241.249 326V318H242.289L242.321 319.408C242.555 318.928 242.897 318.544 243.345 318.256C243.803 317.968 244.315 317.824 244.881 317.824C246.182 317.824 247.025 318.421 247.409 319.616C247.622 319.061 247.969 318.624 248.449 318.304C248.939 317.984 249.489 317.824 250.097 317.824C251.025 317.824 251.729 318.123 252.209 318.72C252.689 319.307 252.929 320.165 252.929 321.296V326H251.777V321.36C251.777 319.717 251.185 318.896 250.001 318.896C249.542 318.896 249.137 319.019 248.785 319.264C248.433 319.499 248.155 319.829 247.953 320.256C247.761 320.672 247.665 321.152 247.665 321.696V326H246.513V321.36C246.513 319.717 245.926 318.896 244.753 318.896C244.283 318.896 243.873 319.019 243.521 319.264C243.169 319.499 242.891 319.824 242.689 320.24C242.497 320.656 242.401 321.131 242.401 321.664V326H241.249ZM255.436 329.2V318H256.476L256.524 319.488C256.78 318.965 257.159 318.56 257.66 318.272C258.162 317.973 258.738 317.824 259.388 317.824C260.124 317.824 260.764 318 261.308 318.352C261.852 318.704 262.274 319.195 262.572 319.824C262.882 320.443 263.036 321.168 263.036 322C263.036 322.821 262.882 323.547 262.572 324.176C262.274 324.805 261.847 325.296 261.292 325.648C260.748 326 260.108 326.176 259.372 326.176C258.764 326.176 258.21 326.032 257.708 325.744C257.218 325.456 256.844 325.077 256.588 324.608V329.2H255.436ZM259.212 325.104C260.002 325.104 260.636 324.816 261.116 324.24C261.596 323.664 261.836 322.917 261.836 322C261.836 321.072 261.596 320.325 261.116 319.76C260.636 319.184 260.007 318.896 259.228 318.896C258.428 318.896 257.788 319.179 257.308 319.744C256.828 320.309 256.588 321.061 256.588 322C256.588 322.939 256.823 323.691 257.292 324.256C257.772 324.821 258.412 325.104 259.212 325.104ZM267.269 326.176C266.48 326.176 265.845 325.957 265.365 325.52C264.885 325.083 264.645 324.491 264.645 323.744C264.645 322.955 264.944 322.331 265.541 321.872C266.138 321.413 266.97 321.184 268.037 321.184C268.346 321.184 268.666 321.205 268.997 321.248C269.328 321.28 269.653 321.339 269.973 321.424V321.216C269.973 320.405 269.797 319.819 269.445 319.456C269.093 319.083 268.533 318.896 267.765 318.896C267.37 318.896 266.976 318.96 266.581 319.088C266.197 319.205 265.834 319.371 265.493 319.584L265.013 318.736C265.45 318.427 265.92 318.197 266.421 318.048C266.933 317.899 267.434 317.824 267.925 317.824C270.037 317.824 271.093 318.971 271.093 321.264V326H270.053L270.021 324.608C269.754 325.109 269.381 325.499 268.901 325.776C268.432 326.043 267.888 326.176 267.269 326.176ZM265.813 323.68C265.813 324.117 265.962 324.464 266.261 324.72C266.57 324.976 266.986 325.104 267.509 325.104C268.245 325.104 268.832 324.864 269.269 324.384C269.706 323.893 269.941 323.227 269.973 322.384C269.653 322.32 269.344 322.277 269.045 322.256C268.746 322.224 268.453 322.208 268.165 322.208C266.597 322.208 265.813 322.699 265.813 323.68ZM273.593 326V318H274.633L274.664 319.52C274.878 318.987 275.166 318.581 275.529 318.304C275.891 318.016 276.318 317.872 276.809 317.872C277.31 317.872 277.742 318.011 278.105 318.288L277.561 319.216C277.315 319.077 277.027 319.008 276.697 319.008C276.089 319.008 275.609 319.296 275.257 319.872C274.915 320.448 274.745 321.243 274.745 322.256V326H273.593ZM282.044 326.096C280.625 326.096 279.916 325.253 279.916 323.568V319.024H278.828V318H279.916V315.616H281.068V318H283.34V319.024H281.068V323.568C281.068 324.091 281.164 324.464 281.356 324.688C281.558 324.912 281.846 325.024 282.22 325.024C282.55 325.024 282.902 324.917 283.276 324.704L283.74 325.52C283.526 325.691 283.27 325.829 282.972 325.936C282.684 326.043 282.374 326.096 282.044 326.096ZM285.981 316.256C285.746 316.256 285.554 316.192 285.405 316.064C285.266 315.925 285.197 315.733 285.197 315.488C285.197 315.243 285.266 315.056 285.405 314.928C285.554 314.789 285.746 314.72 285.981 314.72C286.216 314.72 286.402 314.789 286.541 314.928C286.69 315.056 286.765 315.243 286.765 315.488C286.765 315.733 286.69 315.925 286.541 316.064C286.402 316.192 286.216 316.256 285.981 316.256ZM285.405 326V318H286.557V326H285.405ZM289.124 326V318H290.164L290.196 319.52C290.409 318.987 290.697 318.581 291.06 318.304C291.422 318.016 291.849 317.872 292.34 317.872C292.841 317.872 293.273 318.011 293.636 318.288L293.092 319.216C292.846 319.077 292.558 319.008 292.228 319.008C291.62 319.008 291.14 319.296 290.788 319.872C290.446 320.448 290.276 321.243 290.276 322.256V326H289.124ZM35.9695 350.176C35.0522 350.176 34.3535 349.883 33.8735 349.296C33.3935 348.699 33.1535 347.829 33.1535 346.688V342H34.3055V346.64C34.3055 348.272 34.9402 349.088 36.2095 349.088C36.6788 349.088 37.0895 348.976 37.4415 348.752C37.8042 348.517 38.0868 348.197 38.2895 347.792C38.4922 347.387 38.5935 346.928 38.5935 346.416V342H39.7455V350H38.7055L38.6575 348.592C38.4122 349.083 38.0548 349.472 37.5855 349.76C37.1162 350.037 36.5775 350.176 35.9695 350.176ZM46.2633 350.176C45.6126 350.176 45.0366 350.032 44.5353 349.744C44.0339 349.445 43.6553 349.035 43.3993 348.512L43.3513 350H42.3113V338.32H43.4633V343.392C43.7193 342.923 44.0926 342.544 44.5833 342.256C45.0846 341.968 45.6393 341.824 46.2473 341.824C46.9833 341.824 47.6233 342 48.1673 342.352C48.7219 342.693 49.1486 343.179 49.4473 343.808C49.7566 344.437 49.9113 345.168 49.9113 346C49.9113 346.821 49.7566 347.547 49.4473 348.176C49.1486 348.805 48.7273 349.296 48.1833 349.648C47.6393 350 46.9993 350.176 46.2633 350.176ZM46.1033 349.104C46.8819 349.104 47.5113 348.821 47.9913 348.256C48.4713 347.68 48.7113 346.928 48.7113 346C48.7113 345.083 48.4713 344.336 47.9913 343.76C47.5113 343.184 46.8766 342.896 46.0873 342.896C45.2873 342.896 44.6473 343.179 44.1673 343.744C43.6979 344.309 43.4633 345.056 43.4633 345.984C43.4633 346.923 43.7033 347.68 44.1833 348.256C44.6633 348.821 45.3033 349.104 46.1033 349.104ZM52.5279 340.256C52.2932 340.256 52.1012 340.192 51.9519 340.064C51.8132 339.925 51.7439 339.733 51.7439 339.488C51.7439 339.243 51.8132 339.056 51.9519 338.928C52.1012 338.789 52.2932 338.72 52.5279 338.72C52.7625 338.72 52.9492 338.789 53.0879 338.928C53.2372 339.056 53.3119 339.243 53.3119 339.488C53.3119 339.733 53.2372 339.925 53.0879 340.064C52.9492 340.192 52.7625 340.256 52.5279 340.256ZM51.9519 350V342H53.1039V350H51.9519ZM58.9986 350.176C58.1986 350.176 57.5106 350.005 56.9346 349.664C56.3693 349.312 55.932 348.827 55.6226 348.208C55.3133 347.579 55.1586 346.853 55.1586 346.032C55.1586 345.189 55.3133 344.453 55.6226 343.824C55.9426 343.195 56.3906 342.704 56.9666 342.352C57.5426 342 58.2146 341.824 58.9826 341.824C59.9213 341.824 60.732 342.08 61.4146 342.592L60.9026 343.488C60.6146 343.296 60.316 343.157 60.0066 343.072C59.6973 342.987 59.3773 342.944 59.0466 342.944C58.172 342.944 57.5053 343.227 57.0466 343.792C56.5986 344.357 56.3746 345.093 56.3746 346C56.3746 346.939 56.6146 347.685 57.0946 348.24C57.5746 348.784 58.252 349.056 59.1266 349.056C59.4786 349.056 59.8146 349.008 60.1346 348.912C60.4653 348.816 60.796 348.672 61.1266 348.48L61.6226 349.344C61.292 349.611 60.8973 349.819 60.4386 349.968C59.98 350.107 59.5 350.176 58.9986 350.176ZM65.5814 350.176C64.792 350.176 64.1574 349.957 63.6774 349.52C63.1974 349.083 62.9574 348.491 62.9574 347.744C62.9574 346.955 63.256 346.331 63.8534 345.872C64.4507 345.413 65.2827 345.184 66.3494 345.184C66.6587 345.184 66.9787 345.205 67.3094 345.248C67.64 345.28 67.9654 345.339 68.2854 345.424V345.216C68.2854 344.405 68.1094 343.819 67.7574 343.456C67.4054 343.083 66.8454 342.896 66.0774 342.896C65.6827 342.896 65.288 342.96 64.8934 343.088C64.5094 343.205 64.1467 343.371 63.8054 343.584L63.3254 342.736C63.7627 342.427 64.232 342.197 64.7334 342.048C65.2454 341.899 65.7467 341.824 66.2374 341.824C68.3494 341.824 69.4054 342.971 69.4054 345.264V350H68.3654L68.3334 348.608C68.0667 349.109 67.6934 349.499 67.2134 349.776C66.744 350.043 66.2 350.176 65.5814 350.176ZM64.1254 347.68C64.1254 348.117 64.2747 348.464 64.5734 348.72C64.8827 348.976 65.2987 349.104 65.8214 349.104C66.5574 349.104 67.144 348.864 67.5814 348.384C68.0187 347.893 68.2534 347.227 68.2854 346.384C67.9654 346.32 67.656 346.277 67.3574 346.256C67.0587 346.224 66.7654 346.208 66.4774 346.208C64.9094 346.208 64.1254 346.699 64.1254 347.68ZM75.233 350.176C74.433 350.176 73.745 350.005 73.169 349.664C72.6037 349.312 72.1663 348.827 71.857 348.208C71.5477 347.579 71.393 346.853 71.393 346.032C71.393 345.189 71.5477 344.453 71.857 343.824C72.177 343.195 72.625 342.704 73.201 342.352C73.777 342 74.449 341.824 75.217 341.824C76.1557 341.824 76.9663 342.08 77.649 342.592L77.137 343.488C76.849 343.296 76.5503 343.157 76.241 343.072C75.9317 342.987 75.6117 342.944 75.281 342.944C74.4063 342.944 73.7397 343.227 73.281 343.792C72.833 344.357 72.609 345.093 72.609 346C72.609 346.939 72.849 347.685 73.329 348.24C73.809 348.784 74.4863 349.056 75.361 349.056C75.713 349.056 76.049 349.008 76.369 348.912C76.6997 348.816 77.0303 348.672 77.361 348.48L77.857 349.344C77.5263 349.611 77.1317 349.819 76.673 349.968C76.2143 350.107 75.7343 350.176 75.233 350.176ZM80.1998 340.256C79.9651 340.256 79.7731 340.192 79.6238 340.064C79.4851 339.925 79.4158 339.733 79.4158 339.488C79.4158 339.243 79.4851 339.056 79.6238 338.928C79.7731 338.789 79.9651 338.72 80.1998 338.72C80.4344 338.72 80.6211 338.789 80.7598 338.928C80.9091 339.056 80.9838 339.243 80.9838 339.488C80.9838 339.733 80.9091 339.925 80.7598 340.064C80.6211 340.192 80.4344 340.256 80.1998 340.256ZM79.6238 350V342H80.7758V350H79.6238ZM86.6545 350.176C85.8865 350.176 85.2145 350 84.6385 349.648C84.0625 349.296 83.6145 348.805 83.2945 348.176C82.9852 347.547 82.8305 346.821 82.8305 346C82.8305 345.168 82.9852 344.443 83.2945 343.824C83.6145 343.195 84.0625 342.704 84.6385 342.352C85.2145 342 85.8865 341.824 86.6545 341.824C87.4332 341.824 88.1052 342 88.6705 342.352C89.2465 342.704 89.6892 343.195 89.9985 343.824C90.3185 344.443 90.4785 345.168 90.4785 346C90.4785 346.821 90.3185 347.547 89.9985 348.176C89.6892 348.805 89.2465 349.296 88.6705 349.648C88.1052 350 87.4332 350.176 86.6545 350.176ZM86.6545 349.104C87.4652 349.104 88.1052 348.816 88.5745 348.24C89.0438 347.664 89.2785 346.917 89.2785 346C89.2785 345.083 89.0438 344.336 88.5745 343.76C88.1052 343.184 87.4652 342.896 86.6545 342.896C85.8438 342.896 85.2038 343.184 84.7345 343.76C84.2652 344.336 84.0305 345.083 84.0305 346C84.0305 346.917 84.2652 347.664 84.7345 348.24C85.2038 348.816 85.8438 349.104 86.6545 349.104ZM85.8385 340.704L87.1985 338.32H88.6545L86.9745 340.704H85.8385ZM92.53 350V342H93.57L93.602 343.488C93.8473 342.987 94.21 342.587 94.69 342.288C95.1807 341.979 95.73 341.824 96.338 341.824C98.3327 341.824 99.33 343.008 99.33 345.376V350H98.178V345.408C98.178 344.576 98.0127 343.952 97.682 343.536C97.362 343.109 96.8553 342.896 96.162 342.896C95.4153 342.896 94.8127 343.152 94.354 343.664C93.906 344.176 93.682 344.848 93.682 345.68V350H92.53ZM105.436 353.2V342H106.476L106.524 343.488C106.78 342.965 107.159 342.56 107.66 342.272C108.162 341.973 108.738 341.824 109.388 341.824C110.124 341.824 110.764 342 111.308 342.352C111.852 342.704 112.274 343.195 112.572 343.824C112.882 344.443 113.036 345.168 113.036 346C113.036 346.821 112.882 347.547 112.572 348.176C112.274 348.805 111.847 349.296 111.292 349.648C110.748 350 110.108 350.176 109.372 350.176C108.764 350.176 108.21 350.032 107.708 349.744C107.218 349.456 106.844 349.077 106.588 348.608V353.2H105.436ZM109.212 349.104C110.002 349.104 110.636 348.816 111.116 348.24C111.596 347.664 111.836 346.917 111.836 346C111.836 345.072 111.596 344.325 111.116 343.76C110.636 343.184 110.007 342.896 109.228 342.896C108.428 342.896 107.788 343.179 107.308 343.744C106.828 344.309 106.588 345.061 106.588 346C106.588 346.939 106.823 347.691 107.292 348.256C107.772 348.821 108.412 349.104 109.212 349.104ZM117.269 350.176C116.48 350.176 115.845 349.957 115.365 349.52C114.885 349.083 114.645 348.491 114.645 347.744C114.645 346.955 114.944 346.331 115.541 345.872C116.138 345.413 116.97 345.184 118.037 345.184C118.346 345.184 118.666 345.205 118.997 345.248C119.328 345.28 119.653 345.339 119.973 345.424V345.216C119.973 344.405 119.797 343.819 119.445 343.456C119.093 343.083 118.533 342.896 117.765 342.896C117.37 342.896 116.976 342.96 116.581 343.088C116.197 343.205 115.834 343.371 115.493 343.584L115.013 342.736C115.45 342.427 115.92 342.197 116.421 342.048C116.933 341.899 117.434 341.824 117.925 341.824C120.037 341.824 121.093 342.971 121.093 345.264V350H120.053L120.021 348.608C119.754 349.109 119.381 349.499 118.901 349.776C118.432 350.043 117.888 350.176 117.269 350.176ZM115.813 347.68C115.813 348.117 115.962 348.464 116.261 348.72C116.57 348.976 116.986 349.104 117.509 349.104C118.245 349.104 118.832 348.864 119.269 348.384C119.706 347.893 119.941 347.227 119.973 346.384C119.653 346.32 119.344 346.277 119.045 346.256C118.746 346.224 118.453 346.208 118.165 346.208C116.597 346.208 115.813 346.699 115.813 347.68ZM123.593 350V342H124.633L124.664 343.52C124.878 342.987 125.166 342.581 125.529 342.304C125.891 342.016 126.318 341.872 126.809 341.872C127.31 341.872 127.742 342.011 128.105 342.288L127.561 343.216C127.315 343.077 127.027 343.008 126.697 343.008C126.089 343.008 125.609 343.296 125.257 343.872C124.915 344.448 124.745 345.243 124.745 346.256V350H123.593ZM131.425 350.176C130.636 350.176 130.001 349.957 129.521 349.52C129.041 349.083 128.801 348.491 128.801 347.744C128.801 346.955 129.1 346.331 129.697 345.872C130.294 345.413 131.126 345.184 132.193 345.184C132.502 345.184 132.822 345.205 133.153 345.248C133.484 345.28 133.809 345.339 134.129 345.424V345.216C134.129 344.405 133.953 343.819 133.601 343.456C133.249 343.083 132.689 342.896 131.921 342.896C131.526 342.896 131.132 342.96 130.737 343.088C130.353 343.205 129.99 343.371 129.649 343.584L129.169 342.736C129.606 342.427 130.076 342.197 130.577 342.048C131.089 341.899 131.59 341.824 132.081 341.824C134.193 341.824 135.249 342.971 135.249 345.264V350H134.209L134.177 348.608C133.91 349.109 133.537 349.499 133.057 349.776C132.588 350.043 132.044 350.176 131.425 350.176ZM129.969 347.68C129.969 348.117 130.118 348.464 130.417 348.72C130.726 348.976 131.142 349.104 131.665 349.104C132.401 349.104 132.988 348.864 133.425 348.384C133.862 347.893 134.097 347.227 134.129 346.384C133.809 346.32 133.5 346.277 133.201 346.256C132.902 346.224 132.609 346.208 132.321 346.208C130.753 346.208 129.969 346.699 129.969 347.68ZM144.11 350.176C143.193 350.176 142.494 349.883 142.014 349.296C141.534 348.699 141.294 347.829 141.294 346.688V342H142.446V346.64C142.446 348.272 143.081 349.088 144.35 349.088C144.819 349.088 145.23 348.976 145.582 348.752C145.945 348.517 146.227 348.197 146.43 347.792C146.633 347.387 146.734 346.928 146.734 346.416V342H147.886V350H146.846L146.798 348.592C146.553 349.083 146.195 349.472 145.726 349.76C145.257 350.037 144.718 350.176 144.11 350.176ZM152.804 350.176C152.217 350.176 151.673 350.096 151.172 349.936C150.671 349.776 150.239 349.563 149.876 349.296L150.372 348.432C150.713 348.635 151.092 348.805 151.508 348.944C151.924 349.072 152.361 349.136 152.82 349.136C153.385 349.136 153.817 349.029 154.116 348.816C154.415 348.603 154.564 348.299 154.564 347.904C154.564 347.584 154.441 347.323 154.196 347.12C153.961 346.907 153.567 346.736 153.012 346.608L152.292 346.432C150.788 346.08 150.036 345.301 150.036 344.096C150.036 343.403 150.292 342.853 150.804 342.448C151.327 342.032 152.015 341.824 152.868 341.824C153.881 341.824 154.772 342.091 155.54 342.624L155.06 343.472C154.345 343.067 153.62 342.864 152.884 342.864C152.351 342.864 151.94 342.971 151.652 343.184C151.364 343.387 151.22 343.675 151.22 344.048C151.22 344.379 151.337 344.651 151.572 344.864C151.817 345.067 152.233 345.243 152.82 345.392L153.492 345.568C154.26 345.76 154.825 346.032 155.188 346.384C155.561 346.736 155.748 347.211 155.748 347.808C155.748 348.544 155.481 349.125 154.948 349.552C154.425 349.968 153.711 350.176 152.804 350.176ZM159.847 350.176C159.058 350.176 158.423 349.957 157.943 349.52C157.463 349.083 157.223 348.491 157.223 347.744C157.223 346.955 157.522 346.331 158.119 345.872C158.716 345.413 159.548 345.184 160.615 345.184C160.924 345.184 161.244 345.205 161.575 345.248C161.906 345.28 162.231 345.339 162.551 345.424V345.216C162.551 344.405 162.375 343.819 162.023 343.456C161.671 343.083 161.111 342.896 160.343 342.896C159.948 342.896 159.554 342.96 159.159 343.088C158.775 343.205 158.412 343.371 158.071 343.584L157.591 342.736C158.028 342.427 158.498 342.197 158.999 342.048C159.511 341.899 160.012 341.824 160.503 341.824C162.615 341.824 163.671 342.971 163.671 345.264V350H162.631L162.599 348.608C162.332 349.109 161.959 349.499 161.479 349.776C161.01 350.043 160.466 350.176 159.847 350.176ZM158.391 347.68C158.391 348.117 158.54 348.464 158.839 348.72C159.148 348.976 159.564 349.104 160.087 349.104C160.823 349.104 161.41 348.864 161.847 348.384C162.284 347.893 162.519 347.227 162.551 346.384C162.231 346.32 161.922 346.277 161.623 346.256C161.324 346.224 161.031 346.208 160.743 346.208C159.175 346.208 158.391 346.699 158.391 347.68ZM166.171 350V342H167.211L167.243 343.52C167.456 342.987 167.744 342.581 168.107 342.304C168.469 342.016 168.896 341.872 169.387 341.872C169.888 341.872 170.32 342.011 170.683 342.288L170.139 343.216C169.893 343.077 169.605 343.008 169.275 343.008C168.667 343.008 168.187 343.296 167.835 343.872C167.493 344.448 167.323 345.243 167.323 346.256V350H166.171ZM178.871 350.208C178.199 350.208 177.532 350.107 176.871 349.904C176.22 349.701 175.676 349.435 175.239 349.104L175.783 348.144C176.263 348.443 176.759 348.672 177.271 348.832C177.783 348.981 178.327 349.056 178.903 349.056C179.703 349.056 180.322 348.896 180.759 348.576C181.196 348.245 181.415 347.771 181.415 347.152C181.415 346.608 181.25 346.181 180.919 345.872C180.599 345.552 180.05 345.28 179.271 345.056L178.327 344.784C177.356 344.507 176.636 344.117 176.167 343.616C175.698 343.104 175.463 342.448 175.463 341.648C175.463 341.04 175.618 340.507 175.927 340.048C176.236 339.589 176.668 339.232 177.223 338.976C177.788 338.72 178.439 338.592 179.175 338.592C179.762 338.592 180.332 338.672 180.887 338.832C181.452 338.992 181.948 339.216 182.375 339.504L181.831 340.464C181.468 340.24 181.058 340.064 180.599 339.936C180.14 339.808 179.666 339.744 179.175 339.744C178.386 339.744 177.772 339.909 177.335 340.24C176.908 340.56 176.695 341.019 176.695 341.616C176.695 342.128 176.86 342.544 177.191 342.864C177.522 343.184 178.06 343.451 178.807 343.664L179.735 343.936C180.77 344.235 181.511 344.624 181.959 345.104C182.418 345.584 182.647 346.245 182.647 347.088C182.647 348.059 182.306 348.821 181.623 349.376C180.951 349.931 180.034 350.208 178.871 350.208ZM188.061 350.176C187.261 350.176 186.573 350.005 185.997 349.664C185.432 349.312 184.994 348.827 184.685 348.208C184.376 347.579 184.221 346.853 184.221 346.032C184.221 345.189 184.376 344.453 184.685 343.824C185.005 343.195 185.453 342.704 186.029 342.352C186.605 342 187.277 341.824 188.045 341.824C188.984 341.824 189.794 342.08 190.477 342.592L189.965 343.488C189.677 343.296 189.378 343.157 189.069 343.072C188.76 342.987 188.44 342.944 188.109 342.944C187.234 342.944 186.568 343.227 186.109 343.792C185.661 344.357 185.437 345.093 185.437 346C185.437 346.939 185.677 347.685 186.157 348.24C186.637 348.784 187.314 349.056 188.189 349.056C188.541 349.056 188.877 349.008 189.197 348.912C189.528 348.816 189.858 348.672 190.189 348.48L190.685 349.344C190.354 349.611 189.96 349.819 189.501 349.968C189.042 350.107 188.562 350.176 188.061 350.176ZM195.53 350.176C194.762 350.176 194.09 350 193.514 349.648C192.938 349.296 192.49 348.805 192.17 348.176C191.86 347.547 191.706 346.821 191.706 346C191.706 345.168 191.86 344.443 192.17 343.824C192.49 343.195 192.938 342.704 193.514 342.352C194.09 342 194.762 341.824 195.53 341.824C196.308 341.824 196.98 342 197.546 342.352C198.122 342.704 198.564 343.195 198.874 343.824C199.194 344.443 199.354 345.168 199.354 346C199.354 346.821 199.194 347.547 198.874 348.176C198.564 348.805 198.122 349.296 197.546 349.648C196.98 350 196.308 350.176 195.53 350.176ZM195.53 349.104C196.34 349.104 196.98 348.816 197.45 348.24C197.919 347.664 198.154 346.917 198.154 346C198.154 345.083 197.919 344.336 197.45 343.76C196.98 343.184 196.34 342.896 195.53 342.896C194.719 342.896 194.079 343.184 193.61 343.76C193.14 344.336 192.906 345.083 192.906 346C192.906 346.917 193.14 347.664 193.61 348.24C194.079 348.816 194.719 349.104 195.53 349.104ZM203.981 350.096C202.562 350.096 201.853 349.253 201.853 347.568V343.024H200.765V342H201.853V339.616H203.005V342H205.277V343.024H203.005V347.568C203.005 348.091 203.101 348.464 203.293 348.688C203.496 348.912 203.784 349.024 204.157 349.024C204.488 349.024 204.84 348.917 205.213 348.704L205.677 349.52C205.464 349.691 205.208 349.829 204.909 349.936C204.621 350.043 204.312 350.096 203.981 350.096ZM207.919 340.256C207.684 340.256 207.492 340.192 207.343 340.064C207.204 339.925 207.135 339.733 207.135 339.488C207.135 339.243 207.204 339.056 207.343 338.928C207.492 338.789 207.684 338.72 207.919 338.72C208.153 338.72 208.34 338.789 208.479 338.928C208.628 339.056 208.703 339.243 208.703 339.488C208.703 339.733 208.628 339.925 208.479 340.064C208.34 340.192 208.153 340.256 207.919 340.256ZM207.343 350V342H208.495V350H207.343ZM213.253 350.176C212.464 350.176 211.829 349.957 211.349 349.52C210.869 349.083 210.629 348.491 210.629 347.744C210.629 346.955 210.928 346.331 211.525 345.872C212.123 345.413 212.955 345.184 214.021 345.184C214.331 345.184 214.651 345.205 214.981 345.248C215.312 345.28 215.637 345.339 215.957 345.424V345.216C215.957 344.405 215.781 343.819 215.429 343.456C215.077 343.083 214.517 342.896 213.749 342.896C213.355 342.896 212.96 342.96 212.565 343.088C212.181 343.205 211.819 343.371 211.477 343.584L210.997 342.736C211.435 342.427 211.904 342.197 212.405 342.048C212.917 341.899 213.419 341.824 213.909 341.824C216.021 341.824 217.077 342.971 217.077 345.264V350H216.037L216.005 348.608C215.739 349.109 215.365 349.499 214.885 349.776C214.416 350.043 213.872 350.176 213.253 350.176ZM211.797 347.68C211.797 348.117 211.947 348.464 212.245 348.72C212.555 348.976 212.971 349.104 213.493 349.104C214.229 349.104 214.816 348.864 215.253 348.384C215.691 347.893 215.925 347.227 215.957 346.384C215.637 346.32 215.328 346.277 215.029 346.256C214.731 346.224 214.437 346.208 214.149 346.208C212.581 346.208 211.797 346.699 211.797 347.68ZM228.226 350.208C227.117 350.208 226.152 349.973 225.33 349.504C224.52 349.035 223.896 348.368 223.458 347.504C223.021 346.64 222.802 345.616 222.802 344.432C222.802 343.237 223.021 342.208 223.458 341.344C223.896 340.469 224.514 339.792 225.314 339.312C226.114 338.832 227.058 338.592 228.146 338.592C228.786 338.592 229.394 338.683 229.97 338.864C230.557 339.045 231.074 339.275 231.522 339.552L230.994 340.512C230.536 340.245 230.072 340.053 229.602 339.936C229.144 339.808 228.648 339.744 228.114 339.744C226.856 339.744 225.864 340.16 225.138 340.992C224.413 341.813 224.05 342.949 224.05 344.4C224.05 345.872 224.424 347.019 225.17 347.84C225.928 348.651 226.984 349.056 228.338 349.056C229.202 349.056 230.013 348.896 230.77 348.576V345.472H227.698V344.352H231.986V349.232C231.496 349.531 230.914 349.771 230.242 349.952C229.581 350.123 228.909 350.208 228.226 350.208ZM237.639 350.176C236.871 350.176 236.199 350 235.623 349.648C235.047 349.296 234.599 348.805 234.279 348.176C233.97 347.547 233.815 346.821 233.815 346C233.815 345.168 233.97 344.443 234.279 343.824C234.599 343.195 235.047 342.704 235.623 342.352C236.199 342 236.871 341.824 237.639 341.824C238.418 341.824 239.09 342 239.655 342.352C240.231 342.704 240.674 343.195 240.983 343.824C241.303 344.443 241.463 345.168 241.463 346C241.463 346.821 241.303 347.547 240.983 348.176C240.674 348.805 240.231 349.296 239.655 349.648C239.09 350 238.418 350.176 237.639 350.176ZM237.639 349.104C238.45 349.104 239.09 348.816 239.559 348.24C240.028 347.664 240.263 346.917 240.263 346C240.263 345.083 240.028 344.336 239.559 343.76C239.09 343.184 238.45 342.896 237.639 342.896C236.828 342.896 236.188 343.184 235.719 343.76C235.25 344.336 235.015 345.083 235.015 346C235.015 346.917 235.25 347.664 235.719 348.24C236.188 348.816 236.828 349.104 237.639 349.104ZM246.826 350.176C246.058 350.176 245.386 350 244.81 349.648C244.234 349.296 243.786 348.805 243.466 348.176C243.157 347.547 243.002 346.821 243.002 346C243.002 345.168 243.157 344.443 243.466 343.824C243.786 343.195 244.234 342.704 244.81 342.352C245.386 342 246.058 341.824 246.826 341.824C247.605 341.824 248.277 342 248.842 342.352C249.418 342.704 249.861 343.195 250.17 343.824C250.49 344.443 250.65 345.168 250.65 346C250.65 346.821 250.49 347.547 250.17 348.176C249.861 348.805 249.418 349.296 248.842 349.648C248.277 350 247.605 350.176 246.826 350.176ZM246.826 349.104C247.637 349.104 248.277 348.816 248.746 348.24C249.216 347.664 249.45 346.917 249.45 346C249.45 345.083 249.216 344.336 248.746 343.76C248.277 343.184 247.637 342.896 246.826 342.896C246.016 342.896 245.376 343.184 244.906 343.76C244.437 344.336 244.202 345.083 244.202 346C244.202 346.917 244.437 347.664 244.906 348.24C245.376 348.816 246.016 349.104 246.826 349.104ZM255.838 350.176C255.113 350.176 254.473 350 253.918 349.648C253.374 349.296 252.947 348.805 252.638 348.176C252.339 347.547 252.19 346.821 252.19 346C252.19 345.168 252.345 344.437 252.654 343.808C252.963 343.179 253.39 342.693 253.934 342.352C254.489 342 255.134 341.824 255.87 341.824C256.478 341.824 257.027 341.973 257.518 342.272C258.009 342.56 258.382 342.939 258.638 343.408V338.32H259.79V350H258.75L258.702 348.512C258.446 349.035 258.067 349.445 257.566 349.744C257.075 350.032 256.499 350.176 255.838 350.176ZM256.014 349.104C256.803 349.104 257.438 348.821 257.918 348.256C258.398 347.68 258.638 346.923 258.638 345.984C258.638 345.056 258.398 344.309 257.918 343.744C257.449 343.179 256.814 342.896 256.014 342.896C255.491 342.896 255.033 343.029 254.638 343.296C254.243 343.552 253.934 343.915 253.71 344.384C253.497 344.843 253.39 345.381 253.39 346C253.39 346.928 253.63 347.68 254.11 348.256C254.601 348.821 255.235 349.104 256.014 349.104Z" fill="#333333"/>
<circle cx="141" cy="83" r="83" fill="#F3FAFF"/>
<circle cx="141" cy="83" r="82.5" stroke="#E2E8EE" stroke-opacity="0.8"/>
<path d="M141.483 69.8892C143.432 69.9151 145.291 70.7011 146.671 72.0822C149.593 75.0029 149.593 79.7439 146.671 82.6704C143.746 85.5927 139.005 85.5927 136.083 82.6704C133.157 79.7439 133.157 75.0029 136.083 72.0822C137.511 70.6486 139.46 69.8601 141.483 69.8892ZM141.375 58C130.679 58 122 66.6777 122 77.3742C122 81.5368 123.771 87.8457 127.531 92.2291L141.375 108.344L155.219 92.2291C158.983 87.8448 160.753 81.5368 160.753 77.3742C160.754 66.6769 152.077 58 141.375 58Z" fill="#8230DF"/>
</svg>
