<svg width="345" height="465" viewBox="0 0 345 465" fill="none" xmlns="http://www.w3.org/2000/svg">
<path d="M53.5115 358.2H61.1435C62.9675 358.2 64.5755 358.552 65.9675 359.256C67.3755 359.944 68.4635 360.92 69.2315 362.184C70.0155 363.448 70.4075 364.92 70.4075 366.6C70.4075 368.28 70.0155 369.752 69.2315 371.016C68.4635 372.28 67.3755 373.264 65.9675 373.968C64.5755 374.656 62.9675 375 61.1435 375H53.5115V358.2ZM60.9515 371.808C62.6315 371.808 63.9675 371.344 64.9595 370.416C65.9675 369.472 66.4715 368.2 66.4715 366.6C66.4715 365 65.9675 363.736 64.9595 362.808C63.9675 361.864 62.6315 361.392 60.9515 361.392H57.3995V371.808H60.9515ZM85.7237 368.592C85.7237 368.64 85.6997 368.976 85.6517 369.6H75.8837C76.0597 370.4 76.4757 371.032 77.1317 371.496C77.7877 371.96 78.6037 372.192 79.5797 372.192C80.2517 372.192 80.8437 372.096 81.3557 371.904C81.8837 371.696 82.3717 371.376 82.8197 370.944L84.8117 373.104C83.5957 374.496 81.8197 375.192 79.4837 375.192C78.0277 375.192 76.7397 374.912 75.6197 374.352C74.4997 373.776 73.6357 372.984 73.0277 371.976C72.4197 370.968 72.1157 369.824 72.1157 368.544C72.1157 367.28 72.4117 366.144 73.0037 365.136C73.6117 364.112 74.4357 363.32 75.4757 362.76C76.5317 362.184 77.7077 361.896 79.0037 361.896C80.2677 361.896 81.4117 362.168 82.4357 362.712C83.4597 363.256 84.2597 364.04 84.8357 365.064C85.4277 366.072 85.7237 367.248 85.7237 368.592ZM79.0277 364.728C78.1797 364.728 77.4677 364.968 76.8917 365.448C76.3157 365.928 75.9637 366.584 75.8357 367.416H82.1957C82.0677 366.6 81.7157 365.952 81.1397 365.472C80.5637 364.976 79.8597 364.728 79.0277 364.728ZM92.5603 375.192C91.4883 375.192 90.4403 375.064 89.4163 374.808C88.3923 374.536 87.5763 374.2 86.9683 373.8L88.2163 371.112C88.7923 371.48 89.4883 371.784 90.3043 372.024C91.1203 372.248 91.9203 372.36 92.7043 372.36C94.2883 372.36 95.0803 371.968 95.0803 371.184C95.0803 370.816 94.8643 370.552 94.4323 370.392C94.0003 370.232 93.3363 370.096 92.4403 369.984C91.3843 369.824 90.5123 369.64 89.8243 369.432C89.1363 369.224 88.5363 368.856 88.0243 368.328C87.5283 367.8 87.2803 367.048 87.2803 366.072C87.2803 365.256 87.5123 364.536 87.9763 363.912C88.4563 363.272 89.1443 362.776 90.0403 362.424C90.9523 362.072 92.0243 361.896 93.2563 361.896C94.1683 361.896 95.0723 362 95.9683 362.208C96.8803 362.4 97.6323 362.672 98.2243 363.024L96.9763 365.688C95.8403 365.048 94.6003 364.728 93.2563 364.728C92.4563 364.728 91.8563 364.84 91.4563 365.064C91.0563 365.288 90.8563 365.576 90.8563 365.928C90.8563 366.328 91.0723 366.608 91.5043 366.768C91.9363 366.928 92.6243 367.08 93.5683 367.224C94.6243 367.4 95.4883 367.592 96.1603 367.8C96.8323 367.992 97.4163 368.352 97.9123 368.88C98.4083 369.408 98.6563 370.144 98.6563 371.088C98.6563 371.888 98.4163 372.6 97.9363 373.224C97.4563 373.848 96.7523 374.336 95.8243 374.688C94.9123 375.024 93.8243 375.192 92.5603 375.192ZM107.206 375.192C105.83 375.192 104.59 374.912 103.486 374.352C102.398 373.776 101.542 372.984 100.918 371.976C100.31 370.968 100.006 369.824 100.006 368.544C100.006 367.264 100.31 366.12 100.918 365.112C101.542 364.104 102.398 363.32 103.486 362.76C104.59 362.184 105.83 361.896 107.206 361.896C108.566 361.896 109.75 362.184 110.758 362.76C111.782 363.32 112.526 364.128 112.99 365.184L110.086 366.744C109.414 365.56 108.446 364.968 107.182 364.968C106.206 364.968 105.398 365.288 104.758 365.928C104.118 366.568 103.798 367.44 103.798 368.544C103.798 369.648 104.118 370.52 104.758 371.16C105.398 371.8 106.206 372.12 107.182 372.12C108.462 372.12 109.43 371.528 110.086 370.344L112.99 371.928C112.526 372.952 111.782 373.752 110.758 374.328C109.75 374.904 108.566 375.192 107.206 375.192ZM128.154 362.088V375H124.602V373.464C124.106 374.024 123.514 374.456 122.826 374.76C122.138 375.048 121.394 375.192 120.594 375.192C118.898 375.192 117.554 374.704 116.562 373.728C115.57 372.752 115.074 371.304 115.074 369.384V362.088H118.818V368.832C118.818 370.912 119.69 371.952 121.434 371.952C122.33 371.952 123.05 371.664 123.594 371.088C124.138 370.496 124.41 369.624 124.41 368.472V362.088H128.154ZM144.271 368.592C144.271 368.64 144.247 368.976 144.199 369.6H134.431C134.607 370.4 135.023 371.032 135.679 371.496C136.335 371.96 137.151 372.192 138.127 372.192C138.799 372.192 139.391 372.096 139.903 371.904C140.431 371.696 140.919 371.376 141.367 370.944L143.359 373.104C142.143 374.496 140.367 375.192 138.031 375.192C136.575 375.192 135.287 374.912 134.167 374.352C133.047 373.776 132.183 372.984 131.575 371.976C130.967 370.968 130.663 369.824 130.663 368.544C130.663 367.28 130.959 366.144 131.551 365.136C132.159 364.112 132.983 363.32 134.023 362.76C135.079 362.184 136.255 361.896 137.551 361.896C138.815 361.896 139.959 362.168 140.983 362.712C142.007 363.256 142.807 364.04 143.383 365.064C143.975 366.072 144.271 367.248 144.271 368.592ZM137.575 364.728C136.727 364.728 136.015 364.968 135.439 365.448C134.863 365.928 134.511 366.584 134.383 367.416H140.743C140.615 366.6 140.263 365.952 139.687 365.472C139.111 364.976 138.407 364.728 137.575 364.728ZM154.611 361.896C156.211 361.896 157.499 362.376 158.475 363.336C159.467 364.296 159.963 365.72 159.963 367.608V375H156.219V368.184C156.219 367.16 155.995 366.4 155.547 365.904C155.099 365.392 154.451 365.136 153.603 365.136C152.659 365.136 151.907 365.432 151.347 366.024C150.787 366.6 150.507 367.464 150.507 368.616V375H146.763V362.088H150.339V363.6C150.835 363.056 151.451 362.64 152.187 362.352C152.923 362.048 153.731 361.896 154.611 361.896ZM171.685 374.376C171.317 374.648 170.861 374.856 170.317 375C169.789 375.128 169.229 375.192 168.637 375.192C167.101 375.192 165.909 374.8 165.061 374.016C164.229 373.232 163.813 372.08 163.813 370.56V365.256H161.821V362.376H163.813V359.232H167.557V362.376H170.773V365.256H167.557V370.512C167.557 371.056 167.693 371.48 167.965 371.784C168.253 372.072 168.653 372.216 169.165 372.216C169.757 372.216 170.261 372.056 170.677 371.736L171.685 374.376ZM179.532 375.192C178.172 375.192 176.948 374.912 175.86 374.352C174.788 373.776 173.948 372.984 173.34 371.976C172.732 370.968 172.428 369.824 172.428 368.544C172.428 367.264 172.732 366.12 173.34 365.112C173.948 364.104 174.788 363.32 175.86 362.76C176.948 362.184 178.172 361.896 179.532 361.896C180.892 361.896 182.108 362.184 183.18 362.76C184.252 363.32 185.092 364.104 185.7 365.112C186.308 366.12 186.612 367.264 186.612 368.544C186.612 369.824 186.308 370.968 185.7 371.976C185.092 372.984 184.252 373.776 183.18 374.352C182.108 374.912 180.892 375.192 179.532 375.192ZM179.532 372.12C180.492 372.12 181.276 371.8 181.884 371.16C182.508 370.504 182.82 369.632 182.82 368.544C182.82 367.456 182.508 366.592 181.884 365.952C181.276 365.296 180.492 364.968 179.532 364.968C178.572 364.968 177.78 365.296 177.156 365.952C176.532 366.592 176.22 367.456 176.22 368.544C176.22 369.632 176.532 370.504 177.156 371.16C177.78 371.8 178.572 372.12 179.532 372.12ZM193.459 375.192C192.387 375.192 191.339 375.064 190.315 374.808C189.291 374.536 188.475 374.2 187.867 373.8L189.115 371.112C189.691 371.48 190.387 371.784 191.203 372.024C192.019 372.248 192.819 372.36 193.603 372.36C195.187 372.36 195.979 371.968 195.979 371.184C195.979 370.816 195.763 370.552 195.331 370.392C194.899 370.232 194.235 370.096 193.339 369.984C192.283 369.824 191.411 369.64 190.723 369.432C190.035 369.224 189.435 368.856 188.923 368.328C188.427 367.8 188.179 367.048 188.179 366.072C188.179 365.256 188.411 364.536 188.875 363.912C189.355 363.272 190.043 362.776 190.939 362.424C191.851 362.072 192.923 361.896 194.155 361.896C195.067 361.896 195.971 362 196.867 362.208C197.779 362.4 198.531 362.672 199.123 363.024L197.875 365.688C196.739 365.048 195.499 364.728 194.155 364.728C193.355 364.728 192.755 364.84 192.355 365.064C191.955 365.288 191.755 365.576 191.755 365.928C191.755 366.328 191.971 366.608 192.403 366.768C192.835 366.928 193.523 367.08 194.467 367.224C195.523 367.4 196.387 367.592 197.059 367.8C197.731 367.992 198.315 368.352 198.811 368.88C199.307 369.408 199.555 370.144 199.555 371.088C199.555 371.888 199.315 372.6 198.835 373.224C198.355 373.848 197.651 374.336 196.723 374.688C195.811 375.024 194.723 375.192 193.459 375.192ZM214.902 375.192C213.526 375.192 212.286 374.912 211.182 374.352C210.094 373.776 209.238 372.984 208.614 371.976C208.006 370.968 207.702 369.824 207.702 368.544C207.702 367.264 208.006 366.12 208.614 365.112C209.238 364.104 210.094 363.32 211.182 362.76C212.286 362.184 213.526 361.896 214.902 361.896C216.262 361.896 217.446 362.184 218.454 362.76C219.478 363.32 220.222 364.128 220.686 365.184L217.782 366.744C217.11 365.56 216.142 364.968 214.878 364.968C213.902 364.968 213.094 365.288 212.454 365.928C211.814 366.568 211.494 367.44 211.494 368.544C211.494 369.648 211.814 370.52 212.454 371.16C213.094 371.8 213.902 372.12 214.878 372.12C216.158 372.12 217.126 371.528 217.782 370.344L220.686 371.928C220.222 372.952 219.478 373.752 218.454 374.328C217.446 374.904 216.262 375.192 214.902 375.192ZM235.849 362.088V375H232.297V373.464C231.801 374.024 231.209 374.456 230.521 374.76C229.833 375.048 229.089 375.192 228.289 375.192C226.593 375.192 225.249 374.704 224.257 373.728C223.265 372.752 222.769 371.304 222.769 369.384V362.088H226.513V368.832C226.513 370.912 227.385 371.952 229.129 371.952C230.025 371.952 230.745 371.664 231.289 371.088C231.833 370.496 232.105 369.624 232.105 368.472V362.088H235.849ZM244.526 361.896C246.526 361.896 248.062 362.376 249.134 363.336C250.206 364.28 250.742 365.712 250.742 367.632V375H247.238V373.392C246.534 374.592 245.222 375.192 243.302 375.192C242.31 375.192 241.446 375.024 240.71 374.688C239.99 374.352 239.438 373.888 239.054 373.296C238.67 372.704 238.478 372.032 238.478 371.28C238.478 370.08 238.926 369.136 239.822 368.448C240.734 367.76 242.134 367.416 244.022 367.416H246.998C246.998 366.6 246.75 365.976 246.254 365.544C245.758 365.096 245.014 364.872 244.022 364.872C243.334 364.872 242.654 364.984 241.982 365.208C241.326 365.416 240.766 365.704 240.302 366.072L238.958 363.456C239.662 362.96 240.502 362.576 241.478 362.304C242.47 362.032 243.486 361.896 244.526 361.896ZM244.238 372.672C244.878 372.672 245.446 372.528 245.942 372.24C246.438 371.936 246.79 371.496 246.998 370.92V369.6H244.43C242.894 369.6 242.126 370.104 242.126 371.112C242.126 371.592 242.31 371.976 242.678 372.264C243.062 372.536 243.582 372.672 244.238 372.672ZM261.978 361.896C263.578 361.896 264.866 362.376 265.842 363.336C266.834 364.296 267.33 365.72 267.33 367.608V375H263.586V368.184C263.586 367.16 263.362 366.4 262.914 365.904C262.466 365.392 261.818 365.136 260.97 365.136C260.026 365.136 259.274 365.432 258.714 366.024C258.154 366.6 257.874 367.464 257.874 368.616V375H254.13V362.088H257.706V363.6C258.202 363.056 258.818 362.64 259.554 362.352C260.29 362.048 261.098 361.896 261.978 361.896ZM284.017 357.192V375H280.441V373.512C279.513 374.632 278.169 375.192 276.409 375.192C275.193 375.192 274.089 374.92 273.097 374.376C272.121 373.832 271.353 373.056 270.793 372.048C270.233 371.04 269.953 369.872 269.953 368.544C269.953 367.216 270.233 366.048 270.793 365.04C271.353 364.032 272.121 363.256 273.097 362.712C274.089 362.168 275.193 361.896 276.409 361.896C278.057 361.896 279.345 362.416 280.273 363.456V357.192H284.017ZM277.057 372.12C278.001 372.12 278.785 371.8 279.409 371.16C280.033 370.504 280.345 369.632 280.345 368.544C280.345 367.456 280.033 366.592 279.409 365.952C278.785 365.296 278.001 364.968 277.057 364.968C276.097 364.968 275.305 365.296 274.681 365.952C274.057 366.592 273.745 367.456 273.745 368.544C273.745 369.632 274.057 370.504 274.681 371.16C275.305 371.8 276.097 372.12 277.057 372.12ZM293.626 375.192C292.266 375.192 291.042 374.912 289.954 374.352C288.882 373.776 288.042 372.984 287.434 371.976C286.826 370.968 286.522 369.824 286.522 368.544C286.522 367.264 286.826 366.12 287.434 365.112C288.042 364.104 288.882 363.32 289.954 362.76C291.042 362.184 292.266 361.896 293.626 361.896C294.986 361.896 296.202 362.184 297.274 362.76C298.346 363.32 299.186 364.104 299.794 365.112C300.402 366.12 300.706 367.264 300.706 368.544C300.706 369.824 300.402 370.968 299.794 371.976C299.186 372.984 298.346 373.776 297.274 374.352C296.202 374.912 294.986 375.192 293.626 375.192ZM293.626 372.12C294.586 372.12 295.37 371.8 295.978 371.16C296.602 370.504 296.914 369.632 296.914 368.544C296.914 367.456 296.602 366.592 295.978 365.952C295.37 365.296 294.586 364.968 293.626 364.968C292.666 364.968 291.874 365.296 291.25 365.952C290.626 366.592 290.314 367.456 290.314 368.544C290.314 369.632 290.626 370.504 291.25 371.16C291.874 371.8 292.666 372.12 293.626 372.12ZM97.4858 387.192H101.23V405H97.4858V387.192ZM110.849 405.192C109.489 405.192 108.265 404.912 107.177 404.352C106.105 403.776 105.265 402.984 104.657 401.976C104.049 400.968 103.745 399.824 103.745 398.544C103.745 397.264 104.049 396.12 104.657 395.112C105.265 394.104 106.105 393.32 107.177 392.76C108.265 392.184 109.489 391.896 110.849 391.896C112.209 391.896 113.425 392.184 114.497 392.76C115.569 393.32 116.409 394.104 117.017 395.112C117.625 396.12 117.929 397.264 117.929 398.544C117.929 399.824 117.625 400.968 117.017 401.976C116.409 402.984 115.569 403.776 114.497 404.352C113.425 404.912 112.209 405.192 110.849 405.192ZM110.849 402.12C111.809 402.12 112.593 401.8 113.201 401.16C113.825 400.504 114.137 399.632 114.137 398.544C114.137 397.456 113.825 396.592 113.201 395.952C112.593 395.296 111.809 394.968 110.849 394.968C109.889 394.968 109.097 395.296 108.473 395.952C107.849 396.592 107.537 397.456 107.537 398.544C107.537 399.632 107.849 400.504 108.473 401.16C109.097 401.8 109.889 402.12 110.849 402.12ZM124.775 405.192C123.703 405.192 122.655 405.064 121.631 404.808C120.607 404.536 119.791 404.2 119.183 403.8L120.431 401.112C121.007 401.48 121.703 401.784 122.519 402.024C123.335 402.248 124.135 402.36 124.919 402.36C126.503 402.36 127.295 401.968 127.295 401.184C127.295 400.816 127.079 400.552 126.647 400.392C126.215 400.232 125.551 400.096 124.655 399.984C123.599 399.824 122.727 399.64 122.039 399.432C121.351 399.224 120.751 398.856 120.239 398.328C119.743 397.8 119.495 397.048 119.495 396.072C119.495 395.256 119.727 394.536 120.191 393.912C120.671 393.272 121.359 392.776 122.255 392.424C123.167 392.072 124.239 391.896 125.471 391.896C126.383 391.896 127.287 392 128.183 392.208C129.095 392.4 129.847 392.672 130.439 393.024L129.191 395.688C128.055 395.048 126.815 394.728 125.471 394.728C124.671 394.728 124.071 394.84 123.671 395.064C123.271 395.288 123.071 395.576 123.071 395.928C123.071 396.328 123.287 396.608 123.719 396.768C124.151 396.928 124.839 397.08 125.783 397.224C126.839 397.4 127.703 397.592 128.375 397.8C129.047 397.992 129.631 398.352 130.127 398.88C130.623 399.408 130.871 400.144 130.871 401.088C130.871 401.888 130.631 402.6 130.151 403.224C129.671 403.848 128.967 404.336 128.039 404.688C127.127 405.024 126.039 405.192 124.775 405.192ZM147.826 391.896C149.426 391.896 150.714 392.376 151.69 393.336C152.682 394.296 153.178 395.72 153.178 397.608V405H149.434V398.184C149.434 397.16 149.21 396.4 148.762 395.904C148.314 395.392 147.666 395.136 146.818 395.136C145.874 395.136 145.122 395.432 144.562 396.024C144.002 396.6 143.722 397.464 143.722 398.616V405H139.978V392.088H143.554V393.6C144.05 393.056 144.666 392.64 145.402 392.352C146.138 392.048 146.946 391.896 147.826 391.896ZM169.36 398.592C169.36 398.64 169.336 398.976 169.288 399.6H159.52C159.696 400.4 160.112 401.032 160.768 401.496C161.424 401.96 162.24 402.192 163.216 402.192C163.888 402.192 164.48 402.096 164.992 401.904C165.52 401.696 166.008 401.376 166.456 400.944L168.448 403.104C167.232 404.496 165.456 405.192 163.12 405.192C161.664 405.192 160.376 404.912 159.256 404.352C158.136 403.776 157.272 402.984 156.664 401.976C156.056 400.968 155.752 399.824 155.752 398.544C155.752 397.28 156.048 396.144 156.64 395.136C157.248 394.112 158.072 393.32 159.112 392.76C160.168 392.184 161.344 391.896 162.64 391.896C163.904 391.896 165.048 392.168 166.072 392.712C167.096 393.256 167.896 394.04 168.472 395.064C169.064 396.072 169.36 397.248 169.36 398.592ZM162.664 394.728C161.816 394.728 161.104 394.968 160.528 395.448C159.952 395.928 159.6 396.584 159.472 397.416H165.832C165.704 396.6 165.352 395.952 164.776 395.472C164.2 394.976 163.496 394.728 162.664 394.728ZM178.093 405.192C176.717 405.192 175.477 404.912 174.373 404.352C173.285 403.776 172.429 402.984 171.805 401.976C171.197 400.968 170.893 399.824 170.893 398.544C170.893 397.264 171.197 396.12 171.805 395.112C172.429 394.104 173.285 393.32 174.373 392.76C175.477 392.184 176.717 391.896 178.093 391.896C179.453 391.896 180.637 392.184 181.645 392.76C182.669 393.32 183.413 394.128 183.877 395.184L180.973 396.744C180.301 395.56 179.333 394.968 178.069 394.968C177.093 394.968 176.285 395.288 175.645 395.928C175.005 396.568 174.685 397.44 174.685 398.544C174.685 399.648 175.005 400.52 175.645 401.16C176.285 401.8 177.093 402.12 178.069 402.12C179.349 402.12 180.317 401.528 180.973 400.344L183.877 401.928C183.413 402.952 182.669 403.752 181.645 404.328C180.637 404.904 179.453 405.192 178.093 405.192ZM198.517 398.592C198.517 398.64 198.493 398.976 198.445 399.6H188.677C188.853 400.4 189.269 401.032 189.925 401.496C190.581 401.96 191.397 402.192 192.373 402.192C193.045 402.192 193.637 402.096 194.149 401.904C194.677 401.696 195.165 401.376 195.613 400.944L197.605 403.104C196.389 404.496 194.613 405.192 192.277 405.192C190.821 405.192 189.533 404.912 188.413 404.352C187.293 403.776 186.429 402.984 185.821 401.976C185.213 400.968 184.909 399.824 184.909 398.544C184.909 397.28 185.205 396.144 185.797 395.136C186.405 394.112 187.229 393.32 188.269 392.76C189.325 392.184 190.501 391.896 191.797 391.896C193.061 391.896 194.205 392.168 195.229 392.712C196.253 393.256 197.053 394.04 197.629 395.064C198.221 396.072 198.517 397.248 198.517 398.592ZM191.821 394.728C190.973 394.728 190.261 394.968 189.685 395.448C189.109 395.928 188.757 396.584 188.629 397.416H194.989C194.861 396.6 194.509 395.952 193.933 395.472C193.357 394.976 192.653 394.728 191.821 394.728ZM205.353 405.192C204.281 405.192 203.233 405.064 202.209 404.808C201.185 404.536 200.369 404.2 199.761 403.8L201.009 401.112C201.585 401.48 202.281 401.784 203.097 402.024C203.913 402.248 204.713 402.36 205.497 402.36C207.081 402.36 207.873 401.968 207.873 401.184C207.873 400.816 207.657 400.552 207.225 400.392C206.793 400.232 206.129 400.096 205.233 399.984C204.177 399.824 203.305 399.64 202.617 399.432C201.929 399.224 201.329 398.856 200.817 398.328C200.321 397.8 200.073 397.048 200.073 396.072C200.073 395.256 200.305 394.536 200.769 393.912C201.249 393.272 201.937 392.776 202.833 392.424C203.745 392.072 204.817 391.896 206.049 391.896C206.961 391.896 207.865 392 208.761 392.208C209.673 392.4 210.425 392.672 211.017 393.024L209.769 395.688C208.633 395.048 207.393 394.728 206.049 394.728C205.249 394.728 204.649 394.84 204.249 395.064C203.849 395.288 203.649 395.576 203.649 395.928C203.649 396.328 203.865 396.608 204.297 396.768C204.729 396.928 205.417 397.08 206.361 397.224C207.417 397.4 208.281 397.592 208.953 397.8C209.625 397.992 210.209 398.352 210.705 398.88C211.201 399.408 211.449 400.144 211.449 401.088C211.449 401.888 211.209 402.6 210.729 403.224C210.249 403.848 209.545 404.336 208.617 404.688C207.705 405.024 206.617 405.192 205.353 405.192ZM213.759 392.088H217.503V405H213.759V392.088ZM215.631 390.288C214.943 390.288 214.383 390.088 213.951 389.688C213.519 389.288 213.303 388.792 213.303 388.2C213.303 387.608 213.519 387.112 213.951 386.712C214.383 386.312 214.943 386.112 215.631 386.112C216.319 386.112 216.879 386.304 217.311 386.688C217.743 387.072 217.959 387.552 217.959 388.128C217.959 388.752 217.743 389.272 217.311 389.688C216.879 390.088 216.319 390.288 215.631 390.288ZM229.306 404.376C228.938 404.648 228.482 404.856 227.938 405C227.41 405.128 226.85 405.192 226.258 405.192C224.722 405.192 223.53 404.8 222.682 404.016C221.85 403.232 221.434 402.08 221.434 400.56V395.256H219.442V392.376H221.434V389.232H225.178V392.376H228.394V395.256H225.178V400.512C225.178 401.056 225.314 401.48 225.586 401.784C225.874 402.072 226.274 402.216 226.786 402.216C227.378 402.216 227.882 402.056 228.298 401.736L229.306 404.376ZM236.616 391.896C238.616 391.896 240.152 392.376 241.224 393.336C242.296 394.28 242.832 395.712 242.832 397.632V405H239.328V403.392C238.624 404.592 237.312 405.192 235.392 405.192C234.4 405.192 233.536 405.024 232.8 404.688C232.08 404.352 231.528 403.888 231.144 403.296C230.76 402.704 230.568 402.032 230.568 401.28C230.568 400.08 231.016 399.136 231.912 398.448C232.824 397.76 234.224 397.416 236.112 397.416H239.088C239.088 396.6 238.84 395.976 238.344 395.544C237.848 395.096 237.104 394.872 236.112 394.872C235.424 394.872 234.744 394.984 234.072 395.208C233.416 395.416 232.856 395.704 232.392 396.072L231.048 393.456C231.752 392.96 232.592 392.576 233.568 392.304C234.56 392.032 235.576 391.896 236.616 391.896ZM236.328 402.672C236.968 402.672 237.536 402.528 238.032 402.24C238.528 401.936 238.88 401.496 239.088 400.92V399.6H236.52C234.984 399.6 234.216 400.104 234.216 401.112C234.216 401.592 234.4 401.976 234.768 402.264C235.152 402.536 235.672 402.672 236.328 402.672ZM250.564 405.192C249.492 405.192 248.444 405.064 247.42 404.808C246.396 404.536 245.58 404.2 244.972 403.8L246.22 401.112C246.796 401.48 247.492 401.784 248.308 402.024C249.124 402.248 249.924 402.36 250.708 402.36C252.292 402.36 253.084 401.968 253.084 401.184C253.084 400.816 252.868 400.552 252.436 400.392C252.004 400.232 251.34 400.096 250.444 399.984C249.388 399.824 248.516 399.64 247.828 399.432C247.14 399.224 246.54 398.856 246.028 398.328C245.532 397.8 245.284 397.048 245.284 396.072C245.284 395.256 245.516 394.536 245.98 393.912C246.46 393.272 247.148 392.776 248.044 392.424C248.956 392.072 250.028 391.896 251.26 391.896C252.172 391.896 253.076 392 253.972 392.208C254.884 392.4 255.636 392.672 256.228 393.024L254.98 395.688C253.844 395.048 252.604 394.728 251.26 394.728C250.46 394.728 249.86 394.84 249.46 395.064C249.06 395.288 248.86 395.576 248.86 395.928C248.86 396.328 249.076 396.608 249.508 396.768C249.94 396.928 250.628 397.08 251.572 397.224C252.628 397.4 253.492 397.592 254.164 397.8C254.836 397.992 255.42 398.352 255.916 398.88C256.412 399.408 256.66 400.144 256.66 401.088C256.66 401.888 256.42 402.6 255.94 403.224C255.46 403.848 254.756 404.336 253.828 404.688C252.916 405.024 251.828 405.192 250.564 405.192Z" fill="#333333"/>
<path d="M61.8064 426.216V427.352H58.8944V437H57.5984V427.352H54.6864V426.216H61.8064ZM68.4532 432.424V432.104C68.4532 431.432 68.2719 430.899 67.9092 430.504C67.5465 430.099 67.0452 429.896 66.4052 429.896C65.7972 429.896 65.2799 430.115 64.8532 430.552C64.4265 430.989 64.1759 431.613 64.1012 432.424H68.4532ZM69.2052 435.4V436.584C68.5759 436.915 67.8079 437.08 66.9012 437.08C65.6745 437.08 64.6825 436.707 63.9252 435.96C63.1785 435.203 62.8052 434.205 62.8052 432.968C62.8052 431.677 63.1412 430.659 63.8132 429.912C64.4852 429.165 65.3492 428.792 66.4052 428.792C67.4185 428.792 68.2239 429.117 68.8212 429.768C69.4185 430.419 69.7172 431.341 69.7172 432.536C69.7172 432.877 69.6905 433.192 69.6372 433.48H64.1012C64.1972 434.28 64.5012 434.893 65.0132 435.32C65.5252 435.747 66.1972 435.96 67.0292 435.96C67.9359 435.96 68.6612 435.773 69.2052 435.4ZM79.9188 433.256H78.5108C77.8281 433.256 77.3161 433.389 76.9748 433.656C76.6335 433.923 76.4628 434.259 76.4628 434.664C76.4628 435.069 76.5961 435.4 76.8628 435.656C77.1295 435.901 77.5188 436.024 78.0308 436.024C78.6068 436.024 79.0655 435.864 79.4068 435.544C79.7481 435.213 79.9188 434.797 79.9188 434.296V433.256ZM75.7268 430.584V429.32C76.3348 428.947 77.1348 428.76 78.1268 428.76C80.1641 428.76 81.1828 429.795 81.1828 431.864V437H79.9348V436.04C79.5188 436.733 78.7615 437.08 77.6628 437.08C76.9055 437.08 76.2921 436.856 75.8228 436.408C75.3641 435.96 75.1348 435.395 75.1348 434.712C75.1348 433.933 75.4281 433.331 76.0148 432.904C76.6121 432.467 77.4228 432.248 78.4468 432.248H79.9188V431.832C79.9188 431.192 79.7748 430.712 79.4868 430.392C79.1988 430.061 78.7135 429.896 78.0308 429.896C77.1668 429.896 76.3988 430.125 75.7268 430.584ZM85.4898 437L82.6578 428.888H83.9698L85.0898 432.312L86.2738 436.008C86.3698 435.549 86.7698 434.317 87.4738 432.312L88.6258 428.888H89.9378L87.0418 437H85.4898ZM91.5679 437V428.888H92.8319V437H91.5679ZM91.5999 426.936C91.4506 426.776 91.3759 426.579 91.3759 426.344C91.3759 426.109 91.4506 425.912 91.5999 425.752C91.7599 425.592 91.9573 425.512 92.1919 425.512C92.4266 425.512 92.6239 425.592 92.7839 425.752C92.9439 425.912 93.0239 426.109 93.0239 426.344C93.0239 426.579 92.9439 426.776 92.7839 426.936C92.6239 427.085 92.4266 427.16 92.1919 427.16C91.9573 427.16 91.7599 427.085 91.5999 426.936ZM99.6543 429.16V430.36C99.1636 430.061 98.4916 429.912 97.6383 429.912C97.2116 429.912 96.8703 430.013 96.6143 430.216C96.369 430.408 96.2463 430.659 96.2463 430.968C96.2463 431.16 96.2836 431.331 96.3583 431.48C96.433 431.619 96.577 431.757 96.7903 431.896C97.0143 432.035 97.1743 432.131 97.2703 432.184C97.377 432.227 97.601 432.323 97.9423 432.472C98.625 432.749 99.1583 433.064 99.5423 433.416C99.9263 433.768 100.118 434.243 100.118 434.84C100.118 435.533 99.873 436.083 99.3823 436.488C98.9023 436.893 98.241 437.096 97.3983 437.096C96.417 437.096 95.6223 436.931 95.0143 436.6V435.368C95.729 435.795 96.497 436.008 97.3183 436.008C97.809 436.008 98.1823 435.912 98.4383 435.72C98.6943 435.528 98.8223 435.267 98.8223 434.936C98.8223 434.552 98.6783 434.253 98.3903 434.04C98.113 433.827 97.6436 433.587 96.9823 433.32C96.3743 433.085 95.8836 432.792 95.5103 432.44C95.1476 432.088 94.9663 431.613 94.9663 431.016C94.9663 430.344 95.217 429.811 95.7183 429.416C96.2303 429.011 96.865 428.808 97.6223 428.808C98.465 428.808 99.1423 428.925 99.6543 429.16ZM106.2 433.256H104.792C104.109 433.256 103.597 433.389 103.256 433.656C102.915 433.923 102.744 434.259 102.744 434.664C102.744 435.069 102.877 435.4 103.144 435.656C103.411 435.901 103.8 436.024 104.312 436.024C104.888 436.024 105.347 435.864 105.688 435.544C106.029 435.213 106.2 434.797 106.2 434.296V433.256ZM102.008 430.584V429.32C102.616 428.947 103.416 428.76 104.408 428.76C106.445 428.76 107.464 429.795 107.464 431.864V437H106.216V436.04C105.8 436.733 105.043 437.08 103.944 437.08C103.187 437.08 102.573 436.856 102.104 436.408C101.645 435.96 101.416 435.395 101.416 434.712C101.416 433.933 101.709 433.331 102.296 432.904C102.893 432.467 103.704 432.248 104.728 432.248H106.2V431.832C106.2 431.192 106.056 430.712 105.768 430.392C105.48 430.061 104.995 429.896 104.312 429.896C103.448 429.896 102.68 430.125 102.008 430.584ZM110.955 428.888V430.312C111.382 429.309 112.118 428.808 113.163 428.808C113.355 428.808 113.504 428.819 113.611 428.84V430.088C113.387 430.013 113.158 429.976 112.923 429.976C112.358 429.976 111.888 430.237 111.515 430.76C111.142 431.283 110.955 431.885 110.955 432.568V437H109.691L109.707 428.888H110.955ZM120.094 432.424V432.104C120.094 431.432 119.912 430.899 119.55 430.504C119.187 430.099 118.686 429.896 118.046 429.896C117.438 429.896 116.92 430.115 116.494 430.552C116.067 430.989 115.816 431.613 115.742 432.424H120.094ZM120.846 435.4V436.584C120.216 436.915 119.448 437.08 118.542 437.08C117.315 437.08 116.323 436.707 115.566 435.96C114.819 435.203 114.446 434.205 114.446 432.968C114.446 431.677 114.782 430.659 115.454 429.912C116.126 429.165 116.99 428.792 118.046 428.792C119.059 428.792 119.864 429.117 120.462 429.768C121.059 430.419 121.358 431.341 121.358 432.536C121.358 432.877 121.331 433.192 121.278 433.48H115.742C115.838 434.28 116.142 434.893 116.654 435.32C117.166 435.747 117.838 435.96 118.67 435.96C119.576 435.96 120.302 435.773 120.846 435.4ZM124.533 428.888V430.2C124.981 429.251 125.744 428.776 126.821 428.776C128.069 428.776 128.859 429.304 129.189 430.36C129.424 429.848 129.749 429.459 130.165 429.192C130.592 428.915 131.067 428.776 131.589 428.776C132.432 428.776 133.067 429.016 133.493 429.496C133.92 429.976 134.133 430.621 134.133 431.432V437H132.869V431.752C132.869 430.525 132.352 429.912 131.317 429.912C130.805 429.912 130.347 430.147 129.941 430.616C129.536 431.075 129.333 431.725 129.333 432.568V437H128.069V431.752C128.069 430.525 127.552 429.912 126.517 429.912C126.005 429.912 125.547 430.147 125.141 430.616C124.736 431.075 124.533 431.725 124.533 432.568V437H123.285V428.888H124.533ZM139.675 437.144C138.512 437.144 137.59 436.755 136.907 435.976C136.235 435.187 135.899 434.195 135.899 433C135.899 431.795 136.246 430.792 136.939 429.992C137.643 429.181 138.555 428.776 139.675 428.776C140.902 428.776 141.846 429.171 142.507 429.96C143.179 430.749 143.515 431.752 143.515 432.968C143.515 434.173 143.174 435.171 142.491 435.96C141.808 436.749 140.87 437.144 139.675 437.144ZM139.675 429.896C138.907 429.896 138.304 430.195 137.867 430.792C137.43 431.389 137.211 432.12 137.211 432.984C137.211 433.827 137.435 434.547 137.883 435.144C138.331 435.731 138.928 436.024 139.675 436.024C140.486 436.024 141.11 435.736 141.547 435.16C141.984 434.573 142.203 433.848 142.203 432.984C142.203 432.088 141.995 431.352 141.579 430.776C141.163 430.189 140.528 429.896 139.675 429.896ZM149.779 429.16V430.36C149.289 430.061 148.617 429.912 147.763 429.912C147.337 429.912 146.995 430.013 146.739 430.216C146.494 430.408 146.371 430.659 146.371 430.968C146.371 431.16 146.409 431.331 146.483 431.48C146.558 431.619 146.702 431.757 146.915 431.896C147.139 432.035 147.299 432.131 147.395 432.184C147.502 432.227 147.726 432.323 148.067 432.472C148.75 432.749 149.283 433.064 149.667 433.416C150.051 433.768 150.243 434.243 150.243 434.84C150.243 435.533 149.998 436.083 149.507 436.488C149.027 436.893 148.366 437.096 147.523 437.096C146.542 437.096 145.747 436.931 145.139 436.6V435.368C145.854 435.795 146.622 436.008 147.443 436.008C147.934 436.008 148.307 435.912 148.563 435.72C148.819 435.528 148.947 435.267 148.947 434.936C148.947 434.552 148.803 434.253 148.515 434.04C148.238 433.827 147.769 433.587 147.107 433.32C146.499 433.085 146.009 432.792 145.635 432.44C145.273 432.088 145.091 431.613 145.091 431.016C145.091 430.344 145.342 429.811 145.843 429.416C146.355 429.011 146.99 428.808 147.747 428.808C148.59 428.808 149.267 428.925 149.779 429.16ZM157.111 428.888V430.2C157.559 429.251 158.322 428.776 159.399 428.776C160.647 428.776 161.437 429.304 161.767 430.36C162.002 429.848 162.327 429.459 162.743 429.192C163.17 428.915 163.645 428.776 164.167 428.776C165.01 428.776 165.645 429.016 166.071 429.496C166.498 429.976 166.711 430.621 166.711 431.432V437H165.447V431.752C165.447 430.525 164.93 429.912 163.895 429.912C163.383 429.912 162.925 430.147 162.519 430.616C162.114 431.075 161.911 431.725 161.911 432.568V437H160.647V431.752C160.647 430.525 160.13 429.912 159.095 429.912C158.583 429.912 158.125 430.147 157.719 430.616C157.314 431.075 157.111 431.725 157.111 432.568V437H155.863V428.888H157.111ZM174.445 425.544L172.461 428.04H171.357L172.941 425.544H174.445ZM173.325 433.256H171.917C171.234 433.256 170.722 433.389 170.381 433.656C170.04 433.923 169.869 434.259 169.869 434.664C169.869 435.069 170.002 435.4 170.269 435.656C170.536 435.901 170.925 436.024 171.437 436.024C172.013 436.024 172.472 435.864 172.813 435.544C173.154 435.213 173.325 434.797 173.325 434.296V433.256ZM169.133 430.584V429.32C169.741 428.947 170.541 428.76 171.533 428.76C173.57 428.76 174.589 429.795 174.589 431.864V437H173.341V436.04C172.925 436.733 172.168 437.08 171.069 437.08C170.312 437.08 169.698 436.856 169.229 436.408C168.77 435.96 168.541 435.395 168.541 434.712C168.541 433.933 168.834 433.331 169.421 432.904C170.018 432.467 170.829 432.248 171.853 432.248H173.325V431.832C173.325 431.192 173.181 430.712 172.893 430.392C172.605 430.061 172.12 429.896 171.437 429.896C170.573 429.896 169.805 430.125 169.133 430.584ZM179.872 435.672C180.459 435.672 180.976 435.448 181.424 435C181.883 434.541 182.112 433.864 182.112 432.968C182.112 431.933 181.893 431.165 181.456 430.664C181.019 430.163 180.512 429.912 179.936 429.912C179.243 429.912 178.693 430.189 178.288 430.744C177.883 431.288 177.68 432.003 177.68 432.888C177.68 433.795 177.904 434.488 178.352 434.968C178.8 435.437 179.307 435.672 179.872 435.672ZM182.112 428.888H183.376V436.344C183.376 437.581 183.035 438.509 182.352 439.128C181.669 439.757 180.789 440.072 179.712 440.072C178.731 440.072 177.893 439.907 177.2 439.576V438.312C177.883 438.707 178.683 438.904 179.6 438.904C180.379 438.904 180.992 438.696 181.44 438.28C181.888 437.864 182.112 437.213 182.112 436.328V435.416C181.579 436.333 180.784 436.792 179.728 436.792C178.8 436.792 178.005 436.451 177.344 435.768C176.693 435.085 176.368 434.136 176.368 432.92C176.368 431.715 176.672 430.723 177.28 429.944C177.888 429.165 178.683 428.776 179.664 428.776C180.773 428.776 181.589 429.261 182.112 430.232V428.888ZM185.677 437V428.888H186.941V437H185.677ZM185.709 426.936C185.56 426.776 185.485 426.579 185.485 426.344C185.485 426.109 185.56 425.912 185.709 425.752C185.869 425.592 186.067 425.512 186.301 425.512C186.536 425.512 186.733 425.592 186.893 425.752C187.053 425.912 187.133 426.109 187.133 426.344C187.133 426.579 187.053 426.776 186.893 426.936C186.733 427.085 186.536 427.16 186.301 427.16C186.067 427.16 185.869 427.085 185.709 426.936ZM190.18 432.984C190.19 433.859 190.457 434.589 190.98 435.176C191.502 435.752 192.244 436.04 193.204 436.04C193.822 436.04 194.398 435.864 194.932 435.512V436.712C194.42 437.021 193.79 437.176 193.044 437.176C191.764 437.176 190.745 436.771 189.988 435.96C189.241 435.139 188.868 434.141 188.868 432.968C188.868 431.816 189.241 430.824 189.988 429.992C190.745 429.16 191.774 428.744 193.076 428.744C193.769 428.744 194.388 428.893 194.932 429.192V430.392C194.441 430.061 193.865 429.896 193.204 429.896C192.286 429.896 191.55 430.195 190.996 430.792C190.452 431.379 190.18 432.109 190.18 432.984ZM201.247 433.256H199.839C199.156 433.256 198.644 433.389 198.303 433.656C197.962 433.923 197.791 434.259 197.791 434.664C197.791 435.069 197.924 435.4 198.191 435.656C198.458 435.901 198.847 436.024 199.359 436.024C199.935 436.024 200.394 435.864 200.735 435.544C201.076 435.213 201.247 434.797 201.247 434.296V433.256ZM197.055 430.584V429.32C197.663 428.947 198.463 428.76 199.455 428.76C201.492 428.76 202.511 429.795 202.511 431.864V437H201.263V436.04C200.847 436.733 200.09 437.08 198.991 437.08C198.234 437.08 197.62 436.856 197.151 436.408C196.692 435.96 196.463 435.395 196.463 434.712C196.463 433.933 196.756 433.331 197.343 432.904C197.94 432.467 198.751 432.248 199.775 432.248H201.247V431.832C201.247 431.192 201.103 430.712 200.815 430.392C200.527 430.061 200.042 429.896 199.359 429.896C198.495 429.896 197.727 430.125 197.055 430.584ZM206.002 428.888V430.2C206.45 429.251 207.213 428.776 208.29 428.776C209.538 428.776 210.327 429.304 210.658 430.36C210.893 429.848 211.218 429.459 211.634 429.192C212.061 428.915 212.535 428.776 213.058 428.776C213.901 428.776 214.535 429.016 214.962 429.496C215.389 429.976 215.602 430.621 215.602 431.432V437H214.338V431.752C214.338 430.525 213.821 429.912 212.786 429.912C212.274 429.912 211.815 430.147 211.41 430.616C211.005 431.075 210.802 431.725 210.802 432.568V437H209.538V431.752C209.538 430.525 209.021 429.912 207.986 429.912C207.474 429.912 207.015 430.147 206.61 430.616C206.205 431.075 206.002 431.725 206.002 432.568V437H204.754V428.888H206.002ZM223.016 432.424V432.104C223.016 431.432 222.834 430.899 222.472 430.504C222.109 430.099 221.608 429.896 220.968 429.896C220.36 429.896 219.842 430.115 219.416 430.552C218.989 430.989 218.738 431.613 218.664 432.424H223.016ZM223.768 435.4V436.584C223.138 436.915 222.37 437.08 221.464 437.08C220.237 437.08 219.245 436.707 218.488 435.96C217.741 435.203 217.368 434.205 217.368 432.968C217.368 431.677 217.704 430.659 218.376 429.912C219.048 429.165 219.912 428.792 220.968 428.792C221.981 428.792 222.786 429.117 223.384 429.768C223.981 430.419 224.28 431.341 224.28 432.536C224.28 432.877 224.253 433.192 224.2 433.48H218.664C218.76 434.28 219.064 434.893 219.576 435.32C220.088 435.747 220.76 435.96 221.592 435.96C222.498 435.96 223.224 435.773 223.768 435.4ZM227.455 428.888V430.296C227.935 429.283 228.788 428.776 230.015 428.776C230.804 428.776 231.434 429.016 231.903 429.496C232.372 429.976 232.607 430.616 232.607 431.416V437H231.343V431.752C231.343 431.155 231.188 430.701 230.879 430.392C230.58 430.072 230.186 429.912 229.695 429.912C229.087 429.912 228.559 430.147 228.111 430.616C227.674 431.085 227.455 431.736 227.455 432.568V437H226.207V428.888H227.455ZM236.592 429.912V434.664C236.592 435.528 236.997 435.96 237.808 435.96C238.224 435.96 238.592 435.837 238.912 435.592V436.792C238.56 436.984 238.165 437.08 237.728 437.08C236.128 437.08 235.328 436.264 235.328 434.632V429.912H234.032V428.888H235.328V426.872H236.592V428.888H238.832V429.912H236.592ZM245.922 432.424V432.104C245.922 431.432 245.741 430.899 245.378 430.504C245.015 430.099 244.514 429.896 243.874 429.896C243.266 429.896 242.749 430.115 242.322 430.552C241.895 430.989 241.645 431.613 241.57 432.424H245.922ZM246.674 435.4V436.584C246.045 436.915 245.277 437.08 244.37 437.08C243.143 437.08 242.151 436.707 241.394 435.96C240.647 435.203 240.274 434.205 240.274 432.968C240.274 431.677 240.61 430.659 241.282 429.912C241.954 429.165 242.818 428.792 243.874 428.792C244.887 428.792 245.693 429.117 246.29 429.768C246.887 430.419 247.186 431.341 247.186 432.536C247.186 432.877 247.159 433.192 247.106 433.48H241.57C241.666 434.28 241.97 434.893 242.482 435.32C242.994 435.747 243.666 435.96 244.498 435.96C245.405 435.96 246.13 435.773 246.674 435.4ZM253.852 432.984C253.862 433.859 254.129 434.589 254.652 435.176C255.174 435.752 255.916 436.04 256.876 436.04C257.494 436.04 258.07 435.864 258.604 435.512V436.712C258.092 437.021 257.462 437.176 256.716 437.176C255.436 437.176 254.417 436.771 253.66 435.96C252.913 435.139 252.54 434.141 252.54 432.968C252.54 431.816 252.913 430.824 253.66 429.992C254.417 429.16 255.446 428.744 256.748 428.744C257.441 428.744 258.06 428.893 258.604 429.192V430.392C258.113 430.061 257.537 429.896 256.876 429.896C255.958 429.896 255.222 430.195 254.668 430.792C254.124 431.379 253.852 432.109 253.852 432.984ZM265.591 428.888H266.855V437H265.591V435.592C265.164 436.595 264.316 437.096 263.047 437.096C262.247 437.096 261.612 436.861 261.143 436.392C260.684 435.912 260.455 435.272 260.455 434.472V428.888H261.719V434.152C261.719 434.739 261.868 435.187 262.167 435.496C262.465 435.805 262.871 435.96 263.383 435.96C264.055 435.96 264.588 435.725 264.983 435.256C265.388 434.787 265.591 434.152 265.591 433.352V428.888ZM273.559 433.256H272.151C271.469 433.256 270.957 433.389 270.615 433.656C270.274 433.923 270.103 434.259 270.103 434.664C270.103 435.069 270.237 435.4 270.503 435.656C270.77 435.901 271.159 436.024 271.671 436.024C272.247 436.024 272.706 435.864 273.047 435.544C273.389 435.213 273.559 434.797 273.559 434.296V433.256ZM269.367 430.584V429.32C269.975 428.947 270.775 428.76 271.767 428.76C273.805 428.76 274.823 429.795 274.823 431.864V437H273.575V436.04C273.159 436.733 272.402 437.08 271.303 437.08C270.546 437.08 269.933 436.856 269.463 436.408C269.005 435.96 268.775 435.395 268.775 434.712C268.775 433.933 269.069 433.331 269.655 432.904C270.253 432.467 271.063 432.248 272.087 432.248H273.559V431.832C273.559 431.192 273.415 430.712 273.127 430.392C272.839 430.061 272.354 429.896 271.671 429.896C270.807 429.896 270.039 430.125 269.367 430.584ZM278.314 428.888V430.296C278.794 429.283 279.648 428.776 280.874 428.776C281.664 428.776 282.293 429.016 282.762 429.496C283.232 429.976 283.466 430.616 283.466 431.416V437H282.202V431.752C282.202 431.155 282.048 430.701 281.738 430.392C281.44 430.072 281.045 429.912 280.554 429.912C279.946 429.912 279.418 430.147 278.97 430.616C278.533 431.085 278.314 431.736 278.314 432.568V437H277.066V428.888H278.314ZM288.795 435.976C289.456 435.976 290.016 435.731 290.475 435.24C290.944 434.749 291.179 433.965 291.179 432.888C291.179 431.864 290.939 431.112 290.459 430.632C289.979 430.152 289.451 429.912 288.875 429.912C288.203 429.912 287.643 430.184 287.195 430.728C286.758 431.261 286.539 432.029 286.539 433.032C286.539 433.907 286.752 434.616 287.179 435.16C287.606 435.704 288.144 435.976 288.795 435.976ZM291.179 425.688H292.443V437H291.179V435.8C290.603 436.685 289.771 437.128 288.683 437.128C287.606 437.128 286.758 436.728 286.139 435.928C285.531 435.128 285.227 434.157 285.227 433.016C285.227 431.747 285.552 430.723 286.203 429.944C286.854 429.155 287.691 428.76 288.715 428.76C289.771 428.76 290.592 429.213 291.179 430.12V425.688ZM298.081 437.144C296.919 437.144 295.996 436.755 295.313 435.976C294.641 435.187 294.305 434.195 294.305 433C294.305 431.795 294.652 430.792 295.345 429.992C296.049 429.181 296.961 428.776 298.081 428.776C299.308 428.776 300.252 429.171 300.913 429.96C301.585 430.749 301.921 431.752 301.921 432.968C301.921 434.173 301.58 435.171 300.897 435.96C300.215 436.749 299.276 437.144 298.081 437.144ZM298.081 429.896C297.313 429.896 296.711 430.195 296.273 430.792C295.836 431.389 295.617 432.12 295.617 432.984C295.617 433.827 295.841 434.547 296.289 435.144C296.737 435.731 297.335 436.024 298.081 436.024C298.892 436.024 299.516 435.736 299.953 435.16C300.391 434.573 300.609 433.848 300.609 432.984C300.609 432.088 300.401 431.352 299.985 430.776C299.569 430.189 298.935 429.896 298.081 429.896ZM32.9004 452.888V454.296C33.3804 453.283 34.2337 452.776 35.4604 452.776C36.2497 452.776 36.879 453.016 37.3484 453.496C37.8177 453.976 38.0524 454.616 38.0524 455.416V461H36.7884V455.752C36.7884 455.155 36.6337 454.701 36.3244 454.392C36.0257 454.072 35.631 453.912 35.1404 453.912C34.5324 453.912 34.0044 454.147 33.5564 454.616C33.119 455.085 32.9004 455.736 32.9004 456.568V461H31.6524V452.888H32.9004ZM45.461 456.424V456.104C45.461 455.432 45.2797 454.899 44.917 454.504C44.5543 454.099 44.053 453.896 43.413 453.896C42.805 453.896 42.2877 454.115 41.861 454.552C41.4343 454.989 41.1837 455.613 41.109 456.424H45.461ZM46.213 459.4V460.584C45.5837 460.915 44.8157 461.08 43.909 461.08C42.6823 461.08 41.6903 460.707 40.933 459.96C40.1863 459.203 39.813 458.205 39.813 456.968C39.813 455.677 40.149 454.659 40.821 453.912C41.493 453.165 42.357 452.792 43.413 452.792C44.4263 452.792 45.2317 453.117 45.829 453.768C46.4263 454.419 46.725 455.341 46.725 456.536C46.725 456.877 46.6983 457.192 46.645 457.48H41.109C41.205 458.28 41.509 458.893 42.021 459.32C42.533 459.747 43.205 459.96 44.037 459.96C44.9437 459.96 45.669 459.773 46.213 459.4ZM49.4844 456.984C49.495 457.859 49.7617 458.589 50.2844 459.176C50.807 459.752 51.5484 460.04 52.5084 460.04C53.127 460.04 53.703 459.864 54.2364 459.512V460.712C53.7244 461.021 53.095 461.176 52.3484 461.176C51.0684 461.176 50.0497 460.771 49.2924 459.96C48.5457 459.139 48.1724 458.141 48.1724 456.968C48.1724 455.816 48.5457 454.824 49.2924 453.992C50.0497 453.16 51.079 452.744 52.3804 452.744C53.0737 452.744 53.6924 452.893 54.2364 453.192V454.392C53.7457 454.061 53.1697 453.896 52.5084 453.896C51.591 453.896 50.855 454.195 50.3004 454.792C49.7564 455.379 49.4844 456.109 49.4844 456.984ZM61.3516 456.424V456.104C61.3516 455.432 61.1703 454.899 60.8076 454.504C60.445 454.099 59.9436 453.896 59.3036 453.896C58.6956 453.896 58.1783 454.115 57.7516 454.552C57.325 454.989 57.0743 455.613 56.9996 456.424H61.3516ZM62.1036 459.4V460.584C61.4743 460.915 60.7063 461.08 59.7996 461.08C58.573 461.08 57.581 460.707 56.8236 459.96C56.077 459.203 55.7036 458.205 55.7036 456.968C55.7036 455.677 56.0396 454.659 56.7116 453.912C57.3836 453.165 58.2476 452.792 59.3036 452.792C60.317 452.792 61.1223 453.117 61.7196 453.768C62.317 454.419 62.6156 455.341 62.6156 456.536C62.6156 456.877 62.589 457.192 62.5356 457.48H56.9996C57.0956 458.28 57.3996 458.893 57.9116 459.32C58.4236 459.747 59.0956 459.96 59.9276 459.96C60.8343 459.96 61.5596 459.773 62.1036 459.4ZM68.959 453.16V454.36C68.4683 454.061 67.7963 453.912 66.943 453.912C66.5163 453.912 66.175 454.013 65.919 454.216C65.6737 454.408 65.551 454.659 65.551 454.968C65.551 455.16 65.5883 455.331 65.663 455.48C65.7377 455.619 65.8817 455.757 66.095 455.896C66.319 456.035 66.479 456.131 66.575 456.184C66.6817 456.227 66.9057 456.323 67.247 456.472C67.9297 456.749 68.463 457.064 68.847 457.416C69.231 457.768 69.423 458.243 69.423 458.84C69.423 459.533 69.1777 460.083 68.687 460.488C68.207 460.893 67.5457 461.096 66.703 461.096C65.7217 461.096 64.927 460.931 64.319 460.6V459.368C65.0337 459.795 65.8017 460.008 66.623 460.008C67.1137 460.008 67.487 459.912 67.743 459.72C67.999 459.528 68.127 459.267 68.127 458.936C68.127 458.552 67.983 458.253 67.695 458.04C67.4177 457.827 66.9483 457.587 66.287 457.32C65.679 457.085 65.1883 456.792 64.815 456.44C64.4523 456.088 64.271 455.613 64.271 455.016C64.271 454.344 64.5217 453.811 65.023 453.416C65.535 453.011 66.1697 452.808 66.927 452.808C67.7697 452.808 68.447 452.925 68.959 453.16ZM71.2008 461V452.888H72.4648V461H71.2008ZM71.2328 450.936C71.0834 450.776 71.0088 450.579 71.0088 450.344C71.0088 450.109 71.0834 449.912 71.2328 449.752C71.3928 449.592 71.5901 449.512 71.8248 449.512C72.0594 449.512 72.2568 449.592 72.4168 449.752C72.5768 449.912 72.6568 450.109 72.6568 450.344C72.6568 450.579 72.5768 450.776 72.4168 450.936C72.2568 451.085 72.0594 451.16 71.8248 451.16C71.5901 451.16 71.3928 451.085 71.2328 450.936ZM76.6151 453.912V458.664C76.6151 459.528 77.0205 459.96 77.8311 459.96C78.2471 459.96 78.6151 459.837 78.9351 459.592V460.792C78.5831 460.984 78.1885 461.08 77.7511 461.08C76.1511 461.08 75.3511 460.264 75.3511 458.632V453.912H74.0551V452.888H75.3511V450.872H76.6151V452.888H78.8551V453.912H76.6151ZM85.9454 456.424V456.104C85.9454 455.432 85.764 454.899 85.4014 454.504C85.0387 454.099 84.5374 453.896 83.8974 453.896C83.2894 453.896 82.772 454.115 82.3454 454.552C81.9187 454.989 81.668 455.613 81.5934 456.424H85.9454ZM86.6974 459.4V460.584C86.068 460.915 85.3 461.08 84.3934 461.08C83.1667 461.08 82.1747 460.707 81.4174 459.96C80.6707 459.203 80.2974 458.205 80.2974 456.968C80.2974 455.677 80.6334 454.659 81.3054 453.912C81.9774 453.165 82.8414 452.792 83.8974 452.792C84.9107 452.792 85.716 453.117 86.3134 453.768C86.9107 454.419 87.2094 455.341 87.2094 456.536C87.2094 456.877 87.1827 457.192 87.1294 457.48H81.5934C81.6894 458.28 81.9934 458.893 82.5054 459.32C83.0174 459.747 83.6894 459.96 84.5214 459.96C85.428 459.96 86.1534 459.773 86.6974 459.4ZM93.5528 453.16V454.36C93.0621 454.061 92.3901 453.912 91.5368 453.912C91.1101 453.912 90.7688 454.013 90.5128 454.216C90.2674 454.408 90.1448 454.659 90.1448 454.968C90.1448 455.16 90.1821 455.331 90.2568 455.48C90.3314 455.619 90.4754 455.757 90.6888 455.896C90.9128 456.035 91.0728 456.131 91.1688 456.184C91.2754 456.227 91.4994 456.323 91.8408 456.472C92.5234 456.749 93.0568 457.064 93.4408 457.416C93.8248 457.768 94.0168 458.243 94.0168 458.84C94.0168 459.533 93.7714 460.083 93.2808 460.488C92.8008 460.893 92.1394 461.096 91.2968 461.096C90.3154 461.096 89.5208 460.931 88.9128 460.6V459.368C89.6274 459.795 90.3954 460.008 91.2168 460.008C91.7074 460.008 92.0808 459.912 92.3368 459.72C92.5928 459.528 92.7208 459.267 92.7208 458.936C92.7208 458.552 92.5768 458.253 92.2888 458.04C92.0114 457.827 91.5421 457.587 90.8808 457.32C90.2728 457.085 89.7821 456.792 89.4088 456.44C89.0461 456.088 88.8648 455.613 88.8648 455.016C88.8648 454.344 89.1154 453.811 89.6168 453.416C90.1288 453.011 90.7634 452.808 91.5208 452.808C92.3634 452.808 93.0408 452.925 93.5528 453.16ZM102.933 461.144C101.77 461.144 100.847 460.755 100.165 459.976C99.4928 459.187 99.1568 458.195 99.1568 457C99.1568 455.795 99.5034 454.792 100.197 453.992C100.901 453.181 101.813 452.776 102.933 452.776C104.159 452.776 105.103 453.171 105.765 453.96C106.437 454.749 106.773 455.752 106.773 456.968C106.773 458.173 106.431 459.171 105.749 459.96C105.066 460.749 104.127 461.144 102.933 461.144ZM102.933 453.896C102.165 453.896 101.562 454.195 101.125 454.792C100.687 455.389 100.469 456.12 100.469 456.984C100.469 457.827 100.693 458.547 101.141 459.144C101.589 459.731 102.186 460.024 102.933 460.024C103.743 460.024 104.367 459.736 104.805 459.16C105.242 458.573 105.461 457.848 105.461 456.984C105.461 456.088 105.253 455.352 104.837 454.776C104.421 454.189 103.786 453.896 102.933 453.896ZM117.695 456.424V456.104C117.695 455.432 117.514 454.899 117.151 454.504C116.789 454.099 116.287 453.896 115.647 453.896C115.039 453.896 114.522 454.115 114.095 454.552C113.669 454.989 113.418 455.613 113.343 456.424H117.695ZM118.447 459.4V460.584C117.818 460.915 117.05 461.08 116.143 461.08C114.917 461.08 113.925 460.707 113.167 459.96C112.421 459.203 112.047 458.205 112.047 456.968C112.047 455.677 112.383 454.659 113.055 453.912C113.727 453.165 114.591 452.792 115.647 452.792C116.661 452.792 117.466 453.117 118.063 453.768C118.661 454.419 118.959 455.341 118.959 456.536C118.959 456.877 118.933 457.192 118.879 457.48H113.343C113.439 458.28 113.743 458.893 114.255 459.32C114.767 459.747 115.439 459.96 116.271 459.96C117.178 459.96 117.903 459.773 118.447 459.4ZM125.303 453.16V454.36C124.812 454.061 124.14 453.912 123.287 453.912C122.86 453.912 122.519 454.013 122.263 454.216C122.017 454.408 121.895 454.659 121.895 454.968C121.895 455.16 121.932 455.331 122.007 455.48C122.081 455.619 122.225 455.757 122.439 455.896C122.663 456.035 122.823 456.131 122.919 456.184C123.025 456.227 123.249 456.323 123.591 456.472C124.273 456.749 124.807 457.064 125.191 457.416C125.575 457.768 125.767 458.243 125.767 458.84C125.767 459.533 125.521 460.083 125.031 460.488C124.551 460.893 123.889 461.096 123.047 461.096C122.065 461.096 121.271 460.931 120.663 460.6V459.368C121.377 459.795 122.145 460.008 122.967 460.008C123.457 460.008 123.831 459.912 124.087 459.72C124.343 459.528 124.471 459.267 124.471 458.936C124.471 458.552 124.327 458.253 124.039 458.04C123.761 457.827 123.292 457.587 122.631 457.32C122.023 457.085 121.532 456.792 121.159 456.44C120.796 456.088 120.615 455.613 120.615 455.016C120.615 454.344 120.865 453.811 121.367 453.416C121.879 453.011 122.513 452.808 123.271 452.808C124.113 452.808 124.791 452.925 125.303 453.16ZM129.225 453.912V458.664C129.225 459.528 129.63 459.96 130.441 459.96C130.857 459.96 131.225 459.837 131.545 459.592V460.792C131.193 460.984 130.798 461.08 130.361 461.08C128.761 461.08 127.961 460.264 127.961 458.632V453.912H126.665V452.888H127.961V450.872H129.225V452.888H131.465V453.912H129.225ZM138.555 456.424V456.104C138.555 455.432 138.373 454.899 138.011 454.504C137.648 454.099 137.147 453.896 136.507 453.896C135.899 453.896 135.381 454.115 134.955 454.552C134.528 454.989 134.277 455.613 134.203 456.424H138.555ZM139.307 459.4V460.584C138.677 460.915 137.909 461.08 137.003 461.08C135.776 461.08 134.784 460.707 134.027 459.96C133.28 459.203 132.907 458.205 132.907 456.968C132.907 455.677 133.243 454.659 133.915 453.912C134.587 453.165 135.451 452.792 136.507 452.792C137.52 452.792 138.325 453.117 138.923 453.768C139.52 454.419 139.819 455.341 139.819 456.536C139.819 456.877 139.792 457.192 139.739 457.48H134.203C134.299 458.28 134.603 458.893 135.115 459.32C135.627 459.747 136.299 459.96 137.131 459.96C138.037 459.96 138.763 459.773 139.307 459.4ZM146.162 453.16V454.36C145.671 454.061 144.999 453.912 144.146 453.912C143.719 453.912 143.378 454.013 143.122 454.216C142.877 454.408 142.754 454.659 142.754 454.968C142.754 455.16 142.791 455.331 142.866 455.48C142.941 455.619 143.085 455.757 143.298 455.896C143.522 456.035 143.682 456.131 143.778 456.184C143.885 456.227 144.109 456.323 144.45 456.472C145.133 456.749 145.666 457.064 146.05 457.416C146.434 457.768 146.626 458.243 146.626 458.84C146.626 459.533 146.381 460.083 145.89 460.488C145.41 460.893 144.749 461.096 143.906 461.096C142.925 461.096 142.13 460.931 141.522 460.6V459.368C142.237 459.795 143.005 460.008 143.826 460.008C144.317 460.008 144.69 459.912 144.946 459.72C145.202 459.528 145.33 459.267 145.33 458.936C145.33 458.552 145.186 458.253 144.898 458.04C144.621 457.827 144.151 457.587 143.49 457.32C142.882 457.085 142.391 456.792 142.018 456.44C141.655 456.088 141.474 455.613 141.474 455.016C141.474 454.344 141.725 453.811 142.226 453.416C142.738 453.011 143.373 452.808 144.13 452.808C144.973 452.808 145.65 452.925 146.162 453.16ZM153.078 456.984C153.089 457.859 153.355 458.589 153.878 459.176C154.401 459.752 155.142 460.04 156.102 460.04C156.721 460.04 157.297 459.864 157.83 459.512V460.712C157.318 461.021 156.689 461.176 155.942 461.176C154.662 461.176 153.643 460.771 152.886 459.96C152.139 459.139 151.766 458.141 151.766 456.968C151.766 455.816 152.139 454.824 152.886 453.992C153.643 453.16 154.673 452.744 155.974 452.744C156.667 452.744 157.286 452.893 157.83 453.192V454.392C157.339 454.061 156.763 453.896 156.102 453.896C155.185 453.896 154.449 454.195 153.894 454.792C153.35 455.379 153.078 456.109 153.078 456.984ZM164.945 456.424V456.104C164.945 455.432 164.764 454.899 164.401 454.504C164.039 454.099 163.537 453.896 162.897 453.896C162.289 453.896 161.772 454.115 161.345 454.552C160.919 454.989 160.668 455.613 160.593 456.424H164.945ZM165.697 459.4V460.584C165.068 460.915 164.3 461.08 163.393 461.08C162.167 461.08 161.175 460.707 160.417 459.96C159.671 459.203 159.297 458.205 159.297 456.968C159.297 455.677 159.633 454.659 160.305 453.912C160.977 453.165 161.841 452.792 162.897 452.792C163.911 452.792 164.716 453.117 165.313 453.768C165.911 454.419 166.209 455.341 166.209 456.536C166.209 456.877 166.183 457.192 166.129 457.48H160.593C160.689 458.28 160.993 458.893 161.505 459.32C162.017 459.747 162.689 459.96 163.521 459.96C164.428 459.96 165.153 459.773 165.697 459.4ZM169.385 452.888V454.312C169.811 453.309 170.547 452.808 171.593 452.808C171.785 452.808 171.934 452.819 172.041 452.84V454.088C171.817 454.013 171.587 453.976 171.353 453.976C170.787 453.976 170.318 454.237 169.945 454.76C169.571 455.283 169.385 455.885 169.385 456.568V461H168.121L168.137 452.888H169.385ZM174.188 456.984C174.198 457.859 174.465 458.589 174.988 459.176C175.51 459.752 176.252 460.04 177.212 460.04C177.83 460.04 178.406 459.864 178.94 459.512V460.712C178.428 461.021 177.798 461.176 177.052 461.176C175.772 461.176 174.753 460.771 173.996 459.96C173.249 459.139 172.876 458.141 172.876 456.968C172.876 455.816 173.249 454.824 173.996 453.992C174.753 453.16 175.782 452.744 177.084 452.744C177.777 452.744 178.396 452.893 178.94 453.192V454.392C178.449 454.061 177.873 453.896 177.212 453.896C176.294 453.896 175.558 454.195 175.004 454.792C174.46 455.379 174.188 456.109 174.188 456.984ZM185.255 457.256H183.847C183.164 457.256 182.652 457.389 182.311 457.656C181.969 457.923 181.799 458.259 181.799 458.664C181.799 459.069 181.932 459.4 182.199 459.656C182.465 459.901 182.855 460.024 183.367 460.024C183.943 460.024 184.401 459.864 184.743 459.544C185.084 459.213 185.255 458.797 185.255 458.296V457.256ZM181.063 454.584V453.32C181.671 452.947 182.471 452.76 183.463 452.76C185.5 452.76 186.519 453.795 186.519 455.864V461H185.271V460.04C184.855 460.733 184.097 461.08 182.999 461.08C182.241 461.08 181.628 460.856 181.159 460.408C180.7 459.96 180.471 459.395 180.471 458.712C180.471 457.933 180.764 457.331 181.351 456.904C181.948 456.467 182.759 456.248 183.783 456.248H185.255V455.832C185.255 455.192 185.111 454.712 184.823 454.392C184.535 454.061 184.049 453.896 183.367 453.896C182.503 453.896 181.735 454.125 181.063 454.584ZM195.756 459.976C196.417 459.976 196.977 459.731 197.436 459.24C197.905 458.749 198.14 457.965 198.14 456.888C198.14 455.864 197.9 455.112 197.42 454.632C196.94 454.152 196.412 453.912 195.836 453.912C195.164 453.912 194.604 454.184 194.156 454.728C193.719 455.261 193.5 456.029 193.5 457.032C193.5 457.907 193.713 458.616 194.14 459.16C194.567 459.704 195.105 459.976 195.756 459.976ZM198.14 449.688H199.404V461H198.14V459.8C197.564 460.685 196.732 461.128 195.644 461.128C194.567 461.128 193.719 460.728 193.1 459.928C192.492 459.128 192.188 458.157 192.188 457.016C192.188 455.747 192.513 454.723 193.164 453.944C193.815 453.155 194.652 452.76 195.676 452.76C196.732 452.76 197.553 453.213 198.14 454.12V449.688ZM206.914 456.424V456.104C206.914 455.432 206.733 454.899 206.37 454.504C206.007 454.099 205.506 453.896 204.866 453.896C204.258 453.896 203.741 454.115 203.314 454.552C202.887 454.989 202.637 455.613 202.562 456.424H206.914ZM207.666 459.4V460.584C207.037 460.915 206.269 461.08 205.362 461.08C204.135 461.08 203.143 460.707 202.386 459.96C201.639 459.203 201.266 458.205 201.266 456.968C201.266 455.677 201.602 454.659 202.274 453.912C202.946 453.165 203.81 452.792 204.866 452.792C205.879 452.792 206.685 453.117 207.282 453.768C207.879 454.419 208.178 455.341 208.178 456.536C208.178 456.877 208.151 457.192 208.098 457.48H202.562C202.658 458.28 202.962 458.893 203.474 459.32C203.986 459.747 204.658 459.96 205.49 459.96C206.397 459.96 207.122 459.773 207.666 459.4ZM218.38 457.256H216.972C216.289 457.256 215.777 457.389 215.436 457.656C215.094 457.923 214.924 458.259 214.924 458.664C214.924 459.069 215.057 459.4 215.324 459.656C215.59 459.901 215.98 460.024 216.492 460.024C217.068 460.024 217.526 459.864 217.868 459.544C218.209 459.213 218.38 458.797 218.38 458.296V457.256ZM214.188 454.584V453.32C214.796 452.947 215.596 452.76 216.588 452.76C218.625 452.76 219.644 453.795 219.644 455.864V461H218.396V460.04C217.98 460.733 217.222 461.08 216.124 461.08C215.366 461.08 214.753 460.856 214.284 460.408C213.825 459.96 213.596 459.395 213.596 458.712C213.596 457.933 213.889 457.331 214.476 456.904C215.073 456.467 215.884 456.248 216.908 456.248H218.38V455.832C218.38 455.192 218.236 454.712 217.948 454.392C217.66 454.061 217.174 453.896 216.492 453.896C215.628 453.896 214.86 454.125 214.188 454.584ZM221.951 461V449.688H223.215V461H221.951ZM228.661 459.672C229.248 459.672 229.765 459.448 230.213 459C230.672 458.541 230.901 457.864 230.901 456.968C230.901 455.933 230.682 455.165 230.245 454.664C229.808 454.163 229.301 453.912 228.725 453.912C228.032 453.912 227.482 454.189 227.077 454.744C226.672 455.288 226.469 456.003 226.469 456.888C226.469 457.795 226.693 458.488 227.141 458.968C227.589 459.437 228.096 459.672 228.661 459.672ZM230.901 452.888H232.165V460.344C232.165 461.581 231.824 462.509 231.141 463.128C230.458 463.757 229.578 464.072 228.501 464.072C227.52 464.072 226.682 463.907 225.989 463.576V462.312C226.672 462.707 227.472 462.904 228.389 462.904C229.168 462.904 229.781 462.696 230.229 462.28C230.677 461.864 230.901 461.213 230.901 460.328V459.416C230.368 460.333 229.573 460.792 228.517 460.792C227.589 460.792 226.794 460.451 226.133 459.768C225.482 459.085 225.157 458.136 225.157 456.92C225.157 455.715 225.461 454.723 226.069 453.944C226.677 453.165 227.472 452.776 228.453 452.776C229.562 452.776 230.378 453.261 230.901 454.232V452.888ZM240.162 449.544L238.178 452.04H237.074L238.658 449.544H240.162ZM239.442 452.888H240.706V461H239.442V459.592C239.016 460.595 238.168 461.096 236.898 461.096C236.098 461.096 235.464 460.861 234.994 460.392C234.536 459.912 234.306 459.272 234.306 458.472V452.888H235.57V458.152C235.57 458.739 235.72 459.187 236.018 459.496C236.317 459.805 236.722 459.96 237.234 459.96C237.906 459.96 238.44 459.725 238.834 459.256C239.24 458.787 239.442 458.152 239.442 457.352V452.888ZM244.291 452.888V454.296C244.771 453.283 245.624 452.776 246.851 452.776C247.64 452.776 248.27 453.016 248.739 453.496C249.208 453.976 249.443 454.616 249.443 455.416V461H248.179V455.752C248.179 455.155 248.024 454.701 247.715 454.392C247.416 454.072 247.022 453.912 246.531 453.912C245.923 453.912 245.395 454.147 244.947 454.616C244.51 455.085 244.291 455.736 244.291 456.568V461H243.043V452.888H244.291ZM258.678 459.976C259.339 459.976 259.899 459.731 260.358 459.24C260.827 458.749 261.062 457.965 261.062 456.888C261.062 455.864 260.822 455.112 260.342 454.632C259.862 454.152 259.334 453.912 258.758 453.912C258.086 453.912 257.526 454.184 257.078 454.728C256.641 455.261 256.422 456.029 256.422 457.032C256.422 457.907 256.635 458.616 257.062 459.16C257.489 459.704 258.027 459.976 258.678 459.976ZM261.062 449.688H262.326V461H261.062V459.8C260.486 460.685 259.654 461.128 258.566 461.128C257.489 461.128 256.641 460.728 256.022 459.928C255.414 459.128 255.11 458.157 255.11 457.016C255.11 455.747 255.435 454.723 256.086 453.944C256.737 453.155 257.574 452.76 258.598 452.76C259.654 452.76 260.475 453.213 261.062 454.12V449.688ZM269.836 456.424V456.104C269.836 455.432 269.655 454.899 269.292 454.504C268.929 454.099 268.428 453.896 267.788 453.896C267.18 453.896 266.663 454.115 266.236 454.552C265.809 454.989 265.559 455.613 265.484 456.424H269.836ZM270.588 459.4V460.584C269.959 460.915 269.191 461.08 268.284 461.08C267.057 461.08 266.065 460.707 265.308 459.96C264.561 459.203 264.188 458.205 264.188 456.968C264.188 455.677 264.524 454.659 265.196 453.912C265.868 453.165 266.732 452.792 267.788 452.792C268.801 452.792 269.607 453.117 270.204 453.768C270.801 454.419 271.1 455.341 271.1 456.536C271.1 456.877 271.073 457.192 271.02 457.48H265.484C265.58 458.28 265.884 458.893 266.396 459.32C266.908 459.747 267.58 459.96 268.412 459.96C269.319 459.96 270.044 459.773 270.588 459.4ZM277.443 453.16V454.36C276.953 454.061 276.281 453.912 275.427 453.912C275.001 453.912 274.659 454.013 274.403 454.216C274.158 454.408 274.035 454.659 274.035 454.968C274.035 455.16 274.073 455.331 274.147 455.48C274.222 455.619 274.366 455.757 274.579 455.896C274.803 456.035 274.963 456.131 275.059 456.184C275.166 456.227 275.39 456.323 275.731 456.472C276.414 456.749 276.947 457.064 277.331 457.416C277.715 457.768 277.907 458.243 277.907 458.84C277.907 459.533 277.662 460.083 277.171 460.488C276.691 460.893 276.03 461.096 275.187 461.096C274.206 461.096 273.411 460.931 272.803 460.6V459.368C273.518 459.795 274.286 460.008 275.107 460.008C275.598 460.008 275.971 459.912 276.227 459.72C276.483 459.528 276.611 459.267 276.611 458.936C276.611 458.552 276.467 458.253 276.179 458.04C275.902 457.827 275.433 457.587 274.771 457.32C274.163 457.085 273.673 456.792 273.299 456.44C272.937 456.088 272.755 455.613 272.755 455.016C272.755 454.344 273.006 453.811 273.507 453.416C274.019 453.011 274.654 452.808 275.411 452.808C276.254 452.808 276.931 452.925 277.443 453.16ZM280.453 456.984C280.464 457.859 280.73 458.589 281.253 459.176C281.776 459.752 282.517 460.04 283.477 460.04C284.096 460.04 284.672 459.864 285.205 459.512V460.712C284.693 461.021 284.064 461.176 283.317 461.176C282.037 461.176 281.018 460.771 280.261 459.96C279.514 459.139 279.141 458.141 279.141 456.968C279.141 455.816 279.514 454.824 280.261 453.992C281.018 453.16 282.048 452.744 283.349 452.744C284.042 452.744 284.661 452.893 285.205 453.192V454.392C284.714 454.061 284.138 453.896 283.477 453.896C282.56 453.896 281.824 454.195 281.269 454.792C280.725 455.379 280.453 456.109 280.453 456.984ZM292.192 452.888H293.456V461H292.192V459.592C291.766 460.595 290.918 461.096 289.648 461.096C288.848 461.096 288.214 460.861 287.744 460.392C287.286 459.912 287.056 459.272 287.056 458.472V452.888H288.32V458.152C288.32 458.739 288.47 459.187 288.768 459.496C289.067 459.805 289.472 459.96 289.984 459.96C290.656 459.96 291.19 459.725 291.584 459.256C291.99 458.787 292.192 458.152 292.192 457.352V452.888ZM300.961 456.424V456.104C300.961 455.432 300.78 454.899 300.417 454.504C300.054 454.099 299.553 453.896 298.913 453.896C298.305 453.896 297.788 454.115 297.361 454.552C296.934 454.989 296.684 455.613 296.609 456.424H300.961ZM301.713 459.4V460.584C301.084 460.915 300.316 461.08 299.409 461.08C298.182 461.08 297.19 460.707 296.433 459.96C295.686 459.203 295.313 458.205 295.313 456.968C295.313 455.677 295.649 454.659 296.321 453.912C296.993 453.165 297.857 452.792 298.913 452.792C299.926 452.792 300.732 453.117 301.329 453.768C301.926 454.419 302.225 455.341 302.225 456.536C302.225 456.877 302.198 457.192 302.145 457.48H296.609C296.705 458.28 297.009 458.893 297.521 459.32C298.033 459.747 298.705 459.96 299.537 459.96C300.444 459.96 301.169 459.773 301.713 459.4ZM305.4 452.888V454.296C305.88 453.283 306.734 452.776 307.96 452.776C308.75 452.776 309.379 453.016 309.848 453.496C310.318 453.976 310.552 454.616 310.552 455.416V461H309.288V455.752C309.288 455.155 309.134 454.701 308.824 454.392C308.526 454.072 308.131 453.912 307.64 453.912C307.032 453.912 306.504 454.147 306.056 454.616C305.619 455.085 305.4 455.736 305.4 456.568V461H304.152V452.888H305.4ZM314.537 453.912V458.664C314.537 459.528 314.942 459.96 315.753 459.96C316.169 459.96 316.537 459.837 316.857 459.592V460.792C316.505 460.984 316.11 461.08 315.673 461.08C314.073 461.08 313.273 460.264 313.273 458.632V453.912H311.977V452.888H313.273V450.872H314.537V452.888H316.777V453.912H314.537ZM321.995 461.144C320.833 461.144 319.91 460.755 319.227 459.976C318.555 459.187 318.219 458.195 318.219 457C318.219 455.795 318.566 454.792 319.259 453.992C319.963 453.181 320.875 452.776 321.995 452.776C323.222 452.776 324.166 453.171 324.827 453.96C325.499 454.749 325.835 455.752 325.835 456.968C325.835 458.173 325.494 459.171 324.811 459.96C324.129 460.749 323.19 461.144 321.995 461.144ZM321.995 453.896C321.227 453.896 320.625 454.195 320.187 454.792C319.75 455.389 319.531 456.12 319.531 456.984C319.531 457.827 319.755 458.547 320.203 459.144C320.651 459.731 321.249 460.024 321.995 460.024C322.806 460.024 323.43 459.736 323.867 459.16C324.305 458.573 324.523 457.848 324.523 456.984C324.523 456.088 324.315 455.352 323.899 454.776C323.483 454.189 322.849 453.896 321.995 453.896Z" fill="#333333"/>
<g clip-path="url(#clip0)">
<path d="M280.548 125.525C262.181 111.812 233.415 98.8425 201.625 89.9434C172.68 81.8405 144.448 77.9285 122.124 78.9275L122.008 76.3346C144.598 75.3241 173.123 79.2691 202.327 87.4443C234.413 96.4264 263.491 109.549 282.104 123.446L280.548 125.525Z" fill="#3F3D56"/>
<path d="M278.641 136.088C278.657 148.237 276.107 160.254 271.157 171.352C270.744 172.281 270.313 173.202 269.865 174.114C261.255 191.727 246.924 205.907 229.208 214.34C211.493 222.773 191.439 224.963 172.318 220.551C153.197 216.14 136.136 205.387 123.919 190.048C111.702 174.709 105.05 155.688 105.047 136.088C105.047 134.081 105.116 132.09 105.252 130.115C105.317 129.111 105.401 128.113 105.505 127.12C107.806 105.025 118.513 84.6556 135.414 70.215C152.316 55.7745 174.123 48.3649 196.335 49.5154C218.547 50.6658 239.47 60.2885 254.785 76.3976C270.101 92.5068 278.64 113.873 278.641 136.088H278.641Z" fill="#F2F2F2"/>
<path opacity="0.1" d="M271.157 171.352C270.744 172.281 270.313 173.202 269.865 174.114C267.329 174.389 264.659 174.589 261.856 174.713C259.535 174.817 257.147 174.869 254.707 174.869C233.392 174.869 207.74 170.939 181.535 163.605C152.331 155.429 125.91 143.993 107.136 131.403C106.497 130.974 105.869 130.545 105.252 130.115C105.317 129.111 105.401 128.113 105.505 127.12C106.5 127.829 107.526 128.538 108.584 129.249C127.136 141.689 153.292 153.002 182.237 161.105C208.213 168.378 233.624 172.274 254.694 172.274C257.103 172.274 259.451 172.222 261.739 172.12C265.071 171.97 268.21 171.714 271.157 171.352Z" fill="black"/>
<path d="M254.707 172.793C233.393 172.794 207.74 168.864 181.536 161.528C152.332 153.353 125.909 141.917 107.136 129.327C87.9709 116.474 78.9841 103.809 81.8307 93.6652C84.6772 83.5216 98.9457 77.3668 122.007 76.3346L122.124 78.9275C111.354 79.4095 102.577 81.0082 96.0373 83.6792C89.5131 86.3436 85.5752 89.9391 84.3329 94.3658C83.0907 98.7924 84.5839 103.908 88.771 109.571C92.9685 115.248 99.6348 121.17 108.585 127.172C127.135 139.613 153.292 150.926 182.237 159.029C208.214 166.301 233.622 170.198 254.695 170.198C257.102 170.198 259.45 170.147 261.738 170.045C272.508 169.563 281.285 167.964 287.825 165.293C294.349 162.629 298.287 159.033 299.529 154.607C301.76 146.658 295.019 136.33 280.548 125.525L282.104 123.446C289.551 129.006 295.063 134.487 298.488 139.736C302.16 145.363 303.352 150.602 302.032 155.307C299.185 165.451 284.916 171.605 261.855 172.638C259.534 172.742 257.147 172.793 254.707 172.793Z" fill="#3F3D56"/>
<path d="M194.14 33.7647C194.689 33.7647 195.135 33.3199 195.135 32.7713C195.135 32.2227 194.689 31.7779 194.14 31.7779C193.591 31.7779 193.146 32.2227 193.146 32.7713C193.146 33.3199 193.591 33.7647 194.14 33.7647Z" fill="#F2F2F2"/>
<path d="M62.1889 76.87C63.1339 76.87 63.8999 76.1049 63.8999 75.1611C63.8999 74.2173 63.1339 73.4522 62.1889 73.4522C61.2439 73.4522 60.4778 74.2173 60.4778 75.1611C60.4778 76.1049 61.2439 76.87 62.1889 76.87Z" fill="#20DEB0"/>
<path d="M58.542 145.424C60.4089 145.424 61.9222 143.912 61.9222 142.048C61.9222 140.183 60.4089 138.672 58.542 138.672C56.6752 138.672 55.1619 140.183 55.1619 142.048C55.1619 143.912 56.6752 145.424 58.542 145.424Z" fill="#20DEB0"/>
<path d="M261.442 40.9815C262.686 40.9815 263.695 39.9741 263.695 38.7315C263.695 37.4889 262.686 36.4815 261.442 36.4815C260.198 36.4815 259.189 37.4889 259.189 38.7315C259.189 39.9741 260.198 40.9815 261.442 40.9815Z" fill="#20DEB0"/>
<path d="M341.342 135.767C343.362 135.767 345 134.132 345 132.114C345 130.096 343.362 128.461 341.342 128.461C339.322 128.461 337.685 130.096 337.685 132.114C337.685 134.132 339.322 135.767 341.342 135.767Z" fill="#20DEB0"/>
<path d="M312.741 75.3352C313.608 75.3352 314.31 74.6334 314.31 73.7678C314.31 72.9022 313.608 72.2005 312.741 72.2005C311.874 72.2005 311.172 72.9022 311.172 73.7678C311.172 74.6334 311.874 75.3352 312.741 75.3352Z" fill="#20DEB0"/>
<path d="M122.197 56.0771C123.549 56.0771 124.645 54.9824 124.645 53.632C124.645 52.2815 123.549 51.1868 122.197 51.1868C120.845 51.1868 119.749 52.2815 119.749 53.632C119.749 54.9824 120.845 56.0771 122.197 56.0771Z" fill="#20DEB0"/>
<path d="M307.249 126.274C308.115 126.274 308.818 125.572 308.818 124.707C308.818 123.841 308.115 123.139 307.249 123.139C306.382 123.139 305.679 123.841 305.679 124.707C305.679 125.572 306.382 126.274 307.249 126.274Z" fill="#20DEB0"/>
<path d="M1.95322 132.424C3.03195 132.424 3.90643 131.551 3.90643 130.474C3.90643 129.396 3.03195 128.523 1.95322 128.523C0.874485 128.523 0 129.396 0 130.474C0 131.551 0.874485 132.424 1.95322 132.424Z" fill="#20DEB0"/>
<path d="M31.6265 100.482C32.7947 100.482 33.7417 99.5366 33.7417 98.3698C33.7417 97.2031 32.7947 96.2573 31.6265 96.2573C30.4582 96.2573 29.5112 97.2031 29.5112 98.3698C29.5112 99.5366 30.4582 100.482 31.6265 100.482Z" fill="#20DEB0"/>
<path d="M167.442 4.16873H163.268V0H161.028V4.16873H156.853V6.40743H161.028V10.5762H163.268V6.40743H167.442V4.16873Z" fill="#20DEB0"/>
<path d="M264.269 229.749H261.647V227.132H260.242V229.749H257.621V231.153H260.242V233.771H261.647V231.153H264.269V229.749Z" fill="#CCCCCC"/>
<path d="M324.764 216.35H322.805V214.393H321.753V216.35H319.794V217.401H321.753V219.357H322.805V217.401H324.764V216.35Z" fill="#20DEB0"/>
<path opacity="0.1" d="M137.116 128.803C141.144 128.803 144.41 125.541 144.41 121.518C144.41 117.495 141.144 114.233 137.116 114.233C133.088 114.233 129.822 117.495 129.822 121.518C129.822 125.541 133.088 128.803 137.116 128.803Z" fill="black"/>
<path opacity="0.1" d="M217.679 201.981C221.708 201.981 224.973 198.719 224.973 194.696C224.973 190.673 221.708 187.411 217.679 187.411C213.651 187.411 210.385 190.673 210.385 194.696C210.385 198.719 213.651 201.981 217.679 201.981Z" fill="black"/>
<path opacity="0.1" d="M193.146 140.061C197.174 140.061 200.439 136.799 200.439 132.776C200.439 128.753 197.174 125.492 193.146 125.492C189.117 125.492 185.852 128.753 185.852 132.776C185.852 136.799 189.117 140.061 193.146 140.061Z" fill="black"/>
<path opacity="0.1" d="M140.763 180.127C144.791 180.127 148.057 176.865 148.057 172.842C148.057 168.819 144.791 165.557 140.763 165.557C136.735 165.557 133.469 168.819 133.469 172.842C133.469 176.865 136.735 180.127 140.763 180.127Z" fill="black"/>
<path opacity="0.1" d="M232.267 100.989C236.295 100.989 239.561 97.7271 239.561 93.7039C239.561 89.6807 236.295 86.4192 232.267 86.4192C228.239 86.4192 224.973 89.6807 224.973 93.7039C224.973 97.7271 228.239 100.989 232.267 100.989Z" fill="black"/>
<path opacity="0.1" d="M256.469 150.326C260.497 150.326 263.763 147.064 263.763 143.041C263.763 139.018 260.497 135.756 256.469 135.756C252.441 135.756 249.175 139.018 249.175 143.041C249.175 147.064 252.441 150.326 256.469 150.326Z" fill="black"/>
<path d="M232.267 72.8432C237.577 72.8432 241.881 68.544 241.881 63.2407C241.881 57.9374 237.577 53.6382 232.267 53.6382C226.957 53.6382 222.652 57.9374 222.652 63.2407C222.652 68.544 226.957 72.8432 232.267 72.8432Z" fill="white"/>
<path d="M232.267 49.3336C228.662 49.3337 225.205 50.764 222.655 53.31C220.106 55.856 218.674 59.309 218.674 62.9096C218.674 70.4074 232.267 95.0284 232.267 95.0284C232.267 95.0284 245.86 70.4074 245.86 62.9096C245.86 59.309 244.428 55.856 241.879 53.31C239.33 50.764 235.872 49.3337 232.267 49.3336ZM232.267 69.5321C231.021 69.5321 229.803 69.1631 228.767 68.4718C227.731 67.7805 226.924 66.7979 226.447 65.6483C225.971 64.4987 225.846 63.2337 226.089 62.0133C226.332 60.7929 226.932 59.6719 227.813 58.7921C228.694 57.9122 229.816 57.313 231.038 57.0703C232.26 56.8275 233.527 56.9521 234.678 57.4283C235.829 57.9045 236.812 58.7109 237.505 59.7455C238.197 60.7801 238.566 61.9964 238.566 63.2407C238.566 64.0669 238.403 64.885 238.087 65.6483C237.77 66.4116 237.306 67.1052 236.721 67.6894C236.136 68.2736 235.442 68.737 234.678 69.0532C233.913 69.3693 233.094 69.5321 232.267 69.5321Z" fill="#20DEB0"/>
<path d="M137.078 98.8897C142.388 98.8897 146.693 94.5905 146.693 89.2872C146.693 83.9838 142.388 79.6846 137.078 79.6846C131.768 79.6846 127.464 83.9838 127.464 89.2872C127.464 94.5905 131.768 98.8897 137.078 98.8897Z" fill="white"/>
<path d="M137.078 75.3801C133.473 75.3801 130.016 76.8104 127.467 79.3564C124.917 81.9024 123.485 85.3555 123.485 88.9561C123.485 96.4539 137.078 121.075 137.078 121.075C137.078 121.075 150.671 96.4539 150.671 88.9561C150.671 85.3555 149.239 81.9024 146.69 79.3564C144.141 76.8104 140.683 75.3801 137.078 75.3801ZM137.078 95.5785C135.832 95.5785 134.615 95.2095 133.579 94.5182C132.543 93.8269 131.735 92.8443 131.259 91.6948C130.782 90.5452 130.657 89.2802 130.9 88.0598C131.143 86.8394 131.743 85.7184 132.624 84.8385C133.505 83.9587 134.628 83.3595 135.849 83.1167C137.071 82.874 138.338 82.9986 139.489 83.4748C140.64 83.9509 141.624 84.7573 142.316 85.7919C143.008 86.8265 143.378 88.0429 143.378 89.2872C143.378 90.1134 143.215 90.9315 142.898 91.6948C142.581 92.4581 142.117 93.1516 141.533 93.7358C140.948 94.32 140.253 94.7835 139.489 95.0996C138.725 95.4158 137.906 95.5785 137.078 95.5785Z" fill="#3F3D56"/>
<path d="M257.694 121.029C263.004 121.029 267.309 116.73 267.309 111.427C267.309 106.123 263.004 101.824 257.694 101.824C252.384 101.824 248.08 106.123 248.08 111.427C248.08 116.73 252.384 121.029 257.694 121.029Z" fill="white"/>
<path d="M257.694 97.5196C254.089 97.5196 250.632 98.9499 248.082 101.496C245.533 104.042 244.101 107.495 244.101 111.096C244.101 118.593 257.694 143.214 257.694 143.214C257.694 143.214 271.287 118.593 271.287 111.096C271.287 107.495 269.855 104.042 267.306 101.496C264.757 98.9499 261.299 97.5196 257.694 97.5196ZM257.694 117.718C256.448 117.718 255.23 117.349 254.194 116.658C253.158 115.966 252.351 114.984 251.874 113.834C251.398 112.685 251.273 111.42 251.516 110.199C251.759 108.979 252.359 107.858 253.24 106.978C254.121 106.098 255.243 105.499 256.465 105.256C257.687 105.013 258.954 105.138 260.105 105.614C261.256 106.09 262.239 106.897 262.932 107.931C263.624 108.966 263.993 110.182 263.993 111.427C263.993 112.253 263.83 113.071 263.514 113.834C263.197 114.598 262.733 115.291 262.148 115.875C261.563 116.46 260.869 116.923 260.105 117.239C259.34 117.555 258.521 117.718 257.694 117.718Z" fill="#CCCCCC"/>
<path d="M94.7 169.215C100.01 169.215 104.315 164.916 104.315 159.613C104.315 154.309 100.01 150.01 94.7 150.01C89.39 150.01 85.0854 154.309 85.0854 159.613C85.0854 164.916 89.39 169.215 94.7 169.215Z" fill="white"/>
<path d="M94.6999 145.706C91.0948 145.706 87.6374 147.136 85.0882 149.682C82.539 152.228 81.1069 155.681 81.1069 159.281C81.1069 166.779 94.6999 191.4 94.6999 191.4C94.6999 191.4 108.293 166.779 108.293 159.281C108.293 155.681 106.861 152.228 104.312 149.682C101.762 147.136 98.3049 145.706 94.6999 145.706ZM94.6999 165.904C93.454 165.904 92.2361 165.535 91.2002 164.844C90.1643 164.152 89.3569 163.17 88.8802 162.02C88.4034 160.871 88.2787 159.606 88.5217 158.385C88.7648 157.165 89.3647 156.044 90.2457 155.164C91.1266 154.284 92.2491 153.685 93.471 153.442C94.6929 153.199 95.9595 153.324 97.1105 153.8C98.2615 154.276 99.2453 155.083 99.9375 156.117C100.63 157.152 100.999 158.368 100.999 159.613C100.999 160.439 100.836 161.257 100.52 162.02C100.203 162.783 99.739 163.477 99.1541 164.061C98.5692 164.645 97.8747 165.109 97.1105 165.425C96.3462 165.741 95.5271 165.904 94.6999 165.904Z" fill="#20DEB0"/>
<path d="M316.006 236.717C317.873 235.156 315.351 229.077 310.373 223.14C305.395 217.202 299.847 213.654 297.981 215.215C296.115 216.775 298.637 222.854 303.614 228.791C308.592 234.729 314.14 238.277 316.006 236.717Z" fill="#2F2E41"/>
<path d="M277.128 249.14C292.636 249.14 305.207 236.584 305.207 221.096C305.207 205.608 292.636 193.053 277.128 193.053C261.621 193.053 249.05 205.608 249.05 221.096C249.05 236.584 261.621 249.14 277.128 249.14Z" fill="#2F2E41"/>
<path d="M289.013 243.105H280.483V258.37H289.013V243.105Z" fill="#2F2E41"/>
<path d="M271.953 243.105H263.422V258.37H271.953V243.105Z" fill="#2F2E41"/>
<path d="M281.905 261.209C285.831 261.209 289.013 260.017 289.013 258.547C289.013 257.077 285.831 255.885 281.905 255.885C277.979 255.885 274.796 257.077 274.796 258.547C274.796 260.017 277.979 261.209 281.905 261.209Z" fill="#2F2E41"/>
<path d="M264.844 260.854C268.77 260.854 271.953 259.662 271.953 258.192C271.953 256.722 268.77 255.53 264.844 255.53C260.918 255.53 257.736 256.722 257.736 258.192C257.736 259.662 260.918 260.854 264.844 260.854Z" fill="#2F2E41"/>
<path d="M268.312 185.844C270.819 175.76 281.886 169.825 293.031 172.589C304.176 175.353 311.179 185.769 308.671 195.854C306.164 205.938 297.846 205.971 286.701 203.207C275.556 200.443 265.805 195.929 268.312 185.844Z" fill="#4759DD"/>
<path d="M258.187 214.093C259.231 211.896 254.397 207.425 247.391 204.106C240.385 200.788 233.861 199.878 232.817 202.075C231.774 204.271 236.608 208.742 243.614 212.061C250.62 215.38 257.144 216.289 258.187 214.093Z" fill="#2F2E41"/>
<path d="M272.931 224.529C278.101 224.529 282.292 220.343 282.292 215.179C282.292 210.015 278.101 205.829 272.931 205.829C267.76 205.829 263.569 210.015 263.569 215.179C263.569 220.343 267.76 224.529 272.931 224.529Z" fill="white"/>
<path d="M269.083 214.944C270.807 214.944 272.204 213.549 272.204 211.827C272.204 210.106 270.807 208.711 269.083 208.711C267.36 208.711 265.963 210.106 265.963 211.827C265.963 213.549 267.36 214.944 269.083 214.944Z" fill="#3F3D56"/>
<path d="M278.803 234.659C278.95 235.464 278.937 236.29 278.764 237.09C278.591 237.89 278.262 238.649 277.795 239.322C277.329 239.995 276.734 240.57 276.046 241.013C275.357 241.457 274.587 241.761 273.781 241.907C272.975 242.054 272.147 242.041 271.346 241.868C270.545 241.695 269.786 241.366 269.112 240.901C268.438 240.435 267.862 239.841 267.418 239.153C266.974 238.465 266.67 237.697 266.523 236.891L266.521 236.879C265.907 233.492 268.529 232.293 271.921 231.68C275.313 231.067 278.189 231.271 278.803 234.659Z" fill="white"/>
<path d="M219.301 161.52C216.413 159.086 212.879 157.543 209.129 157.078C205.379 156.614 201.575 157.248 198.179 158.904C194.783 160.559 191.943 163.165 190.003 166.404C188.063 169.642 187.107 173.374 187.252 177.146C187.397 180.917 188.636 184.565 190.819 187.645C193.002 190.726 196.034 193.106 199.547 194.497C203.06 195.888 206.902 196.229 210.605 195.479C214.309 194.728 217.714 192.919 220.406 190.271L244.317 210.422C244.681 210.728 245.151 210.878 245.626 210.838C246.1 210.798 246.54 210.572 246.847 210.209C247.154 209.846 247.305 209.376 247.265 208.902C247.226 208.428 246.999 207.989 246.636 207.682L246.633 207.679L222.723 187.529C225.501 183.548 226.69 178.674 226.057 173.862C225.424 169.051 223.014 164.649 219.301 161.52ZM217.76 185.589C215.897 187.794 213.422 189.397 210.646 190.197C207.871 190.997 204.921 190.956 202.168 190.081C199.416 189.206 196.985 187.536 195.184 185.281C193.382 183.026 192.29 180.288 192.046 177.414C191.802 174.539 192.417 171.657 193.814 169.132C195.21 166.606 197.325 164.551 199.89 163.226C202.456 161.901 205.358 161.366 208.228 161.688C211.098 162.01 213.809 163.175 216.016 165.035C218.977 167.53 220.823 171.097 221.15 174.951C221.477 178.806 220.258 182.632 217.76 185.589Z" fill="#3F3D56"/>
<path opacity="0.3" d="M197.18 187.33C194.378 184.969 192.568 181.642 192.109 178.009C191.65 174.377 192.576 170.705 194.702 167.722C194.423 168.003 194.153 168.297 193.892 168.604C192.655 170.068 191.719 171.761 191.138 173.586C190.556 175.412 190.34 177.333 190.502 179.242C190.663 181.151 191.2 183.009 192.081 184.71C192.962 186.412 194.17 187.923 195.636 189.158C197.101 190.394 198.796 191.328 200.624 191.909C202.451 192.49 204.375 192.706 206.286 192.545C208.197 192.383 210.058 191.847 211.761 190.967C213.465 190.087 214.978 188.881 216.215 187.417C216.475 187.109 216.72 186.794 216.95 186.471C214.364 189.066 210.895 190.595 207.233 190.754C203.57 190.914 199.982 189.691 197.18 187.33Z" fill="black"/>
<path d="M96.4817 201.491C99.25 194.257 99.651 187.689 97.3773 186.821C95.1035 185.953 91.0162 191.114 88.2478 198.347C85.4795 205.581 85.0786 212.149 87.3523 213.017C89.626 213.885 93.7134 208.724 96.4817 201.491Z" fill="#2F2E41"/>
<path d="M66.4117 249.14C81.9192 249.14 94.4905 236.584 94.4905 221.096C94.4905 205.608 81.9192 193.052 66.4117 193.052C50.9041 193.052 38.3328 205.608 38.3328 221.096C38.3328 236.584 50.9041 249.14 66.4117 249.14Z" fill="#2F2E41"/>
<path d="M62.1465 243.105H53.6162V258.37H62.1465V243.105Z" fill="#2F2E41"/>
<path d="M79.207 243.105H70.6768V258.37H79.207V243.105Z" fill="#2F2E41"/>
<path d="M60.7248 261.209C64.6508 261.209 67.8334 260.017 67.8334 258.547C67.8334 257.077 64.6508 255.885 60.7248 255.885C56.7988 255.885 53.6162 257.077 53.6162 258.547C53.6162 260.017 56.7988 261.209 60.7248 261.209Z" fill="#2F2E41"/>
<path d="M77.7853 260.854C81.7113 260.854 84.8939 259.662 84.8939 258.192C84.8939 256.722 81.7113 255.53 77.7853 255.53C73.8594 255.53 70.6768 256.722 70.6768 258.192C70.6768 259.662 73.8594 260.854 77.7853 260.854Z" fill="#2F2E41"/>
<path d="M67.1225 223.581C72.4225 223.581 76.719 219.29 76.719 213.996C76.719 208.703 72.4225 204.412 67.1225 204.412C61.8224 204.412 57.5259 208.703 57.5259 213.996C57.5259 219.29 61.8224 223.581 67.1225 223.581Z" fill="white"/>
<path d="M67.1225 217.191C68.8892 217.191 70.3213 215.761 70.3213 213.997C70.3213 212.232 68.8892 210.802 67.1225 210.802C65.3558 210.802 63.9236 212.232 63.9236 213.997C63.9236 215.761 65.3558 217.191 67.1225 217.191Z" fill="#3F3D56"/>
<path d="M39.1741 195.016C36.9069 184.875 44.1544 174.628 55.3618 172.129C66.5692 169.629 77.4926 175.824 79.7599 185.965C82.0271 196.106 74.5995 199.846 63.3921 202.346C52.1847 204.845 41.4414 205.157 39.1741 195.016Z" fill="#4759DD"/>
<path d="M47.4705 214.093C48.5136 211.896 43.6799 207.425 36.6741 204.107C29.6684 200.788 23.1435 199.878 22.1004 202.075C21.0573 204.272 25.891 208.742 32.8967 212.061C39.9025 215.38 46.4274 216.289 47.4705 214.093Z" fill="#2F2E41"/>
<path d="M52.6194 231.213C52.6194 233.958 59.6955 239.378 67.5474 239.378C75.3994 239.378 82.7614 231.651 82.7614 228.906C82.7614 226.161 75.3993 229.438 67.5474 229.438C59.6955 229.438 52.6194 228.469 52.6194 231.213Z" fill="white"/>
<path d="M157.505 299.931C173.013 299.931 185.584 287.375 185.584 271.887C185.584 256.399 173.013 243.843 157.505 243.843C141.998 243.843 129.426 256.399 129.426 271.887C129.426 287.375 141.998 299.931 157.505 299.931Z" fill="#2F2E41"/>
<path d="M153.24 293.896H144.71V309.16H153.24V293.896Z" fill="#2F2E41"/>
<path d="M170.301 293.896H161.77V309.16H170.301V293.896Z" fill="#2F2E41"/>
<path d="M151.818 312C155.744 312 158.927 310.808 158.927 309.338C158.927 307.867 155.744 306.675 151.818 306.675C147.892 306.675 144.71 307.867 144.71 309.338C144.71 310.808 147.892 312 151.818 312Z" fill="#2F2E41"/>
<path d="M168.879 311.645C172.805 311.645 175.987 310.453 175.987 308.983C175.987 307.512 172.805 306.32 168.879 306.32C164.953 306.32 161.77 307.512 161.77 308.983C161.77 310.453 164.953 311.645 168.879 311.645Z" fill="#2F2E41"/>
<path d="M130.268 245.807C128 235.666 135.248 225.419 146.455 222.919C157.663 220.42 168.586 226.615 170.853 236.756C173.121 246.897 165.693 250.637 154.486 253.136C143.278 255.636 132.535 255.948 130.268 245.807Z" fill="#3F3D56"/>
<path d="M157.618 267.027C157.618 267.027 159.655 258.077 155.785 258.483C151.915 258.89 146.619 259.094 145.193 259.094C143.767 259.094 135.62 258.077 134.398 263.366C133.176 268.655 131.546 275.165 135.009 279.233C135.009 279.233 136.231 297.135 140.916 298.356C145.601 299.576 158.025 301 162.506 295.101C163.818 293.346 164.734 291.328 165.192 289.186C165.649 287.044 165.636 284.828 165.154 282.692H163.118L157.618 267.027Z" fill="#4759DD"/>
<path opacity="0.1" d="M137.046 280.657C137.046 280.657 140.509 282.285 147.637 281.267V284.319L137.046 283.505V280.657Z" fill="black"/>
<path d="M162.923 290.857L160.618 289.64L170.873 270.258C171.258 269.53 171.451 268.717 171.433 267.894C171.416 267.071 171.188 266.266 170.772 265.556C170.357 264.845 169.766 264.252 169.057 263.833C168.348 263.414 167.543 263.182 166.72 263.16L155.957 262.871L156.027 260.267L166.79 260.556C168.057 260.59 169.295 260.946 170.385 261.591C171.476 262.236 172.384 263.148 173.024 264.241C173.664 265.335 174.013 266.572 174.041 267.838C174.068 269.104 173.771 270.356 173.179 271.475L162.923 290.857Z" fill="#4759DD"/>
<path d="M138.137 290.857L127.881 271.475C127.289 270.356 126.992 269.104 127.02 267.838C127.047 266.572 127.396 265.335 128.036 264.241C128.676 263.148 129.584 262.236 130.675 261.591C131.765 260.947 133.003 260.59 134.27 260.556L145.033 260.267L145.103 262.871L134.34 263.16C133.516 263.182 132.712 263.414 132.003 263.833C131.294 264.252 130.703 264.845 130.288 265.556C129.872 266.266 129.644 267.071 129.627 267.894C129.609 268.717 129.802 269.53 130.187 270.258L140.442 289.64L138.137 290.857Z" fill="#4759DD"/>
<path d="M193.509 279.083C194.772 276.698 189.631 271.508 182.027 267.491C174.422 263.473 167.233 262.149 165.97 264.533C164.708 266.917 169.849 272.107 177.453 276.125C185.058 280.143 192.246 281.467 193.509 279.083Z" fill="#2F2E41"/>
</g>
<defs>
<clipPath id="clip0">
<rect width="345" height="312" fill="white"/>
</clipPath>
</defs>
</svg>
