<svg width="375" height="466" viewBox="0 0 375 466" fill="none" xmlns="http://www.w3.org/2000/svg">
<path d="M56.0819 395.264C57.0419 395.568 57.7939 396.08 58.3379 396.8C58.8819 397.504 59.1539 398.376 59.1539 399.416C59.1539 400.888 58.5779 402.024 57.4259 402.824C56.2899 403.608 54.6259 404 52.4339 404H43.7459V387.2H51.9539C54.0019 387.2 55.5699 387.592 56.6579 388.376C57.7619 389.16 58.3139 390.224 58.3139 391.568C58.3139 392.384 58.1139 393.112 57.7139 393.752C57.3299 394.392 56.7859 394.896 56.0819 395.264ZM47.6099 390.128V394.088H51.4739C52.4339 394.088 53.1619 393.92 53.6579 393.584C54.1539 393.248 54.4019 392.752 54.4019 392.096C54.4019 391.44 54.1539 390.952 53.6579 390.632C53.1619 390.296 52.4339 390.128 51.4739 390.128H47.6099ZM52.1459 401.072C53.1699 401.072 53.9379 400.904 54.4499 400.568C54.9779 400.232 55.2419 399.712 55.2419 399.008C55.2419 397.616 54.2099 396.92 52.1459 396.92H47.6099V401.072H52.1459ZM74.4815 397.592C74.4815 397.64 74.4575 397.976 74.4095 398.6H64.6415C64.8175 399.4 65.2335 400.032 65.8895 400.496C66.5455 400.96 67.3615 401.192 68.3375 401.192C69.0095 401.192 69.6015 401.096 70.1135 400.904C70.6415 400.696 71.1295 400.376 71.5775 399.944L73.5695 402.104C72.3535 403.496 70.5775 404.192 68.2415 404.192C66.7855 404.192 65.4975 403.912 64.3775 403.352C63.2575 402.776 62.3935 401.984 61.7855 400.976C61.1775 399.968 60.8735 398.824 60.8735 397.544C60.8735 396.28 61.1695 395.144 61.7615 394.136C62.3695 393.112 63.1935 392.32 64.2335 391.76C65.2895 391.184 66.4655 390.896 67.7615 390.896C69.0255 390.896 70.1695 391.168 71.1935 391.712C72.2175 392.256 73.0175 393.04 73.5935 394.064C74.1855 395.072 74.4815 396.248 74.4815 397.592ZM67.7855 393.728C66.9375 393.728 66.2255 393.968 65.6495 394.448C65.0735 394.928 64.7215 395.584 64.5935 396.416H70.9535C70.8255 395.6 70.4735 394.952 69.8975 394.472C69.3215 393.976 68.6175 393.728 67.7855 393.728ZM84.8221 390.896C86.4221 390.896 87.7101 391.376 88.6861 392.336C89.6781 393.296 90.1741 394.72 90.1741 396.608V404H86.4301V397.184C86.4301 396.16 86.2061 395.4 85.7581 394.904C85.3101 394.392 84.6621 394.136 83.8141 394.136C82.8701 394.136 82.1181 394.432 81.5581 395.024C80.9981 395.6 80.7181 396.464 80.7181 397.616V404H76.9741V391.088H80.5501V392.6C81.0461 392.056 81.6621 391.64 82.3981 391.352C83.1341 391.048 83.9421 390.896 84.8221 390.896ZM106.356 397.592C106.356 397.64 106.332 397.976 106.284 398.6H96.5165C96.6925 399.4 97.1085 400.032 97.7645 400.496C98.4205 400.96 99.2365 401.192 100.212 401.192C100.884 401.192 101.476 401.096 101.988 400.904C102.516 400.696 103.004 400.376 103.452 399.944L105.444 402.104C104.228 403.496 102.452 404.192 100.116 404.192C98.6605 404.192 97.3725 403.912 96.2525 403.352C95.1325 402.776 94.2685 401.984 93.6605 400.976C93.0525 399.968 92.7485 398.824 92.7485 397.544C92.7485 396.28 93.0445 395.144 93.6365 394.136C94.2445 393.112 95.0685 392.32 96.1085 391.76C97.1645 391.184 98.3405 390.896 99.6365 390.896C100.9 390.896 102.044 391.168 103.068 391.712C104.092 392.256 104.892 393.04 105.468 394.064C106.06 395.072 106.356 396.248 106.356 397.592ZM99.6605 393.728C98.8125 393.728 98.1005 393.968 97.5245 394.448C96.9485 394.928 96.5965 395.584 96.4685 396.416H102.828C102.7 395.6 102.348 394.952 101.772 394.472C101.196 393.976 100.492 393.728 99.6605 393.728ZM112.953 391.376H116.265V394.256H113.049V404H109.305V394.256H107.313V391.376H109.305V390.8C109.305 389.328 109.737 388.16 110.601 387.296C111.481 386.432 112.713 386 114.297 386C114.857 386 115.385 386.064 115.881 386.192C116.393 386.304 116.817 386.472 117.153 386.696L116.169 389.408C115.737 389.104 115.233 388.952 114.657 388.952C113.521 388.952 112.953 389.576 112.953 390.824V391.376ZM120.057 391.088H123.801V404H120.057V391.088ZM121.929 389.288C121.241 389.288 120.681 389.088 120.249 388.688C119.817 388.288 119.601 387.792 119.601 387.2C119.601 386.608 119.817 386.112 120.249 385.712C120.681 385.312 121.241 385.112 121.929 385.112C122.617 385.112 123.177 385.304 123.609 385.688C124.041 386.072 124.257 386.552 124.257 387.128C124.257 387.752 124.041 388.272 123.609 388.688C123.177 389.088 122.617 389.288 121.929 389.288ZM133.511 404.192C132.135 404.192 130.895 403.912 129.791 403.352C128.703 402.776 127.847 401.984 127.223 400.976C126.615 399.968 126.311 398.824 126.311 397.544C126.311 396.264 126.615 395.12 127.223 394.112C127.847 393.104 128.703 392.32 129.791 391.76C130.895 391.184 132.135 390.896 133.511 390.896C134.871 390.896 136.055 391.184 137.063 391.76C138.087 392.32 138.831 393.128 139.295 394.184L136.391 395.744C135.719 394.56 134.751 393.968 133.487 393.968C132.511 393.968 131.703 394.288 131.063 394.928C130.423 395.568 130.103 396.44 130.103 397.544C130.103 398.648 130.423 399.52 131.063 400.16C131.703 400.8 132.511 401.12 133.487 401.12C134.767 401.12 135.735 400.528 136.391 399.344L139.295 400.928C138.831 401.952 138.087 402.752 137.063 403.328C136.055 403.904 134.871 404.192 133.511 404.192ZM141.451 391.088H145.195V404H141.451V391.088ZM143.323 389.288C142.635 389.288 142.075 389.088 141.643 388.688C141.211 388.288 140.995 387.792 140.995 387.2C140.995 386.608 141.211 386.112 141.643 385.712C142.075 385.312 142.635 385.112 143.323 385.112C144.011 385.112 144.571 385.304 145.003 385.688C145.435 386.072 145.651 386.552 145.651 387.128C145.651 387.752 145.435 388.272 145.003 388.688C144.571 389.088 144.011 389.288 143.323 389.288ZM154.813 404.192C153.453 404.192 152.229 403.912 151.141 403.352C150.069 402.776 149.229 401.984 148.621 400.976C148.013 399.968 147.709 398.824 147.709 397.544C147.709 396.264 148.013 395.12 148.621 394.112C149.229 393.104 150.069 392.32 151.141 391.76C152.229 391.184 153.453 390.896 154.813 390.896C156.173 390.896 157.389 391.184 158.461 391.76C159.533 392.32 160.373 393.104 160.981 394.112C161.589 395.12 161.893 396.264 161.893 397.544C161.893 398.824 161.589 399.968 160.981 400.976C160.373 401.984 159.533 402.776 158.461 403.352C157.389 403.912 156.173 404.192 154.813 404.192ZM154.813 401.12C155.773 401.12 156.557 400.8 157.165 400.16C157.789 399.504 158.101 398.632 158.101 397.544C158.101 396.456 157.789 395.592 157.165 394.952C156.557 394.296 155.773 393.968 154.813 393.968C153.853 393.968 153.061 394.296 152.437 394.952C151.813 395.592 151.501 396.456 151.501 397.544C151.501 398.632 151.813 399.504 152.437 400.16C153.061 400.8 153.853 401.12 154.813 401.12ZM168.74 404.192C167.668 404.192 166.62 404.064 165.596 403.808C164.572 403.536 163.756 403.2 163.148 402.8L164.396 400.112C164.972 400.48 165.668 400.784 166.484 401.024C167.3 401.248 168.1 401.36 168.884 401.36C170.468 401.36 171.26 400.968 171.26 400.184C171.26 399.816 171.044 399.552 170.612 399.392C170.18 399.232 169.516 399.096 168.62 398.984C167.564 398.824 166.692 398.64 166.004 398.432C165.316 398.224 164.716 397.856 164.204 397.328C163.708 396.8 163.46 396.048 163.46 395.072C163.46 394.256 163.692 393.536 164.156 392.912C164.636 392.272 165.324 391.776 166.22 391.424C167.132 391.072 168.204 390.896 169.436 390.896C170.348 390.896 171.252 391 172.148 391.208C173.06 391.4 173.812 391.672 174.404 392.024L173.156 394.688C172.02 394.048 170.78 393.728 169.436 393.728C168.636 393.728 168.036 393.84 167.636 394.064C167.236 394.288 167.036 394.576 167.036 394.928C167.036 395.328 167.252 395.608 167.684 395.768C168.116 395.928 168.804 396.08 169.748 396.224C170.804 396.4 171.668 396.592 172.34 396.8C173.012 396.992 173.596 397.352 174.092 397.88C174.588 398.408 174.836 399.144 174.836 400.088C174.836 400.888 174.596 401.6 174.116 402.224C173.636 402.848 172.932 403.336 172.004 403.688C171.092 404.024 170.004 404.192 168.74 404.192ZM189.151 390.896C191.151 390.896 192.687 391.376 193.759 392.336C194.831 393.28 195.367 394.712 195.367 396.632V404H191.863V402.392C191.159 403.592 189.847 404.192 187.927 404.192C186.935 404.192 186.071 404.024 185.335 403.688C184.615 403.352 184.063 402.888 183.679 402.296C183.295 401.704 183.103 401.032 183.103 400.28C183.103 399.08 183.551 398.136 184.447 397.448C185.359 396.76 186.759 396.416 188.647 396.416H191.623C191.623 395.6 191.375 394.976 190.879 394.544C190.383 394.096 189.639 393.872 188.647 393.872C187.959 393.872 187.279 393.984 186.607 394.208C185.951 394.416 185.391 394.704 184.927 395.072L183.583 392.456C184.287 391.96 185.127 391.576 186.103 391.304C187.095 391.032 188.111 390.896 189.151 390.896ZM188.863 401.672C189.503 401.672 190.071 401.528 190.567 401.24C191.063 400.936 191.415 400.496 191.623 399.92V398.6H189.055C187.519 398.6 186.751 399.104 186.751 400.112C186.751 400.592 186.935 400.976 187.303 401.264C187.687 401.536 188.207 401.672 188.863 401.672ZM213.88 403.376C213.512 403.648 213.056 403.856 212.512 404C211.984 404.128 211.424 404.192 210.832 404.192C209.296 404.192 208.104 403.8 207.256 403.016C206.424 402.232 206.008 401.08 206.008 399.56V394.256H204.016V391.376H206.008V388.232H209.752V391.376H212.968V394.256H209.752V399.512C209.752 400.056 209.888 400.48 210.16 400.784C210.448 401.072 210.848 401.216 211.36 401.216C211.952 401.216 212.456 401.056 212.872 400.736L213.88 403.376ZM228.99 391.088V404H225.438V402.464C224.942 403.024 224.35 403.456 223.662 403.76C222.974 404.048 222.23 404.192 221.43 404.192C219.734 404.192 218.39 403.704 217.398 402.728C216.406 401.752 215.91 400.304 215.91 398.384V391.088H219.654V397.832C219.654 399.912 220.526 400.952 222.27 400.952C223.166 400.952 223.886 400.664 224.43 400.088C224.974 399.496 225.246 398.624 225.246 397.472V391.088H228.99ZM255.791 390.896C257.407 390.896 258.687 391.376 259.631 392.336C260.591 393.28 261.071 394.704 261.071 396.608V404H257.327V397.184C257.327 396.16 257.111 395.4 256.679 394.904C256.263 394.392 255.663 394.136 254.879 394.136C253.999 394.136 253.303 394.424 252.791 395C252.279 395.56 252.023 396.4 252.023 397.52V404H248.279V397.184C248.279 395.152 247.463 394.136 245.831 394.136C244.967 394.136 244.279 394.424 243.767 395C243.255 395.56 242.999 396.4 242.999 397.52V404H239.255V391.088H242.831V392.576C243.311 392.032 243.895 391.616 244.583 391.328C245.287 391.04 246.055 390.896 246.887 390.896C247.799 390.896 248.623 391.08 249.359 391.448C250.095 391.8 250.687 392.32 251.135 393.008C251.663 392.336 252.327 391.816 253.127 391.448C253.943 391.08 254.831 390.896 255.791 390.896ZM277.216 397.592C277.216 397.64 277.192 397.976 277.144 398.6H267.376C267.552 399.4 267.968 400.032 268.624 400.496C269.28 400.96 270.096 401.192 271.072 401.192C271.744 401.192 272.336 401.096 272.848 400.904C273.376 400.696 273.864 400.376 274.312 399.944L276.304 402.104C275.088 403.496 273.312 404.192 270.976 404.192C269.52 404.192 268.232 403.912 267.112 403.352C265.992 402.776 265.128 401.984 264.52 400.976C263.912 399.968 263.608 398.824 263.608 397.544C263.608 396.28 263.904 395.144 264.496 394.136C265.104 393.112 265.928 392.32 266.968 391.76C268.024 391.184 269.2 390.896 270.496 390.896C271.76 390.896 272.904 391.168 273.928 391.712C274.952 392.256 275.752 393.04 276.328 394.064C276.92 395.072 277.216 396.248 277.216 397.592ZM270.52 393.728C269.672 393.728 268.96 393.968 268.384 394.448C267.808 394.928 267.456 395.584 267.328 396.416H273.688C273.56 395.6 273.208 394.952 272.632 394.472C272.056 393.976 271.352 393.728 270.52 393.728ZM292.86 386.192V404H289.284V402.512C288.356 403.632 287.012 404.192 285.252 404.192C284.036 404.192 282.932 403.92 281.94 403.376C280.964 402.832 280.196 402.056 279.636 401.048C279.076 400.04 278.796 398.872 278.796 397.544C278.796 396.216 279.076 395.048 279.636 394.04C280.196 393.032 280.964 392.256 281.94 391.712C282.932 391.168 284.036 390.896 285.252 390.896C286.9 390.896 288.188 391.416 289.116 392.456V386.192H292.86ZM285.9 401.12C286.844 401.12 287.628 400.8 288.252 400.16C288.876 399.504 289.188 398.632 289.188 397.544C289.188 396.456 288.876 395.592 288.252 394.952C287.628 394.296 286.844 393.968 285.9 393.968C284.94 393.968 284.148 394.296 283.524 394.952C282.9 395.592 282.588 396.456 282.588 397.544C282.588 398.632 282.9 399.504 283.524 400.16C284.148 400.8 284.94 401.12 285.9 401.12ZM296.326 391.088H300.07V404H296.326V391.088ZM298.198 389.288C297.51 389.288 296.95 389.088 296.518 388.688C296.086 388.288 295.87 387.792 295.87 387.2C295.87 386.608 296.086 386.112 296.518 385.712C296.95 385.312 297.51 385.112 298.198 385.112C298.886 385.112 299.446 385.304 299.878 385.688C300.31 386.072 300.526 386.552 300.526 387.128C300.526 387.752 300.31 388.272 299.878 388.688C299.446 389.088 298.886 389.288 298.198 389.288ZM316.696 386.192V404H313.12V402.512C312.192 403.632 310.848 404.192 309.088 404.192C307.872 404.192 306.768 403.92 305.776 403.376C304.8 402.832 304.032 402.056 303.472 401.048C302.912 400.04 302.632 398.872 302.632 397.544C302.632 396.216 302.912 395.048 303.472 394.04C304.032 393.032 304.8 392.256 305.776 391.712C306.768 391.168 307.872 390.896 309.088 390.896C310.736 390.896 312.024 391.416 312.952 392.456V386.192H316.696ZM309.736 401.12C310.68 401.12 311.464 400.8 312.088 400.16C312.712 399.504 313.024 398.632 313.024 397.544C313.024 396.456 312.712 395.592 312.088 394.952C311.464 394.296 310.68 393.968 309.736 393.968C308.776 393.968 307.984 394.296 307.36 394.952C306.736 395.592 306.424 396.456 306.424 397.544C306.424 398.632 306.736 399.504 307.36 400.16C307.984 400.8 308.776 401.12 309.736 401.12ZM325.37 390.896C327.37 390.896 328.906 391.376 329.978 392.336C331.05 393.28 331.586 394.712 331.586 396.632V404H328.082V402.392C327.378 403.592 326.066 404.192 324.146 404.192C323.154 404.192 322.29 404.024 321.554 403.688C320.834 403.352 320.282 402.888 319.898 402.296C319.514 401.704 319.322 401.032 319.322 400.28C319.322 399.08 319.77 398.136 320.666 397.448C321.578 396.76 322.978 396.416 324.866 396.416H327.842C327.842 395.6 327.594 394.976 327.098 394.544C326.602 394.096 325.858 393.872 324.866 393.872C324.178 393.872 323.498 393.984 322.826 394.208C322.17 394.416 321.61 394.704 321.146 395.072L319.802 392.456C320.506 391.96 321.346 391.576 322.322 391.304C323.314 391.032 324.33 390.896 325.37 390.896ZM325.082 401.672C325.722 401.672 326.29 401.528 326.786 401.24C327.282 400.936 327.634 400.496 327.842 399.92V398.6H325.274C323.738 398.6 322.97 399.104 322.97 400.112C322.97 400.592 323.154 400.976 323.522 401.264C323.906 401.536 324.426 401.672 325.082 401.672Z" fill="#333333"/>
<path d="M45.1764 433.928H46.8404C47.6511 433.928 48.2858 433.72 48.7444 433.304C49.2031 432.877 49.4324 432.339 49.4324 431.688C49.4324 430.963 49.1978 430.387 48.7284 429.96C48.2591 429.533 47.5924 429.32 46.7284 429.32H45.1764V433.928ZM43.8804 428.216H46.7124C47.9604 428.216 48.9418 428.541 49.6564 429.192C50.3818 429.832 50.7444 430.664 50.7444 431.688C50.7444 432.648 50.3871 433.448 49.6724 434.088C48.9578 434.717 48.0138 435.032 46.8404 435.032H45.1764V439H43.8804V428.216ZM57.7032 434.424V434.104C57.7032 433.432 57.5219 432.899 57.1592 432.504C56.7965 432.099 56.2952 431.896 55.6552 431.896C55.0472 431.896 54.5299 432.115 54.1032 432.552C53.6765 432.989 53.4259 433.613 53.3512 434.424H57.7032ZM58.4552 437.4V438.584C57.8259 438.915 57.0579 439.08 56.1512 439.08C54.9245 439.08 53.9325 438.707 53.1752 437.96C52.4285 437.203 52.0552 436.205 52.0552 434.968C52.0552 433.677 52.3912 432.659 53.0632 431.912C53.7352 431.165 54.5992 430.792 55.6552 430.792C56.6685 430.792 57.4739 431.117 58.0712 431.768C58.6685 432.419 58.9672 433.341 58.9672 434.536C58.9672 434.877 58.9405 435.192 58.8872 435.48H53.3512C53.4472 436.28 53.7512 436.893 54.2632 437.32C54.7752 437.747 55.4472 437.96 56.2792 437.96C57.1859 437.96 57.9112 437.773 58.4552 437.4ZM62.1426 430.888V432.312C62.5692 431.309 63.3052 430.808 64.3506 430.808C64.5426 430.808 64.6919 430.819 64.7986 430.84V432.088C64.5746 432.013 64.3452 431.976 64.1106 431.976C63.5452 431.976 63.0759 432.237 62.7026 432.76C62.3292 433.283 62.1426 433.885 62.1426 434.568V439H60.8786L60.8946 430.888H62.1426ZM70.5293 431.16V432.36C70.0386 432.061 69.3666 431.912 68.5133 431.912C68.0866 431.912 67.7453 432.013 67.4893 432.216C67.244 432.408 67.1213 432.659 67.1213 432.968C67.1213 433.16 67.1586 433.331 67.2333 433.48C67.308 433.619 67.452 433.757 67.6653 433.896C67.8893 434.035 68.0493 434.131 68.1453 434.184C68.252 434.227 68.476 434.323 68.8173 434.472C69.5 434.749 70.0333 435.064 70.4173 435.416C70.8013 435.768 70.9933 436.243 70.9933 436.84C70.9933 437.533 70.748 438.083 70.2573 438.488C69.7773 438.893 69.116 439.096 68.2733 439.096C67.292 439.096 66.4973 438.931 65.8893 438.6V437.368C66.604 437.795 67.372 438.008 68.1933 438.008C68.684 438.008 69.0573 437.912 69.3133 437.72C69.5693 437.528 69.6973 437.267 69.6973 436.936C69.6973 436.552 69.5533 436.253 69.2653 436.04C68.988 435.827 68.5186 435.587 67.8573 435.32C67.2493 435.085 66.7586 434.792 66.3853 434.44C66.0226 434.088 65.8413 433.613 65.8413 433.016C65.8413 432.344 66.092 431.811 66.5933 431.416C67.1053 431.011 67.74 430.808 68.4973 430.808C69.34 430.808 70.0173 430.925 70.5293 431.16ZM76.0031 439.144C74.8404 439.144 73.9177 438.755 73.2351 437.976C72.5631 437.187 72.2271 436.195 72.2271 435C72.2271 433.795 72.5737 432.792 73.2671 431.992C73.9711 431.181 74.8831 430.776 76.0031 430.776C77.2297 430.776 78.1737 431.171 78.8351 431.96C79.5071 432.749 79.8431 433.752 79.8431 434.968C79.8431 436.173 79.5017 437.171 78.8191 437.96C78.1364 438.749 77.1977 439.144 76.0031 439.144ZM76.0031 431.896C75.2351 431.896 74.6324 432.195 74.1951 432.792C73.7577 433.389 73.5391 434.12 73.5391 434.984C73.5391 435.827 73.7631 436.547 74.2111 437.144C74.6591 437.731 75.2564 438.024 76.0031 438.024C76.8137 438.024 77.4377 437.736 77.8751 437.16C78.3124 436.573 78.5311 435.848 78.5311 434.984C78.5311 434.088 78.3231 433.352 77.9071 432.776C77.4911 432.189 76.8564 431.896 76.0031 431.896ZM82.9394 430.888V432.296C83.4194 431.283 84.2728 430.776 85.4994 430.776C86.2888 430.776 86.9181 431.016 87.3874 431.496C87.8568 431.976 88.0914 432.616 88.0914 433.416V439H86.8274V433.752C86.8274 433.155 86.6728 432.701 86.3634 432.392C86.0648 432.072 85.6701 431.912 85.1794 431.912C84.5714 431.912 84.0434 432.147 83.5954 432.616C83.1581 433.085 82.9394 433.736 82.9394 434.568V439H81.6914V430.888H82.9394ZM94.7001 435.256H93.2921C92.6094 435.256 92.0974 435.389 91.7561 435.656C91.4147 435.923 91.2441 436.259 91.2441 436.664C91.2441 437.069 91.3774 437.4 91.6441 437.656C91.9107 437.901 92.3001 438.024 92.8121 438.024C93.3881 438.024 93.8467 437.864 94.1881 437.544C94.5294 437.213 94.7001 436.797 94.7001 436.296V435.256ZM90.5081 432.584V431.32C91.1161 430.947 91.9161 430.76 92.9081 430.76C94.9454 430.76 95.9641 431.795 95.9641 433.864V439H94.7161V438.04C94.3001 438.733 93.5427 439.08 92.4441 439.08C91.6867 439.08 91.0734 438.856 90.6041 438.408C90.1454 437.96 89.9161 437.395 89.9161 436.712C89.9161 435.933 90.2094 435.331 90.7961 434.904C91.3934 434.467 92.2041 434.248 93.2281 434.248H94.7001V433.832C94.7001 433.192 94.5561 432.712 94.2681 432.392C93.9801 432.061 93.4947 431.896 92.8121 431.896C91.9481 431.896 91.1801 432.125 90.5081 432.584ZM98.2711 439V427.688H99.5351V439H98.2711ZM102.005 439V430.888H103.269V439H102.005ZM102.037 428.936C101.888 428.776 101.813 428.579 101.813 428.344C101.813 428.109 101.888 427.912 102.037 427.752C102.197 427.592 102.395 427.512 102.629 427.512C102.864 427.512 103.061 427.592 103.221 427.752C103.381 427.912 103.461 428.109 103.461 428.344C103.461 428.579 103.381 428.776 103.221 428.936C103.061 429.085 102.864 429.16 102.629 429.16C102.395 429.16 102.197 429.085 102.037 428.936ZM110.828 430.888V431.816L106.668 437.864H111.052V439H105.212V438.008L109.324 432.008H105.372V430.888H110.828ZM117.294 435.256H115.886C115.203 435.256 114.691 435.389 114.35 435.656C114.008 435.923 113.838 436.259 113.838 436.664C113.838 437.069 113.971 437.4 114.238 437.656C114.504 437.901 114.894 438.024 115.406 438.024C115.982 438.024 116.44 437.864 116.782 437.544C117.123 437.213 117.294 436.797 117.294 436.296V435.256ZM113.102 432.584V431.32C113.71 430.947 114.51 430.76 115.502 430.76C117.539 430.76 118.558 431.795 118.558 433.864V439H117.31V438.04C116.894 438.733 116.136 439.08 115.038 439.08C114.28 439.08 113.667 438.856 113.198 438.408C112.739 437.96 112.51 437.395 112.51 436.712C112.51 435.933 112.803 435.331 113.39 434.904C113.987 434.467 114.798 434.248 115.822 434.248H117.294V433.832C117.294 433.192 117.15 432.712 116.862 432.392C116.574 432.061 116.088 431.896 115.406 431.896C114.542 431.896 113.774 432.125 113.102 432.584ZM124.771 439V427.688H126.035V439H124.771ZM131.737 439.144C130.575 439.144 129.652 438.755 128.969 437.976C128.297 437.187 127.961 436.195 127.961 435C127.961 433.795 128.308 432.792 129.001 431.992C129.705 431.181 130.617 430.776 131.737 430.776C132.964 430.776 133.908 431.171 134.569 431.96C135.241 432.749 135.577 433.752 135.577 434.968C135.577 436.173 135.236 437.171 134.553 437.96C133.871 438.749 132.932 439.144 131.737 439.144ZM131.737 431.896C130.969 431.896 130.367 432.195 129.929 432.792C129.492 433.389 129.273 434.12 129.273 434.984C129.273 435.827 129.497 436.547 129.945 437.144C130.393 437.731 130.991 438.024 131.737 438.024C132.548 438.024 133.172 437.736 133.609 437.16C134.047 436.573 134.265 435.848 134.265 434.984C134.265 434.088 134.057 433.352 133.641 432.776C133.225 432.189 132.591 431.896 131.737 431.896ZM141.842 431.16V432.36C141.351 432.061 140.679 431.912 139.826 431.912C139.399 431.912 139.058 432.013 138.802 432.216C138.556 432.408 138.434 432.659 138.434 432.968C138.434 433.16 138.471 433.331 138.546 433.48C138.62 433.619 138.764 433.757 138.978 433.896C139.202 434.035 139.362 434.131 139.458 434.184C139.564 434.227 139.788 434.323 140.13 434.472C140.812 434.749 141.346 435.064 141.73 435.416C142.114 435.768 142.306 436.243 142.306 436.84C142.306 437.533 142.06 438.083 141.57 438.488C141.09 438.893 140.428 439.096 139.586 439.096C138.604 439.096 137.81 438.931 137.202 438.6V437.368C137.916 437.795 138.684 438.008 139.506 438.008C139.996 438.008 140.37 437.912 140.626 437.72C140.882 437.528 141.01 437.267 141.01 436.936C141.01 436.552 140.866 436.253 140.578 436.04C140.3 435.827 139.831 435.587 139.17 435.32C138.562 435.085 138.071 434.792 137.698 434.44C137.335 434.088 137.154 433.613 137.154 433.016C137.154 432.344 137.404 431.811 137.906 431.416C138.418 431.011 139.052 430.808 139.81 430.808C140.652 430.808 141.33 430.925 141.842 431.16ZM151.622 437.976C152.272 437.976 152.811 437.704 153.238 437.16C153.664 436.616 153.878 435.907 153.878 435.032C153.878 434.029 153.654 433.261 153.206 432.728C152.768 432.184 152.214 431.912 151.542 431.912C150.966 431.912 150.438 432.152 149.958 432.632C149.478 433.112 149.238 433.864 149.238 434.888C149.238 435.965 149.467 436.749 149.926 437.24C150.395 437.731 150.96 437.976 151.622 437.976ZM149.238 427.688V432.104C149.824 431.208 150.646 430.76 151.702 430.76C152.726 430.76 153.563 431.155 154.214 431.944C154.864 432.723 155.19 433.747 155.19 435.016C155.19 436.157 154.88 437.128 154.262 437.928C153.654 438.728 152.811 439.128 151.734 439.128C150.646 439.128 149.814 438.685 149.238 437.8V439H147.974V427.688H149.238ZM162.219 434.424V434.104C162.219 433.432 162.037 432.899 161.675 432.504C161.312 432.099 160.811 431.896 160.171 431.896C159.563 431.896 159.045 432.115 158.619 432.552C158.192 432.989 157.941 433.613 157.867 434.424H162.219ZM162.971 437.4V438.584C162.341 438.915 161.573 439.08 160.667 439.08C159.44 439.08 158.448 438.707 157.691 437.96C156.944 437.203 156.571 436.205 156.571 434.968C156.571 433.677 156.907 432.659 157.579 431.912C158.251 431.165 159.115 430.792 160.171 430.792C161.184 430.792 161.989 431.117 162.587 431.768C163.184 432.419 163.483 433.341 163.483 434.536C163.483 434.877 163.456 435.192 163.403 435.48H157.867C157.963 436.28 158.267 436.893 158.779 437.32C159.291 437.747 159.963 437.96 160.795 437.96C161.701 437.96 162.427 437.773 162.971 437.4ZM166.658 430.888V432.296C167.138 431.283 167.992 430.776 169.218 430.776C170.008 430.776 170.637 431.016 171.106 431.496C171.576 431.976 171.81 432.616 171.81 433.416V439H170.546V433.752C170.546 433.155 170.392 432.701 170.082 432.392C169.784 432.072 169.389 431.912 168.898 431.912C168.29 431.912 167.762 432.147 167.314 432.616C166.877 433.085 166.658 433.736 166.658 434.568V439H165.41V430.888H166.658ZM179.219 434.424V434.104C179.219 433.432 179.037 432.899 178.675 432.504C178.312 432.099 177.811 431.896 177.171 431.896C176.563 431.896 176.045 432.115 175.619 432.552C175.192 432.989 174.941 433.613 174.867 434.424H179.219ZM179.971 437.4V438.584C179.341 438.915 178.573 439.08 177.667 439.08C176.44 439.08 175.448 438.707 174.691 437.96C173.944 437.203 173.571 436.205 173.571 434.968C173.571 433.677 173.907 432.659 174.579 431.912C175.251 431.165 176.115 430.792 177.171 430.792C178.184 430.792 178.989 431.117 179.587 431.768C180.184 432.419 180.483 433.341 180.483 434.536C180.483 434.877 180.456 435.192 180.403 435.48H174.867C174.963 436.28 175.267 436.893 175.779 437.32C176.291 437.747 176.963 437.96 177.795 437.96C178.701 437.96 179.427 437.773 179.971 437.4ZM188.362 430.888V439H187.098V431.912H184.378V439H183.114V431.912H181.722V430.888H183.114V430.136C183.114 429.347 183.328 428.723 183.754 428.264C184.181 427.805 184.784 427.576 185.562 427.576C186.32 427.576 187.061 427.757 187.786 428.12V429.288C187.04 428.904 186.314 428.712 185.61 428.712C184.789 428.712 184.378 429.192 184.378 430.152V430.888H188.362ZM191.461 434.984C191.472 435.859 191.738 436.589 192.261 437.176C192.784 437.752 193.525 438.04 194.485 438.04C195.104 438.04 195.68 437.864 196.213 437.512V438.712C195.701 439.021 195.072 439.176 194.325 439.176C193.045 439.176 192.026 438.771 191.269 437.96C190.522 437.139 190.149 436.141 190.149 434.968C190.149 433.816 190.522 432.824 191.269 431.992C192.026 431.16 193.056 430.744 194.357 430.744C195.05 430.744 195.669 430.893 196.213 431.192V432.392C195.722 432.061 195.146 431.896 194.485 431.896C193.568 431.896 192.832 432.195 192.277 432.792C191.733 433.379 191.461 434.109 191.461 434.984ZM198.224 439V430.888H199.488V439H198.224ZM198.256 428.936C198.107 428.776 198.032 428.579 198.032 428.344C198.032 428.109 198.107 427.912 198.256 427.752C198.416 427.592 198.614 427.512 198.848 427.512C199.083 427.512 199.28 427.592 199.44 427.752C199.6 427.912 199.68 428.109 199.68 428.344C199.68 428.579 199.6 428.776 199.44 428.936C199.28 429.085 199.083 429.16 198.848 429.16C198.614 429.16 198.416 429.085 198.256 428.936ZM205.191 439.144C204.028 439.144 203.105 438.755 202.423 437.976C201.751 437.187 201.415 436.195 201.415 435C201.415 433.795 201.761 432.792 202.455 431.992C203.159 431.181 204.071 430.776 205.191 430.776C206.417 430.776 207.361 431.171 208.023 431.96C208.695 432.749 209.031 433.752 209.031 434.968C209.031 436.173 208.689 437.171 208.007 437.96C207.324 438.749 206.385 439.144 205.191 439.144ZM205.191 431.896C204.423 431.896 203.82 432.195 203.383 432.792C202.945 433.389 202.727 434.12 202.727 434.984C202.727 435.827 202.951 436.547 203.399 437.144C203.847 437.731 204.444 438.024 205.191 438.024C206.001 438.024 206.625 437.736 207.063 437.16C207.5 436.573 207.719 435.848 207.719 434.984C207.719 434.088 207.511 433.352 207.095 432.776C206.679 432.189 206.044 431.896 205.191 431.896ZM215.295 431.16V432.36C214.804 432.061 214.132 431.912 213.279 431.912C212.852 431.912 212.511 432.013 212.255 432.216C212.01 432.408 211.887 432.659 211.887 432.968C211.887 433.16 211.924 433.331 211.999 433.48C212.074 433.619 212.218 433.757 212.431 433.896C212.655 434.035 212.815 434.131 212.911 434.184C213.018 434.227 213.242 434.323 213.583 434.472C214.266 434.749 214.799 435.064 215.183 435.416C215.567 435.768 215.759 436.243 215.759 436.84C215.759 437.533 215.514 438.083 215.023 438.488C214.543 438.893 213.882 439.096 213.039 439.096C212.058 439.096 211.263 438.931 210.655 438.6V437.368C211.37 437.795 212.138 438.008 212.959 438.008C213.45 438.008 213.823 437.912 214.079 437.72C214.335 437.528 214.463 437.267 214.463 436.936C214.463 436.552 214.319 436.253 214.031 436.04C213.754 435.827 213.284 435.587 212.623 435.32C212.015 435.085 211.524 434.792 211.151 434.44C210.788 434.088 210.607 433.613 210.607 433.016C210.607 432.344 210.858 431.811 211.359 431.416C211.871 431.011 212.506 430.808 213.263 430.808C214.106 430.808 214.783 430.925 215.295 431.16ZM224.547 437.976C225.134 437.976 225.662 437.736 226.131 437.256C226.611 436.765 226.851 435.997 226.851 434.952C226.851 433.875 226.616 433.101 226.147 432.632C225.678 432.152 225.118 431.912 224.467 431.912C223.816 431.912 223.278 432.184 222.851 432.728C222.424 433.272 222.211 433.987 222.211 434.872C222.211 435.864 222.43 436.632 222.867 437.176C223.304 437.709 223.864 437.976 224.547 437.976ZM226.851 430.888H228.115V442.152H226.851V437.784C226.264 438.68 225.443 439.128 224.387 439.128C223.352 439.128 222.51 438.733 221.859 437.944C221.219 437.144 220.899 436.12 220.899 434.872C220.899 433.699 221.208 432.723 221.827 431.944C222.446 431.155 223.294 430.76 224.371 430.76C225.448 430.76 226.275 431.203 226.851 432.088V430.888ZM235.497 430.888H236.761V439H235.497V437.592C235.07 438.595 234.222 439.096 232.953 439.096C232.153 439.096 231.518 438.861 231.049 438.392C230.59 437.912 230.361 437.272 230.361 436.472V430.888H231.625V436.152C231.625 436.739 231.774 437.187 232.073 437.496C232.372 437.805 232.777 437.96 233.289 437.96C233.961 437.96 234.494 437.725 234.889 437.256C235.294 436.787 235.497 436.152 235.497 435.352V430.888ZM244.266 434.424V434.104C244.266 433.432 244.084 432.899 243.722 432.504C243.359 432.099 242.858 431.896 242.218 431.896C241.61 431.896 241.092 432.115 240.666 432.552C240.239 432.989 239.988 433.613 239.914 434.424H244.266ZM245.018 437.4V438.584C244.388 438.915 243.62 439.08 242.714 439.08C241.487 439.08 240.495 438.707 239.738 437.96C238.991 437.203 238.618 436.205 238.618 434.968C238.618 433.677 238.954 432.659 239.626 431.912C240.298 431.165 241.162 430.792 242.218 430.792C243.231 430.792 244.036 431.117 244.634 431.768C245.231 432.419 245.53 433.341 245.53 434.536C245.53 434.877 245.503 435.192 245.45 435.48H239.914C240.01 436.28 240.314 436.893 240.826 437.32C241.338 437.747 242.01 437.96 242.842 437.96C243.748 437.96 244.474 437.773 245.018 437.4ZM253.107 431.912V436.664C253.107 437.528 253.513 437.96 254.323 437.96C254.739 437.96 255.107 437.837 255.427 437.592V438.792C255.075 438.984 254.681 439.08 254.243 439.08C252.643 439.08 251.843 438.264 251.843 436.632V431.912H250.547V430.888H251.843V428.872H253.107V430.888H255.347V431.912H253.107ZM262.438 434.424V434.104C262.438 433.432 262.256 432.899 261.894 432.504C261.531 432.099 261.03 431.896 260.39 431.896C259.782 431.896 259.264 432.115 258.838 432.552C258.411 432.989 258.16 433.613 258.086 434.424H262.438ZM263.19 437.4V438.584C262.56 438.915 261.792 439.08 260.886 439.08C259.659 439.08 258.667 438.707 257.91 437.96C257.163 437.203 256.79 436.205 256.79 434.968C256.79 433.677 257.126 432.659 257.798 431.912C258.47 431.165 259.334 430.792 260.39 430.792C261.403 430.792 262.208 431.117 262.806 431.768C263.403 432.419 263.702 433.341 263.702 434.536C263.702 434.877 263.675 435.192 263.622 435.48H258.086C258.182 436.28 258.486 436.893 258.998 437.32C259.51 437.747 260.182 437.96 261.014 437.96C261.92 437.96 262.646 437.773 263.19 437.4ZM269.599 439V430.888H270.863V439H269.599ZM269.631 428.936C269.482 428.776 269.407 428.579 269.407 428.344C269.407 428.109 269.482 427.912 269.631 427.752C269.791 427.592 269.989 427.512 270.223 427.512C270.458 427.512 270.655 427.592 270.815 427.752C270.975 427.912 271.055 428.109 271.055 428.344C271.055 428.579 270.975 428.776 270.815 428.936C270.655 429.085 270.458 429.16 270.223 429.16C269.989 429.16 269.791 429.085 269.631 428.936ZM274.518 430.888V432.296C274.998 431.283 275.851 430.776 277.078 430.776C277.867 430.776 278.496 431.016 278.966 431.496C279.435 431.976 279.67 432.616 279.67 433.416V439H278.406V433.752C278.406 433.155 278.251 432.701 277.942 432.392C277.643 432.072 277.248 431.912 276.758 431.912C276.15 431.912 275.622 432.147 275.174 432.616C274.736 433.085 274.518 433.736 274.518 434.568V439H273.27V430.888H274.518ZM283.654 431.912V436.664C283.654 437.528 284.06 437.96 284.87 437.96C285.286 437.96 285.654 437.837 285.974 437.592V438.792C285.622 438.984 285.228 439.08 284.79 439.08C283.19 439.08 282.39 438.264 282.39 436.632V431.912H281.094V430.888H282.39V428.872H283.654V430.888H285.894V431.912H283.654ZM292.984 434.424V434.104C292.984 433.432 292.803 432.899 292.44 432.504C292.078 432.099 291.576 431.896 290.936 431.896C290.328 431.896 289.811 432.115 289.384 432.552C288.958 432.989 288.707 433.613 288.632 434.424H292.984ZM293.736 437.4V438.584C293.107 438.915 292.339 439.08 291.432 439.08C290.206 439.08 289.214 438.707 288.456 437.96C287.71 437.203 287.336 436.205 287.336 434.968C287.336 433.677 287.672 432.659 288.344 431.912C289.016 431.165 289.88 430.792 290.936 430.792C291.95 430.792 292.755 431.117 293.352 431.768C293.95 432.419 294.248 433.341 294.248 434.536C294.248 434.877 294.222 435.192 294.168 435.48H288.632C288.728 436.28 289.032 436.893 289.544 437.32C290.056 437.747 290.728 437.96 291.56 437.96C292.467 437.96 293.192 437.773 293.736 437.4ZM297.424 430.888V432.312C297.85 431.309 298.586 430.808 299.632 430.808C299.824 430.808 299.973 430.819 300.08 430.84V432.088C299.856 432.013 299.626 431.976 299.392 431.976C298.826 431.976 298.357 432.237 297.984 432.76C297.61 433.283 297.424 433.885 297.424 434.568V439H296.16L296.176 430.888H297.424ZM306.563 434.424V434.104C306.563 433.432 306.381 432.899 306.019 432.504C305.656 432.099 305.155 431.896 304.515 431.896C303.907 431.896 303.389 432.115 302.963 432.552C302.536 432.989 302.285 433.613 302.211 434.424H306.563ZM307.315 437.4V438.584C306.685 438.915 305.917 439.08 305.011 439.08C303.784 439.08 302.792 438.707 302.035 437.96C301.288 437.203 300.915 436.205 300.915 434.968C300.915 433.677 301.251 432.659 301.923 431.912C302.595 431.165 303.459 430.792 304.515 430.792C305.528 430.792 306.333 431.117 306.931 431.768C307.528 432.419 307.827 433.341 307.827 434.536C307.827 434.877 307.8 435.192 307.747 435.48H302.211C302.307 436.28 302.611 436.893 303.123 437.32C303.635 437.747 304.307 437.96 305.139 437.96C306.045 437.96 306.771 437.773 307.315 437.4ZM314.906 430.888V431.816L310.746 437.864H315.13V439H309.29V438.008L313.402 432.008H309.45V430.888H314.906ZM321.372 435.256H319.964C319.281 435.256 318.769 435.389 318.428 435.656C318.087 435.923 317.916 436.259 317.916 436.664C317.916 437.069 318.049 437.4 318.316 437.656C318.583 437.901 318.972 438.024 319.484 438.024C320.06 438.024 320.519 437.864 320.86 437.544C321.201 437.213 321.372 436.797 321.372 436.296V435.256ZM317.18 432.584V431.32C317.788 430.947 318.588 430.76 319.58 430.76C321.617 430.76 322.636 431.795 322.636 433.864V439H321.388V438.04C320.972 438.733 320.215 439.08 319.116 439.08C318.359 439.08 317.745 438.856 317.276 438.408C316.817 437.96 316.588 437.395 316.588 436.712C316.588 435.933 316.881 435.331 317.468 434.904C318.065 434.467 318.876 434.248 319.9 434.248H321.372V433.832C321.372 433.192 321.228 432.712 320.94 432.392C320.652 432.061 320.167 431.896 319.484 431.896C318.62 431.896 317.852 432.125 317.18 432.584ZM326.127 430.888V432.296C326.607 431.283 327.46 430.776 328.687 430.776C329.476 430.776 330.106 431.016 330.575 431.496C331.044 431.976 331.279 432.616 331.279 433.416V439H330.015V433.752C330.015 433.155 329.86 432.701 329.551 432.392C329.252 432.072 328.858 431.912 328.367 431.912C327.759 431.912 327.231 432.147 326.783 432.616C326.346 433.085 326.127 433.736 326.127 434.568V439H324.879V430.888H326.127ZM67.7596 462.792L64.4796 454.888H65.9036L66.9596 457.56L68.3836 461.24C68.4689 460.963 68.8956 459.736 69.6636 457.56L70.6076 454.888H71.9676L69.0396 462.792C68.6236 463.891 68.1276 464.664 67.5516 465.112C66.9862 465.56 66.3356 465.784 65.5996 465.784C65.3222 465.784 65.0982 465.757 64.9276 465.704V464.568C65.0876 464.611 65.2689 464.632 65.4716 464.632C66.5489 464.632 67.3116 464.019 67.7596 462.792ZM81.6844 459.256H80.2764C79.5938 459.256 79.0818 459.389 78.7404 459.656C78.3991 459.923 78.2284 460.259 78.2284 460.664C78.2284 461.069 78.3618 461.4 78.6284 461.656C78.8951 461.901 79.2844 462.024 79.7964 462.024C80.3724 462.024 80.8311 461.864 81.1724 461.544C81.5138 461.213 81.6844 460.797 81.6844 460.296V459.256ZM77.4924 456.584V455.32C78.1004 454.947 78.9004 454.76 79.8924 454.76C81.9298 454.76 82.9484 455.795 82.9484 457.864V463H81.7004V462.04C81.2844 462.733 80.5271 463.08 79.4284 463.08C78.6711 463.08 78.0578 462.856 77.5884 462.408C77.1298 461.96 76.9004 461.395 76.9004 460.712C76.9004 459.933 77.1938 459.331 77.7804 458.904C78.3778 458.467 79.1884 458.248 80.2124 458.248H81.6844V457.832C81.6844 457.192 81.5404 456.712 81.2524 456.392C80.9644 456.061 80.4791 455.896 79.7964 455.896C78.9324 455.896 78.1644 456.125 77.4924 456.584ZM86.0234 458.984C86.0341 459.859 86.3008 460.589 86.8234 461.176C87.3461 461.752 88.0874 462.04 89.0474 462.04C89.6661 462.04 90.2421 461.864 90.7754 461.512V462.712C90.2634 463.021 89.6341 463.176 88.8874 463.176C87.6074 463.176 86.5888 462.771 85.8314 461.96C85.0848 461.139 84.7114 460.141 84.7114 458.968C84.7114 457.816 85.0848 456.824 85.8314 455.992C86.5888 455.16 87.6181 454.744 88.9194 454.744C89.6128 454.744 90.2314 454.893 90.7754 455.192V456.392C90.2848 456.061 89.7088 455.896 89.0474 455.896C88.1301 455.896 87.3941 456.195 86.8394 456.792C86.2954 457.379 86.0234 458.109 86.0234 458.984ZM93.5547 458.984C93.5654 459.859 93.832 460.589 94.3547 461.176C94.8774 461.752 95.6187 462.04 96.5787 462.04C97.1974 462.04 97.7734 461.864 98.3067 461.512V462.712C97.7947 463.021 97.1654 463.176 96.4187 463.176C95.1387 463.176 94.12 462.771 93.3627 461.96C92.616 461.139 92.2427 460.141 92.2427 458.968C92.2427 457.816 92.616 456.824 93.3627 455.992C94.12 455.16 95.1494 454.744 96.4507 454.744C97.144 454.744 97.7627 454.893 98.3067 455.192V456.392C97.816 456.061 97.24 455.896 96.5787 455.896C95.6614 455.896 94.9254 456.195 94.3707 456.792C93.8267 457.379 93.5547 458.109 93.5547 458.984ZM105.422 458.424V458.104C105.422 457.432 105.241 456.899 104.878 456.504C104.515 456.099 104.014 455.896 103.374 455.896C102.766 455.896 102.249 456.115 101.822 456.552C101.395 456.989 101.145 457.613 101.07 458.424H105.422ZM106.174 461.4V462.584C105.545 462.915 104.777 463.08 103.87 463.08C102.643 463.08 101.651 462.707 100.894 461.96C100.147 461.203 99.7739 460.205 99.7739 458.968C99.7739 457.677 100.11 456.659 100.782 455.912C101.454 455.165 102.318 454.792 103.374 454.792C104.387 454.792 105.193 455.117 105.79 455.768C106.387 456.419 106.686 457.341 106.686 458.536C106.686 458.877 106.659 459.192 106.606 459.48H101.07C101.166 460.28 101.47 460.893 101.982 461.32C102.494 461.747 103.166 461.96 103.998 461.96C104.905 461.96 105.63 461.773 106.174 461.4ZM111.701 461.976C112.363 461.976 112.923 461.731 113.381 461.24C113.851 460.749 114.085 459.965 114.085 458.888C114.085 457.864 113.845 457.112 113.365 456.632C112.885 456.152 112.357 455.912 111.781 455.912C111.109 455.912 110.549 456.184 110.101 456.728C109.664 457.261 109.445 458.029 109.445 459.032C109.445 459.907 109.659 460.616 110.085 461.16C110.512 461.704 111.051 461.976 111.701 461.976ZM114.085 451.688H115.349V463H114.085V461.8C113.509 462.685 112.677 463.128 111.589 463.128C110.512 463.128 109.664 462.728 109.045 461.928C108.437 461.128 108.133 460.157 108.133 459.016C108.133 457.747 108.459 456.723 109.109 455.944C109.76 455.155 110.597 454.76 111.621 454.76C112.677 454.76 113.499 455.213 114.085 456.12V451.688ZM122.859 458.424V458.104C122.859 457.432 122.678 456.899 122.315 456.504C121.953 456.099 121.451 455.896 120.811 455.896C120.203 455.896 119.686 456.115 119.259 456.552C118.833 456.989 118.582 457.613 118.507 458.424H122.859ZM123.611 461.4V462.584C122.982 462.915 122.214 463.08 121.307 463.08C120.081 463.08 119.089 462.707 118.331 461.96C117.585 461.203 117.211 460.205 117.211 458.968C117.211 457.677 117.547 456.659 118.219 455.912C118.891 455.165 119.755 454.792 120.811 454.792C121.825 454.792 122.63 455.117 123.227 455.768C123.825 456.419 124.123 457.341 124.123 458.536C124.123 458.877 124.097 459.192 124.043 459.48H118.507C118.603 460.28 118.907 460.893 119.419 461.32C119.931 461.747 120.603 461.96 121.435 461.96C122.342 461.96 123.067 461.773 123.611 461.4ZM127.299 454.888V456.312C127.725 455.309 128.461 454.808 129.507 454.808C129.699 454.808 129.848 454.819 129.955 454.84V456.088C129.731 456.013 129.501 455.976 129.267 455.976C128.701 455.976 128.232 456.237 127.859 456.76C127.485 457.283 127.299 457.885 127.299 458.568V463H126.035L126.051 454.888H127.299ZM139.544 459.256H138.136C137.453 459.256 136.941 459.389 136.6 459.656C136.258 459.923 136.088 460.259 136.088 460.664C136.088 461.069 136.221 461.4 136.488 461.656C136.754 461.901 137.144 462.024 137.656 462.024C138.232 462.024 138.69 461.864 139.032 461.544C139.373 461.213 139.544 460.797 139.544 460.296V459.256ZM135.352 456.584V455.32C135.96 454.947 136.76 454.76 137.752 454.76C139.789 454.76 140.808 455.795 140.808 457.864V463H139.56V462.04C139.144 462.733 138.386 463.08 137.288 463.08C136.53 463.08 135.917 462.856 135.448 462.408C134.989 461.96 134.76 461.395 134.76 460.712C134.76 459.933 135.053 459.331 135.64 458.904C136.237 458.467 137.048 458.248 138.072 458.248H139.544V457.832C139.544 457.192 139.4 456.712 139.112 456.392C138.824 456.061 138.338 455.896 137.656 455.896C136.792 455.896 136.024 456.125 135.352 456.584ZM151.997 454.888H153.261V463H151.997V461.592C151.57 462.595 150.722 463.096 149.453 463.096C148.653 463.096 148.018 462.861 147.549 462.392C147.09 461.912 146.861 461.272 146.861 460.472V454.888H148.125V460.152C148.125 460.739 148.274 461.187 148.573 461.496C148.872 461.805 149.277 461.96 149.789 461.96C150.461 461.96 150.994 461.725 151.389 461.256C151.794 460.787 151.997 460.152 151.997 459.352V454.888ZM156.846 454.888V456.296C157.326 455.283 158.179 454.776 159.406 454.776C160.195 454.776 160.824 455.016 161.294 455.496C161.763 455.976 161.998 456.616 161.998 457.416V463H160.734V457.752C160.734 457.155 160.579 456.701 160.27 456.392C159.971 456.072 159.576 455.912 159.086 455.912C158.478 455.912 157.95 456.147 157.502 456.616C157.064 457.085 156.846 457.736 156.846 458.568V463H155.598V454.888H156.846ZM172.561 455.16V456.36C172.07 456.061 171.398 455.912 170.545 455.912C170.118 455.912 169.777 456.013 169.521 456.216C169.275 456.408 169.153 456.659 169.153 456.968C169.153 457.16 169.19 457.331 169.265 457.48C169.339 457.619 169.483 457.757 169.697 457.896C169.921 458.035 170.081 458.131 170.177 458.184C170.283 458.227 170.507 458.323 170.849 458.472C171.531 458.749 172.065 459.064 172.449 459.416C172.833 459.768 173.025 460.243 173.025 460.84C173.025 461.533 172.779 462.083 172.289 462.488C171.809 462.893 171.147 463.096 170.305 463.096C169.323 463.096 168.529 462.931 167.921 462.6V461.368C168.635 461.795 169.403 462.008 170.225 462.008C170.715 462.008 171.089 461.912 171.345 461.72C171.601 461.528 171.729 461.267 171.729 460.936C171.729 460.552 171.585 460.253 171.297 460.04C171.019 459.827 170.55 459.587 169.889 459.32C169.281 459.085 168.79 458.792 168.417 458.44C168.054 458.088 167.873 457.613 167.873 457.016C167.873 456.344 168.123 455.811 168.625 455.416C169.137 455.011 169.771 454.808 170.529 454.808C171.371 454.808 172.049 454.925 172.561 455.16ZM174.802 463V454.888H176.066V463H174.802ZM174.834 452.936C174.685 452.776 174.61 452.579 174.61 452.344C174.61 452.109 174.685 451.912 174.834 451.752C174.994 451.592 175.192 451.512 175.426 451.512C175.661 451.512 175.858 451.592 176.018 451.752C176.178 451.912 176.258 452.109 176.258 452.344C176.258 452.579 176.178 452.776 176.018 452.936C175.858 453.085 175.661 453.16 175.426 453.16C175.192 453.16 174.994 453.085 174.834 452.936ZM179.721 454.888V456.296C180.201 455.283 181.054 454.776 182.281 454.776C183.07 454.776 183.699 455.016 184.169 455.496C184.638 455.976 184.873 456.616 184.873 457.416V463H183.609V457.752C183.609 457.155 183.454 456.701 183.145 456.392C182.846 456.072 182.451 455.912 181.961 455.912C181.353 455.912 180.825 456.147 180.377 456.616C179.939 457.085 179.721 457.736 179.721 458.568V463H178.473V454.888H179.721ZM196.972 454.888V463H195.708V455.912H192.988V463H191.724V455.912H190.332V454.888H191.724V454.136C191.724 453.347 191.937 452.723 192.364 452.264C192.79 451.805 193.393 451.576 194.172 451.576C194.929 451.576 195.67 451.757 196.396 452.12V453.288C195.649 452.904 194.924 452.712 194.22 452.712C193.398 452.712 192.988 453.192 192.988 454.152V454.888H196.972ZM200.486 454.888V456.296C200.966 455.283 201.82 454.776 203.046 454.776C203.836 454.776 204.465 455.016 204.934 455.496C205.404 455.976 205.638 456.616 205.638 457.416V463H204.374V457.752C204.374 457.155 204.22 456.701 203.91 456.392C203.612 456.072 203.217 455.912 202.726 455.912C202.118 455.912 201.59 456.147 201.142 456.616C200.705 457.085 200.486 457.736 200.486 458.568V463H199.238V454.888H200.486ZM214.873 461.976C215.535 461.976 216.095 461.731 216.553 461.24C217.023 460.749 217.257 459.965 217.257 458.888C217.257 457.864 217.017 457.112 216.537 456.632C216.057 456.152 215.529 455.912 214.953 455.912C214.281 455.912 213.721 456.184 213.273 456.728C212.836 457.261 212.617 458.029 212.617 459.032C212.617 459.907 212.831 460.616 213.257 461.16C213.684 461.704 214.223 461.976 214.873 461.976ZM217.257 451.688H218.521V463H217.257V461.8C216.681 462.685 215.849 463.128 214.761 463.128C213.684 463.128 212.836 462.728 212.217 461.928C211.609 461.128 211.305 460.157 211.305 459.016C211.305 457.747 211.631 456.723 212.281 455.944C212.932 455.155 213.769 454.76 214.793 454.76C215.849 454.76 216.671 455.213 217.257 456.12V451.688ZM226.031 458.424V458.104C226.031 457.432 225.85 456.899 225.487 456.504C225.125 456.099 224.623 455.896 223.983 455.896C223.375 455.896 222.858 456.115 222.431 456.552C222.005 456.989 221.754 457.613 221.679 458.424H226.031ZM226.783 461.4V462.584C226.154 462.915 225.386 463.08 224.479 463.08C223.253 463.08 222.261 462.707 221.503 461.96C220.757 461.203 220.383 460.205 220.383 458.968C220.383 457.677 220.719 456.659 221.391 455.912C222.063 455.165 222.927 454.792 223.983 454.792C224.997 454.792 225.802 455.117 226.399 455.768C226.997 456.419 227.295 457.341 227.295 458.536C227.295 458.877 227.269 459.192 227.215 459.48H221.679C221.775 460.28 222.079 460.893 222.591 461.32C223.103 461.747 223.775 461.96 224.607 461.96C225.514 461.96 226.239 461.773 226.783 461.4ZM236.217 461.976C236.878 461.976 237.438 461.731 237.897 461.24C238.366 460.749 238.601 459.965 238.601 458.888C238.601 457.864 238.361 457.112 237.881 456.632C237.401 456.152 236.873 455.912 236.297 455.912C235.625 455.912 235.065 456.184 234.617 456.728C234.18 457.261 233.961 458.029 233.961 459.032C233.961 459.907 234.174 460.616 234.601 461.16C235.028 461.704 235.566 461.976 236.217 461.976ZM238.601 451.688H239.865V463H238.601V461.8C238.025 462.685 237.193 463.128 236.105 463.128C235.028 463.128 234.18 462.728 233.561 461.928C232.953 461.128 232.649 460.157 232.649 459.016C232.649 457.747 232.974 456.723 233.625 455.944C234.276 455.155 235.113 454.76 236.137 454.76C237.193 454.76 238.014 455.213 238.601 456.12V451.688ZM247.375 458.424V458.104C247.375 457.432 247.194 456.899 246.831 456.504C246.468 456.099 245.967 455.896 245.327 455.896C244.719 455.896 244.202 456.115 243.775 456.552C243.348 456.989 243.098 457.613 243.023 458.424H247.375ZM248.127 461.4V462.584C247.498 462.915 246.73 463.08 245.823 463.08C244.596 463.08 243.604 462.707 242.847 461.96C242.1 461.203 241.727 460.205 241.727 458.968C241.727 457.677 242.063 456.659 242.735 455.912C243.407 455.165 244.271 454.792 245.327 454.792C246.34 454.792 247.146 455.117 247.743 455.768C248.34 456.419 248.639 457.341 248.639 458.536C248.639 458.877 248.612 459.192 248.559 459.48H243.023C243.119 460.28 243.423 460.893 243.935 461.32C244.447 461.747 245.119 461.96 245.951 461.96C246.858 461.96 247.583 461.773 248.127 461.4ZM254.982 455.16V456.36C254.492 456.061 253.82 455.912 252.966 455.912C252.54 455.912 252.198 456.013 251.942 456.216C251.697 456.408 251.574 456.659 251.574 456.968C251.574 457.16 251.612 457.331 251.686 457.48C251.761 457.619 251.905 457.757 252.118 457.896C252.342 458.035 252.502 458.131 252.598 458.184C252.705 458.227 252.929 458.323 253.27 458.472C253.953 458.749 254.486 459.064 254.87 459.416C255.254 459.768 255.446 460.243 255.446 460.84C255.446 461.533 255.201 462.083 254.71 462.488C254.23 462.893 253.569 463.096 252.726 463.096C251.745 463.096 250.95 462.931 250.342 462.6V461.368C251.057 461.795 251.825 462.008 252.646 462.008C253.137 462.008 253.51 461.912 253.766 461.72C254.022 461.528 254.15 461.267 254.15 460.936C254.15 460.552 254.006 460.253 253.718 460.04C253.441 459.827 252.972 459.587 252.31 459.32C251.702 459.085 251.212 458.792 250.838 458.44C250.476 458.088 250.294 457.613 250.294 457.016C250.294 456.344 250.545 455.811 251.046 455.416C251.558 455.011 252.193 454.808 252.95 454.808C253.793 454.808 254.47 454.925 254.982 455.16ZM257.992 458.984C258.003 459.859 258.27 460.589 258.792 461.176C259.315 461.752 260.056 462.04 261.016 462.04C261.635 462.04 262.211 461.864 262.744 461.512V462.712C262.232 463.021 261.603 463.176 260.856 463.176C259.576 463.176 258.558 462.771 257.8 461.96C257.054 461.139 256.68 460.141 256.68 458.968C256.68 457.816 257.054 456.824 257.8 455.992C258.558 455.16 259.587 454.744 260.888 454.744C261.582 454.744 262.2 454.893 262.744 455.192V456.392C262.254 456.061 261.678 455.896 261.016 455.896C260.099 455.896 259.363 456.195 258.808 456.792C258.264 457.379 257.992 458.109 257.992 458.984ZM269.731 454.888H270.995V463H269.731V461.592C269.305 462.595 268.457 463.096 267.187 463.096C266.387 463.096 265.753 462.861 265.283 462.392C264.825 461.912 264.595 461.272 264.595 460.472V454.888H265.859V460.152C265.859 460.739 266.009 461.187 266.307 461.496C266.606 461.805 267.011 461.96 267.523 461.96C268.195 461.96 268.729 461.725 269.123 461.256C269.529 460.787 269.731 460.152 269.731 459.352V454.888ZM278.5 458.424V458.104C278.5 457.432 278.319 456.899 277.956 456.504C277.593 456.099 277.092 455.896 276.452 455.896C275.844 455.896 275.327 456.115 274.9 456.552C274.473 456.989 274.223 457.613 274.148 458.424H278.5ZM279.252 461.4V462.584C278.623 462.915 277.855 463.08 276.948 463.08C275.721 463.08 274.729 462.707 273.972 461.96C273.225 461.203 272.852 460.205 272.852 458.968C272.852 457.677 273.188 456.659 273.86 455.912C274.532 455.165 275.396 454.792 276.452 454.792C277.465 454.792 278.271 455.117 278.868 455.768C279.465 456.419 279.764 457.341 279.764 458.536C279.764 458.877 279.737 459.192 279.684 459.48H274.148C274.244 460.28 274.548 460.893 275.06 461.32C275.572 461.747 276.244 461.96 277.076 461.96C277.983 461.96 278.708 461.773 279.252 461.4ZM282.939 454.888V456.296C283.419 455.283 284.273 454.776 285.499 454.776C286.289 454.776 286.918 455.016 287.387 455.496C287.857 455.976 288.091 456.616 288.091 457.416V463H286.827V457.752C286.827 457.155 286.673 456.701 286.363 456.392C286.065 456.072 285.67 455.912 285.179 455.912C284.571 455.912 284.043 456.147 283.595 456.616C283.158 457.085 282.939 457.736 282.939 458.568V463H281.691V454.888H282.939ZM292.076 455.912V460.664C292.076 461.528 292.481 461.96 293.292 461.96C293.708 461.96 294.076 461.837 294.396 461.592V462.792C294.044 462.984 293.649 463.08 293.212 463.08C291.612 463.08 290.812 462.264 290.812 460.632V455.912H289.516V454.888H290.812V452.872H292.076V454.888H294.316V455.912H292.076ZM299.534 463.144C298.372 463.144 297.449 462.755 296.766 461.976C296.094 461.187 295.758 460.195 295.758 459C295.758 457.795 296.105 456.792 296.798 455.992C297.502 455.181 298.414 454.776 299.534 454.776C300.761 454.776 301.705 455.171 302.366 455.96C303.038 456.749 303.374 457.752 303.374 458.968C303.374 460.173 303.033 461.171 302.35 461.96C301.668 462.749 300.729 463.144 299.534 463.144ZM299.534 455.896C298.766 455.896 298.164 456.195 297.726 456.792C297.289 457.389 297.07 458.12 297.07 458.984C297.07 459.827 297.294 460.547 297.742 461.144C298.19 461.731 298.788 462.024 299.534 462.024C300.345 462.024 300.969 461.736 301.406 461.16C301.844 460.573 302.062 459.848 302.062 458.984C302.062 458.088 301.854 457.352 301.438 456.776C301.022 456.189 300.388 455.896 299.534 455.896ZM309.639 455.16V456.36C309.148 456.061 308.476 455.912 307.623 455.912C307.196 455.912 306.855 456.013 306.599 456.216C306.353 456.408 306.231 456.659 306.231 456.968C306.231 457.16 306.268 457.331 306.343 457.48C306.417 457.619 306.561 457.757 306.775 457.896C306.999 458.035 307.159 458.131 307.255 458.184C307.361 458.227 307.585 458.323 307.927 458.472C308.609 458.749 309.143 459.064 309.527 459.416C309.911 459.768 310.103 460.243 310.103 460.84C310.103 461.533 309.857 462.083 309.367 462.488C308.887 462.893 308.225 463.096 307.383 463.096C306.401 463.096 305.607 462.931 304.999 462.6V461.368C305.713 461.795 306.481 462.008 307.303 462.008C307.793 462.008 308.167 461.912 308.423 461.72C308.679 461.528 308.807 461.267 308.807 460.936C308.807 460.552 308.663 460.253 308.375 460.04C308.097 459.827 307.628 459.587 306.967 459.32C306.359 459.085 305.868 458.792 305.495 458.44C305.132 458.088 304.951 457.613 304.951 457.016C304.951 456.344 305.201 455.811 305.703 455.416C306.215 455.011 306.849 454.808 307.607 454.808C308.449 454.808 309.127 454.925 309.639 455.16Z" fill="#333333"/>
<g clip-path="url(#clip0)">
<path d="M210.639 231.287C209.753 231.135 208.912 230.79 208.174 230.277C207.436 229.765 206.819 229.096 206.367 228.319C205.915 227.543 205.639 226.676 205.558 225.781C205.477 224.885 205.593 223.983 205.898 223.138L178.927 176.465L191.675 172.451L214.202 219.538C215.588 220.145 216.703 221.239 217.336 222.614C217.969 223.988 218.075 225.548 217.636 226.996C217.197 228.444 216.242 229.681 214.952 230.471C213.663 231.262 212.128 231.552 210.639 231.287L210.639 231.287Z" fill="#FFB8B8"/>
<path d="M179.876 184.028C179.488 183.956 179.122 183.795 178.807 183.558C178.491 183.321 178.235 183.014 178.058 182.662L170.941 168.622C170.67 168.087 170.594 167.473 170.727 166.888C170.859 166.303 171.192 165.782 171.668 165.416L179.285 159.554C179.77 159.177 180.375 158.987 180.988 159.019C181.602 159.051 182.184 159.302 182.627 159.728L193.191 169.77C193.449 170.015 193.653 170.312 193.791 170.64C193.929 170.969 193.997 171.322 193.991 171.679C193.986 172.035 193.906 172.386 193.758 172.71C193.609 173.034 193.396 173.324 193.13 173.56L182.066 183.42C181.772 183.683 181.422 183.875 181.042 183.98C180.662 184.086 180.263 184.102 179.876 184.028H179.876Z" fill="#4759DD"/>
<path d="M419 121.244C419 85.2982 389.875 0 353.947 0C318.02 0 288.895 85.2982 288.895 121.244C288.892 129.793 290.573 138.259 293.841 146.157C297.109 154.056 301.901 161.233 307.942 167.279C313.983 173.325 321.155 178.121 329.049 181.393C336.942 184.665 345.403 186.349 353.947 186.349C362.492 186.349 370.952 184.665 378.846 181.393C386.74 178.121 393.912 173.325 399.953 167.279C405.994 161.233 410.785 154.056 414.053 146.157C417.322 138.259 419.002 129.793 419 121.244Z" fill="#20DEB0"/>
<path d="M353.948 319.195C354.089 319.195 354.225 319.139 354.326 319.038C354.426 318.938 354.482 318.802 354.482 318.66V54.6607C354.482 54.5188 354.426 54.3826 354.326 54.2823C354.225 54.1819 354.089 54.1255 353.948 54.1255C353.806 54.1255 353.67 54.1819 353.569 54.2823C353.469 54.3826 353.413 54.5188 353.413 54.6607V318.66C353.413 318.802 353.469 318.938 353.569 319.038C353.67 319.139 353.806 319.195 353.948 319.195Z" fill="#3F3D56"/>
<path d="M353.947 97.9818C354.018 97.9819 354.087 97.9681 354.152 97.9412C354.217 97.9143 354.276 97.8748 354.326 97.825L380.074 72.0642C380.173 71.9636 380.228 71.8278 380.228 71.6864C380.228 71.545 380.171 71.4095 380.071 71.3095C379.971 71.2095 379.836 71.1532 379.695 71.1528C379.553 71.1524 379.417 71.208 379.317 71.3074L353.569 97.0682C353.494 97.1431 353.443 97.2384 353.423 97.3422C353.402 97.4461 353.413 97.5537 353.453 97.6514C353.494 97.7492 353.562 97.8328 353.65 97.8916C353.738 97.9504 353.842 97.9818 353.947 97.9818V97.9818Z" fill="#3F3D56"/>
<path d="M353.947 142.579C354.053 142.579 354.157 142.548 354.245 142.489C354.333 142.43 354.401 142.346 354.442 142.249C354.482 142.151 354.493 142.043 354.472 141.939C354.451 141.836 354.401 141.74 354.326 141.665L311.206 98.5238C311.106 98.4246 310.97 98.3692 310.829 98.3696C310.688 98.3701 310.552 98.4265 310.453 98.5264C310.353 98.6263 310.296 98.7617 310.296 98.903C310.295 99.0443 310.351 99.18 310.45 99.2806L353.569 142.422C353.619 142.472 353.678 142.512 353.743 142.538C353.808 142.565 353.877 142.579 353.947 142.579Z" fill="#3F3D56"/>
<path d="M392.939 333.75C392.846 333.822 392.748 333.887 392.654 333.957H312.903C311.34 327.622 310.788 321.28 313.122 315.773C316.448 307.926 326.291 303.027 334.116 306.397C335.97 307.217 337.585 308.496 338.809 310.113C341.867 304.636 347.353 300.506 353.684 300.511C361.617 300.517 368.212 307.007 370.365 314.504C373.831 308.651 380.677 304.56 387.368 306.32C398.56 309.263 402.095 326.67 392.939 333.75Z" fill="#F2F2F2"/>
<path d="M78.5541 209.949C78.5541 184.119 57.6113 122.825 31.7771 122.825C5.9428 122.825 -15 184.119 -15 209.949C-14.9906 222.355 -10.0582 234.25 -1.28681 243.02C7.48457 251.789 19.3771 256.715 31.7771 256.715C44.177 256.715 56.0695 251.789 64.8409 243.02C73.6123 234.25 78.5448 222.355 78.5541 209.949Z" fill="#E6E6E6"/>
<path d="M31.777 323.734C31.8275 323.734 31.8775 323.724 31.9241 323.705C31.9708 323.685 32.0132 323.657 32.0489 323.621C32.0846 323.586 32.113 323.543 32.1323 323.497C32.1516 323.45 32.1616 323.4 32.1616 323.349V162.103C32.1612 162.002 32.1205 161.904 32.0485 161.832C31.9764 161.76 31.8787 161.72 31.777 161.72C31.6752 161.72 31.5776 161.76 31.5055 161.832C31.4334 161.904 31.3927 162.002 31.3923 162.103V323.349C31.3923 323.4 31.4023 323.45 31.4217 323.497C31.441 323.543 31.4693 323.586 31.505 323.621C31.5408 323.657 31.5832 323.685 31.6298 323.705C31.6765 323.724 31.7265 323.734 31.777 323.734Z" fill="#3F3D56"/>
<path d="M31.7771 193.233C31.8276 193.233 31.8777 193.223 31.9244 193.204C31.971 193.185 32.0134 193.156 32.0491 193.12L50.5634 174.609C50.6355 174.537 50.676 174.439 50.6759 174.337C50.6759 174.235 50.6353 174.137 50.5632 174.065C50.491 173.993 50.3932 173.953 50.2913 173.953C50.1893 173.953 50.0915 173.993 50.0194 174.065L31.5051 192.577C31.4514 192.63 31.4148 192.699 31.3999 192.774C31.3851 192.848 31.3928 192.926 31.4219 192.996C31.451 193.066 31.5003 193.126 31.5635 193.168C31.6268 193.211 31.7011 193.233 31.7771 193.233L31.7771 193.233Z" fill="#3F3D56"/>
<path d="M31.777 225.28C31.853 225.28 31.9274 225.257 31.9906 225.215C32.0539 225.173 32.1031 225.113 32.1323 225.042C32.1614 224.972 32.169 224.895 32.1542 224.82C32.1394 224.746 32.1028 224.677 32.049 224.623L1.04347 193.623C0.971397 193.55 0.873611 193.51 0.771635 193.51C0.669658 193.51 0.571846 193.55 0.499706 193.622C0.427566 193.694 0.387008 193.792 0.386963 193.894C0.386918 193.996 0.427385 194.094 0.499461 194.166L31.505 225.167C31.5407 225.203 31.5831 225.231 31.6298 225.251C31.6764 225.27 31.7265 225.28 31.777 225.28Z" fill="#3F3D56"/>
<path d="M59.6042 333.808C59.5373 333.86 59.467 333.906 59.3995 333.957H2.05281C0.929129 329.405 0.532331 324.848 2.21078 320.891C4.60213 315.252 11.6798 311.732 17.3066 314.153C18.6395 314.742 19.8008 315.661 20.6812 316.823C22.8801 312.887 26.8245 309.92 31.3774 309.923C37.0815 309.927 41.8241 314.591 43.3717 319.979C45.8641 315.773 50.7868 312.833 55.5983 314.098C63.6461 316.213 66.1881 328.721 59.6042 333.808Z" fill="#F2F2F2"/>
<path d="M82.0864 333.957H285.888C286.03 333.957 286.166 333.9 286.266 333.8C286.366 333.7 286.423 333.564 286.423 333.422C286.423 333.28 286.366 333.144 286.266 333.043C286.166 332.943 286.03 332.886 285.888 332.886H82.0864C81.9446 332.886 81.8085 332.943 81.7082 333.043C81.6079 333.144 81.5515 333.28 81.5515 333.422C81.5515 333.564 81.6079 333.7 81.7082 333.8C81.8085 333.9 81.9446 333.957 82.0864 333.957Z" fill="#F2F2F2"/>
<path d="M178.559 187.402C178.173 187.32 177.812 187.149 177.503 186.903C177.194 186.657 176.946 186.344 176.779 185.986L170.052 171.756C169.796 171.213 169.737 170.598 169.886 170.016C170.034 169.435 170.381 168.924 170.867 168.571L178.642 162.921C179.138 162.558 179.748 162.385 180.36 162.433C180.973 162.482 181.547 162.75 181.979 163.187L192.261 173.517C192.513 173.77 192.709 174.072 192.838 174.404C192.966 174.736 193.025 175.091 193.009 175.447C192.994 175.803 192.904 176.152 192.747 176.472C192.59 176.792 192.368 177.075 192.096 177.305L180.765 186.855C180.464 187.11 180.108 187.292 179.726 187.387C179.343 187.482 178.944 187.487 178.559 187.402Z" fill="#4759DD"/>
<path d="M135.941 322.318L142.708 324.16L153.031 298.92L143.043 296.201L135.941 322.318Z" fill="#FFB8B8"/>
<path d="M154.05 334L132.781 328.21L135.017 319.988L148.602 323.686C150.64 324.241 152.374 325.583 153.423 327.417C154.472 329.251 154.75 331.427 154.196 333.466L154.05 334Z" fill="#2F2E41"/>
<path d="M193.795 327.484L200.808 327.484L204.145 300.418L193.793 300.418L193.795 327.484Z" fill="#FFB8B8"/>
<path d="M214.335 333.999L192.292 334L192.292 325.479L206.371 325.479C208.483 325.478 210.509 326.318 212.002 327.812C213.496 329.306 214.335 331.332 214.335 333.446L214.335 333.999Z" fill="#2F2E41"/>
<path d="M193.165 144.662C198.652 139.172 198.652 130.271 193.165 124.781C187.678 119.291 178.781 119.291 173.294 124.781C167.807 130.271 167.807 139.172 173.294 144.662C178.781 150.152 187.678 150.152 193.165 144.662Z" fill="#FFB8B8"/>
<path d="M191.674 305.959L183.82 248.501C183.762 248.075 183.568 247.679 183.267 247.371C182.966 247.064 182.574 246.861 182.149 246.794C181.724 246.727 181.289 246.799 180.908 246.998C180.527 247.198 180.22 247.515 180.033 247.903L153.304 303.37C153.032 303.927 152.57 304.368 152 304.613C151.43 304.858 150.792 304.891 150.201 304.704L139.9 301.406C139.263 301.205 138.729 300.762 138.413 300.172C138.096 299.582 138.023 298.892 138.208 298.249C150.737 253.991 161.555 221.063 173.626 204.221C173.674 204.155 173.722 204.093 173.775 204.033L176.452 200.907C176.693 200.625 176.993 200.399 177.33 200.243C177.668 200.088 178.035 200.008 178.406 200.008H198.115C198.63 200.006 199.134 200.16 199.56 200.449C199.987 200.738 200.316 201.148 200.506 201.627L201.019 202.911C201.06 203.014 201.095 203.12 201.123 203.227C207.566 227.761 209.236 260.345 206.381 305.769C206.338 306.423 206.049 307.037 205.572 307.486C205.094 307.934 204.464 308.185 203.809 308.186H194.224C193.603 308.184 193.002 307.958 192.534 307.549C192.065 307.14 191.76 306.575 191.674 305.959Z" fill="#2F2E41"/>
<path d="M172.674 203.054C169.834 198.508 156.286 175.021 168.447 159.113C168.666 158.832 168.806 158.498 168.855 158.145L169.338 154.446C169.382 154.1 169.496 153.767 169.673 153.467C169.85 153.167 170.086 152.906 170.367 152.7C170.648 152.494 170.968 152.347 171.308 152.268C171.647 152.19 171.999 152.181 172.342 152.243C176.569 153.012 184.532 155.432 190.364 162.991C190.642 163.355 190.817 163.787 190.872 164.242L191.194 166.818C191.234 167.157 191.362 167.479 191.563 167.754C191.765 168.029 192.034 168.248 192.345 168.388C196.064 170.078 204.388 176.662 201.353 201.241C201.28 201.852 200.99 202.418 200.535 202.833C200.081 203.248 199.492 203.487 198.877 203.504L174.936 204.26C174.909 204.261 174.882 204.261 174.855 204.261C174.419 204.261 173.991 204.15 173.609 203.939C173.228 203.728 172.906 203.424 172.674 203.054Z" fill="#4759DD"/>
<path d="M162.965 240.724C162.357 240.062 161.901 239.275 161.63 238.418C161.359 237.561 161.279 236.655 161.395 235.763C161.512 234.872 161.823 234.017 162.305 233.259C162.788 232.501 163.431 231.858 164.189 231.375L171.343 177.939L183.886 182.556L172.961 233.602C173.687 234.93 173.901 236.478 173.563 237.953C173.224 239.428 172.357 240.727 171.124 241.605C169.892 242.483 168.381 242.878 166.877 242.716C165.373 242.553 163.981 241.844 162.965 240.724Z" fill="#FFB8B8"/>
<path d="M167.476 184.507C167.213 184.213 167.021 183.862 166.916 183.481C166.811 183.101 166.796 182.701 166.871 182.314L169.811 166.849C169.924 166.26 170.238 165.728 170.701 165.346C171.163 164.963 171.745 164.755 172.345 164.755L181.954 164.772C182.569 164.77 183.163 164.989 183.63 165.39C184.096 165.79 184.403 166.345 184.494 166.953L186.723 181.36C186.777 181.713 186.758 182.072 186.667 182.416C186.575 182.761 186.413 183.082 186.191 183.361C185.969 183.639 185.692 183.869 185.376 184.034C185.061 184.2 184.715 184.299 184.36 184.324L169.58 185.364C169.187 185.393 168.793 185.331 168.428 185.182C168.063 185.033 167.737 184.802 167.476 184.507L167.476 184.507Z" fill="#4759DD"/>
<path d="M167.77 125.978C168.814 122.813 169.584 119.564 170.073 116.267C170.226 114.348 169.735 112.282 168.338 110.958C165.723 108.479 161.281 109.66 158.546 112.006C154.595 115.396 152.624 120.605 151.879 125.76C151.134 130.914 151.462 136.156 151.282 141.361C151.103 146.566 150.359 151.918 147.707 156.4C145.055 160.881 140.133 164.321 134.941 163.94C132.846 163.826 130.856 162.983 129.317 161.555C128.562 160.836 127.99 159.946 127.649 158.961C127.308 157.975 127.209 156.922 127.359 155.89C124.705 160.643 126.051 167.086 130.008 170.823C133.966 174.56 140.054 175.617 145.257 174.021C150.46 172.426 154.743 168.425 157.3 163.619C159.858 158.813 160.796 153.261 160.66 147.818C160.556 143.638 159.845 139.424 160.551 135.303C161.257 131.182 163.835 126.998 167.9 126.027L167.77 125.978Z" fill="#2F2E41"/>
<path d="M180.906 147.79C180.355 146.915 179.998 145.932 179.86 144.907C179.722 143.881 179.807 142.839 180.108 141.849C180.409 140.859 180.92 139.946 181.606 139.172C182.291 138.398 183.136 137.78 184.081 137.361C186.629 136.233 189.575 136.665 192.309 136.129C197.208 135.17 201.241 130.693 201.532 125.708C201.823 120.722 198.227 115.739 193.368 114.594C191.43 114.137 189.41 114.244 187.421 114.355C185.512 114.46 183.601 114.566 181.701 114.784C177.941 115.215 174.138 116.126 171.008 118.256C167.879 120.385 165.516 123.912 165.557 127.698C165.603 132.019 167.64 140.621 170.473 143.883C173.206 147.031 175.287 148.165 179.625 148.379L180.906 147.79Z" fill="#2F2E41"/>
<path d="M233.741 199.646H227.141V193.043C227.141 192.83 227.056 192.626 226.906 192.476C226.755 192.325 226.551 192.241 226.338 192.241C226.126 192.241 225.922 192.325 225.771 192.476C225.621 192.626 225.536 192.83 225.536 193.043V199.646H218.936C218.724 199.646 218.52 199.731 218.369 199.882C218.219 200.032 218.134 200.236 218.134 200.449C218.134 200.662 218.219 200.866 218.369 201.017C218.52 201.167 218.724 201.252 218.936 201.252H225.536V207.855C225.536 208.068 225.621 208.272 225.771 208.423C225.922 208.573 226.126 208.658 226.338 208.658C226.551 208.658 226.755 208.573 226.906 208.423C227.056 208.272 227.141 208.068 227.141 207.855V201.252H233.741C233.953 201.252 234.157 201.167 234.308 201.017C234.458 200.866 234.543 200.662 234.543 200.449C234.543 200.236 234.458 200.032 234.308 199.882C234.157 199.731 233.953 199.646 233.741 199.646Z" fill="#4759DD"/>
<path d="M215.019 97.4257H208.419V90.8226C208.419 90.6097 208.334 90.4055 208.184 90.255C208.033 90.1044 207.829 90.0198 207.617 90.0198C207.404 90.0198 207.2 90.1044 207.049 90.255C206.899 90.4055 206.814 90.6097 206.814 90.8226V97.4257H200.214C200.002 97.4257 199.798 97.5103 199.647 97.6608C199.497 97.8114 199.412 98.0156 199.412 98.2285C199.412 98.4414 199.497 98.6456 199.647 98.7961C199.798 98.9467 200.002 99.0313 200.214 99.0313H206.814V105.634C206.814 105.847 206.899 106.051 207.049 106.202C207.2 106.353 207.404 106.437 207.617 106.437C207.829 106.437 208.033 106.353 208.184 106.202C208.334 106.051 208.419 105.847 208.419 105.634V99.0313H215.019C215.231 99.0313 215.435 98.9467 215.586 98.7961C215.736 98.6456 215.821 98.4414 215.821 98.2285C215.821 98.0156 215.736 97.8114 215.586 97.6608C215.435 97.5103 215.231 97.4257 215.019 97.4257Z" fill="#4759DD"/>
<path d="M129.433 127.396H122.833V120.793C122.833 120.58 122.749 120.376 122.598 120.225C122.448 120.075 122.244 119.99 122.031 119.99C121.818 119.99 121.614 120.075 121.463 120.225C121.313 120.376 121.228 120.58 121.228 120.793V127.396H114.629C114.416 127.396 114.212 127.481 114.061 127.631C113.911 127.782 113.826 127.986 113.826 128.199C113.826 128.412 113.911 128.616 114.061 128.767C114.212 128.917 114.416 129.002 114.629 129.002H121.228V135.605C121.228 135.818 121.313 136.022 121.463 136.172C121.614 136.323 121.818 136.408 122.031 136.408C122.244 136.408 122.448 136.323 122.598 136.172C122.749 136.022 122.833 135.818 122.833 135.605V129.002H129.433C129.646 129.002 129.85 128.917 130 128.767C130.151 128.616 130.235 128.412 130.235 128.199C130.235 127.986 130.151 127.782 130 127.631C129.85 127.481 129.646 127.396 129.433 127.396Z" fill="#4759DD"/>
</g>
<defs>
<clipPath id="clip0">
<rect width="434" height="334" fill="white" transform="translate(-15)"/>
</clipPath>
</defs>
</svg>
