<svg width="23" height="27" viewBox="0 0 23 27" fill="none" xmlns="http://www.w3.org/2000/svg">
<path fill-rule="evenodd" clip-rule="evenodd" d="M9.34375 3.14659C5.62373 4.1036 2.875 7.47919 2.875 11.4996V17.2492C2.875 17.7789 2.44458 18.2083 1.91767 18.2083C0.858568 18.2083 0 19.0686 0 20.125C0 21.1835 0.85965 22.0417 1.92141 22.0417H21.0786C22.1398 22.0417 23 21.1814 23 20.125C23 19.0665 22.1374 18.2083 21.0823 18.2083C20.5536 18.2083 20.125 17.7822 20.125 17.2492V11.4996C20.125 7.48078 17.3768 4.10393 13.6562 3.14662V2.15666C13.6562 0.962765 12.6909 0 11.5 0C10.3116 0 9.34375 0.96557 9.34375 2.15666V3.14659ZM8.14583 23H14.8542C14.8542 24.8525 13.3525 26.3542 11.5 26.3542C9.64754 26.3542 8.14583 24.8525 8.14583 23Z" fill="#FFD42F"/>
</svg>
