<svg width="27" height="24" viewBox="0 0 27 24" fill="none" xmlns="http://www.w3.org/2000/svg">
<path d="M24.918 2.12177C24.2583 1.44911 23.475 0.915505 22.6129 0.551444C21.7507 0.187383 20.8267 0 19.8934 0C18.9602 0 18.0361 0.187383 17.174 0.551444C16.3119 0.915505 15.5286 1.44911 14.8688 2.12177L13.4997 3.51714L12.1305 2.12177C10.7979 0.763676 8.99047 0.00070395 7.10587 0.000703964C5.22128 0.000703978 3.41387 0.763676 2.08126 2.12177C0.748652 3.47987 1.40413e-08 5.32185 0 7.24249C-1.40413e-08 9.16313 0.748652 11.0051 2.08126 12.3632L3.45043 13.7586L13.4997 24L23.5489 13.7586L24.918 12.3632C25.5781 11.6909 26.1017 10.8926 26.4589 10.0139C26.8161 9.13531 27 8.19356 27 7.24249C27 6.29142 26.8161 5.34967 26.4589 4.47104C26.1017 3.59241 25.5781 2.79412 24.918 2.12177Z" fill="#8230DF"/>
</svg>
