<svg width="27" height="24" viewBox="0 0 34 36" fill="none" xmlns="http://www.w3.org/2000/svg">
<path fill-rule="evenodd" clip-rule="evenodd" d="M15.5424 1.93067V7.82131C15.2676 7.99149 14.9899 8.16672 14.7092 8.34701C11.7463 10.2503 8.40255 11.0422 5.80639 10.6053C5.30802 10.5213 4.51326 10.3409 3.74753 10.01C2.96451 9.67159 2.33055 9.22688 1.99874 8.68232C1.87937 8.48641 1.8965 8.38824 1.90817 8.34099C1.92828 8.25952 1.99406 8.13791 2.14606 7.98809C2.29385 7.84241 2.47537 7.7174 2.6329 7.6251C2.70894 7.58054 2.77324 7.54718 2.81623 7.52598C2.83758 7.51545 2.85325 7.50813 2.862 7.50412L2.86846 7.5012L15.5424 1.93067ZM2.11443 5.75735L14.8191 0.173265C15.3199 -0.046377 15.9351 -0.0726504 16.4792 0.184188C16.6985 0.287594 16.9479 0.457118 17.1418 0.731453C17.3422 1.01493 17.4422 1.35266 17.4422 1.71645V6.6995C23.1622 3.49767 27.5636 2.71745 31.4149 4.3605C32.2461 4.71507 32.8884 5.18789 33.304 5.77923C33.6977 6.33938 33.8543 6.96006 33.8107 7.57092L33.8106 8.01579C33.8105 8.39806 33.8102 8.94691 33.8097 9.6133C33.8086 10.946 33.8065 12.749 33.8022 14.6298C33.7936 18.3827 33.7765 22.4701 33.7418 23.7289C33.6988 25.2848 32.9441 26.4236 32.2493 27.1443C31.9007 27.506 31.5562 27.7748 31.2974 27.9544C31.1673 28.0447 31.057 28.1137 30.9761 28.1619C30.9355 28.186 30.9022 28.205 30.8772 28.2188C30.8691 28.2233 30.8619 28.2273 30.8556 28.2307C30.8521 28.2326 30.849 28.2343 30.8461 28.2358L30.8354 28.2415L30.8314 28.2436L30.829 28.2449C30.8286 28.2451 30.8283 28.2453 30.3901 27.4024C30.7805 28.2684 30.7804 28.2684 30.7803 28.2685L30.1939 28.5328C29.8197 28.7014 29.2837 28.9428 28.6365 29.2343C27.342 29.8172 25.6024 30.6001 23.8219 31.4C20.2719 32.9952 16.5308 34.6712 15.8639 34.9503C15.3911 35.1483 14.9148 35.2082 14.4628 35.0914C14.0138 34.9755 13.696 34.7129 13.4864 34.4591C13.2818 34.2113 13.1614 33.9508 13.0931 33.7697C13.0576 33.6757 13.0328 33.5939 13.0161 33.5324C13.0077 33.5015 13.0013 33.4751 12.9964 33.4543C12.994 33.4438 12.992 33.4347 12.9904 33.427L12.9882 33.4166L12.9873 33.4122L12.9869 33.4102L12.9867 33.4093C12.9866 33.4088 12.9866 33.4084 13.9186 33.225C12.9687 33.225 12.9687 33.2249 12.9687 33.2248V19.0628C12.9687 17.9174 13.6111 17.1305 14.1451 16.6778C14.4164 16.4479 14.6835 16.2822 14.8814 16.1739C14.9815 16.1192 15.0668 16.0775 15.13 16.0484C15.1617 16.0337 15.1881 16.0222 15.2083 16.0135L15.22 16.0086L17.567 14.9365C18.987 14.2877 20.8851 13.4201 22.7982 12.5448C24.7114 11.6695 26.639 10.7866 28.1181 10.1072C28.8578 9.76749 29.4846 9.47893 29.9411 9.26773C30.1695 9.16207 30.3543 9.07622 30.489 9.01318C30.5564 8.98161 30.6101 8.95631 30.6499 8.93737C30.6943 8.91619 30.7098 8.90842 30.7089 8.90888C31.4354 8.53336 31.8544 7.9387 31.9109 7.4848L31.9109 7.4202L31.9109 7.41832C31.9109 7.4183 31.9109 7.41782 31.9168 7.4178C31.9261 7.23865 31.8812 7.0588 31.7496 6.87166C31.5922 6.64768 31.2757 6.36662 30.6694 6.108C27.1512 4.60703 22.7181 5.46079 15.736 9.94553C12.4769 12.0391 8.65971 13.0122 5.49087 12.4788C4.90212 12.3796 3.94664 12.1657 2.99385 11.754C2.05834 11.3497 1.00535 10.7033 0.376312 9.67088C0.0152676 9.07832 -0.0790775 8.46383 0.0636779 7.88561C0.197985 7.34161 0.518253 6.92494 0.812358 6.63504C1.11067 6.34099 1.4353 6.12483 1.67241 5.9859C1.79368 5.91484 1.89881 5.86007 1.97593 5.82204C2.01463 5.80295 2.04668 5.78789 2.07064 5.77691C2.08264 5.77141 2.09265 5.76692 2.10049 5.76345L2.10929 5.75959L2.11062 5.759L2.11443 5.75735ZM15.6001 16.8794C15.9946 17.7435 15.9947 17.7435 15.9948 17.7434L18.3566 16.6646C19.7767 16.0157 21.6752 15.1479 23.5887 14.2725C27.391 12.5328 31.3154 10.734 31.5812 10.5967C31.692 10.5394 31.8016 10.4771 31.9091 10.4101C31.9079 11.624 31.9058 13.0992 31.9023 14.6255C31.8937 18.3935 31.8765 22.4485 31.8426 23.6765C31.8169 24.6072 31.3707 25.3183 30.8815 25.8258C30.6382 26.0782 30.395 26.2681 30.2141 26.3936C30.1244 26.4559 30.0519 26.5011 30.0049 26.529C29.9888 26.5386 29.9757 26.5461 29.9662 26.5515L29.4134 26.8006C29.0394 26.9692 28.5035 27.2105 27.8564 27.5019C26.5622 28.0847 24.8231 28.8674 23.0433 29.6671C19.4729 31.2713 15.7674 32.9311 15.1303 33.1978C15.0383 33.2364 14.9811 33.2473 14.9519 33.25C14.9517 33.2498 14.9515 33.2496 14.9514 33.2494C14.9243 33.2166 14.8946 33.1625 14.8707 33.0992C14.87 33.0972 14.8693 33.0953 14.8686 33.0934V19.0628C14.8686 18.6919 15.0669 18.3871 15.3736 18.1271C15.5226 18.0008 15.676 17.9048 15.7933 17.8407C15.8509 17.8092 15.8969 17.7868 15.9257 17.7736C15.9399 17.767 15.9497 17.7628 15.9541 17.7609C15.9545 17.7607 15.9549 17.7606 15.9552 17.7604L15.9728 17.7535L15.9948 17.7434L15.6001 16.8794ZM13.9186 33.225L12.9687 33.2248V33.3176L12.9866 33.4084L13.9186 33.225ZM30.3901 27.4024L30.7803 28.2685L30.8047 28.2575L30.8283 28.2453L30.3901 27.4024Z" fill="url(#paint0_linear)"/>
<defs>
<linearGradient id="paint0_linear" x1="30.2557" y1="35.1506" x2="23.0477" y2="-3.26866" gradientUnits="userSpaceOnUse">
<stop stop-color="#20E2AC"/>
<stop offset="0.4375" stop-color="#1884F3"/>
<stop offset="1" stop-color="#542FD7"/>
</linearGradient>
</defs>
</svg>
