<?xml version="1.0" encoding="utf-8"?>
<svg width="33" height="33" viewBox="0 0 22 22" fill="none" xmlns="http://www.w3.org/2000/svg">
    <path d="M11.4523 5.57071C12.2718 5.58158 13.0534 5.91211 13.6338 6.49289C14.8623 7.72105 14.8623 9.71471 13.6338 10.9453C12.4039 12.1742 10.4102 12.1742 9.18138 10.9453C7.95076 9.71471 7.95076 7.72105 9.18138 6.49289C9.78179 5.89002 10.6016 5.55845 11.4523 5.57071ZM11.4067 0.571136C6.90872 0.571136 3.25928 4.22023 3.25928 8.71823C3.25928 10.4686 4.0041 13.1216 5.58522 14.9649L11.4067 21.7415L17.2282 14.9649C18.8111 13.1213 19.5556 10.4686 19.5556 8.71823C19.5559 4.21988 15.9068 0.571136 11.4067 0.571136Z" fill="#F2609E"/>
</svg>
