<svg width="27" height="27" viewBox="0 0 27 27" fill="none" xmlns="http://www.w3.org/2000/svg">
    <path d="M14.0551 6.83677C15.0608 6.85011 16.02 7.25575 16.7324 7.96853C18.2401 9.47582 18.2401 11.9226 16.7324 13.4329C15.223 14.941 12.7762 14.941 11.268 13.4329C9.75773 11.9226 9.75773 9.47582 11.268 7.96853C12.0049 7.22865 13.0111 6.82172 14.0551 6.83677ZM13.9991 0.700928C8.47886 0.700928 4 5.17936 4 10.6996C4 12.8479 4.9141 16.1038 6.85456 18.366L13.9991 26.6828L21.1437 18.366C23.0863 16.1033 24 12.8479 24 10.6996C24.0004 5.17893 19.522 0.700928 13.9991 0.700928Z" fill="#FDA8DE"/>
</svg>
