<svg width="24" height="25" viewBox="0 0 24 25" fill="none" xmlns="http://www.w3.org/2000/svg">
<path d="M2.43047 10.8601L5.4011 12.0865C5.06616 12.9284 4.79899 13.7955 4.6021 14.6795L4.48942 15.1895L8.74817 19.4322L9.26035 19.3226C10.1483 19.1265 11.0192 18.8605 11.8648 18.5271L13.0966 21.4847C13.1086 21.514 13.1278 21.5399 13.1524 21.56C13.177 21.5801 13.2062 21.5938 13.2375 21.5999C13.2687 21.6059 13.301 21.6042 13.3313 21.5948C13.3617 21.5853 13.3893 21.5686 13.4115 21.5459L15.2733 19.6923C15.5771 19.3898 15.8139 19.0273 15.9683 18.628C16.1227 18.2288 16.1912 17.8018 16.1696 17.3746L16.103 16.1839C19.55 13.6495 23.0379 9.20531 23.988 1.44909C24.0149 1.25462 23.9964 1.05659 23.9339 0.870421C23.8713 0.684254 23.7664 0.514984 23.6274 0.375804C23.4883 0.236624 23.3189 0.131295 23.1322 0.0680264C22.9456 0.00475797 22.7468 -0.0147404 22.5513 0.0110511C14.7637 0.964643 10.2975 4.4399 7.75199 7.86161L6.55862 7.80042C6.13044 7.77722 5.70212 7.8435 5.30121 7.995C4.9003 8.1465 4.53567 8.37986 4.23078 8.68007L2.36901 10.5337C2.34322 10.5555 2.32368 10.5838 2.31237 10.6156C2.30107 10.6473 2.2984 10.6815 2.30464 10.7146C2.31088 10.7478 2.3258 10.7787 2.3479 10.8042C2.37 10.8298 2.39849 10.849 2.43047 10.8601ZM14.3744 6.34198C14.6971 6.02186 15.1078 5.80409 15.5546 5.7162C16.0015 5.6283 16.4645 5.67421 16.8852 5.84813C17.3059 6.02204 17.6654 6.31617 17.9183 6.69336C18.1712 7.07056 18.3061 7.51391 18.3061 7.96743C18.3061 8.42094 18.1712 8.86429 17.9183 9.24149C17.6654 9.61868 17.3059 9.91281 16.8852 10.0867C16.4645 10.2606 16.0015 10.3066 15.5546 10.2187C15.1078 10.1308 14.6971 9.913 14.3744 9.59287C14.1596 9.37968 13.9891 9.12636 13.8727 8.84743C13.7564 8.5685 13.6965 8.26945 13.6965 7.96743C13.6965 7.66541 13.7564 7.36636 13.8727 7.08743C13.9891 6.8085 14.1596 6.55517 14.3744 6.34198ZM1.87476 19.7713C1.3818 19.5991 0.852431 19.5569 0.338234 19.6489C0.292534 19.6588 0.245074 19.6569 0.20029 19.6435C0.155505 19.6302 0.114858 19.6057 0.0821458 19.5724C0.0415933 19.5322 0.0144385 19.4806 0.00436086 19.4245C-0.00571681 19.3684 0.00176986 19.3105 0.0258064 19.2588C0.571274 18.0911 2.01817 15.7428 4.63796 17.6398C4.65164 17.652 4.66259 17.6669 4.67008 17.6836C4.67758 17.7003 4.68145 17.7184 4.68145 17.7366C4.68145 17.7549 4.67758 17.773 4.67008 17.7897C4.66259 17.8064 4.65164 17.8213 4.63796 17.8335C4.28722 18.1085 4.00641 18.4619 3.81822 18.8649C3.63004 19.268 3.53977 19.7095 3.5547 20.1538C3.55661 20.2059 3.57827 20.2554 3.61532 20.2923C3.65238 20.3292 3.70208 20.3508 3.75445 20.3526C4.19875 20.3704 4.64104 20.2842 5.04577 20.1009C5.45051 19.9175 5.8064 19.6422 6.08485 19.2971C6.0971 19.2821 6.11253 19.2701 6.13003 19.2618C6.14752 19.2536 6.16665 19.2493 6.18601 19.2493C6.20537 19.2493 6.22449 19.2536 6.24199 19.2618C6.25949 19.2701 6.27492 19.2821 6.28716 19.2971C6.65081 19.728 7.65211 21.1354 6.54325 22.4944C6.05916 23.0737 5.36555 23.4401 4.61235 23.5143C3.53678 23.629 1.54953 23.9783 0.737732 24.9013C0.705144 24.9398 0.662687 24.9687 0.61489 24.985C0.567092 25.0013 0.515746 25.0044 0.466327 24.9939C0.416909 24.9834 0.37127 24.9598 0.334279 24.9256C0.297289 24.8913 0.270332 24.8477 0.256286 24.7993C-0.030533 23.8254 -0.476127 21.6479 1.87476 19.7713Z" fill="#4449F0"/>
</svg>
