<svg width="27" height="27" viewBox="0 0 27 27" fill="none" xmlns="http://www.w3.org/2000/svg">
    <path d="M4.43047 11.8601L7.4011 13.0865C7.06616 13.9284 6.79899 14.7955 6.6021 15.6795L6.48942 16.1895L10.7482 20.4322L11.2603 20.3226C12.1483 20.1265 13.0192 19.8605 13.8648 19.5271L15.0966 22.4847C15.1086 22.514 15.1278 22.5399 15.1524 22.56C15.177 22.5801 15.2062 22.5938 15.2375 22.5999C15.2687 22.6059 15.301 22.6042 15.3313 22.5948C15.3617 22.5853 15.3893 22.5686 15.4115 22.5459L17.2733 20.6923C17.5771 20.3898 17.8139 20.0273 17.9683 19.628C18.1227 19.2288 18.1912 18.8018 18.1696 18.3746L18.103 17.1839C21.55 14.6495 25.0379 10.2053 25.988 2.44909C26.0149 2.25462 25.9964 2.05659 25.9339 1.87042C25.8713 1.68425 25.7664 1.51498 25.6274 1.3758C25.4883 1.23662 25.3189 1.13129 25.1322 1.06803C24.9456 1.00476 24.7468 0.98526 24.5513 1.01105C16.7637 1.96464 12.2975 5.4399 9.75199 8.86161L8.55862 8.80042C8.13044 8.77722 7.70212 8.8435 7.30121 8.995C6.9003 9.1465 6.53567 9.37986 6.23078 9.68007L4.36901 11.5337C4.34322 11.5555 4.32368 11.5838 4.31237 11.6156C4.30107 11.6473 4.2984 11.6815 4.30464 11.7146C4.31088 11.7478 4.3258 11.7787 4.3479 11.8042C4.37 11.8298 4.39849 11.849 4.43047 11.8601ZM16.3744 7.34198C16.6971 7.02186 17.1078 6.80409 17.5546 6.7162C18.0015 6.6283 18.4645 6.67421 18.8852 6.84813C19.3059 7.02204 19.6654 7.31617 19.9183 7.69336C20.1712 8.07056 20.3061 8.51391 20.3061 8.96743C20.3061 9.42094 20.1712 9.86429 19.9183 10.2415C19.6654 10.6187 19.3059 10.9128 18.8852 11.0867C18.4645 11.2606 18.0015 11.3066 17.5546 11.2187C17.1078 11.1308 16.6971 10.913 16.3744 10.5929C16.1596 10.3797 15.9891 10.1264 15.8727 9.84743C15.7564 9.5685 15.6965 9.26945 15.6965 8.96743C15.6965 8.66541 15.7564 8.36636 15.8727 8.08743C15.9891 7.8085 16.1596 7.55517 16.3744 7.34198ZM3.87476 20.7713C3.3818 20.5991 2.85243 20.5569 2.33823 20.6489C2.29253 20.6588 2.24507 20.6569 2.20029 20.6435C2.15551 20.6302 2.11486 20.6057 2.08215 20.5724C2.04159 20.5322 2.01444 20.4806 2.00436 20.4245C1.99428 20.3684 2.00177 20.3105 2.02581 20.2588C2.57127 19.0911 4.01817 16.7428 6.63796 18.6398C6.65164 18.652 6.66259 18.6669 6.67008 18.6836C6.67758 18.7003 6.68145 18.7184 6.68145 18.7366C6.68145 18.7549 6.67758 18.773 6.67008 18.7897C6.66259 18.8064 6.65164 18.8213 6.63796 18.8335C6.28722 19.1085 6.00641 19.4619 5.81822 19.8649C5.63004 20.268 5.53977 20.7095 5.5547 21.1538C5.55661 21.2059 5.57827 21.2554 5.61532 21.2923C5.65238 21.3292 5.70208 21.3508 5.75445 21.3526C6.19875 21.3704 6.64104 21.2842 7.04577 21.1009C7.45051 20.9175 7.8064 20.6422 8.08485 20.2971C8.0971 20.2821 8.11253 20.2701 8.13003 20.2618C8.14752 20.2536 8.16665 20.2493 8.18601 20.2493C8.20537 20.2493 8.22449 20.2536 8.24199 20.2618C8.25949 20.2701 8.27492 20.2821 8.28716 20.2971C8.65081 20.728 9.65211 22.1354 8.54325 23.4944C8.05916 24.0737 7.36555 24.4401 6.61235 24.5143C5.53678 24.629 3.54953 24.9783 2.73773 25.9013C2.70514 25.9398 2.66269 25.9687 2.61489 25.985C2.56709 26.0013 2.51575 26.0044 2.46633 25.9939C2.41691 25.9834 2.37127 25.9598 2.33428 25.9256C2.29729 25.8913 2.27033 25.8477 2.25629 25.7993C1.96947 24.8254 1.52387 22.6479 3.87476 20.7713Z" fill="#4759DD"/>
</svg>
