<?xml version="1.0" encoding="utf-8"?>
<svg width="154" height="36" viewBox="0 0 154 36" fill="none" xmlns="http://www.w3.org/2000/svg">
    <path d="M50.375 10.0625C51.2969 10.0625 52.0547 10.1953 52.6484 10.4609C53.2578 10.7266 53.7891 11.0078 54.2422 11.3047V13.4844C53.8047 13.1562 53.2734 12.8516 52.6484 12.5703C52.0234 12.2734 51.3438 12.125 50.6094 12.125C50.1406 12.125 49.6484 12.2109 49.1328 12.3828C48.6328 12.5391 48.2109 12.7969 47.8672 13.1562C47.5234 13.5156 47.3516 13.9766 47.3516 14.5391C47.3516 15.1641 47.5781 15.6406 48.0312 15.9688C48.4844 16.2969 49.0312 16.6094 49.6719 16.9062L51.8281 17.8906C52.9062 18.375 53.7188 18.9141 54.2656 19.5078C54.8125 20.1016 55.0859 20.8906 55.0859 21.875C55.0859 22.7344 54.8359 23.4922 54.3359 24.1484C53.8359 24.7891 53.1797 25.2969 52.3672 25.6719C51.5547 26.0469 50.6641 26.2344 49.6953 26.2344C48.7891 26.2344 47.9531 26.0781 47.1875 25.7656C46.4219 25.4531 45.7578 25.1016 45.1953 24.7109V22.5312C45.8047 22.9531 46.5 23.3359 47.2812 23.6797C48.0781 24.0078 48.9766 24.1719 49.9766 24.1719C50.7578 24.1719 51.4453 23.9766 52.0391 23.5859C52.6328 23.1953 52.9297 22.6562 52.9297 21.9688C52.9297 21.5781 52.8047 21.2422 52.5547 20.9609C52.3203 20.6797 52.0312 20.4375 51.6875 20.2344C51.3438 20.0312 51.0078 19.8594 50.6797 19.7188L48.0781 18.5469C46.9531 18.0469 46.1875 17.4609 45.7812 16.7891C45.375 16.1172 45.1719 15.3438 45.1719 14.4688C45.1719 13.6406 45.4062 12.8984 45.875 12.2422C46.3594 11.5703 47 11.0391 47.7969 10.6484C48.5938 10.2578 49.4531 10.0625 50.375 10.0625ZM64.3672 9.92188C65.5234 9.92188 66.5234 10.1172 67.3672 10.5078C68.2266 10.8828 68.8906 11.3984 69.3594 12.0547C69.8281 12.7109 70.0625 13.4688 70.0625 14.3281C70.0625 15.0938 69.8438 15.7969 69.4062 16.4375C68.9688 17.0625 68.4219 17.5312 67.7656 17.8438C68.2344 17.9375 68.6953 18.1328 69.1484 18.4297C69.6016 18.7266 69.9766 19.1328 70.2734 19.6484C70.5859 20.1641 70.7422 20.8047 70.7422 21.5703C70.7422 22.4453 70.4922 23.2344 69.9922 23.9375C69.4922 24.6406 68.7734 25.2031 67.8359 25.625C66.9141 26.0312 65.8203 26.2344 64.5547 26.2344C63.5859 26.2344 62.5703 26.1719 61.5078 26.0469C60.4609 25.9375 59.5703 25.8047 58.8359 25.6484V10.5078C59.6484 10.3203 60.5312 10.1797 61.4844 10.0859C62.4531 9.97656 63.4141 9.92188 64.3672 9.92188ZM64.2266 11.9141C63.5703 11.9141 62.9766 11.9375 62.4453 11.9844C61.9297 12.0312 61.4297 12.1016 60.9453 12.1953V17.1172H64.625C65.6875 17.1172 66.5 16.8516 67.0625 16.3203C67.625 15.7734 67.9062 15.1406 67.9062 14.4219C67.9062 13.8594 67.7344 13.3984 67.3906 13.0391C67.0469 12.6641 66.5938 12.3828 66.0312 12.1953C65.4844 12.0078 64.8828 11.9141 64.2266 11.9141ZM60.9453 23.9609C61.5078 24.0703 62.1328 24.1484 62.8203 24.1953C63.5078 24.2266 64.0703 24.2422 64.5078 24.2422C65.6797 24.2422 66.6484 24 67.4141 23.5156C68.1953 23.0312 68.5859 22.3828 68.5859 21.5703C68.5859 20.7109 68.2031 20.0703 67.4375 19.6484C66.6875 19.2109 65.7656 18.9922 64.6719 18.9922H60.9453V23.9609ZM79.1328 14.0469C80.3359 14.0469 81.3359 14.2969 82.1328 14.7969C82.9297 15.2969 83.5234 15.9766 83.9141 16.8359C84.3203 17.6953 84.5234 18.6641 84.5234 19.7422V20.8906H75.5234C75.6172 21.5469 75.8438 22.1484 76.2031 22.6953C76.5625 23.2422 77.0312 23.6797 77.6094 24.0078C78.1875 24.3203 78.8516 24.4766 79.6016 24.4766C80.4453 24.4766 81.2344 24.2656 81.9688 23.8438C82.7031 23.4062 83.3203 22.9297 83.8203 22.4141L83.7969 24.5C83.5781 24.7656 83.25 25.0469 82.8125 25.3438C82.3906 25.625 81.8984 25.8594 81.3359 26.0469C80.7891 26.25 80.2109 26.3516 79.6016 26.3516C78.4141 26.3516 77.3594 26.0703 76.4375 25.5078C75.5156 24.9453 74.7891 24.2031 74.2578 23.2812C73.7422 22.3438 73.4844 21.3203 73.4844 20.2109C73.4844 19.1016 73.7266 18.0781 74.2109 17.1406C74.6953 16.2031 75.3594 15.4531 76.2031 14.8906C77.0625 14.3281 78.0391 14.0469 79.1328 14.0469ZM79.1328 15.9219C78.1641 15.9219 77.3672 16.25 76.7422 16.9062C76.1172 17.5469 75.7266 18.3281 75.5703 19.25H82.625C82.5469 18.4844 82.3281 17.8594 81.9688 17.375C81.625 16.8906 81.2031 16.5312 80.7031 16.2969C80.2031 16.0469 79.6797 15.9219 79.1328 15.9219ZM89.6094 14.2812V16.1328C89.8594 15.8203 90.1797 15.5078 90.5703 15.1953C90.9609 14.8672 91.3984 14.5938 91.8828 14.375C92.3828 14.1562 92.8984 14.0469 93.4297 14.0469C94.2266 14.0469 94.9531 14.2266 95.6094 14.5859C96.2656 14.9297 96.7891 15.4609 97.1797 16.1797C97.5703 16.8828 97.7656 17.7734 97.7656 18.8516V26H95.8438L95.8203 19.0391C95.8203 18.0234 95.5938 17.25 95.1406 16.7188C94.7031 16.1875 94.0234 15.9219 93.1016 15.9219C92.4766 15.9219 91.8516 16.1562 91.2266 16.625C90.6172 17.0781 90.0781 17.6094 89.6094 18.2188V26H87.6875V14.2812H89.6094ZM106.227 14.0469C107.43 14.0469 108.43 14.2969 109.227 14.7969C110.023 15.2969 110.617 15.9766 111.008 16.8359C111.414 17.6953 111.617 18.6641 111.617 19.7422V20.8906H102.617C102.711 21.5469 102.938 22.1484 103.297 22.6953C103.656 23.2422 104.125 23.6797 104.703 24.0078C105.281 24.3203 105.945 24.4766 106.695 24.4766C107.539 24.4766 108.328 24.2656 109.062 23.8438C109.797 23.4062 110.414 22.9297 110.914 22.4141L110.891 24.5C110.672 24.7656 110.344 25.0469 109.906 25.3438C109.484 25.625 108.992 25.8594 108.43 26.0469C107.883 26.25 107.305 26.3516 106.695 26.3516C105.508 26.3516 104.453 26.0703 103.531 25.5078C102.609 24.9453 101.883 24.2031 101.352 23.2812C100.836 22.3438 100.578 21.3203 100.578 20.2109C100.578 19.1016 100.82 18.0781 101.305 17.1406C101.789 16.2031 102.453 15.4531 103.297 14.8906C104.156 14.3281 105.133 14.0469 106.227 14.0469ZM106.227 15.9219C105.258 15.9219 104.461 16.25 103.836 16.9062C103.211 17.5469 102.82 18.3281 102.664 19.25H109.719C109.641 18.4844 109.422 17.8594 109.062 17.375C108.719 16.8906 108.297 16.5312 107.797 16.2969C107.297 16.0469 106.773 15.9219 106.227 15.9219ZM120.852 14.2812V16.0859H117.43V26H115.508V16.0859H113.656V14.2812H115.508V12.7812C115.508 11.8594 115.688 11.1094 116.047 10.5312C116.406 9.9375 116.867 9.5 117.43 9.21875C117.992 8.92188 118.562 8.77344 119.141 8.77344C119.938 8.77344 120.586 8.98438 121.086 9.40625V11.0938C120.852 10.9375 120.57 10.8125 120.242 10.7188C119.914 10.625 119.586 10.5859 119.258 10.6016C118.68 10.6172 118.227 10.8047 117.898 11.1641C117.586 11.5078 117.43 12.1172 117.43 12.9922V14.2812H120.852ZM125.281 8.65625C125.734 8.65625 126.109 8.82031 126.406 9.14844C126.719 9.46094 126.875 9.82812 126.875 10.25C126.875 10.6562 126.719 11.0234 126.406 11.3516C126.109 11.6797 125.734 11.8438 125.281 11.8438C124.828 11.8438 124.445 11.6797 124.133 11.3516C123.836 11.0234 123.688 10.6562 123.688 10.25C123.688 9.82812 123.836 9.46094 124.133 9.14844C124.445 8.82031 124.828 8.65625 125.281 8.65625ZM126.477 14.2812V26H124.555V16.0859H122.703V14.2812H126.477ZM133.859 10.9062V14.2812H137.281V16.0859H133.859V22.9531C133.859 23.4375 133.984 23.8203 134.234 24.1016C134.484 24.3828 134.867 24.5234 135.383 24.5234C135.852 24.5234 136.242 24.4688 136.555 24.3594C136.867 24.2344 137.141 24.1016 137.375 23.9609V25.5312C137.062 25.7812 136.727 25.9766 136.367 26.1172C136.023 26.2734 135.555 26.3516 134.961 26.3516C133.961 26.3516 133.203 26.0547 132.688 25.4609C132.188 24.8516 131.938 24.0469 131.938 23.0469V16.0859H129.688V15.5234C130.453 15.1797 131.094 14.6172 131.609 13.8359C132.125 13.0391 132.578 12.0625 132.969 10.9062H133.859ZM144.266 14.0469C144.953 14.0469 145.594 14.1484 146.188 14.3516C146.781 14.5391 147.211 14.7344 147.477 14.9375V17C147.148 16.75 146.703 16.5078 146.141 16.2734C145.578 16.0391 145 15.9219 144.406 15.9219C143.672 15.9219 143.117 16.0938 142.742 16.4375C142.383 16.7812 142.203 17.1406 142.203 17.5156C142.203 17.8125 142.305 18.1172 142.508 18.4297C142.727 18.7266 143.102 18.9688 143.633 19.1562L145.602 19.8594C146.367 20.125 146.938 20.5078 147.312 21.0078C147.688 21.5078 147.875 22.0938 147.875 22.7656C147.875 23.4219 147.688 24.0234 147.312 24.5703C146.953 25.1172 146.445 25.5547 145.789 25.8828C145.148 26.1953 144.406 26.3516 143.562 26.3516C143.109 26.3516 142.633 26.2891 142.133 26.1641C141.648 26.0547 141.211 25.9219 140.82 25.7656C140.43 25.5938 140.141 25.4453 139.953 25.3203V23.2578C140.172 23.4141 140.477 23.5938 140.867 23.7969C141.273 23.9844 141.703 24.1484 142.156 24.2891C142.609 24.4141 143.031 24.4766 143.422 24.4766C144.156 24.4766 144.734 24.3125 145.156 23.9844C145.594 23.6562 145.812 23.25 145.812 22.7656C145.812 22.3906 145.664 22.0938 145.367 21.875C145.086 21.6562 144.672 21.4453 144.125 21.2422L142.391 20.6094C141.484 20.2656 140.883 19.8359 140.586 19.3203C140.289 18.7891 140.141 18.1875 140.141 17.5156C140.141 16.5156 140.516 15.6875 141.266 15.0312C142.016 14.375 143.016 14.0469 144.266 14.0469Z" fill="url(#paint0_linear)"/>
    <path fill-rule="evenodd" clip-rule="evenodd" d="M1.89987 23.5486C1.89987 24.5462 2.09291 25.3176 2.51391 25.8988C2.92577 26.4674 3.64682 26.9789 4.95997 27.2801C6.23962 27.5736 7.72816 27.4331 8.95361 27.1898C9.55543 27.0703 10.0711 26.9307 10.4348 26.8214C10.6163 26.7668 10.759 26.7202 10.8545 26.6878C10.8986 26.6728 10.9326 26.6609 10.9557 26.6527L13 25.6838L13.0257 27.7741L11.6911 28.4066L11.6526 28.4209L11.3213 27.5306C11.6526 28.4209 11.6526 28.4209 11.6526 28.4209L11.6505 28.4217L11.647 28.423L11.636 28.427L11.5987 28.4405C11.567 28.4517 11.522 28.4675 11.4648 28.4869C11.3503 28.5258 11.1864 28.5793 10.9816 28.6409C10.5729 28.7637 9.99719 28.9195 9.32365 29.0533C7.99837 29.3165 6.20007 29.5137 4.53525 29.1319C2.90393 28.7577 1.72615 28.0499 0.97529 27.0133C0.233565 25.9894 0 24.7698 0 23.5486V8.5C0 8.5 0.333823 9.33382 1 10C1.5 10.5 1.89987 11 1.89987 11.1453V23.5486Z" fill="url(#paint1_linear)"/>
    <path fill-rule="evenodd" clip-rule="evenodd" d="M15.5424 1.93067V7.82131C15.2676 7.99149 14.9899 8.16672 14.7092 8.34701C11.7463 10.2503 8.40255 11.0422 5.80639 10.6053C5.30802 10.5213 4.51326 10.3409 3.74753 10.01C2.96451 9.67159 2.33055 9.22688 1.99874 8.68232C1.87937 8.48641 1.8965 8.38824 1.90817 8.34099C1.92828 8.25952 1.99406 8.13791 2.14606 7.98809C2.29385 7.84241 2.47537 7.7174 2.6329 7.6251C2.70894 7.58054 2.77324 7.54718 2.81623 7.52598C2.83758 7.51545 2.85325 7.50813 2.862 7.50412L2.86846 7.5012L15.5424 1.93067ZM2.11443 5.75735L14.8191 0.173265C15.3199 -0.046377 15.9351 -0.0726504 16.4792 0.184188C16.6985 0.287594 16.9479 0.457118 17.1418 0.731453C17.3422 1.01493 17.4422 1.35266 17.4422 1.71645V6.6995C23.1622 3.49767 27.5636 2.71745 31.4149 4.3605C32.2461 4.71507 32.8884 5.18789 33.304 5.77923C33.6977 6.33938 33.8543 6.96006 33.8107 7.57092L33.8106 8.01579C33.8105 8.39806 33.8102 8.94691 33.8097 9.6133C33.8086 10.946 33.8065 12.749 33.8022 14.6298C33.7936 18.3827 33.7765 22.4701 33.7418 23.7289C33.6988 25.2848 32.9441 26.4236 32.2493 27.1443C31.9007 27.506 31.5562 27.7748 31.2974 27.9544C31.1673 28.0447 31.057 28.1137 30.9761 28.1619C30.9355 28.186 30.9022 28.205 30.8772 28.2188C30.8691 28.2233 30.8619 28.2273 30.8556 28.2307C30.8521 28.2326 30.849 28.2343 30.8461 28.2358L30.8354 28.2415L30.8314 28.2436L30.829 28.2449C30.8286 28.2451 30.8283 28.2453 30.3901 27.4024C30.7805 28.2684 30.7804 28.2684 30.7803 28.2685L30.1939 28.5328C29.8197 28.7014 29.2837 28.9428 28.6365 29.2343C27.342 29.8172 25.6024 30.6001 23.8219 31.4C20.2719 32.9952 16.5308 34.6712 15.8639 34.9503C15.3911 35.1483 14.9148 35.2082 14.4628 35.0914C14.0138 34.9755 13.696 34.7129 13.4864 34.4591C13.2818 34.2113 13.1614 33.9508 13.0931 33.7697C13.0576 33.6757 13.0328 33.5939 13.0161 33.5324C13.0077 33.5015 13.0013 33.4751 12.9964 33.4543C12.994 33.4438 12.992 33.4347 12.9904 33.427L12.9882 33.4166L12.9873 33.4122L12.9869 33.4102L12.9867 33.4093C12.9866 33.4088 12.9866 33.4084 13.9186 33.225C12.9687 33.225 12.9687 33.2249 12.9687 33.2248V19.0628C12.9687 17.9174 13.6111 17.1305 14.1451 16.6778C14.4164 16.4479 14.6835 16.2822 14.8814 16.1739C14.9815 16.1192 15.0668 16.0775 15.13 16.0484C15.1617 16.0337 15.1881 16.0222 15.2083 16.0135L15.22 16.0086L17.567 14.9365C18.987 14.2877 20.8851 13.4201 22.7982 12.5448C24.7114 11.6695 26.639 10.7866 28.1181 10.1072C28.8578 9.76749 29.4846 9.47893 29.9411 9.26773C30.1695 9.16207 30.3543 9.07622 30.489 9.01318C30.5564 8.98161 30.6101 8.95631 30.6499 8.93737C30.6943 8.91619 30.7098 8.90842 30.7089 8.90888C31.4354 8.53336 31.8544 7.9387 31.9109 7.4848L31.9109 7.4202L31.9109 7.41832C31.9109 7.4183 31.9109 7.41782 31.9168 7.4178C31.9261 7.23865 31.8812 7.0588 31.7496 6.87166C31.5922 6.64768 31.2757 6.36662 30.6694 6.108C27.1512 4.60703 22.7181 5.46079 15.736 9.94553C12.4769 12.0391 8.65971 13.0122 5.49087 12.4788C4.90212 12.3796 3.94664 12.1657 2.99385 11.754C2.05834 11.3497 1.00535 10.7033 0.376312 9.67088C0.0152676 9.07832 -0.0790775 8.46383 0.0636779 7.88561C0.197985 7.34161 0.518253 6.92494 0.812358 6.63504C1.11067 6.34099 1.4353 6.12483 1.67241 5.9859C1.79368 5.91484 1.89881 5.86007 1.97593 5.82204C2.01463 5.80295 2.04668 5.78789 2.07064 5.77691C2.08264 5.77141 2.09265 5.76692 2.10049 5.76345L2.10929 5.75959L2.11062 5.759L2.11443 5.75735ZM15.6001 16.8794C15.9946 17.7435 15.9947 17.7435 15.9948 17.7434L18.3566 16.6646C19.7767 16.0157 21.6752 15.1479 23.5887 14.2725C27.391 12.5328 31.3154 10.734 31.5812 10.5967C31.692 10.5394 31.8016 10.4771 31.9091 10.4101C31.9079 11.624 31.9058 13.0992 31.9023 14.6255C31.8937 18.3935 31.8765 22.4485 31.8426 23.6765C31.8169 24.6072 31.3707 25.3183 30.8815 25.8258C30.6382 26.0782 30.395 26.2681 30.2141 26.3936C30.1244 26.4559 30.0519 26.5011 30.0049 26.529C29.9888 26.5386 29.9757 26.5461 29.9662 26.5515L29.4134 26.8006C29.0394 26.9692 28.5035 27.2105 27.8564 27.5019C26.5622 28.0847 24.8231 28.8674 23.0433 29.6671C19.4729 31.2713 15.7674 32.9311 15.1303 33.1978C15.0383 33.2364 14.9811 33.2473 14.9519 33.25C14.9517 33.2498 14.9515 33.2496 14.9514 33.2494C14.9243 33.2166 14.8946 33.1625 14.8707 33.0992C14.87 33.0972 14.8693 33.0953 14.8686 33.0934V19.0628C14.8686 18.6919 15.0669 18.3871 15.3736 18.1271C15.5226 18.0008 15.676 17.9048 15.7933 17.8407C15.8509 17.8092 15.8969 17.7868 15.9257 17.7736C15.9399 17.767 15.9497 17.7628 15.9541 17.7609C15.9545 17.7607 15.9549 17.7606 15.9552 17.7604L15.9728 17.7535L15.9948 17.7434L15.6001 16.8794ZM13.9186 33.225L12.9687 33.2248V33.3176L12.9866 33.4084L13.9186 33.225ZM30.3901 27.4024L30.7803 28.2685L30.8047 28.2575L30.8283 28.2453L30.3901 27.4024Z" fill="url(#paint2_linear)"/>
    <defs>
        <linearGradient id="paint0_linear" x1="142.413" y1="31.9999" x2="140.855" y2="-0.738238" gradientUnits="userSpaceOnUse">
            <stop stop-color="#20E2AC"/>
            <stop offset="0.4375" stop-color="#1884F3"/>
            <stop offset="1" stop-color="#542FD7"/>
        </linearGradient>
        <linearGradient id="paint1_linear" x1="11.6537" y1="29.3449" x2="5.36573" y2="7.57597" gradientUnits="userSpaceOnUse">
            <stop stop-color="#20E2AC"/>
            <stop offset="0.4375" stop-color="#1884F3"/>
            <stop offset="1" stop-color="#542FD7"/>
        </linearGradient>
        <linearGradient id="paint2_linear" x1="30.2557" y1="35.1506" x2="23.0477" y2="-3.26866" gradientUnits="userSpaceOnUse">
            <stop stop-color="#20E2AC"/>
            <stop offset="0.4375" stop-color="#1884F3"/>
            <stop offset="1" stop-color="#542FD7"/>
        </linearGradient>
    </defs>
</svg>
